<?xml version="1.0" encoding="utf-8"?>
<!-- Generator: Adobe Illustrator 25.4.1, SVG Export Plug-In . SVG Version: 6.00 Build 0)  -->
<svg version="1.1" id="Layer_1" xmlns="http://www.w3.org/2000/svg" xmlns:xlink="http://www.w3.org/1999/xlink" x="0px" y="0px"
	 viewBox="0 0 385.5 133.5" style="enable-background:new 0 0 385.5 133.5;" xml:space="preserve">
<style type="text/css">
	.st0{fill:#555555;}
	.st1{fill:#FFFFFF;}
	.st2{fill:#CF3952;}
	.st3{display:none;fill:#FFFFFF;enable-background:new    ;}
	.st4{font-family:'ArialMT';}
	.st5{font-size:30px;}
</style>
<g id="Layer_1_00000020389183295955603020000005903644751656523709_">
	<g>
		<g>
			<g>
				<rect x="4" y="33.4" class="st0" width="37.4" height="96.1"/>
				<path class="st1" d="M37.4,37.4v88.1H8V37.4H37.4 M45.4,29.4h-8H8H0v8v88.1v8h8h29.4h8v-8V37.4V29.4L45.4,29.4z"/>
			</g>
			<g>
				<rect x="43.1" y="4" class="st0" width="37.4" height="37.4"/>
				<path class="st1" d="M76.4,8v29.4H47.1V8H76.4 M84.4,0h-8H47.1h-8v8v29.4v8h8h29.4h8v-8V8V0H84.4z"/>
			</g>
			<g>
				<rect x="43.1" y="48" class="st2" width="37.4" height="37.4"/>
				<path class="st1" d="M76.4,52v29.4H47.1V52H76.4 M84.4,44h-8H47.1h-8v8v29.4v8h8h29.4h8v-8V52v-8H84.4z"/>
			</g>
			<g>
				<rect x="82.1" y="33.4" class="st0" width="37.4" height="96.1"/>
				<path class="st1" d="M115.5,37.4v88.1H86.1V37.4H115.5 M123.5,29.4h-8H86.1h-8v8v88.1v8h8h29.4h8v-8V37.4V29.4L123.5,29.4z"/>
			</g>
		</g>
		<g>
			<g>
				<rect x="140.9" y="4" class="st0" width="37.4" height="125.5"/>
				<path class="st1" d="M174.3,8v117.5h-29.4V8H174.3 M182.3,0h-8h-29.4h-8v8v117.5v8h8h29.4h8v-8V8V0L182.3,0z"/>
			</g>
			<g>
				<rect x="179.9" y="4" class="st2" width="37.4" height="81.4"/>
				<path class="st1" d="M213.3,8v73.4h-29.4V8H213.3 M221.3,0h-8h-29.4h-8v8v73.4v8h8h29.4h8v-8V8V0L221.3,0z"/>
			</g>
			<g>
				<rect x="219" y="4" class="st0" width="37.4" height="125.5"/>
				<path class="st1" d="M252.4,8v117.5H223V8H252.4 M260.4,0h-8H223h-8v8v117.5v8h8h29.4h8v-8V8V0L260.4,0z"/>
			</g>
		</g>
		<g>
			<g>
				<rect x="277.8" y="4" class="st0" width="37.4" height="125.5"/>
				<path class="st1" d="M311.1,8v117.5h-29.4V8H311.1 M319.1,0h-8h-29.4h-8v8v117.5v8h8h29.4h8v-8V8V0L319.1,0z"/>
			</g>
			<g>
				<rect x="316.8" y="92.1" class="st2" width="64.6" height="37.4"/>
				<path class="st1" d="M377.5,96.1v29.4h-56.6V96.1H377.5 M385.5,88.1h-8h-56.6h-8v8v29.4v8h8h56.6h8v-8V96.1V88.1L385.5,88.1z"/>
			</g>
		</g>
	</g>
	<text transform="matrix(1 0 0 1 324.9875 118.311)" class="st3 st4 st5">Team</text>
</g>
</svg>
