<?xml version="1.0" encoding="UTF-8"?>
<svg id="Layer_1" xmlns="http://www.w3.org/2000/svg" version="1.1" xmlns:inkscape="http://www.inkscape.org/namespaces/inkscape" xmlns:xlink="http://www.w3.org/1999/xlink" viewBox="0 0 308.99 146.29">
  <!-- Generator: Adobe Illustrator 29.6.1, SVG Export Plug-In . SVG Version: 2.1.1 Build 9)  -->
  <defs>
    <style>
      .st0 {
        clip-path: url(#clippath-6);
      }

      .st1 {
        clip-path: url(#clippath-7);
      }

      .st2 {
        stroke-dasharray: 3.83 1.92;
      }

      .st2, .st3, .st4, .st5, .st6, .st7, .st8, .st9, .st10, .st11, .st12 {
        fill: none;
      }

      .st2, .st3, .st5, .st6, .st7, .st8, .st9, .st10, .st11, .st12 {
        stroke-miterlimit: 10;
      }

      .st2, .st5, .st11 {
        stroke: #a990cf;
        stroke-width: .75px;
      }

      .st13 {
        clip-path: url(#clippath-4);
      }

      .st14 {
        fill: #e5f6e6;
      }

      .st3 {
        stroke-dasharray: 4.01 2;
      }

      .st3, .st6, .st8 {
        stroke: #e886ae;
        stroke-width: .75px;
      }

      .st15 {
        fill: #a41737;
      }

      .st7 {
        stroke: #7fd079;
      }

      .st16 {
        clip-path: url(#clippath-1);
      }

      .st8 {
        stroke-dasharray: 4.17 2.09;
      }

      .st17 {
        fill: #4e369b;
      }

      .st9 {
        stroke: #c9c8c8;
      }

      .st9, .st10 {
        stroke-width: .75px;
      }

      .st18 {
        fill: #231f20;
      }

      .st19 {
        clip-path: url(#clippath-5);
      }

      .st20 {
        clip-path: url(#clippath-3);
      }

      .st10 {
        stroke: #a8a8a6;
      }

      .st11 {
        stroke-dasharray: 3.98 1.99;
      }

      .st21 {
        fill: #100e0d;
      }

      .st22 {
        fill: #a8a8a6;
      }

      .st23 {
        fill: #f0dbf0;
      }

      .st24 {
        clip-path: url(#clippath-2);
      }

      .st25 {
        fill: #e6f7f6;
      }

      .st26 {
        clip-path: url(#clippath);
      }

      .st12 {
        stroke: #83d6e3;
      }
    </style>
    <clipPath id="clippath">
      <rect class="st4" x="306.01" y="88.15" width="2.99" height="3.79"/>
    </clipPath>
    <clipPath id="clippath-1">
      <rect class="st4" y="0" width="309" height="147"/>
    </clipPath>
    <clipPath id="clippath-2">
      <rect class="st4" x="308.01" y="37.9" width=".99" height="50.25"/>
    </clipPath>
    <clipPath id="clippath-3">
      <rect class="st4" y="0" width="309" height="147"/>
    </clipPath>
    <clipPath id="clippath-4">
      <rect class="st4" x="306.01" y="35.05" width="2.99" height="3.79"/>
    </clipPath>
    <clipPath id="clippath-5">
      <rect class="st4" y="0" width="309" height="147"/>
    </clipPath>
    <clipPath id="clippath-6">
      <rect class="st4" x="265" y="29.34" width="1.86" height="4"/>
    </clipPath>
    <clipPath id="clippath-7">
      <rect class="st4" y="0" width="309" height="147"/>
    </clipPath>
  </defs>
  <path class="st14" d="M74.59,52.25h42.52v22.68h-42.52v-22.68Z"/>
  <path class="st7" d="M74.59,52.25h42.52v22.68h-42.52v-22.68Z"/>
  <path class="st18" d="M92.45,66.31l-.44-5.92c-.02-.09-.09-.15-.2-.17-.12-.02-.26-.03-.42-.03-.06,0-.09-.04-.09-.13.02-.07.04-.12.05-.16,0-.03.05-.05.11-.05h2.2c.06,0,.09.04.09.12-.02.14-.06.2-.11.2-.5,0-.77.09-.8.26l.33,4.69,2.33-4.05-.05-.7c-.02-.09-.09-.15-.2-.17-.12-.02-.26-.03-.44-.03-.06,0-.09-.04-.09-.13.02-.07.03-.12.05-.16.02-.03.05-.05.11-.05h2.22c.06,0,.09.04.09.12-.01.02-.02.05-.03.08,0,.03-.01.06-.03.09-.01.02-.03.03-.06.03-.5,0-.76.09-.8.26v.06l.34,4.62,2.52-4.41c.04-.07.06-.14.06-.2,0-.12-.06-.21-.19-.26-.12-.05-.27-.08-.42-.08-.06,0-.09-.04-.09-.13,0-.04.02-.08.03-.11,0-.03.02-.05.05-.06.02-.02.05-.03.08-.03h1.78c.05,0,.08.04.08.12,0,.02,0,.06-.02.09-.01.03-.03.06-.05.08-.01.02-.03.03-.05.03-.44,0-.77.2-1,.61-.02.01-.03.01-.03.01l-3.14,5.5c-.03.06-.09.09-.16.09h-.08c-.07,0-.11-.03-.11-.09l-.36-4.78-2.72,4.78c-.04.06-.09.09-.16.09h-.08c-.07,0-.11-.03-.11-.09Z"/>
  <path class="st21" d="M102.51,61.43v-2.91h-1.62c-.09-.02-.15-.07-.16-.16v-.06c0-.08.06-.13.16-.14h3.73s.07.03.09.06c.03.02.05.05.05.08v.06c-.01.09-.06.14-.14.16h-1.62v2.91s-.02.08-.05.11c-.02.03-.05.05-.09.05h-.2c-.09,0-.13-.06-.14-.16Z"/>
  <path class="st25" d="M250.55,42.27h56.69v42.52h-56.69v-42.52Z"/>
  <path class="st12" d="M250.55,42.27h56.69v42.52h-56.69v-42.52Z"/>
  <path class="st18" d="M274.87,69.31c-.06,0-.09-.04-.09-.12,0,0,.02-.04.03-.08,0-.04.02-.07.03-.09.02-.02.05-.03.08-.03.56,0,1.04-.21,1.44-.62,0,0,.02-.02.02-.02h.02l2.03-2.19-1.11-2.67c-.06-.08-.17-.13-.31-.16-.14-.02-.3-.03-.48-.03-.06,0-.09-.04-.09-.12.02-.07.04-.12.05-.16,0-.03.05-.05.11-.05h2.31c.06,0,.09.04.09.12,0,.02,0,.06-.02.09-.01.03-.03.06-.05.08-.01.02-.03.03-.06.03-.12,0-.23.02-.36.06-.12.03-.21.09-.25.17l.8,1.92,1.52-1.62s.03-.05.06-.11c.03-.05.05-.1.05-.16,0-.08-.04-.14-.12-.19-.07-.05-.16-.08-.27-.08-.07,0-.11-.04-.11-.12.03-.07.05-.12.06-.16,0-.03.05-.05.11-.05h2s.05.01.06.05c.02.02.03.05.03.08,0,.02,0,.05-.02.08-.01.03-.03.06-.05.09-.01.02-.03.03-.06.03-.28,0-.54.06-.78.16-.24.11-.46.26-.66.47-.01.01-.02.02-.03.02v.02l-1.69,1.81,1.27,3.03c.1.12.38.19.81.19.06,0,.09.04.09.12-.02.09-.04.14-.06.17-.01.02-.04.03-.09.03h-2.31c-.06,0-.09-.04-.09-.12,0,0,0-.04.02-.08,0-.04.02-.07.03-.09.02-.02.04-.03.06-.03.12,0,.25-.02.38-.05.12-.04.21-.1.25-.19l-.95-2.31-1.88,2.01s-.03.07-.06.12c-.03.04-.05.09-.05.14,0,.09.04.16.12.2.08.04.17.06.27.06.06,0,.09.04.09.12-.02.09-.04.14-.05.17-.01.02-.05.03-.11.03h-2.02Z"/>
  <path class="st18" d="M262.64,60.02v-.22c.41,0,.61-.06.61-.19v-3.3c0-.12-.2-.19-.61-.19v-.2h2.2c.28,0,.53.06.75.17.23.12.42.27.58.47.16.2.29.42.38.67.09.25.14.51.14.77s-.05.51-.14.75c-.09.24-.21.46-.38.66-.17.19-.37.34-.59.45-.22.11-.46.16-.73.16h-2.2ZM263.8,59.61c0,.09.02.15.06.17.05.01.13.02.23.02h.59c.21,0,.41-.04.59-.12.19-.09.34-.22.45-.38.12-.16.21-.35.25-.56.05-.21.08-.45.08-.73s-.03-.55-.08-.77c-.04-.22-.12-.41-.25-.58-.12-.16-.27-.3-.45-.39-.19-.09-.39-.14-.59-.14h-.59c-.07,0-.13,0-.17.02-.03,0-.06.01-.09.05-.02.03-.03.07-.03.12v3.3Z"/>
  <path class="st18" d="M267.25,59.43c0-.24.09-.43.28-.58.19-.15.41-.25.67-.31.27-.06.52-.09.77-.09v-.25c0-.11-.03-.22-.08-.33-.05-.11-.13-.2-.23-.26-.09-.07-.2-.11-.31-.11-.26,0-.46.06-.59.17.07,0,.13.03.17.09.05.05.08.12.08.2,0,.07-.03.14-.08.2-.05.06-.12.08-.2.08s-.16-.02-.22-.08c-.05-.06-.08-.13-.08-.2,0-.21.09-.36.28-.47.2-.1.41-.16.64-.16.16,0,.33.04.48.11.16.06.3.16.41.3.1.12.16.27.16.44v1.36c0,.07.02.15.05.22.04.06.1.09.17.09.06,0,.11-.03.14-.09.03-.07.05-.15.05-.22v-.39h.17v.39c0,.09-.03.17-.08.25-.04.09-.11.15-.19.2-.07.04-.16.06-.25.06-.12,0-.21-.04-.3-.12-.09-.09-.13-.2-.14-.33-.07.15-.18.26-.33.36-.15.08-.3.12-.47.12-.15,0-.3-.02-.45-.06-.15-.04-.27-.11-.38-.2-.09-.1-.14-.23-.14-.39ZM267.75,59.43c0,.15.05.27.14.36.1.09.23.14.38.14.12,0,.24-.03.34-.09.11-.06.2-.15.27-.27.06-.11.09-.23.09-.34v-.62c-.19,0-.38.03-.56.09-.19.05-.34.14-.47.27-.13.12-.19.28-.19.47Z"/>
  <path class="st18" d="M270.62,59.3v-1.66h-.5v-.16c.26,0,.45-.12.58-.36.12-.25.19-.52.19-.8h.17v1.09h.84v.22h-.84v1.64c0,.17.02.31.08.44.06.12.16.19.31.19.13,0,.23-.06.28-.19.06-.13.09-.28.09-.44v-.36h.19v.38c0,.12-.03.25-.08.38-.04.12-.11.22-.2.3-.09.07-.2.11-.33.11-.24,0-.43-.07-.58-.2-.14-.15-.2-.34-.2-.58Z"/>
  <path class="st18" d="M272.58,59.43c0-.24.09-.43.28-.58.19-.15.41-.25.67-.31.27-.06.52-.09.77-.09v-.25c0-.11-.03-.22-.08-.33-.05-.11-.13-.2-.23-.26-.09-.07-.2-.11-.31-.11-.26,0-.46.06-.59.17.07,0,.13.03.17.09.05.05.08.12.08.2,0,.07-.03.14-.08.2-.05.06-.12.08-.2.08s-.16-.02-.22-.08c-.05-.06-.08-.13-.08-.2,0-.21.09-.36.28-.47.2-.1.41-.16.64-.16.16,0,.33.04.48.11.16.06.3.16.41.3.1.12.16.27.16.44v1.36c0,.07.02.15.05.22.04.06.1.09.17.09.06,0,.11-.03.14-.09.03-.07.05-.15.05-.22v-.39h.17v.39c0,.09-.03.17-.08.25-.04.09-.11.15-.19.2-.07.04-.16.06-.25.06-.12,0-.21-.04-.3-.12-.09-.09-.13-.2-.14-.33-.07.15-.18.26-.33.36-.15.08-.3.12-.47.12-.15,0-.3-.02-.45-.06-.15-.04-.27-.11-.38-.2-.09-.1-.14-.23-.14-.39ZM273.08,59.43c0,.15.05.27.14.36.1.09.23.14.38.14.12,0,.24-.03.34-.09.11-.06.2-.15.27-.27.06-.11.09-.23.09-.34v-.62c-.19,0-.38.03-.56.09-.19.05-.34.14-.47.27s-.19.28-.19.47Z"/>
  <path class="st18" d="M277.56,60.02v-.22c.41,0,.61-.11.61-.34v-3.14c0-.12-.2-.19-.61-.19v-.2h1.12c.05,0,.08.02.09.06l1.31,3.39,1.31-3.39s.04-.06.09-.06h1.12v.2c-.41,0-.61.06-.61.19v3.3c0,.12.2.19.61.19v.22h-1.73v-.22c.41,0,.61-.06.61-.19v-3.48l-1.47,3.83s-.06.06-.11.06c-.05,0-.09-.02-.09-.06l-1.47-3.78v3.28c0,.23.21.34.62.34v.22h-1.42Z"/>
  <path class="st18" d="M283.07,59.43c0-.24.09-.43.28-.58.19-.15.41-.25.67-.31.27-.06.52-.09.77-.09v-.25c0-.11-.03-.22-.08-.33-.05-.11-.13-.2-.23-.26-.09-.07-.2-.11-.31-.11-.26,0-.46.06-.59.17.07,0,.13.03.17.09.05.05.08.12.08.2,0,.07-.03.14-.08.2-.05.06-.12.08-.2.08s-.16-.02-.22-.08c-.05-.06-.08-.13-.08-.2,0-.21.09-.36.28-.47.2-.1.41-.16.64-.16.16,0,.33.04.48.11.16.06.3.16.41.3.1.12.16.27.16.44v1.36c0,.07.02.15.05.22.04.06.1.09.17.09.06,0,.11-.03.14-.09.03-.07.05-.15.05-.22v-.39h.17v.39c0,.09-.03.17-.08.25-.04.09-.11.15-.19.2-.07.04-.16.06-.25.06-.12,0-.21-.04-.3-.12-.09-.09-.13-.2-.14-.33-.07.15-.18.26-.33.36-.15.08-.3.12-.47.12-.15,0-.3-.02-.45-.06-.15-.04-.27-.11-.38-.2-.09-.1-.14-.23-.14-.39ZM283.57,59.43c0,.15.05.27.14.36.1.09.23.14.38.14.12,0,.24-.03.34-.09.11-.06.2-.15.27-.27.06-.11.09-.23.09-.34v-.62c-.19,0-.38.03-.56.09-.19.05-.34.14-.47.27s-.19.28-.19.47Z"/>
  <path class="st18" d="M286.45,59.3v-1.66h-.5v-.16c.26,0,.45-.12.58-.36.12-.25.19-.52.19-.8h.17v1.09h.84v.22h-.84v1.64c0,.17.02.31.08.44.06.12.16.19.31.19.13,0,.23-.06.28-.19.06-.13.09-.28.09-.44v-.36h.19v.38c0,.12-.03.25-.08.38-.04.12-.11.22-.2.3-.09.07-.2.11-.33.11-.24,0-.43-.07-.58-.2-.14-.15-.2-.34-.2-.58Z"/>
  <path class="st18" d="M288.32,60.02v-.22c.13,0,.24,0,.33-.03.09-.02.14-.07.14-.16v-1.64c0-.1-.02-.18-.05-.22-.03-.05-.08-.08-.14-.09-.06,0-.16-.01-.28-.01v-.22l.86-.06v.59c.06-.18.15-.32.27-.42.12-.11.27-.17.44-.17.12,0,.23.04.33.11.09.07.14.17.14.28,0,.07-.03.14-.08.19-.05.05-.12.08-.2.08-.07,0-.14-.02-.19-.08-.05-.05-.08-.11-.08-.19,0-.1.04-.18.12-.23h-.05c-.16,0-.29.06-.39.19-.11.12-.18.26-.22.44-.04.17-.06.33-.06.48v.98c0,.12.19.19.58.19v.22h-1.47Z"/>
  <path class="st18" d="M290.7,60.02v-.22c.13,0,.24,0,.33-.03.09-.02.14-.07.14-.16v-1.64c0-.15-.03-.24-.09-.27-.06-.04-.18-.06-.34-.06v-.22l.86-.06v2.25c0,.09.04.14.11.16.07.02.18.03.31.03v.22h-1.31ZM290.95,56.33c0-.08.03-.16.09-.22.07-.07.15-.11.23-.11.06,0,.12.02.17.05.05.03.09.07.11.12.03.05.05.1.05.16,0,.09-.03.17-.09.23-.06.06-.14.09-.23.09-.09,0-.16-.03-.23-.09-.06-.06-.09-.14-.09-.23Z"/>
  <path class="st18" d="M292.25,60.02v-.22c.14,0,.29-.02.42-.08.13-.06.25-.15.34-.27l.55-.7-.7-.92c-.07-.08-.15-.13-.23-.16-.09-.02-.2-.03-.34-.03v-.22h1.23v.22c-.05,0-.1.01-.14.03-.04.02-.06.06-.06.11,0,.01,0,.03.02.05l.47.62.38-.45c.04-.06.06-.12.06-.19,0-.04-.02-.08-.05-.11-.03-.04-.07-.06-.13-.06v-.22h1.11v.22c-.16,0-.3.03-.44.09-.14.06-.25.14-.34.27l-.48.59.78,1.01c.07.09.15.15.23.17.08.01.2.02.34.02v.22h-1.25v-.22c.05,0,.1,0,.14-.03.05-.02.08-.05.08-.09,0-.02,0-.04-.02-.06l-.55-.7-.44.55c-.04.06-.06.11-.06.17,0,.05.02.09.05.12.04.03.08.05.12.05v.22h-1.09Z"/>
  <path class="st25" d="M3.27,42.27h56.69v42.52H3.27v-42.52Z"/>
  <path class="st12" d="M3.27,42.27h56.69v42.52H3.27v-42.52Z"/>
  <path class="st18" d="M27.56,69.31c-.06,0-.09-.04-.09-.12,0,0,.02-.04.03-.08,0-.04.02-.07.03-.09.02-.02.05-.03.08-.03.56,0,1.04-.21,1.44-.62,0,0,.02-.02.02-.02h.01l2.03-2.19-1.11-2.67c-.06-.08-.17-.13-.31-.16-.14-.02-.3-.03-.49-.03-.06,0-.09-.04-.09-.12.02-.07.03-.12.05-.16,0-.03.05-.05.11-.05h2.31c.06,0,.09.04.09.12,0,.02,0,.06-.02.09-.01.03-.03.06-.05.08-.01.02-.03.03-.06.03-.12,0-.23.02-.36.06-.12.03-.21.09-.25.17l.8,1.92,1.52-1.62s.03-.05.06-.11c.03-.05.05-.1.05-.16,0-.08-.04-.14-.12-.19-.08-.05-.17-.08-.27-.08-.07,0-.11-.04-.11-.12.03-.07.05-.12.06-.16,0-.03.05-.05.11-.05h2s.05.01.06.05c.02.02.03.05.03.08,0,.02,0,.05-.01.08-.01.03-.03.06-.05.09-.01.02-.03.03-.06.03-.28,0-.54.06-.78.16-.24.11-.46.26-.66.47-.01.01-.02.02-.03.02v.02l-1.69,1.81,1.27,3.03c.1.12.38.19.81.19.06,0,.09.04.09.12-.02.09-.04.14-.06.17-.01.02-.04.03-.09.03h-2.31c-.06,0-.09-.04-.09-.12,0,0,0-.04.02-.08,0-.04.02-.07.03-.09.02-.02.04-.03.06-.03.12,0,.25-.02.38-.05.12-.04.21-.1.25-.19l-.95-2.31-1.88,2.01s-.03.07-.06.12c-.03.04-.05.09-.05.14,0,.09.04.16.12.2.08.04.17.06.27.06.06,0,.09.04.09.12-.02.09-.04.14-.05.17-.01.02-.05.03-.11.03h-2.01Z"/>
  <path class="st18" d="M15.35,60.02v-.22c.41,0,.61-.06.61-.19v-3.3c0-.12-.2-.19-.61-.19v-.2h2.2c.28,0,.53.06.75.17.23.12.42.27.58.47.16.2.29.42.38.67.09.25.14.51.14.77s-.05.51-.14.75c-.09.24-.21.46-.38.66-.17.19-.37.34-.59.45-.22.11-.47.16-.73.16h-2.2ZM16.51,59.61c0,.09.02.15.06.17.05.01.13.02.24.02h.59c.21,0,.41-.04.59-.12.19-.09.34-.22.45-.38.12-.16.21-.35.25-.56.05-.21.08-.45.08-.73s-.03-.55-.08-.77c-.04-.22-.12-.41-.25-.58-.12-.16-.26-.3-.45-.39-.19-.09-.39-.14-.59-.14h-.59c-.08,0-.13,0-.17.02-.03,0-.06.01-.09.05-.02.03-.03.07-.03.12v3.3Z"/>
  <path class="st18" d="M19.96,59.43c0-.24.09-.43.28-.58.19-.15.41-.25.67-.31.27-.06.52-.09.77-.09v-.25c0-.11-.03-.22-.08-.33-.05-.11-.13-.2-.23-.26-.09-.07-.2-.11-.31-.11-.26,0-.46.06-.59.17.07,0,.13.03.17.09.05.05.08.12.08.2,0,.07-.03.14-.08.2-.06.06-.12.08-.2.08s-.16-.02-.22-.08c-.06-.06-.08-.13-.08-.2,0-.21.09-.36.28-.47.19-.1.41-.16.64-.16.16,0,.33.04.48.11.16.06.3.16.41.3.1.12.16.27.16.44v1.36c0,.07.02.15.05.22.04.06.1.09.17.09.06,0,.11-.03.14-.09.03-.07.05-.15.05-.22v-.39h.17v.39c0,.09-.03.17-.08.25-.04.09-.11.15-.19.2-.07.04-.16.06-.25.06-.12,0-.22-.04-.3-.12-.09-.09-.13-.2-.14-.33-.07.15-.18.26-.33.36-.15.08-.3.12-.47.12-.15,0-.3-.02-.45-.06-.15-.04-.27-.11-.38-.2-.09-.1-.14-.23-.14-.39ZM20.46,59.43c0,.15.05.27.14.36.1.09.23.14.38.14.12,0,.24-.03.34-.09.11-.06.2-.15.27-.27.06-.11.09-.23.09-.34v-.62c-.19,0-.38.03-.56.09-.19.05-.34.14-.47.27s-.19.28-.19.47Z"/>
  <path class="st18" d="M23.34,59.3v-1.66h-.5v-.16c.26,0,.45-.12.58-.36.12-.25.19-.52.19-.8h.17v1.09h.84v.22h-.84v1.64c0,.17.02.31.08.44.06.12.16.19.31.19.13,0,.23-.06.28-.19.06-.13.09-.28.09-.44v-.36h.19v.38c0,.12-.03.25-.08.38-.04.12-.11.22-.2.3-.09.07-.2.11-.33.11-.24,0-.43-.07-.58-.2-.14-.15-.2-.34-.2-.58Z"/>
  <path class="st18" d="M25.29,59.43c0-.24.09-.43.28-.58.19-.15.41-.25.67-.31.27-.06.52-.09.77-.09v-.25c0-.11-.03-.22-.08-.33-.06-.11-.13-.2-.24-.26-.09-.07-.2-.11-.31-.11-.26,0-.46.06-.59.17.07,0,.13.03.17.09.05.05.08.12.08.2,0,.07-.03.14-.08.2-.06.06-.12.08-.2.08s-.16-.02-.22-.08c-.06-.06-.08-.13-.08-.2,0-.21.09-.36.28-.47.2-.1.41-.16.64-.16.16,0,.33.04.48.11.16.06.3.16.41.3.1.12.16.27.16.44v1.36c0,.07.01.15.05.22.04.06.1.09.17.09.06,0,.11-.03.14-.09.03-.07.05-.15.05-.22v-.39h.17v.39c0,.09-.03.17-.08.25-.04.09-.11.15-.19.2-.07.04-.16.06-.25.06-.12,0-.22-.04-.3-.12-.09-.09-.13-.2-.14-.33-.08.15-.18.26-.33.36-.15.08-.3.12-.47.12-.15,0-.3-.02-.45-.06-.15-.04-.27-.11-.38-.2-.09-.1-.14-.23-.14-.39ZM25.79,59.43c0,.15.05.27.14.36.1.09.23.14.38.14.12,0,.24-.03.34-.09.11-.06.2-.15.27-.27.06-.11.09-.23.09-.34v-.62c-.19,0-.38.03-.56.09-.19.05-.34.14-.47.27s-.19.28-.19.47Z"/>
  <path class="st18" d="M30.27,60.02v-.22c.41,0,.61-.11.61-.34v-3.14c0-.12-.2-.19-.61-.19v-.2h1.12s.08.02.09.06l1.31,3.39,1.31-3.39s.04-.06.09-.06h1.12v.2c-.41,0-.61.06-.61.19v3.3c0,.12.2.19.61.19v.22h-1.73v-.22c.41,0,.61-.06.61-.19v-3.48l-1.47,3.83s-.06.06-.11.06c-.06,0-.09-.02-.09-.06l-1.47-3.78v3.28c0,.23.21.34.62.34v.22h-1.42Z"/>
  <path class="st18" d="M35.78,59.43c0-.24.09-.43.28-.58.19-.15.41-.25.67-.31.27-.06.52-.09.77-.09v-.25c0-.11-.03-.22-.08-.33-.06-.11-.13-.2-.23-.26-.09-.07-.2-.11-.31-.11-.26,0-.46.06-.59.17.07,0,.13.03.17.09.05.05.08.12.08.2,0,.07-.03.14-.08.2-.06.06-.12.08-.2.08s-.16-.02-.22-.08c-.05-.06-.08-.13-.08-.2,0-.21.09-.36.28-.47.2-.1.41-.16.64-.16.16,0,.33.04.48.11.16.06.3.16.41.3.1.12.16.27.16.44v1.36c0,.07.02.15.05.22.04.06.1.09.17.09.06,0,.11-.03.14-.09.03-.07.05-.15.05-.22v-.39h.17v.39c0,.09-.03.17-.08.25-.04.09-.11.15-.19.2-.07.04-.16.06-.25.06-.12,0-.21-.04-.3-.12-.09-.09-.13-.2-.14-.33-.07.15-.18.26-.33.36-.15.08-.31.12-.47.12-.15,0-.3-.02-.45-.06-.15-.04-.27-.11-.38-.2-.09-.1-.14-.23-.14-.39ZM36.28,59.43c0,.15.05.27.14.36.1.09.23.14.38.14.12,0,.24-.03.34-.09.11-.06.2-.15.26-.27.06-.11.09-.23.09-.34v-.62c-.19,0-.38.03-.56.09-.19.05-.34.14-.47.27s-.19.28-.19.47Z"/>
  <path class="st18" d="M39.16,59.3v-1.66h-.5v-.16c.26,0,.45-.12.58-.36.12-.25.19-.52.19-.8h.17v1.09h.84v.22h-.84v1.64c0,.17.02.31.08.44.06.12.16.19.31.19.13,0,.23-.06.28-.19.06-.13.09-.28.09-.44v-.36h.19v.38c0,.12-.03.25-.08.38-.04.12-.11.22-.2.3-.09.07-.2.11-.33.11-.24,0-.43-.07-.58-.2-.14-.15-.2-.34-.2-.58Z"/>
  <path class="st18" d="M41.03,60.02v-.22c.13,0,.24,0,.33-.03.09-.02.14-.07.14-.16v-1.64c0-.1-.02-.18-.05-.22-.03-.05-.08-.08-.14-.09-.06,0-.16-.01-.28-.01v-.22l.86-.06v.59c.06-.18.15-.32.26-.42.12-.11.27-.17.44-.17.12,0,.23.04.33.11.09.07.14.17.14.28,0,.07-.03.14-.08.19-.05.05-.12.08-.2.08-.07,0-.14-.02-.19-.08-.06-.05-.08-.11-.08-.19,0-.1.04-.18.12-.23h-.05c-.16,0-.29.06-.39.19-.1.12-.18.26-.22.44-.04.17-.06.33-.06.48v.98c0,.12.19.19.58.19v.22h-1.47Z"/>
  <path class="st18" d="M43.41,60.02v-.22c.13,0,.24,0,.33-.03.09-.02.14-.07.14-.16v-1.64c0-.15-.03-.24-.09-.27-.06-.04-.18-.06-.34-.06v-.22l.86-.06v2.25c0,.09.03.14.11.16.07.02.18.03.31.03v.22h-1.31ZM43.66,56.33c0-.08.03-.16.09-.22.07-.07.15-.11.23-.11.06,0,.12.02.17.05.05.03.09.07.11.12.03.05.05.1.05.16,0,.09-.03.17-.09.23s-.14.09-.24.09c-.09,0-.16-.03-.23-.09-.06-.06-.09-.14-.09-.23Z"/>
  <path class="st18" d="M44.96,60.02v-.22c.14,0,.28-.02.42-.08.13-.06.25-.15.34-.27l.55-.7-.7-.92c-.07-.08-.15-.13-.23-.16-.09-.02-.2-.03-.34-.03v-.22h1.24v.22c-.06,0-.1.01-.14.03-.04.02-.06.06-.06.11,0,.01,0,.03.02.05l.47.62.38-.45c.04-.06.06-.12.06-.19,0-.04-.01-.08-.05-.11-.03-.04-.07-.06-.12-.06v-.22h1.11v.22c-.16,0-.31.03-.44.09-.14.06-.25.14-.34.27l-.49.59.78,1.01c.07.09.15.15.24.17.08.01.19.02.34.02v.22h-1.25v-.22s.1,0,.14-.03c.05-.02.08-.05.08-.09,0-.02,0-.04-.01-.06l-.55-.7-.44.55c-.04.06-.06.11-.06.17,0,.05.01.09.05.12.04.03.08.05.12.05v.22h-1.09Z"/>
  <path class="st23" d="M132.14,51.96h56.69v22.68h-56.69v-22.68Z"/>
  <path class="st9" d="M132.14,51.96h56.69v22.68h-56.69v-22.68Z"/>
  <path class="st18" d="M156.59,69.96c-.06,0-.09-.04-.09-.12,0,0,0-.03.02-.08,0-.04.02-.07.03-.09.02-.02.05-.03.08-.03.38,0,.63-.02.78-.06.08-.03.14-.11.17-.25l1.28-5.09c0-.06.02-.1.02-.12,0-.07-.04-.11-.12-.13-.12-.02-.34-.03-.66-.03-.06,0-.09-.04-.09-.12.02-.07.04-.12.05-.16,0-.03.05-.05.11-.05h2.5c.06,0,.09.04.09.12-.01.02-.02.05-.03.08,0,.03-.01.06-.03.09-.01.02-.03.03-.06.03-.38,0-.64.02-.8.06-.07.03-.13.12-.17.25l-.56,2.23h2.8l.56-2.27c0-.06.02-.1.02-.12,0-.07-.04-.11-.11-.13-.12-.02-.35-.03-.67-.03-.06,0-.09-.04-.09-.12.02-.07.04-.12.05-.16,0-.03.05-.05.11-.05h2.5c.06,0,.09.04.09.12-.01.02-.02.06-.03.09-.01.03-.03.06-.05.08-.01.02-.03.03-.05.03-.38,0-.64.02-.78.06-.09.03-.15.12-.19.25l-1.27,5.09c-.01.06-.01.11-.01.14,0,.06.04.1.11.11.11.02.34.03.67.03.06,0,.09.04.09.12-.02.07-.04.12-.06.16-.02.03-.05.05-.09.05h-2.5c-.06,0-.09-.04-.09-.12,0-.04.01-.07.01-.09,0-.02.02-.04.03-.06.02-.03.05-.05.08-.05.38,0,.63-.02.78-.06.08-.03.14-.11.17-.25l.62-2.5h-2.78l-.62,2.53c-.01.09-.02.13-.02.14,0,.06.04.1.11.11.11.02.34.03.67.03.05,0,.08.04.08.12-.02.09-.04.14-.05.17-.01.02-.05.03-.11.03h-2.48Z"/>
  <path class="st18" d="M142.35,59.91c.13.18.3.32.5.42.21.09.42.14.64.14.19,0,.36-.03.52-.11.16-.07.29-.17.41-.3.12-.13.22-.29.28-.45.06-.16.09-.34.09-.53,0-.03.02-.05.06-.05h.06s.05.02.05.06c0,.21-.04.41-.12.61-.07.19-.18.36-.33.52-.15.15-.32.26-.52.33-.19.08-.39.12-.59.12-.28,0-.56-.06-.81-.17-.25-.11-.48-.27-.67-.47-.19-.21-.34-.44-.44-.7-.11-.27-.16-.55-.16-.83s.05-.57.16-.83c.1-.27.25-.5.44-.7.19-.21.42-.37.67-.49.26-.11.53-.17.81-.17.21,0,.41.05.59.14.19.09.35.21.5.38l.34-.5s.04-.02.05-.02h.03s.03,0,.03.02c0,.01.02.02.02.03v1.62s-.02.05-.05.05h-.11s-.05-.01-.05-.05c0-.11-.03-.24-.08-.38-.04-.14-.1-.28-.17-.41-.07-.13-.16-.25-.25-.34-.22-.22-.48-.33-.77-.33-.22,0-.43.06-.64.16-.2.09-.37.23-.5.41-.15.19-.25.4-.31.64-.06.24-.08.5-.08.77s.02.53.08.77c.06.24.16.45.31.64Z"/>
  <path class="st18" d="M145.49,60.55v-.22c.13,0,.24,0,.33-.03.09-.02.14-.07.14-.16v-3.14c0-.11-.02-.19-.05-.23-.03-.05-.08-.08-.14-.09-.06,0-.16-.02-.28-.02v-.2l.89-.06v3.75c0,.08.04.14.12.16.09.02.21.03.34.03v.22h-1.36Z"/>
  <path class="st18" d="M147.61,59.83v-1.33c0-.1-.01-.18-.05-.22-.03-.05-.08-.08-.14-.09-.05,0-.15-.02-.28-.02v-.22l.92-.06v1.94c0,.16,0,.28.03.38.02.09.07.15.14.19.07.04.19.06.34.06.22,0,.39-.09.52-.27.12-.18.19-.38.19-.61v-1.08c0-.1-.01-.18-.05-.22-.03-.05-.08-.08-.14-.09-.05,0-.15-.02-.28-.02v-.22l.91-.06v2.11c0,.1.01.18.05.23.03.04.08.07.14.08.06.01.16.02.28.02v.22l-.89.06v-.5c-.07.15-.18.27-.31.36-.12.09-.27.14-.44.14-.28,0-.51-.06-.69-.17-.17-.12-.25-.33-.25-.61Z"/>
  <path class="st18" d="M150.5,60.57v-.98s.02-.05.05-.05h.08s.04.02.05.05c.11.59.38.88.81.88.19,0,.34-.04.47-.12.12-.08.19-.22.19-.41,0-.12-.06-.23-.16-.31-.09-.09-.21-.16-.34-.2l-.41-.08c-.14-.02-.26-.06-.38-.12-.1-.06-.19-.14-.26-.23-.06-.1-.09-.22-.09-.36,0-.17.05-.32.14-.44.09-.11.21-.19.36-.23.15-.05.3-.08.48-.08.2,0,.38.06.53.16l.17-.14s0-.02.03-.02h.05s.02,0,.03.02c0,.01.01.02.01.03v.78s-.01.06-.05.06h-.08s-.05-.02-.05-.06c0-.21-.06-.38-.19-.5-.12-.12-.28-.19-.48-.19-.18,0-.34.04-.47.11-.12.06-.19.17-.19.33,0,.12.05.21.14.28.09.07.2.12.33.16l.41.06c.13.03.26.09.37.17.13.08.22.17.28.28.07.1.11.23.11.38s-.03.27-.08.38c-.04.1-.11.19-.2.26-.09.07-.19.12-.31.16-.12.03-.25.05-.38.05-.25,0-.46-.08-.64-.25l-.24.24s-.01.01-.03.01h-.03s-.05-.01-.05-.05Z"/>
  <path class="st18" d="M153.27,59.83v-1.66h-.5v-.16c.26,0,.45-.12.58-.36.12-.25.19-.51.19-.8h.17v1.09h.84v.22h-.84v1.64c0,.17.02.31.08.44.06.12.16.19.31.19.13,0,.23-.06.28-.19.06-.13.09-.28.09-.44v-.36h.19v.38c0,.12-.03.25-.08.38-.04.12-.11.22-.2.3-.09.07-.2.11-.33.11-.24,0-.43-.07-.58-.2-.14-.14-.2-.34-.2-.58Z"/>
  <path class="st18" d="M156.49,60.61c-.25,0-.48-.06-.69-.19-.2-.12-.36-.29-.47-.5-.12-.22-.17-.45-.17-.69s.05-.46.16-.67c.1-.21.25-.38.44-.5.2-.13.41-.2.64-.2.19,0,.35.03.48.09.13.06.24.15.33.27.09.1.16.23.2.38.04.15.06.31.06.48,0,.06-.02.08-.06.08h-1.73v.06c0,.34.07.62.2.86.13.24.35.36.66.36.12,0,.24-.02.34-.08.1-.05.19-.12.27-.22.08-.1.13-.21.16-.33,0,0,.02-.02.03-.03,0,0,.02-.01.03-.01h.05s.06.03.06.08c-.06.22-.17.4-.36.55-.19.15-.4.22-.62.22ZM155.69,59.02h1.36c0-.16-.02-.31-.06-.45-.04-.16-.12-.29-.22-.39-.09-.1-.22-.16-.38-.16-.23,0-.41.11-.53.33-.12.21-.17.43-.17.67Z"/>
  <path class="st18" d="M157.81,60.55v-.22c.13,0,.24,0,.33-.03.09-.02.14-.07.14-.16v-1.64c0-.1-.01-.18-.05-.22-.03-.05-.08-.08-.14-.09-.06,0-.16-.02-.28-.02v-.22l.86-.06v.59c.06-.18.15-.32.27-.42.12-.11.27-.17.44-.17.12,0,.23.04.33.11.09.07.14.17.14.28,0,.07-.03.14-.08.19-.05.05-.12.08-.2.08-.08,0-.14-.02-.19-.08-.06-.05-.08-.11-.08-.19,0-.1.04-.18.12-.23h-.05c-.16,0-.29.06-.39.19-.1.12-.18.26-.22.44-.04.17-.06.33-.06.48v.99c0,.12.19.19.58.19v.22h-1.47Z"/>
  <path class="st18" d="M162.21,60.55v-.22c.41,0,.61-.11.61-.34v-3.14c0-.12-.2-.19-.61-.19v-.2h1.12c.05,0,.08.02.09.06l1.31,3.39,1.31-3.39s.04-.06.09-.06h1.12v.2c-.41,0-.61.06-.61.19v3.3c0,.12.2.19.61.19v.22h-1.73v-.22c.41,0,.61-.06.61-.19v-3.49l-1.47,3.83s-.06.06-.11.06c-.05,0-.09-.02-.09-.06l-1.47-3.78v3.28c0,.23.21.34.62.34v.22h-1.42Z"/>
  <path class="st18" d="M167.73,59.96c0-.24.09-.43.28-.58.19-.15.41-.25.67-.31.27-.06.52-.09.77-.09v-.25c0-.11-.03-.22-.08-.33-.06-.11-.13-.2-.23-.27-.09-.07-.2-.11-.31-.11-.26,0-.46.06-.59.17.07,0,.13.03.17.09.05.06.08.12.08.2,0,.07-.03.14-.08.2-.05.05-.12.08-.2.08-.09,0-.16-.02-.22-.08-.06-.06-.08-.13-.08-.2,0-.21.09-.36.28-.47.2-.1.41-.16.64-.16.16,0,.33.04.48.11.16.06.3.16.41.3.1.12.16.27.16.44v1.36c0,.07.02.15.05.22.04.06.1.09.17.09.06,0,.11-.03.14-.09.03-.07.05-.14.05-.22v-.39h.17v.39c0,.09-.03.17-.08.25-.04.09-.11.15-.19.2-.07.04-.16.06-.25.06-.12,0-.21-.04-.3-.12-.09-.09-.13-.2-.14-.33-.07.15-.18.27-.33.36-.15.08-.31.12-.47.12-.15,0-.3-.02-.45-.06-.15-.04-.27-.11-.38-.2-.09-.1-.14-.24-.14-.39ZM168.23,59.96c0,.15.05.27.14.36.1.09.23.14.38.14.12,0,.24-.03.34-.09.11-.06.2-.15.27-.26.06-.11.09-.23.09-.34v-.62c-.19,0-.38.03-.56.09-.19.05-.34.14-.47.26s-.19.28-.19.47Z"/>
  <path class="st18" d="M171.1,59.83v-1.66h-.5v-.16c.26,0,.45-.12.58-.36.12-.25.19-.51.19-.8h.17v1.09h.84v.22h-.84v1.64c0,.17.02.31.08.44.06.12.16.19.31.19.13,0,.23-.06.28-.19.06-.13.09-.28.09-.44v-.36h.19v.38c0,.12-.03.25-.08.38-.04.12-.11.22-.2.3-.09.07-.2.11-.33.11-.24,0-.43-.07-.58-.2-.14-.14-.2-.34-.2-.58Z"/>
  <path class="st18" d="M172.98,60.55v-.22c.13,0,.24,0,.33-.03.09-.02.14-.07.14-.16v-1.64c0-.1-.02-.18-.05-.22-.03-.05-.08-.08-.14-.09-.06,0-.16-.02-.28-.02v-.22l.86-.06v.59c.06-.18.15-.32.27-.42.12-.11.27-.17.44-.17.12,0,.23.04.33.11.09.07.14.17.14.28,0,.07-.03.14-.08.19-.05.05-.12.08-.2.08-.08,0-.14-.02-.19-.08-.06-.05-.08-.11-.08-.19,0-.1.04-.18.12-.23h-.05c-.16,0-.29.06-.39.19-.1.12-.18.26-.22.44-.04.17-.06.33-.06.48v.99c0,.12.19.19.58.19v.22h-1.47Z"/>
  <path class="st18" d="M175.35,60.55v-.22c.13,0,.24,0,.33-.03.09-.02.14-.07.14-.16v-1.64c0-.15-.03-.23-.09-.27-.06-.04-.18-.06-.34-.06v-.22l.86-.06v2.25c0,.08.04.14.11.16.07.02.18.03.31.03v.22h-1.31ZM175.6,56.86c0-.08.03-.16.09-.22.07-.07.15-.11.24-.11.06,0,.12.02.17.05.05.03.09.07.11.12.03.06.05.1.05.16,0,.09-.03.17-.09.24-.06.06-.14.09-.23.09-.09,0-.16-.03-.24-.09-.06-.06-.09-.14-.09-.24Z"/>
  <path class="st18" d="M176.91,60.55v-.22c.14,0,.28-.02.42-.08.13-.06.25-.15.34-.27l.55-.7-.7-.92c-.08-.08-.15-.13-.24-.16-.09-.02-.2-.03-.34-.03v-.22h1.23v.22c-.05,0-.1.01-.14.03-.04.02-.06.06-.06.11,0,.01,0,.03.01.05l.47.62.38-.45c.04-.06.06-.12.06-.19,0-.04-.02-.08-.05-.11-.03-.04-.07-.06-.12-.06v-.22h1.11v.22c-.16,0-.31.03-.44.09-.14.05-.25.14-.34.26l-.49.59.78,1.02c.07.09.15.15.23.17.08.01.19.02.34.02v.22h-1.25v-.22c.05,0,.1,0,.14-.03.05-.02.08-.05.08-.09,0-.02,0-.04-.02-.06l-.55-.7-.44.55c-.04.06-.06.11-.06.17,0,.06.02.09.05.12.04.03.08.05.12.05v.22h-1.09Z"/>
  <path class="st14" d="M209.57,42.19h22.68v42.52h-22.68v-42.52Z"/>
  <path class="st7" d="M209.57,42.19h22.68v42.52h-22.68v-42.52Z"/>
  <path class="st18" d="M218.01,73.07l-.44-5.92c-.02-.09-.09-.15-.2-.17-.12-.02-.26-.03-.42-.03-.06,0-.09-.04-.09-.12.02-.07.03-.12.05-.16,0-.03.05-.05.11-.05h2.2c.06,0,.09.04.09.12-.02.14-.06.2-.11.2-.5,0-.77.09-.8.27l.33,4.69,2.33-4.05-.05-.7c-.02-.09-.09-.15-.2-.17-.12-.02-.26-.03-.44-.03-.06,0-.09-.04-.09-.12.02-.07.04-.12.05-.16.02-.03.05-.05.11-.05h2.22c.06,0,.09.04.09.12-.01.02-.02.05-.03.08,0,.03-.01.06-.03.09-.01.02-.03.03-.06.03-.5,0-.76.09-.8.27v.06l.34,4.62,2.52-4.41c.04-.07.06-.14.06-.2,0-.12-.06-.21-.19-.27-.12-.05-.27-.08-.42-.08-.06,0-.09-.04-.09-.12,0-.04.02-.08.03-.11,0-.03.02-.05.05-.06.02-.02.05-.03.08-.03h1.78s.08.04.08.12c0,.02,0,.06-.02.09-.01.03-.03.06-.05.08-.01.02-.03.03-.05.03-.44,0-.77.2-1,.61-.02.01-.03.01-.03.01l-3.14,5.5c-.03.06-.08.09-.16.09h-.08c-.07,0-.11-.03-.11-.09l-.36-4.78-2.72,4.78c-.04.06-.09.09-.16.09h-.08c-.07,0-.11-.03-.11-.09Z"/>
  <path class="st18" d="M214.35,55.9l-1.22-3.77c-.03-.08-.09-.13-.19-.16-.09-.02-.2-.03-.34-.03v-.2h1.61v.2c-.34,0-.5.05-.5.16v.03l.95,2.95.81-2.52-.14-.44c-.03-.08-.09-.13-.19-.16-.09-.02-.2-.03-.34-.03v-.2h1.61v.2c-.34,0-.51.05-.51.16v.03s.01.02.01.03l.95,2.92.91-2.78v-.06c0-.1-.06-.18-.17-.22-.11-.05-.22-.08-.34-.08v-.2h1.28v.2c-.31,0-.51.12-.58.36l-1.17,3.59s-.04.06-.09.06h-.05s-.07-.02-.08-.06l-1-3.05-.98,3.05s-.06.06-.09.06h-.05s-.07-.02-.09-.06Z"/>
  <path class="st18" d="M220.15,55.9c-.24,0-.46-.06-.67-.17-.2-.12-.36-.29-.48-.5-.12-.21-.17-.43-.17-.67,0-.18.03-.35.09-.52.06-.18.16-.33.28-.47.12-.13.27-.24.42-.31.16-.07.34-.11.53-.11.25,0,.47.07.67.2.2.12.35.3.47.51.12.22.19.45.19.69s-.06.47-.19.67c-.12.21-.28.38-.48.5-.2.11-.42.17-.66.17ZM220.15,55.72c.32,0,.54-.11.64-.34.1-.24.16-.53.16-.89,0-.19-.01-.36-.03-.5-.02-.13-.07-.25-.14-.36-.04-.06-.1-.12-.17-.17-.06-.05-.14-.09-.22-.11-.07-.03-.15-.05-.24-.05-.12,0-.25.03-.36.09-.12.05-.21.13-.28.23-.07.12-.12.24-.14.38-.02.14-.03.3-.03.48,0,.22.02.42.06.61.04.18.12.33.24.45.11.12.29.17.51.17Z"/>
  <path class="st18" d="M221.81,55.83v-.22c.13,0,.24,0,.33-.03.09-.02.14-.07.14-.16v-1.64c0-.1-.01-.18-.05-.22-.03-.05-.08-.08-.14-.09-.06,0-.16-.02-.28-.02v-.22l.86-.06v.59c.06-.18.15-.32.27-.42.12-.11.27-.17.44-.17.12,0,.23.04.33.11.09.07.14.17.14.28,0,.07-.03.14-.08.19-.05.05-.12.08-.2.08-.08,0-.14-.02-.19-.08-.06-.05-.08-.11-.08-.19,0-.1.04-.18.12-.23h-.05c-.16,0-.29.06-.39.19-.1.12-.18.26-.22.44-.04.17-.06.33-.06.48v.98c0,.12.19.19.58.19v.22h-1.47Z"/>
  <path class="st18" d="M225.46,55.9c-.24,0-.46-.06-.66-.19-.19-.12-.34-.29-.45-.5-.1-.21-.16-.43-.16-.67s.05-.46.17-.67c.11-.21.27-.38.47-.5.21-.12.44-.19.69-.19.15,0,.28.03.41.09.13.06.25.15.34.26v-1.25c0-.11-.01-.19-.05-.23-.03-.05-.08-.08-.14-.09-.05,0-.15-.02-.28-.02v-.2l.89-.06v3.61c0,.11.02.18.05.24.03.04.08.07.14.08.06.01.16.01.28.01v.22l-.91.06v-.38c-.11.12-.23.22-.38.28-.14.06-.28.09-.42.09ZM224.85,55.32c.06.12.15.23.27.31.11.07.24.11.38.11.16,0,.32-.05.45-.14.14-.09.25-.22.31-.38v-1.44c-.04-.08-.1-.16-.17-.23-.07-.07-.16-.12-.25-.16-.09-.04-.18-.06-.28-.06-.21,0-.38.06-.5.19-.12.12-.22.26-.27.45-.05.18-.08.37-.08.56,0,.17,0,.31.01.44.02.12.06.23.12.34Z"/>
  <path class="st18" d="M227.39,54.35h1.59v.38h-1.59v-.38Z"/>
  <path class="st18" d="M212.77,61.19c.13.18.3.32.5.42.21.09.42.14.64.14.19,0,.36-.03.52-.11.16-.07.29-.17.41-.3.12-.13.22-.29.28-.45.06-.17.09-.34.09-.53,0-.03.02-.05.06-.05h.06s.05.02.05.06c0,.21-.04.41-.12.61-.07.19-.18.36-.33.52-.15.15-.32.26-.52.33-.19.08-.39.12-.59.12-.28,0-.55-.06-.81-.17-.25-.11-.48-.27-.67-.47-.19-.21-.34-.44-.44-.7-.11-.27-.16-.55-.16-.83s.05-.57.16-.83c.1-.27.25-.5.44-.7.19-.21.42-.37.67-.48.26-.11.53-.17.81-.17.21,0,.41.05.59.14.19.09.35.21.5.38l.34-.5s.04-.01.05-.01h.03s.03,0,.03.01c0,.01.02.02.02.03v1.62s-.02.05-.05.05h-.11s-.05-.02-.05-.05c0-.11-.03-.24-.08-.38-.04-.15-.1-.28-.17-.41-.07-.13-.16-.25-.25-.34-.22-.22-.48-.33-.77-.33-.22,0-.43.05-.64.16-.2.09-.37.23-.5.41-.15.19-.25.4-.31.64-.06.24-.08.5-.08.76s.02.53.08.77c.06.24.16.45.31.64Z"/>
  <path class="st18" d="M215.91,61.83v-.22c.13,0,.24,0,.33-.03.09-.02.14-.07.14-.16v-3.14c0-.11-.02-.19-.05-.23-.03-.05-.08-.08-.14-.09-.06,0-.16-.02-.28-.02v-.2l.89-.06v3.75c0,.09.04.14.12.16.09.02.21.03.34.03v.22h-1.36Z"/>
  <path class="st18" d="M218.03,61.11v-1.33c0-.1-.01-.18-.05-.22-.03-.05-.08-.08-.14-.09-.05,0-.15-.02-.28-.02v-.22l.92-.06v1.94c0,.16,0,.28.03.38.02.09.07.15.14.19.07.04.19.06.34.06.22,0,.39-.09.52-.26.12-.18.19-.38.19-.61v-1.08c0-.1-.01-.18-.05-.22-.03-.05-.08-.08-.14-.09-.05,0-.15-.02-.28-.02v-.22l.91-.06v2.11c0,.11.01.18.05.24.03.04.08.07.14.08.06.01.16.01.28.01v.22l-.89.06v-.5c-.07.15-.18.26-.31.36-.12.09-.27.14-.44.14-.28,0-.51-.06-.69-.17-.17-.12-.25-.33-.25-.61Z"/>
  <path class="st18" d="M220.92,61.85v-.99s.02-.05.05-.05h.08s.04.02.05.05c.11.59.38.88.81.88.19,0,.34-.04.47-.12.12-.08.19-.22.19-.41,0-.12-.06-.23-.16-.31-.09-.09-.21-.16-.34-.2l-.41-.08c-.14-.02-.26-.06-.38-.12-.1-.06-.19-.14-.26-.23-.06-.1-.09-.22-.09-.36,0-.18.05-.32.14-.44.09-.11.21-.19.36-.23.14-.05.31-.08.48-.08.2,0,.38.05.53.16l.17-.14s0-.01.03-.01h.05s.02,0,.03.01c0,.01.01.02.01.03v.78s-.01.06-.05.06h-.08s-.05-.02-.05-.06c0-.21-.06-.38-.19-.5-.12-.12-.28-.19-.48-.19-.18,0-.34.04-.47.11-.12.06-.19.17-.19.33,0,.12.05.21.14.28.09.07.2.12.33.16l.41.06c.13.03.26.09.38.17.12.07.22.17.28.28.07.1.11.23.11.38s-.03.27-.08.38c-.04.1-.11.19-.2.27-.09.07-.19.12-.31.16-.12.03-.25.05-.38.05-.25,0-.46-.08-.64-.25l-.24.23s-.01.02-.03.02h-.03s-.05-.02-.05-.05Z"/>
  <path class="st18" d="M223.69,61.11v-1.66h-.5v-.16c.26,0,.45-.12.58-.36.12-.25.19-.52.19-.8h.17v1.09h.84v.22h-.84v1.64c0,.17.02.31.08.44.06.12.16.19.31.19.13,0,.23-.06.28-.19.06-.13.09-.28.09-.44v-.36h.19v.38c0,.12-.03.25-.08.38-.04.12-.11.22-.2.3-.09.07-.2.11-.33.11-.24,0-.43-.07-.58-.2-.14-.14-.2-.34-.2-.58Z"/>
  <path class="st18" d="M226.91,61.9c-.25,0-.48-.06-.69-.19-.2-.12-.36-.29-.47-.5-.12-.22-.17-.44-.17-.69s.05-.46.16-.67c.1-.21.25-.38.44-.5.2-.13.41-.2.64-.2.19,0,.35.03.49.09.13.06.24.15.33.27.09.1.16.23.2.38.04.15.06.31.06.48,0,.06-.02.08-.06.08h-1.73v.06c0,.34.07.62.2.86.13.24.35.36.66.36.12,0,.24-.02.34-.08.1-.05.19-.12.26-.22.08-.1.13-.21.16-.33,0,0,.02-.02.03-.03,0,0,.02-.02.03-.02h.05s.06.03.06.08c-.06.22-.17.4-.36.55-.19.15-.4.22-.62.22ZM226.11,60.3h1.36c0-.16-.02-.31-.06-.45-.04-.16-.12-.29-.22-.39-.09-.1-.22-.16-.38-.16-.23,0-.41.11-.53.33-.12.21-.17.43-.17.67Z"/>
  <path class="st18" d="M228.23,61.83v-.22c.13,0,.24,0,.33-.03.09-.02.14-.07.14-.16v-1.64c0-.1-.02-.18-.05-.22-.03-.05-.08-.08-.14-.09-.06,0-.16-.02-.28-.02v-.22l.86-.06v.59c.06-.18.15-.32.27-.42.12-.11.27-.17.44-.17.12,0,.23.04.33.11.09.07.14.17.14.28,0,.07-.03.14-.08.19-.05.05-.12.08-.2.08-.08,0-.14-.02-.19-.08-.06-.05-.08-.11-.08-.19,0-.1.04-.18.12-.23h-.05c-.16,0-.29.06-.39.19-.1.12-.18.26-.22.44-.04.17-.06.33-.06.48v.98c0,.12.19.19.58.19v.22h-1.47Z"/>
  <path class="st10" d="M117.53,63.35h10.83"/>
  <path class="st22" d="M126.78,65.43l.89-2.08-.89-2.09,4.94,2.09-4.94,2.08Z"/>
  <path class="st10" d="M232.8,63.35h13.83"/>
  <path class="st22" d="M245.06,65.43l.88-2.08-.88-2.09,4.94,2.09-4.94,2.08Z"/>
  <path class="st21" d="M65.21,61.7l1.33,1.33,1.33-1.33.36.36-1.33,1.33,1.33,1.33-.36.36-1.33-1.33-1.33,1.33-.36-.36,1.33-1.33-1.33-1.33.36-.36Z"/>
  <path class="st21" d="M197.61,61.7l1.33,1.33,1.33-1.33.36.36-1.33,1.33,1.33,1.33-.36.36-1.33-1.33-1.33,1.33-.36-.36,1.33-1.33-1.33-1.33.36-.36Z"/>
  <path class="st3" d="M188.76,39.21H3.37"/>
  <path class="st8" d="M.37,43.16v41.37"/>
  <path class="st3" d="M4.37,87.48h185.4"/>
  <path class="st8" d="M192.77,83.53v-41.38"/>
  <path class="st6" d="M.37,85.55v1.94h2"/>
  <path class="st6" d="M2.37,39.21H.37v1.94"/>
  <path class="st6" d="M190.77,87.48h2v-1.94"/>
  <path class="st6" d="M192.77,41.15v-1.94h-2"/>
  <path class="st11" d="M304.64,36.16h-172.04"/>
  <path class="st2" d="M129.6,39.87v48.1"/>
  <path class="st11" d="M133.6,90.78h172.03"/>
  <g class="st26">
    <g class="st16">
      <path class="st5" d="M306.63,90.78h2v-1.9"/>
    </g>
  </g>
  <g class="st24">
    <g class="st20">
      <path class="st2" d="M308.63,87.07v-48.11"/>
    </g>
  </g>
  <g class="st13">
    <g class="st19">
      <path class="st5" d="M308.63,38.05v-1.89h-2"/>
    </g>
  </g>
  <path class="st5" d="M131.61,36.16h-2v1.89"/>
  <path class="st5" d="M129.6,88.88v1.9h2"/>
  <path class="st15" d="M3.84,36.97v-.22c.41,0,.61-.06.61-.19v-3.3c0-.12-.2-.19-.61-.19v-.2h3.39l.17,1.38h-.17c-.05-.35-.12-.61-.19-.77-.07-.16-.2-.26-.38-.31-.17-.06-.42-.09-.77-.09h-.58c-.07,0-.13,0-.17.02-.04,0-.08.01-.11.05-.02.03-.03.07-.03.12v1.47h.45c.19,0,.34-.01.44-.05.1-.03.18-.09.22-.19.04-.1.06-.26.06-.47h.17v1.61h-.17c0-.2-.02-.34-.06-.44-.04-.1-.12-.17-.22-.2-.09-.03-.24-.05-.44-.05h-.45v1.61c0,.09.02.15.08.17.05.01.13.02.23.02h.62c.28,0,.5-.02.67-.06.18-.04.31-.11.41-.22.09-.1.16-.24.22-.39.05-.16.1-.39.14-.69h.17l-.25,1.58h-3.47Z"/>
  <path class="st15" d="M7.91,36.97v-.22c.14,0,.26,0,.34-.03.08-.02.12-.07.12-.16v-1.64c0-.1-.02-.18-.05-.22-.03-.05-.08-.08-.14-.09-.06,0-.15-.01-.28-.01v-.22l.87-.06v.59c.08-.18.2-.32.36-.42.16-.11.33-.17.51-.17.27,0,.47.07.61.2.14.14.22.34.22.61v1.44c0,.09.04.14.12.16.09.02.21.03.34.03v.22h-1.38v-.22c.13,0,.24,0,.33-.03.09-.02.14-.07.14-.16v-1.42c0-.2-.03-.36-.09-.49-.06-.12-.16-.19-.33-.19-.24,0-.43.09-.58.28-.15.19-.22.4-.22.64v1.17c0,.09.04.14.12.16.08.02.19.03.33.03v.22h-1.37Z"/>
  <path class="st15" d="M12.57,37.03c-.25,0-.48-.06-.67-.19-.19-.12-.34-.29-.45-.5-.12-.21-.17-.43-.17-.67s.05-.46.16-.67c.11-.22.27-.39.47-.52.19-.13.42-.2.67-.2.23,0,.44.05.62.14.2.09.3.23.3.45,0,.07-.03.14-.09.2-.06.06-.12.08-.19.08-.09,0-.16-.02-.22-.08-.05-.06-.08-.13-.08-.2,0-.07.02-.13.06-.19.05-.05.11-.08.17-.09-.14-.09-.33-.14-.58-.14-.19,0-.34.06-.47.19-.12.12-.2.28-.25.47-.04.19-.06.38-.06.56,0,.2.02.39.08.56.06.18.16.33.28.45.13.12.3.17.48.17s.36-.05.48-.17c.13-.11.23-.27.28-.45,0-.03.01-.05.05-.05h.06s.03.01.03.03c0,.01.02.02.02.03v.02c-.06.24-.17.43-.36.56-.18.14-.39.2-.62.2Z"/>
  <path class="st15" d="M15.23,37.03c-.24,0-.46-.06-.67-.17-.2-.12-.36-.29-.48-.5-.12-.21-.17-.43-.17-.67,0-.18.03-.35.09-.52.06-.18.16-.33.28-.47.12-.13.27-.24.42-.31.16-.07.34-.11.53-.11.25,0,.47.07.67.2.2.12.35.3.47.52.12.22.19.45.19.69s-.06.46-.19.67c-.12.21-.28.38-.48.5-.2.11-.42.17-.66.17ZM15.23,36.86c.32,0,.54-.11.64-.34.1-.24.16-.54.16-.89,0-.19-.01-.36-.03-.5-.02-.13-.07-.25-.14-.36-.04-.06-.1-.12-.17-.17-.06-.05-.14-.09-.22-.11-.07-.03-.15-.05-.24-.05-.12,0-.25.03-.36.09-.12.06-.21.13-.28.24-.07.12-.12.24-.14.38-.02.14-.03.3-.03.48,0,.22.02.42.06.61.04.18.12.33.24.45.11.12.28.17.51.17Z"/>
  <path class="st15" d="M18.2,37.03c-.24,0-.46-.06-.66-.19-.19-.12-.34-.29-.45-.5-.11-.21-.16-.43-.16-.67s.05-.46.17-.67c.11-.21.27-.38.47-.5.21-.12.44-.19.69-.19.14,0,.28.03.41.09.13.06.25.15.34.27v-1.25c0-.11-.02-.19-.05-.23-.03-.05-.08-.08-.14-.09-.05,0-.15-.02-.28-.02v-.2l.89-.06v3.61c0,.1.02.18.05.23.03.04.08.07.14.08.06.01.16.02.28.02v.22l-.91.06v-.38c-.1.12-.23.22-.38.28-.14.06-.28.09-.42.09ZM17.59,36.45c.06.12.15.23.26.31.11.07.24.11.38.11.17,0,.32-.05.45-.14.14-.09.25-.22.31-.38v-1.44c-.04-.08-.1-.16-.17-.23-.07-.07-.16-.13-.25-.16-.09-.04-.18-.06-.28-.06-.21,0-.38.06-.5.19-.12.12-.22.27-.27.45-.05.18-.08.37-.08.56,0,.17,0,.31.02.44.02.12.06.23.12.34Z"/>
  <path class="st15" d="M21.56,37.03c-.25,0-.48-.06-.69-.19-.2-.12-.35-.29-.47-.5-.12-.22-.17-.45-.17-.69s.05-.46.16-.67c.1-.21.25-.38.44-.5.2-.13.41-.2.64-.2.19,0,.35.03.48.09.13.06.24.15.33.27.09.1.16.23.2.38.04.15.06.31.06.48,0,.06-.02.08-.06.08h-1.73v.06c0,.34.07.62.2.86.13.24.35.36.66.36.12,0,.24-.02.34-.08.1-.05.19-.12.27-.22.08-.1.13-.21.16-.33,0,0,.02-.02.03-.03,0,0,.02-.01.03-.01h.05s.06.03.06.08c-.06.22-.17.4-.36.55-.19.15-.4.22-.62.22ZM20.76,35.44h1.36c0-.16-.02-.31-.06-.45-.04-.16-.12-.28-.22-.39-.09-.1-.22-.16-.38-.16-.23,0-.41.11-.53.33-.12.21-.17.43-.17.67Z"/>
  <path class="st15" d="M22.88,36.97v-.22c.13,0,.24,0,.33-.03.09-.02.14-.07.14-.16v-1.64c0-.1-.02-.18-.05-.22-.03-.05-.08-.08-.14-.09-.06,0-.16-.01-.28-.01v-.22l.86-.06v.59c.06-.18.15-.32.27-.42.12-.11.27-.17.44-.17.12,0,.23.04.33.11.09.07.14.17.14.28,0,.07-.03.14-.08.19-.06.05-.12.08-.2.08-.07,0-.14-.02-.19-.08-.05-.05-.08-.11-.08-.19,0-.1.04-.18.12-.23h-.05c-.16,0-.29.06-.39.19-.11.12-.18.26-.22.44-.04.17-.06.33-.06.48v.98c0,.13.19.19.58.19v.22h-1.47Z"/>
  <path class="st15" d="M27.25,36.97v-.22c.41,0,.61-.06.61-.19v-3.3c0-.12-.2-.19-.61-.19v-.2h3.31l.16,1.38h-.17c-.02-.26-.06-.46-.11-.61-.04-.15-.11-.25-.2-.33-.09-.08-.2-.14-.34-.17-.15-.04-.35-.06-.61-.06h-.55c-.07,0-.13,0-.17.02-.04,0-.08.01-.11.05-.02.03-.03.07-.03.12v1.55h.42c.21,0,.36-.01.45-.05.09-.04.16-.11.19-.2.04-.09.06-.24.06-.45h.17v1.61h-.17c0-.2-.02-.34-.06-.44-.03-.1-.09-.17-.19-.2-.09-.04-.25-.06-.45-.06h-.42v1.55c0,.13.25.19.77.19v.22h-1.94Z"/>
  <path class="st15" d="M31.22,36.38c0-.24.09-.43.28-.58.19-.15.41-.25.67-.31.27-.06.52-.09.77-.09v-.25c0-.11-.03-.22-.08-.33-.05-.11-.13-.2-.23-.26-.09-.07-.2-.11-.31-.11-.26,0-.46.06-.59.17.07,0,.13.03.17.09.05.06.08.12.08.2,0,.07-.03.14-.08.2-.06.06-.12.08-.2.08s-.16-.02-.22-.08c-.06-.06-.08-.13-.08-.2,0-.21.09-.36.28-.47.19-.1.41-.16.64-.16.16,0,.33.04.48.11.16.06.3.16.41.3.1.12.16.27.16.44v1.36c0,.07.02.15.05.22.04.06.1.09.17.09.06,0,.11-.03.14-.09.03-.07.05-.14.05-.22v-.39h.17v.39c0,.09-.03.17-.08.25-.04.09-.1.15-.19.2-.07.04-.16.06-.25.06-.12,0-.22-.04-.3-.12-.09-.09-.13-.2-.14-.33-.07.15-.18.26-.33.36-.15.08-.3.12-.47.12-.15,0-.3-.02-.45-.06-.15-.04-.27-.11-.38-.2-.09-.1-.14-.24-.14-.39ZM31.72,36.38c0,.15.05.27.14.36.1.09.23.14.38.14.12,0,.24-.03.34-.09.11-.06.2-.15.27-.26.06-.11.09-.23.09-.34v-.62c-.19,0-.38.03-.56.09-.19.05-.34.14-.47.26s-.19.28-.19.47Z"/>
  <path class="st15" d="M35.48,37.03c-.25,0-.48-.06-.67-.19-.19-.12-.34-.29-.45-.5-.12-.21-.17-.43-.17-.67s.05-.46.16-.67c.11-.22.27-.39.47-.52.2-.13.42-.2.67-.2.23,0,.44.05.62.14.2.09.3.23.3.45,0,.07-.03.14-.09.2-.05.06-.12.08-.19.08-.09,0-.16-.02-.22-.08-.05-.06-.08-.13-.08-.2,0-.07.02-.13.06-.19.05-.05.11-.08.17-.09-.14-.09-.33-.14-.58-.14-.19,0-.34.06-.47.19-.12.12-.2.28-.25.47-.04.19-.06.38-.06.56,0,.2.02.39.08.56.06.18.16.33.28.45.13.12.3.17.48.17s.36-.05.48-.17c.13-.11.23-.27.28-.45,0-.03.02-.05.05-.05h.06s.03.01.03.03c0,.01.02.02.02.03v.02c-.06.24-.17.43-.36.56-.18.14-.39.2-.62.2Z"/>
  <path class="st15" d="M37.25,36.25v-1.66h-.5v-.16c.26,0,.45-.12.58-.36.12-.25.19-.52.19-.8h.17v1.09h.84v.22h-.84v1.64c0,.17.02.31.08.44.06.12.16.19.31.19.13,0,.23-.06.28-.19.06-.13.09-.28.09-.44v-.36h.19v.38c0,.12-.03.25-.08.38-.04.12-.11.22-.2.3-.09.07-.2.11-.33.11-.24,0-.43-.07-.58-.2-.14-.14-.2-.34-.2-.58Z"/>
  <path class="st15" d="M40.47,37.03c-.24,0-.46-.06-.67-.17-.2-.12-.36-.29-.48-.5-.12-.21-.17-.43-.17-.67,0-.18.03-.35.09-.52.06-.18.16-.33.28-.47.12-.13.26-.24.42-.31.16-.07.34-.11.53-.11.25,0,.47.07.67.2.19.12.35.3.47.52.12.22.19.45.19.69s-.06.46-.19.67c-.12.21-.28.38-.48.5-.2.11-.42.17-.66.17ZM40.47,36.86c.32,0,.54-.11.64-.34.1-.24.16-.54.16-.89,0-.19-.01-.36-.03-.5-.02-.13-.07-.25-.14-.36-.04-.06-.1-.12-.17-.17-.06-.05-.14-.09-.22-.11-.07-.03-.15-.05-.23-.05-.12,0-.25.03-.36.09-.12.06-.21.13-.28.24-.07.12-.12.24-.14.38-.02.14-.03.3-.03.48,0,.22.02.42.06.61.04.18.12.33.23.45.11.12.28.17.52.17Z"/>
  <path class="st15" d="M42.13,36.97v-.22c.13,0,.24,0,.33-.03.09-.02.14-.07.14-.16v-1.64c0-.1-.02-.18-.05-.22-.03-.05-.08-.08-.14-.09-.06,0-.16-.01-.28-.01v-.22l.86-.06v.59c.06-.18.15-.32.27-.42.12-.11.27-.17.44-.17.12,0,.24.04.33.11.09.07.14.17.14.28,0,.07-.03.14-.08.19-.06.05-.12.08-.2.08-.07,0-.14-.02-.19-.08-.05-.05-.08-.11-.08-.19,0-.1.04-.18.12-.23h-.05c-.16,0-.29.06-.39.19-.11.12-.18.26-.22.44-.04.17-.06.33-.06.48v.98c0,.13.19.19.58.19v.22h-1.47Z"/>
  <path class="st15" d="M44.5,36.97v-.22c.13,0,.24,0,.33-.03.09-.02.14-.07.14-.16v-1.64c0-.15-.03-.23-.09-.27-.06-.04-.18-.06-.34-.06v-.22l.86-.06v2.25c0,.09.04.14.11.16.07.02.18.03.31.03v.22h-1.31ZM44.75,33.28c0-.08.03-.16.09-.22.07-.07.15-.11.23-.11.06,0,.12.02.17.05.05.03.09.07.11.12.03.06.05.1.05.16,0,.09-.03.17-.09.24-.06.06-.14.09-.23.09-.09,0-.16-.03-.23-.09-.06-.06-.09-.14-.09-.24Z"/>
  <path class="st15" d="M46.21,36.97s-.06-.02-.06-.06v-.05s0-.03.02-.05l1.67-2.26h-.53c-.18,0-.32.01-.44.03-.11.02-.19.06-.27.12-.07.06-.12.13-.16.24-.03.1-.05.25-.05.44h-.17l.06-1h2.02s.04.01.05.03c0,.01.02.03.02.05v.03s0,.03-.02.05l-1.67,2.27h.58c.16,0,.3,0,.42-.03.12-.02.23-.07.31-.16.07-.07.12-.17.14-.3.03-.13.05-.3.08-.48h.17l-.11,1.14h-2.06Z"/>
  <path class="st15" d="M48.88,36.38c0-.24.09-.43.28-.58.19-.15.41-.25.67-.31.27-.06.52-.09.77-.09v-.25c0-.11-.03-.22-.08-.33-.06-.11-.13-.2-.23-.26-.09-.07-.2-.11-.31-.11-.26,0-.46.06-.59.17.07,0,.13.03.17.09.05.06.08.12.08.2,0,.07-.03.14-.08.2-.06.06-.12.08-.2.08s-.16-.02-.22-.08c-.06-.06-.08-.13-.08-.2,0-.21.09-.36.28-.47.19-.1.41-.16.64-.16.16,0,.33.04.48.11.16.06.3.16.41.3.1.12.16.27.16.44v1.36c0,.07.02.15.05.22.04.06.1.09.17.09.06,0,.11-.03.14-.09.03-.07.05-.14.05-.22v-.39h.17v.39c0,.09-.03.17-.08.25-.04.09-.11.15-.19.2-.07.04-.16.06-.25.06-.12,0-.22-.04-.3-.12-.09-.09-.13-.2-.14-.33-.07.15-.18.26-.33.36-.15.08-.3.12-.47.12-.15,0-.3-.02-.45-.06-.15-.04-.27-.11-.38-.2-.09-.1-.14-.24-.14-.39ZM49.38,36.38c0,.15.05.27.14.36.1.09.23.14.38.14.12,0,.24-.03.34-.09.11-.06.2-.15.27-.26.06-.11.09-.23.09-.34v-.62c-.19,0-.38.03-.56.09-.19.05-.34.14-.47.26s-.19.28-.19.47Z"/>
  <path class="st15" d="M52.25,36.25v-1.66h-.5v-.16c.26,0,.45-.12.58-.36.12-.25.19-.52.19-.8h.17v1.09h.84v.22h-.84v1.64c0,.17.02.31.08.44.06.12.16.19.31.19.13,0,.23-.06.28-.19.06-.13.09-.28.09-.44v-.36h.19v.38c0,.12-.03.25-.08.38-.04.12-.11.22-.2.3-.09.07-.2.11-.33.11-.24,0-.43-.07-.58-.2-.14-.14-.2-.34-.2-.58Z"/>
  <path class="st15" d="M54.16,36.97v-.22c.13,0,.24,0,.33-.03.09-.02.14-.07.14-.16v-1.64c0-.15-.03-.23-.09-.27-.06-.04-.18-.06-.34-.06v-.22l.86-.06v2.25c0,.09.03.14.11.16.07.02.18.03.31.03v.22h-1.31ZM54.41,33.28c0-.08.03-.16.09-.22.07-.07.15-.11.23-.11.06,0,.12.02.17.05.05.03.09.07.11.12.03.06.05.1.05.16,0,.09-.03.17-.09.24-.06.06-.14.09-.24.09-.09,0-.16-.03-.23-.09-.06-.06-.09-.14-.09-.24Z"/>
  <path class="st15" d="M57.13,37.03c-.24,0-.47-.06-.67-.17-.2-.12-.36-.29-.48-.5-.12-.21-.17-.43-.17-.67,0-.18.03-.35.09-.52.06-.18.16-.33.28-.47.12-.13.26-.24.42-.31.16-.07.34-.11.53-.11.25,0,.47.07.67.2.19.12.35.3.47.52.12.22.19.45.19.69s-.06.46-.19.67c-.12.21-.28.38-.48.5-.2.11-.42.17-.66.17ZM57.13,36.86c.32,0,.53-.11.64-.34.1-.24.16-.54.16-.89,0-.19-.01-.36-.03-.5-.02-.13-.07-.25-.14-.36-.04-.06-.1-.12-.17-.17-.06-.05-.14-.09-.22-.11-.07-.03-.15-.05-.23-.05-.12,0-.25.03-.36.09-.12.06-.21.13-.28.24-.07.12-.12.24-.14.38-.02.14-.03.3-.03.48,0,.22.02.42.06.61.04.18.12.33.23.45.11.12.29.17.52.17Z"/>
  <path class="st15" d="M58.81,36.97v-.22c.14,0,.26,0,.34-.03.08-.02.12-.07.12-.16v-1.64c0-.1-.01-.18-.05-.22-.03-.05-.08-.08-.14-.09-.06,0-.15-.01-.28-.01v-.22l.88-.06v.59c.08-.18.2-.32.36-.42.16-.11.33-.17.52-.17.27,0,.47.07.61.2.14.14.22.34.22.61v1.44c0,.09.04.14.12.16.09.02.21.03.34.03v.22h-1.38v-.22c.13,0,.24,0,.33-.03.09-.02.14-.07.14-.16v-1.42c0-.2-.03-.36-.09-.49-.06-.12-.16-.19-.33-.19-.24,0-.43.09-.58.28-.15.19-.22.4-.22.64v1.17c0,.09.04.14.12.16.08.02.19.03.33.03v.22h-1.38Z"/>
  <path class="st17" d="M246.28,32.68v-.22c.41,0,.61-.06.61-.19v-3.3c0-.13-.2-.19-.61-.19v-.2h2.2c.28,0,.53.06.75.17.23.12.42.27.58.47.16.2.29.42.38.67.09.25.14.51.14.77s-.05.51-.14.75c-.09.24-.21.46-.38.66-.17.19-.37.34-.59.45-.22.11-.47.16-.74.16h-2.2ZM247.44,32.27c0,.09.02.15.06.17.05.01.13.02.23.02h.59c.21,0,.41-.04.59-.13.19-.09.34-.22.45-.38.13-.16.21-.35.25-.56.05-.21.08-.45.08-.74s-.03-.55-.08-.77c-.04-.22-.13-.41-.25-.58-.12-.17-.27-.3-.45-.39-.19-.09-.39-.14-.59-.14h-.59c-.07,0-.13,0-.17.02-.03,0-.06.02-.09.05-.02.03-.03.07-.03.13v3.3Z"/>
  <path class="st17" d="M252.16,32.74c-.25,0-.48-.06-.69-.19-.2-.13-.36-.29-.47-.5-.12-.22-.17-.45-.17-.69s.05-.46.16-.67c.1-.21.25-.38.44-.5.2-.13.41-.2.64-.2.19,0,.35.03.48.09.13.06.24.15.33.27.09.11.16.23.2.38.04.15.06.31.06.48,0,.06-.02.08-.06.08h-1.73v.06c0,.34.07.62.2.86.13.24.35.36.66.36.13,0,.24-.02.34-.08.1-.05.19-.13.27-.22.08-.1.13-.21.16-.33,0,0,.02-.02.03-.03,0,0,.02-.01.03-.01h.05s.06.03.06.08c-.05.22-.17.4-.36.55-.19.15-.4.22-.63.22ZM251.36,31.15h1.36c0-.16-.02-.31-.06-.45-.04-.16-.12-.29-.22-.39-.09-.1-.22-.16-.38-.16-.23,0-.41.11-.53.33-.12.21-.17.43-.17.67Z"/>
  <path class="st17" d="M254.82,32.74c-.25,0-.48-.06-.67-.19-.19-.13-.34-.29-.45-.5-.12-.21-.17-.43-.17-.67s.05-.46.16-.67c.11-.22.27-.39.47-.52.2-.13.42-.2.67-.2.23,0,.44.05.63.14.2.09.3.23.3.45,0,.07-.03.14-.09.2-.05.06-.12.08-.19.08-.09,0-.16-.02-.22-.08-.05-.06-.08-.13-.08-.2,0-.07.02-.13.06-.19.05-.05.11-.08.17-.09-.14-.09-.33-.14-.58-.14-.19,0-.34.06-.47.19-.12.13-.2.28-.25.47-.04.19-.06.38-.06.56,0,.2.02.39.08.56.06.18.16.33.28.45.13.12.3.17.48.17s.36-.05.48-.17c.13-.11.23-.27.28-.45,0-.03.02-.05.05-.05h.06s.03.01.03.03c0,.01.02.02.02.03v.02c-.05.24-.17.43-.36.56-.18.14-.39.2-.63.2Z"/>
  <path class="st17" d="M257.49,32.74c-.24,0-.47-.06-.67-.17-.2-.13-.36-.29-.48-.5-.12-.21-.17-.43-.17-.67,0-.18.03-.35.09-.52.06-.18.16-.33.28-.47.13-.13.27-.24.42-.31.16-.07.34-.11.53-.11.25,0,.47.07.67.2.2.13.35.3.47.52.13.22.19.45.19.69s-.06.47-.19.67c-.12.21-.28.38-.48.5-.2.11-.42.17-.66.17ZM257.49,32.57c.32,0,.54-.11.64-.34.1-.24.16-.54.16-.89,0-.2-.01-.36-.03-.5-.02-.13-.07-.25-.14-.36-.04-.06-.1-.12-.17-.17-.06-.05-.14-.09-.22-.11-.07-.03-.15-.05-.23-.05-.13,0-.25.03-.36.09-.12.05-.21.13-.28.24-.07.12-.12.24-.14.38-.02.14-.03.3-.03.48,0,.22.02.42.06.61.04.18.12.33.23.45.11.12.29.17.52.17Z"/>
  <path class="st17" d="M260.46,32.74c-.24,0-.46-.06-.66-.19-.19-.13-.34-.29-.45-.5-.11-.21-.16-.43-.16-.67s.05-.46.17-.67c.11-.21.27-.38.47-.5.21-.13.44-.19.69-.19.14,0,.28.03.41.09.13.06.25.15.34.27v-1.25c0-.11-.02-.19-.05-.23-.03-.05-.08-.08-.14-.09-.05,0-.15-.02-.28-.02v-.2l.89-.06v3.61c0,.11.02.18.05.23.03.04.08.07.14.08.06.01.16.02.28.02v.22l-.91.06v-.38c-.11.13-.23.22-.38.28-.14.06-.28.09-.42.09ZM259.85,32.16c.06.13.15.23.27.31.11.07.24.11.38.11.16,0,.32-.05.45-.14.14-.09.25-.22.31-.38v-1.44c-.04-.08-.1-.16-.17-.23-.07-.07-.16-.13-.25-.16-.09-.04-.18-.06-.28-.06-.21,0-.38.06-.5.19-.13.12-.22.27-.27.45-.05.18-.08.37-.08.56,0,.17,0,.31.02.44.02.12.06.23.13.34Z"/>
  <path class="st17" d="M263.82,32.74c-.25,0-.48-.06-.69-.19-.2-.13-.36-.29-.47-.5-.12-.22-.17-.45-.17-.69s.05-.46.16-.67c.1-.21.25-.38.44-.5.2-.13.41-.2.64-.2.19,0,.35.03.48.09.13.06.24.15.33.27.09.11.16.23.2.38.04.15.06.31.06.48,0,.06-.02.08-.06.08h-1.73v.06c0,.34.07.62.2.86.13.24.35.36.66.36.13,0,.24-.02.34-.08.1-.05.19-.13.27-.22.08-.1.13-.21.16-.33,0,0,.02-.02.03-.03,0,0,.02-.01.03-.01h.05s.06.03.06.08c-.05.22-.17.4-.36.55-.19.15-.4.22-.63.22ZM263.02,31.15h1.36c0-.16-.02-.31-.06-.45-.04-.16-.12-.29-.22-.39-.09-.1-.22-.16-.38-.16-.23,0-.41.11-.53.33-.12.21-.17.43-.17.67Z"/>
  <g class="st0">
    <g class="st1">
      <path class="st17" d="M265.14,32.68v-.22c.13,0,.24,0,.33-.03.09-.02.14-.07.14-.16v-1.64c0-.1-.02-.18-.05-.22-.03-.05-.08-.08-.14-.09-.06,0-.16-.02-.28-.02v-.22l.86-.06v.59c.06-.18.15-.32.27-.42.13-.11.27-.17.44-.17.13,0,.23.04.33.11.09.07-.86.17-.86.28,0,.08.97.14.92.19-.05.05-.12.08-.2.08-.07,0-.14-.02-.19-.08-.05-.05-.08-.11-.08-.19,0-.1.04-.18.13-.23h-.05c-.16,0-.29.06-.39.19-.11.12-.18.26-.22.44-.04.17-.06.33-.06.48v.99c0,.13.19.19.58.19v.22h-1.47Z"/>
    </g>
  </g>
  <path class="st17" d="M269.63,32.95v-.22c.41,0,.61-.06.61-.19v-3.3c0-.12-.2-.19-.61-.19v-.2h3.31l.16,1.38h-.17c-.02-.26-.06-.46-.11-.61-.04-.14-.11-.25-.2-.33-.09-.08-.2-.14-.34-.17-.15-.04-.35-.06-.61-.06h-.55c-.07,0-.13,0-.17.01-.04,0-.08.02-.11.05-.02.03-.03.07-.03.12v1.55h.42c.21,0,.36-.02.45-.05.09-.04.16-.11.19-.2.04-.09.06-.24.06-.45h.17v1.61h-.17c0-.19-.02-.34-.06-.44-.03-.1-.09-.17-.19-.2-.09-.04-.25-.06-.45-.06h-.42v1.55c0,.12.25.19.77.19v.22h-1.94Z"/>
  <path class="st17" d="M273.58,32.36c0-.24.09-.43.28-.58.19-.14.41-.25.67-.31.27-.06.52-.09.77-.09v-.25c0-.11-.03-.22-.08-.33-.05-.11-.13-.2-.23-.27-.09-.07-.2-.11-.31-.11-.26,0-.46.06-.59.17.07,0,.13.03.17.09.05.05.08.12.08.2,0,.07-.03.14-.08.2-.05.06-.12.08-.2.08s-.16-.02-.22-.08c-.05-.06-.08-.13-.08-.2,0-.21.09-.36.28-.47.2-.1.41-.16.64-.16.16,0,.33.04.48.11.16.06.3.16.41.3.1.12.16.27.16.44v1.36c0,.07.02.15.05.22.04.06.1.09.17.09.06,0,.11-.03.14-.09.03-.07.05-.14.05-.22v-.39h.17v.39c0,.09-.03.17-.08.25-.04.09-.11.15-.19.2-.07.04-.16.06-.25.06-.12,0-.21-.04-.3-.12-.09-.09-.13-.2-.14-.33-.07.15-.18.27-.33.36-.15.08-.3.12-.47.12-.15,0-.3-.02-.45-.06-.15-.04-.27-.11-.38-.2-.09-.1-.14-.23-.14-.39ZM274.08,32.36c0,.15.05.27.14.36.1.09.23.14.38.14.12,0,.24-.03.34-.09.11-.06.2-.15.27-.27.06-.11.09-.23.09-.34v-.62c-.19,0-.38.03-.56.09-.19.06-.34.14-.47.27-.12.13-.19.28-.19.47Z"/>
  <path class="st17" d="M277.85,33.01c-.25,0-.48-.06-.67-.19-.19-.12-.34-.29-.45-.5-.12-.21-.17-.43-.17-.67s.05-.46.16-.67c.11-.22.27-.39.47-.51.2-.13.42-.2.67-.2.23,0,.44.05.62.14.2.09.3.23.3.45,0,.08-.03.14-.09.2-.05.05-.12.08-.19.08-.09,0-.16-.02-.22-.08-.05-.06-.08-.13-.08-.2,0-.07.02-.13.06-.19.05-.05.11-.08.17-.09-.14-.09-.33-.14-.58-.14-.19,0-.34.06-.47.19-.12.12-.2.28-.25.47-.04.19-.06.38-.06.56,0,.2.02.39.08.56.06.18.16.33.28.45.13.12.3.17.48.17s.36-.06.48-.17c.13-.11.23-.27.28-.45,0-.03.02-.05.05-.05h.06s.03.01.03.03c0,.01.02.02.02.03v.02c-.05.24-.17.43-.36.56-.18.14-.39.2-.62.2Z"/>
  <path class="st17" d="M279.62,32.23v-1.66h-.5v-.16c.26,0,.45-.12.58-.36.12-.25.19-.52.19-.8h.17v1.09h.84v.22h-.84v1.64c0,.17.02.31.08.44.06.12.16.19.31.19.13,0,.23-.06.28-.19.06-.13.09-.28.09-.44v-.36h.19v.38c0,.12-.03.25-.08.38-.04.12-.11.22-.2.3-.09.07-.2.11-.33.11-.24,0-.43-.07-.58-.2-.14-.14-.2-.34-.2-.58Z"/>
  <path class="st17" d="M282.84,33.01c-.24,0-.46-.06-.67-.17-.2-.12-.36-.29-.48-.5-.12-.21-.17-.43-.17-.67,0-.18.03-.35.09-.52.06-.18.16-.33.28-.47.12-.13.27-.24.42-.31.16-.07.34-.11.53-.11.25,0,.47.07.67.2.2.12.35.3.47.51.12.22.19.45.19.69s-.06.47-.19.67c-.12.21-.28.38-.48.5-.2.11-.42.17-.66.17ZM282.84,32.84c.32,0,.54-.11.64-.34.1-.24.16-.53.16-.89,0-.19-.01-.36-.03-.5-.02-.13-.07-.25-.14-.36-.04-.06-.1-.12-.17-.17-.06-.05-.14-.09-.22-.11-.07-.03-.15-.05-.23-.05-.12,0-.25.03-.36.09-.12.05-.21.13-.28.23-.07.12-.12.24-.14.38-.02.14-.03.3-.03.48,0,.22.02.42.06.61.04.18.12.33.23.45.11.12.29.17.52.17Z"/>
  <path class="st17" d="M284.5,32.95v-.22c.13,0,.24,0,.33-.03.09-.02.14-.07.14-.16v-1.64c0-.1-.02-.18-.05-.22-.03-.05-.08-.08-.14-.09-.06,0-.16-.02-.28-.02v-.22l.86-.06v.59c.06-.18.15-.32.27-.42.12-.11.27-.17.44-.17.13,0,.23.04.33.11.09.07.14.17.14.28,0,.07-.03.14-.08.19-.05.06-.12.08-.2.08-.07,0-.14-.02-.19-.08-.05-.05-.08-.11-.08-.19,0-.1.04-.18.12-.24h-.05c-.16,0-.29.06-.39.19-.11.12-.18.26-.22.44-.04.17-.06.33-.06.49v.98c0,.12.19.19.58.19v.22h-1.47Z"/>
  <path class="st17" d="M286.88,32.95v-.22c.13,0,.24,0,.33-.03.09-.02.14-.07.14-.16v-1.64c0-.14-.03-.23-.09-.27-.06-.04-.18-.06-.34-.06v-.22l.86-.06v2.25c0,.09.04.14.11.16.07.02.18.03.31.03v.22h-1.31ZM287.13,29.26c0-.08.03-.16.09-.22.07-.07.15-.11.23-.11.06,0,.12.01.17.05.05.03.09.08.11.12.03.06.05.11.05.16,0,.09-.03.17-.09.23-.06.06-.14.09-.23.09-.09,0-.16-.03-.23-.09-.06-.06-.09-.14-.09-.23Z"/>
  <path class="st17" d="M288.58,32.95s-.06-.02-.06-.06v-.05s0-.03.02-.05l1.67-2.27h-.53c-.18,0-.32.01-.44.03-.11.02-.2.06-.27.12-.07.05-.12.13-.16.23-.03.11-.05.25-.05.44h-.17l.06-1h2.02s.04.01.05.03c0,.01.02.03.02.05v.03s0,.03-.02.05l-1.67,2.27h.58c.16,0,.3,0,.42-.03.12-.02.23-.07.31-.16.07-.07.12-.17.14-.3.03-.13.05-.3.08-.48h.17l-.11,1.14h-2.06Z"/>
  <path class="st17" d="M291.25,32.36c0-.24.09-.43.28-.58.19-.14.41-.25.67-.31.27-.06.52-.09.77-.09v-.25c0-.11-.03-.22-.08-.33-.05-.11-.13-.2-.23-.27-.09-.07-.2-.11-.31-.11-.26,0-.46.06-.59.17.07,0,.13.03.17.09.05.05.08.12.08.2,0,.07-.03.14-.08.2-.05.06-.12.08-.2.08s-.16-.02-.22-.08c-.05-.06-.08-.13-.08-.2,0-.21.09-.36.28-.47.2-.1.41-.16.64-.16.16,0,.33.04.48.11.16.06.3.16.41.3.1.12.16.27.16.44v1.36c0,.07.02.15.05.22.04.06.1.09.17.09.06,0,.11-.03.14-.09.03-.07.05-.14.05-.22v-.39h.17v.39c0,.09-.03.17-.08.25-.04.09-.11.15-.19.2-.07.04-.16.06-.25.06-.12,0-.21-.04-.3-.12-.09-.09-.13-.2-.14-.33-.07.15-.18.27-.33.36-.15.08-.3.12-.47.12-.15,0-.3-.02-.45-.06-.15-.04-.27-.11-.38-.2-.09-.1-.14-.23-.14-.39ZM291.75,32.36c0,.15.05.27.14.36.1.09.23.14.38.14.12,0,.24-.03.34-.09.11-.06.2-.15.27-.27.06-.11.09-.23.09-.34v-.62c-.19,0-.38.03-.56.09-.19.06-.34.14-.47.27-.13.13-.19.28-.19.47Z"/>
  <path class="st17" d="M294.62,32.23v-1.66h-.5v-.16c.26,0,.45-.12.58-.36.12-.25.19-.52.19-.8h.17v1.09h.84v.22h-.84v1.64c0,.17.02.31.08.44.06.12.16.19.31.19.13,0,.23-.06.28-.19.06-.13.09-.28.09-.44v-.36h.19v.38c0,.12-.03.25-.08.38-.04.12-.11.22-.2.3-.09.07-.2.11-.33.11-.24,0-.43-.07-.58-.2-.14-.14-.2-.34-.2-.58Z"/>
  <path class="st17" d="M296.53,32.95v-.22c.13,0,.24,0,.33-.03.09-.02.14-.07.14-.16v-1.64c0-.14-.03-.23-.09-.27-.06-.04-.18-.06-.34-.06v-.22l.86-.06v2.25c0,.09.04.14.11.16.07.02.18.03.31.03v.22h-1.31ZM296.78,29.26c0-.08.03-.16.09-.22.07-.07.15-.11.23-.11.06,0,.12.01.17.05.05.03.09.08.11.12.03.06.05.11.05.16,0,.09-.03.17-.09.23-.06.06-.14.09-.23.09-.09,0-.16-.03-.23-.09-.06-.06-.09-.14-.09-.23Z"/>
  <path class="st17" d="M299.51,33.01c-.24,0-.46-.06-.67-.17-.2-.12-.36-.29-.48-.5-.12-.21-.17-.43-.17-.67,0-.18.03-.35.09-.52.06-.18.16-.33.28-.47.12-.13.27-.24.42-.31.16-.07.34-.11.53-.11.25,0,.47.07.67.2.2.12.35.3.47.51.12.22.19.45.19.69s-.06.47-.19.67c-.12.21-.28.38-.48.5-.2.11-.42.17-.66.17ZM299.51,32.84c.32,0,.54-.11.64-.34.1-.24.16-.53.16-.89,0-.19-.01-.36-.03-.5-.02-.13-.07-.25-.14-.36-.04-.06-.1-.12-.17-.17-.06-.05-.14-.09-.22-.11-.07-.03-.15-.05-.23-.05-.12,0-.25.03-.36.09-.12.05-.21.13-.28.23-.07.12-.12.24-.14.38-.02.14-.03.3-.03.48,0,.22.02.42.06.61.04.18.12.33.23.45.11.12.29.17.52.17Z"/>
  <path class="st17" d="M301.18,32.95v-.22c.14,0,.26,0,.34-.03.08-.02.12-.07.12-.16v-1.64c0-.1-.02-.18-.05-.22-.03-.05-.08-.08-.14-.09-.05,0-.15-.02-.28-.02v-.22l.88-.06v.59c.08-.18.2-.32.36-.42.16-.11.33-.17.52-.17.27,0,.47.07.61.2.14.14.22.34.22.61v1.44c0,.09.04.14.12.16.09.02.21.03.34.03v.22h-1.38v-.22c.13,0,.24,0,.33-.03.09-.02.14-.07.14-.16v-1.42c0-.19-.03-.36-.09-.48-.05-.12-.16-.19-.33-.19-.24,0-.43.09-.58.28-.15.19-.22.4-.22.64v1.17c0,.09.04.14.12.16.08.02.19.03.33.03v.22h-1.38Z"/>
  <path class="st17" d="M106.84,121.57c1.96,0,4.71-1.49,4.71-3.78,0-.75-.36-1.21-.76-1.47-.72-.47-1.49-.47-2.29-.47-.71,0-1.21,0-1.92.3-1.1.5-1.27,1.19-1.27,1.26,0,.05.04.07.09.07.13,0,.33-.12.39-.16.17-.12.2-.17.25-.33.12-.34.35-.63,1.4-.68-.14,1.76-.57,3.36-1.14,4.81-.32.11-.51.3-.51.39,0,.04,0,.06.18.06h.86ZM106.88,121.11c.96-2.33,1.13-3.79,1.25-4.8.56,0,2.7,0,2.7,1.85,0,1.64-1.47,2.95-3.49,2.95h-.46Z"/>
  <path class="st17" d="M114.59,123.58s0-.04-.15-.19c-1.04-1.05-1.31-2.63-1.31-3.92,0-1.45.32-2.91,1.35-3.95.11-.11.11-.11.11-.14,0-.07-.03-.1-.08-.1-.09,0-.84.58-1.34,1.64-.42.92-.52,1.85-.52,2.54,0,.66.09,1.67.55,2.62.51,1.02,1.22,1.57,1.31,1.57.05,0,.08-.02.08-.09Z"/>
  <path class="st17" d="M119.93,118.27l1.12-1.09.51-.53c.34-.31.43-.42,1.31-.43.16,0,.17-.21.17-.23,0-.06-.04-.16-.17-.16-.28,0-.6.02-.9.02-.25,0-.85-.02-1.09-.02-.07,0-.24,0-.24.23,0,.16.13.16.21.16.25.02.47.08.5.09l-1.6,1.57-.76-1.61c.08,0,.34-.05.49-.05.09,0,.24,0,.24-.23,0-.11-.08-.16-.19-.16-.29,0-.98.02-1.27.02h-.58c-.2,0-.4-.02-.59-.02-.07,0-.23,0-.23.23,0,.16.11.16.34.16.12,0,.21,0,.33.02.12.01.12.03.17.13l1.15,2.41-2.1,2.07c-.16.15-.33.32-1.08.33-.15,0-.29,0-.29.25,0,.06.03.15.17.15.2,0,.71-.02.9-.02.25,0,.85.02,1.09.02.06,0,.23,0,.23-.25,0-.15-.15-.15-.22-.15-.16,0-.33-.03-.49-.08l1.94-1.94.96,1.97s-.29.05-.49.05c-.09,0-.25,0-.25.25,0,.02.02.15.19.15.28,0,1-.02,1.28-.02.18,0,.38.01.58.01.18,0,.4.01.58.01.07,0,.24,0,.24-.25,0-.15-.13-.15-.33-.15-.12,0-.21,0-.33-.01-.14-.02-.14-.03-.2-.13l-1.32-2.77Z"/>
  <path class="st17" d="M125.08,115.58c0-.13,0-.29-.17-.29s-.17.2-.17.32v7.75c0,.14,0,.32.17.32s.17-.16.17-.28v-7.8ZM126.71,115.61c0-.13,0-.32-.17-.32-.16,0-.16.16-.16.29v7.8c0,.13,0,.28.16.28.17,0,.17-.2.17-.32v-7.75Z"/>
  <path class="st17" d="M136.93,116.55c.11-.17.21-.31.74-.33.1,0,.25,0,.25-.23,0-.08-.07-.16-.15-.16-.24,0-.48.02-.72.02-.32,0-.64-.02-.96-.02-.07,0-.23,0-.23.25,0,.15.15.15.21.15.02,0,.37,0,.58.09l-2.41,3.83-.5-3.87c.16-.03.42-.05.54-.05.19,0,.32,0,.32-.23,0-.02,0-.16-.18-.16-.28,0-.94.02-1.22.02h-.54c-.25,0-.55-.02-.57-.02-.05,0-.22,0-.22.25,0,.15.15.15.28.15.12,0,.29.02.39.03l.12.83s0,.05-.06.15l-1.85,2.92-.51-3.87c.17-.03.42-.05.55-.05q.2,0,.24-.05c.05-.04.07-.18.07-.18,0-.02,0-.16-.17-.16-.28,0-.96.02-1.23.02h-.54c-.23,0-.55-.02-.55-.02-.06,0-.23,0-.23.25,0,.15.15.15.29.15.12,0,.29.02.39.03l.68,5.22c.03.16.04.25.24.25.18,0,.25-.07.36-.23l2.42-3.84.49,3.82c.02.19.06.25.25.25.18,0,.25-.07.34-.23l3.12-4.94Z"/>
  <path class="st17" d="M145.92,116.26c.18-.04.49-.04.58-.04.11,0,.28,0,.3-.02.1-.06.1-.21.1-.21,0-.11-.08-.16-.18-.16-.21,0-.42.02-.63.02h-1.27c-.22,0-.45-.02-.67-.02-.07,0-.24,0-.24.25,0,.15.11.15.35.15.17,0,.33.02.51.03l-.54,2.15h-2.73l.53-2.14c.18-.04.47-.04.56-.04.12,0,.28,0,.32-.02.08-.06.09-.21.09-.21,0-.11-.08-.16-.18-.16-.21,0-.44.02-.65.02h-1.27c-.21,0-.44-.02-.66-.02-.08,0-.24,0-.24.25,0,.15.11.15.34.15.18,0,.34.02.51.03l-1.19,4.76c-.04.13-.04.15-.2.16-.15.01-.3.01-.44.01-.22,0-.23,0-.27.02-.11.06-.11.2-.11.23,0,0,0,.15.18.15.21,0,.44-.01.64-.01s.42-.01.63-.01c.22,0,.45.01.66.01s.43.01.64.01c.09,0,.16,0,.2-.06.04-.05.05-.17.05-.2,0-.15-.11-.15-.34-.15-.18,0-.34-.01-.51-.01l.59-2.37h2.73l-.56,2.21c-.03.13-.04.15-.19.16-.15.01-.32.01-.45.01-.22,0-.24,0-.28.02-.09.06-.09.2-.09.23,0,0,0,.15.18.15.21,0,.42-.01.63-.01s.43-.01.64-.01.43.01.64.01.45.01.66.01c.08,0,.15,0,.18-.06.04-.05.05-.17.05-.2,0-.15-.11-.15-.34-.15-.17,0-.34-.01-.51-.01l1.22-4.9Z"/>
  <path class="st17" d="M149.61,119.47c0-.64-.1-1.65-.55-2.61-.5-1.02-1.22-1.57-1.3-1.57-.06,0-.09.04-.09.1,0,.03,0,.03.16.2.83.83,1.3,2.15,1.3,3.89,0,1.44-.3,2.91-1.34,3.96-.12.11-.12.12-.12.15,0,.05.03.09.09.09.08,0,.84-.58,1.32-1.64.43-.92.53-1.85.53-2.56Z"/>
  <path d="M155.72,119.64h2.34c.11,0,.27,0,.27-.17,0-.16-.16-.16-.27-.16h-2.34v-2.35c0-.11,0-.27-.17-.27s-.17.16-.17.27v2.35h-2.33c-.12,0-.28,0-.28.16,0,.17.16.17.28.17h2.33v2.35c0,.12,0,.27.17.27s.17-.16.17-.27v-2.35Z"/>
  <path d="M163.66,119.13c.34.88.75,2.15.88,2.35.13.18.21.18.45.18h.19c.07-.01.09-.05.09-.08,0-.02-.02-.05-.06-.07-.08-.1-.13-.23-.18-.38l-1.7-4.76c-.18-.49-.63-.61-1.02-.61-.04,0-.16,0-.16.09,0,.07.07.09.08.09.28.04.34.09.55.67l.8,2.27-2.31,2.29c-.09.11-.14.15-.14.27,0,.14.11.23.25.23s.21-.1.28-.17l2.02-2.38Z"/>
  <path class="st15" d="M167.25,121.57c1.96,0,4.71-1.49,4.71-3.78,0-.75-.36-1.21-.76-1.47-.72-.47-1.49-.47-2.29-.47-.71,0-1.21,0-1.92.3-1.1.5-1.27,1.19-1.27,1.26,0,.05.04.07.1.07.13,0,.33-.12.39-.16.17-.12.2-.17.25-.33.12-.34.35-.63,1.4-.68-.13,1.76-.56,3.36-1.14,4.81-.32.11-.51.3-.51.39,0,.04,0,.06.19.06h.86ZM167.29,121.11c.96-2.33,1.13-3.79,1.24-4.8.57,0,2.7,0,2.7,1.85,0,1.64-1.47,2.95-3.49,2.95h-.46Z"/>
  <path class="st15" d="M174.99,123.58s0-.04-.14-.19c-1.04-1.05-1.31-2.63-1.31-3.92,0-1.45.32-2.91,1.35-3.95.11-.11.11-.11.11-.14,0-.07-.02-.1-.07-.1-.1,0-.84.58-1.34,1.64-.42.92-.53,1.85-.53,2.54,0,.66.1,1.67.55,2.62.51,1.02,1.22,1.57,1.31,1.57.05,0,.07-.02.07-.09Z"/>
  <path class="st15" d="M183.09,116.26c.18-.04.49-.04.58-.04.11,0,.28,0,.3-.02.1-.06.1-.21.1-.21,0-.11-.08-.16-.18-.16-.21,0-.42.02-.63.02h-1.27c-.22,0-.45-.02-.67-.02-.07,0-.24,0-.24.25,0,.15.11.15.35.15.17,0,.33.02.51.03l-.54,2.15h-2.73l.53-2.14c.18-.04.47-.04.56-.04.12,0,.28,0,.32-.02.08-.06.09-.21.09-.21,0-.11-.08-.16-.18-.16-.21,0-.44.02-.65.02h-1.27c-.21,0-.43-.02-.66-.02-.08,0-.24,0-.24.25,0,.15.11.15.34.15.18,0,.34.02.51.03l-1.19,4.76c-.04.13-.04.15-.2.16-.15.01-.3.01-.44.01-.22,0-.23,0-.27.02-.11.06-.11.2-.11.23,0,0,0,.15.18.15.21,0,.44-.01.64-.01s.42-.01.63-.01.45.01.66.01.43.01.64.01c.09,0,.16,0,.2-.06.04-.05.05-.17.05-.2,0-.15-.12-.15-.34-.15-.18,0-.34-.01-.51-.01l.59-2.37h2.73l-.56,2.21c-.03.13-.04.15-.19.16-.15.01-.32.01-.45.01-.22,0-.23,0-.27.02-.09.06-.09.2-.09.23,0,0,0,.15.18.15.21,0,.42-.01.63-.01s.43-.01.64-.01.43.01.64.01.45.01.66.01c.08,0,.15,0,.18-.06.04-.05.05-.17.05-.2,0-.15-.11-.15-.34-.15-.17,0-.34-.01-.51-.01l1.22-4.9Z"/>
  <path class="st15" d="M185.82,115.58c0-.13,0-.29-.17-.29s-.17.2-.17.32v7.75c0,.14,0,.32.17.32s.17-.16.17-.28v-7.8ZM187.45,115.61c0-.13,0-.32-.17-.32-.16,0-.16.16-.16.29v7.8c0,.13,0,.28.16.28.17,0,.17-.2.17-.32v-7.75Z"/>
  <path class="st15" d="M197.67,116.55c.11-.17.21-.31.73-.33.11,0,.25,0,.25-.23,0-.08-.07-.16-.15-.16-.23,0-.48.02-.72.02-.31,0-.64-.02-.95-.02-.07,0-.23,0-.23.25,0,.15.15.15.21.15.03,0,.37,0,.58.09l-2.41,3.83-.5-3.87c.16-.03.42-.05.54-.05.18,0,.31,0,.31-.23,0-.02,0-.16-.18-.16-.28,0-.94.02-1.22.02h-.54c-.25,0-.55-.02-.56-.02-.05,0-.22,0-.22.25,0,.15.14.15.27.15.12,0,.29.02.4.03l.12.83s0,.05-.07.15l-1.84,2.92-.51-3.87c.17-.03.42-.05.55-.05q.2,0,.24-.05c.05-.04.06-.18.06-.18,0-.02,0-.16-.17-.16-.28,0-.96.02-1.23.02h-.54c-.23,0-.55-.02-.55-.02-.07,0-.24,0-.24.25,0,.15.15.15.29.15.12,0,.29.02.4.03l.68,5.22c.02.16.04.25.23.25.18,0,.25-.07.35-.23l2.43-3.84.49,3.82c.03.19.05.25.25.25.18,0,.25-.07.34-.23l3.12-4.94Z"/>
  <path class="st15" d="M201.78,114.34h1.79c.09,0,.23,0,.23-.13,0-.16-.13-.16-.23-.16h-3.86c-.09,0-.24,0-.24.15s.15.14.24.14h1.79v3.55c0,.09,0,.22.15.22s.14-.14.14-.22v-3.55Z"/>
  <path class="st15" d="M209.54,118.27l1.11-1.09.51-.53c.34-.31.43-.42,1.31-.43.16,0,.17-.21.17-.23,0-.06-.04-.16-.17-.16-.29,0-.61.02-.91.02-.25,0-.85-.02-1.09-.02-.07,0-.24,0-.24.23,0,.16.13.16.21.16.25.02.47.08.5.09l-1.6,1.57-.76-1.61c.07,0,.34-.05.48-.05.1,0,.23,0,.23-.23,0-.11-.07-.16-.18-.16-.29,0-.98.02-1.27.02h-.58c-.2,0-.39-.02-.59-.02-.06,0-.22,0-.22.23,0,.16.11.16.34.16.12,0,.21,0,.33.02.12.01.12.03.17.13l1.15,2.41-2.1,2.07c-.16.15-.33.32-1.07.33-.15,0-.29,0-.29.25,0,.06.04.15.17.15.2,0,.71-.02.91-.02.25,0,.85.02,1.09.02.07,0,.24,0,.24-.25,0-.15-.15-.15-.23-.15-.16,0-.33-.03-.49-.08l1.94-1.94.96,1.97s-.28.05-.48.05c-.1,0-.25,0-.25.25,0,.02.01.15.18.15.29,0,1-.02,1.29-.02.18,0,.38.01.58.01.18,0,.39.01.58.01.07,0,.23,0,.23-.25,0-.15-.13-.15-.32-.15-.12,0-.21,0-.33-.01-.13-.02-.13-.03-.2-.13l-1.32-2.77Z"/>
  <path class="st15" d="M215.66,119.47c0-.64-.09-1.65-.55-2.61-.5-1.02-1.22-1.57-1.3-1.57-.05,0-.09.04-.09.1,0,.03,0,.03.16.2.83.83,1.3,2.15,1.3,3.89,0,1.44-.3,2.91-1.34,3.96-.12.11-.12.12-.12.15,0,.05.04.09.09.09.08,0,.84-.58,1.32-1.64.44-.92.53-1.85.53-2.56Z"/>
</svg>