<svg xmlns="http://www.w3.org/2000/svg" width="1352" height="449pt" viewBox="0 0 1014 449"><path stroke-width="3" stroke-miterlimit="10" fill="none" stroke="#d2d2d2" d="M832.277 442.684v4h-4"/><path stroke-width="3" stroke-dasharray="7.922000000000001,3.9610000000000003" stroke-miterlimit="10" fill="none" stroke="#d2d2d2" d="M833.316 446.684H236.027M229.008 1.5h597.289"/><path stroke-width="3" stroke-miterlimit="10" fill="none" stroke="#d2d2d2" d="M828.277 1.5h4v4"/><path stroke-width="3" stroke-dasharray="8.022,4.011" stroke-miterlimit="10" fill="none" stroke="#d2d2d2" d="M832.277 9.512v431.164"/><path stroke-width="3" stroke-miterlimit="10" fill="none" stroke="#d2d2d2" d="M225.047 446.684h-4v-4"/><path stroke-width="3" stroke-dasharray="8.022,4.011" stroke-miterlimit="10" fill="none" stroke="#d2d2d2" d="M221.047 438.672V7.504"/><path stroke-width="3" stroke-miterlimit="10" fill="none" stroke="#d2d2d2" d="M221.047 5.5v-4h4"/><path d="M512.395 20.863v-.914c.644 0 1.132-.015 1.457-.047.324 0 .484-.039.484-.121V9.43h-1.941v-.914h4.5c.105.027.175.062.21.101l7.094 8.434V9.586c0-.039-.066-.07-.191-.09a1.661 1.661 0 0 0-.293-.031 21.729 21.729 0 0 0-1.461-.035v-.914h4.914v.914c-.645 0-1.129.011-1.457.035-.066 0-.164.008-.293.031-.129.02-.191.051-.191.09v10.988a.359.359 0 0 1-.289.289h-.45c-.105-.027-.168-.062-.195-.105l-8.926-10.602v9.625c0 .082.16.121.481.121.324.032.808.047 1.461.047v.914ZM533.059 20.18c.683 0 1.187-.16 1.511-.481.321-.32.52-.711.594-1.172.07-.465.109-1.07.109-1.82 0-.559-.023-1.008-.062-1.359a3.222 3.222 0 0 0-.262-.957 1.594 1.594 0 0 0-.656-.7c-.301-.175-.715-.261-1.234-.261-.524 0-.934.086-1.235.261a1.57 1.57 0 0 0-.66.711 3.263 3.263 0 0 0-.266 1.008c-.035.371-.054.805-.054 1.297 0 .75.035 1.355.109 1.82.074.461.27.852.594 1.172.32.321.824.481 1.512.481m-4.59-3.235c0-.886.199-1.648.601-2.289a3.892 3.892 0 0 1 1.645-1.453c.695-.332 1.476-.496 2.344-.496a5.64 5.64 0 0 1 1.808.281 4.27 4.27 0 0 1 1.465.828c.418.364.742.805.969 1.336.23.528.344 1.125.344 1.793 0 .649-.118 1.227-.36 1.735s-.57.929-.992 1.269c-.422.34-.914.594-1.473.766a6.112 6.112 0 0 1-1.761.254 6 6 0 0 1-1.754-.254 4.443 4.443 0 0 1-1.473-.766 3.558 3.558 0 0 1-1.004-1.269c-.238-.508-.359-1.086-.359-1.735M539.016 20.863v-.914h1.238v-5.617c0-.34-.41-.508-1.238-.508v-.914l3.175-.152v1.84a3.293 3.293 0 0 1 1.274-1.344 3.424 3.424 0 0 1 1.781-.496c.953 0 1.664.195 2.141.582.48.387.718 1.051.718 1.996v4.613h1.247v.914h-4.622v-.914h1.247v-4.562c0-.551-.055-1.004-.161-1.367-.109-.36-.375-.54-.793-.54a2.5 2.5 0 0 0-1.328.372 2.74 2.74 0 0 0-.961.996c-.234.41-.351.851-.351 1.312v3.789h1.238v.914ZM550.504 20.863v-.914h1.238v-5.617c0-.34-.414-.508-1.238-.508v-.914l3.172-.152v1.84a3.317 3.317 0 0 1 1.273-1.344 3.44 3.44 0 0 1 1.785-.496c.95 0 1.664.195 2.141.582.477.387.715 1.051.715 1.996v4.613h1.25v.914h-4.625v-.914h1.25v-4.562c0-.551-.055-1.004-.164-1.367-.106-.36-.371-.54-.793-.54-.477 0-.922.125-1.328.372-.407.25-.727.582-.961.996-.231.41-.348.851-.348 1.312v3.789h1.238v.914ZM564.172 16.273h4.156c0-.789-.168-1.461-.496-2.015-.332-.555-.863-.832-1.598-.832-.75 0-1.281.277-1.593.824-.313.547-.469 1.223-.469 2.023m-2.375.539c0-.839.195-1.57.586-2.195a3.772 3.772 0 0 1 1.594-1.422c.675-.328 1.425-.488 2.257-.488.828 0 1.528.148 2.106.441a3.002 3.002 0 0 1 1.32 1.313c.301.578.453 1.285.453 2.121 0 .172-.097.289-.293.359h-5.648c0 .657.074 1.223.223 1.7.148.472.414.847.8 1.125.383.273.907.41 1.567.41.328 0 .668-.059 1.011-.172.348-.121.645-.293.895-.527a2.06 2.06 0 0 0 .539-.829.436.436 0 0 1 .273-.21h.34c.196.039.293.148.293.316 0 .012-.008.051-.019.113a2.593 2.593 0 0 1-.801 1.18 3.603 3.603 0 0 1-1.293.695 4.92 4.92 0 0 1-1.473.227 5.85 5.85 0 0 1-2.371-.477 3.963 3.963 0 0 1-1.722-1.406c-.426-.625-.637-1.383-.637-2.274M575.289 17.391c.629 0 1.043-.157 1.246-.469.199-.313.301-.801.301-1.453v-.063c0-.656-.102-1.14-.301-1.453-.203-.316-.617-.473-1.246-.473-.621 0-1.035.161-1.238.473-.207.32-.309.801-.309 1.453v.063c0 .648.102 1.133.309 1.449.203.316.617.473 1.238.473m-2.391 4.793c0 .566.325.972.969 1.214a5.642 5.642 0 0 0 4.008 0c.645-.242.965-.648.965-1.214 0-.446-.305-.735-.914-.86a10.067 10.067 0 0 0-2.02-.187h-1.82c-.348 0-.629.086-.852.261-.222.176-.336.438-.336.786m-1.617 0c0-.383.141-.707.426-.973a2.408 2.408 0 0 1 1.023-.566 2.077 2.077 0 0 1-.542-.766 2.438 2.438 0 0 1 .402-2.559 2.427 2.427 0 0 1-.668-.847 2.348 2.348 0 0 1-.246-1.039c0-.61.176-1.118.535-1.524a3.04 3.04 0 0 1 1.355-.879 5.54 5.54 0 0 1 1.723-.269c.457 0 .891.043 1.301.136.41.09.777.239 1.098.442a3.12 3.12 0 0 1 1.96-.668c.293 0 .551.105.77.312.219.207.328.465.328.77a.787.787 0 0 1-.23.574.786.786 0 0 1-.578.234.795.795 0 0 1-.575-.234.767.767 0 0 1-.242-.574.98.98 0 0 1 .063-.324 3.828 3.828 0 0 0-.977.304c.227.219.402.477.523.77.122.297.18.605.18.93 0 .605-.176 1.117-.531 1.523a3.011 3.011 0 0 1-1.363.883 5.453 5.453 0 0 1-1.727.273c-.859 0-1.586-.152-2.18-.457a1.021 1.021 0 0 0-.156.563c0 .308.109.574.336.789.227.219.492.328.797.328h1.82c1.36 0 2.457.18 3.293.539.84.359 1.258 1.129 1.258 2.309 0 .457-.156.839-.465 1.144-.312.309-.715.547-1.207.719a7.932 7.932 0 0 1-1.488.348c-.496.058-.969.089-1.426.089-.457 0-.933-.031-1.426-.089a7.927 7.927 0 0 1-1.48-.348c-.496-.172-.899-.41-1.211-.723a1.533 1.533 0 0 1-.473-1.14M583.805 18.852c0 .398.156.73.472.996.313.269.672.398 1.075.398.339 0 .671-.066.992-.207.324-.141.586-.348.793-.617.203-.27.308-.574.308-.914v-1.82c-.515 0-1.054.07-1.609.21a3.722 3.722 0 0 0-1.434.696 1.54 1.54 0 0 0-.597 1.258m-2.18 0c0-.571.207-1.04.617-1.411.41-.371.918-.656 1.528-.851a9.744 9.744 0 0 1 1.902-.414c.66-.078 1.25-.121 1.773-.121v-.668c0-.578-.16-1.051-.484-1.414-.324-.364-.766-.543-1.336-.543-.563 0-1.016.035-1.363.105.254.223.379.512.379.867 0 .336-.11.614-.332.836a1.12 1.12 0 0 1-.825.336c-.332 0-.609-.117-.832-.344a1.144 1.144 0 0 1-.332-.828c0-.707.328-1.168.985-1.379.652-.211 1.437-.316 2.343-.316.454 0 .907.043 1.356.133.449.086.867.234 1.258.445.394.207.711.481.949.817.242.336.359.746.359 1.234v4.176c0 .293.414.437 1.239.437.16.035.257.129.293.281v.344a.358.358 0 0 1-.293.289h-1.239c-.461 0-.879-.078-1.254-.242-.375-.16-.566-.441-.566-.84v-.211a2.537 2.537 0 0 1-1.102 1.043c-.48.239-.992.356-1.546.356-.891 0-1.692-.16-2.407-.485-.711-.32-1.07-.867-1.07-1.632M592.938 18.754v-4.965h-1.442v-.723a2.11 2.11 0 0 0 1.168-.328c.34-.218.617-.508.832-.859.211-.356.375-.746.484-1.172.106-.426.161-.848.161-1.269h.925v3.437h2.582v.914h-2.582v4.91c0 .438.071.789.215 1.067.141.273.403.414.785.414.329 0 .579-.157.75-.461.176-.313.262-.649.262-1.02v-1.015h.914v1.07c0 .387-.097.754-.289 1.094a2.21 2.21 0 0 1-.781.816c-.324.203-.68.305-1.067.305-.832 0-1.527-.172-2.082-.516-.558-.344-.835-.906-.835-1.699M600.539 9.793c0-.406.137-.746.414-1.023a1.369 1.369 0 0 1 1.016-.415c.41 0 .75.137 1.023.415.278.277.414.617.414 1.023 0 .398-.136.742-.414 1.023a1.363 1.363 0 0 1-1.023.422 1.36 1.36 0 0 1-1.016-.422 1.407 1.407 0 0 1-.414-1.023m-.562 11.07v-.914h1.242V14.34c0-.231-.11-.371-.328-.426-.215-.059-.504-.086-.86-.086v-.914l3.199-.152v7.187h1.133v.914ZM609.707 20.609l-3.156-6.82h-1.184v-.914h4.36v.914h-.961l2.203 4.734 2.109-4.585c0-.059-.098-.098-.297-.122a5.942 5.942 0 0 0-.57-.027v-.914h3.129v.914c-.754 0-1.164.047-1.235.149L611 20.609a.507.507 0 0 1-.5.325h-.293a.507.507 0 0 1-.5-.325M618.758 16.273h4.16c0-.789-.168-1.461-.5-2.015-.328-.555-.859-.832-1.594-.832-.75 0-1.281.277-1.594.824-.316.547-.472 1.223-.472 2.023m-2.371.539c0-.839.195-1.57.582-2.195a3.763 3.763 0 0 1 1.597-1.422c.672-.328 1.426-.488 2.258-.488.828 0 1.528.148 2.106.441a2.993 2.993 0 0 1 1.316 1.313c.305.578.453 1.285.453 2.121 0 .172-.094.289-.289.359h-5.652c0 .657.074 1.223.226 1.7.149.472.414.847.797 1.125.387.273.91.41 1.571.41.328 0 .664-.059 1.011-.172.344-.121.641-.293.891-.527.25-.231.43-.508.543-.829a.436.436 0 0 1 .273-.21h.34c.195.039.289.148.289.316a.89.89 0 0 1-.015.113 2.601 2.601 0 0 1-.801 1.18 3.62 3.62 0 0 1-1.297.695 4.886 4.886 0 0 1-1.473.227 5.83 5.83 0 0 1-2.367-.477 3.966 3.966 0 0 1-1.723-1.406c-.425-.625-.636-1.383-.636-2.274M632.883 20.863v-.914c.644 0 1.133-.015 1.461-.043.32 0 .48-.043.48-.125V9.43h-1.941v-.914h4.332c.246 0 .418.105.512.32l4.281 9.539 4.289-9.535c.094-.219.258-.324.5-.324h4.316v.914h-1.945v10.519h1.945v.914h-6.207v-.914h1.942V9.402l-5 11.137c-.094.215-.262.324-.508.324h-.09a.506.506 0 0 1-.5-.324l-4.895-10.898v10.14c0 .082.161.125.481.125.324.028.809.043 1.461.043v.914ZM654.566 18.852c0 .398.157.73.469.996.313.269.676.398 1.078.398.34 0 .672-.066.992-.207.325-.141.586-.348.793-.617a1.48 1.48 0 0 0 .309-.914v-1.82c-.516 0-1.055.07-1.609.21a3.687 3.687 0 0 0-1.434.696c-.398.32-.598.742-.598 1.258m-2.179 0c0-.571.203-1.04.617-1.411.41-.371.918-.656 1.527-.851a9.73 9.73 0 0 1 1.899-.414c.66-.078 1.254-.121 1.777-.121v-.668c0-.578-.164-1.051-.484-1.414-.325-.364-.77-.543-1.336-.543-.563 0-1.016.035-1.364.105.254.223.379.512.379.867a1.144 1.144 0 0 1-1.156 1.172c-.332 0-.609-.117-.832-.344a1.14 1.14 0 0 1-.332-.828c0-.707.328-1.168.984-1.379.653-.211 1.434-.316 2.344-.316.453 0 .906.043 1.356.133.445.086.867.234 1.257.445.395.207.711.481.95.817.238.336.359.746.359 1.234v4.176c0 .293.414.437 1.238.437.16.035.258.129.293.281v.344a.357.357 0 0 1-.293.289h-1.238c-.461 0-.883-.078-1.258-.242-.375-.16-.562-.441-.562-.84v-.211a2.537 2.537 0 0 1-1.102 1.043c-.48.239-.996.356-1.547.356-.89 0-1.695-.16-2.406-.485-.715-.32-1.07-.867-1.07-1.632M663.699 18.754v-4.965h-1.441v-.723c.437 0 .828-.109 1.168-.328.34-.218.617-.508.832-.859.211-.356.375-.746.484-1.172.106-.426.16-.848.16-1.269h.922v3.437h2.586v.914h-2.586v4.91c0 .438.071.789.219 1.067.141.273.402.414.785.414.328 0 .578-.157.75-.461.172-.313.262-.649.262-1.02v-1.015h.914v1.07c0 .387-.098.754-.293 1.094a2.169 2.169 0 0 1-.777.816c-.325.203-.68.305-1.067.305-.832 0-1.527-.172-2.082-.516-.558-.344-.836-.906-.836-1.699M670.555 20.863v-.914h1.238v-5.617c0-.34-.414-.508-1.238-.508v-.914l3.058-.152v1.84c.211-.547.508-.989.891-1.328.383-.34.844-.512 1.375-.512a2.5 2.5 0 0 1 1.387.398c.406.262.609.633.609 1.114 0 .312-.109.578-.324.8a1.091 1.091 0 0 1-.809.336c-.324 0-.594-.113-.808-.336a1.094 1.094 0 0 1-.325-.8c0-.317.094-.579.289-.79-.511 0-.921.184-1.234.547-.316.368-.535.817-.664 1.344a6.364 6.364 0 0 0-.195 1.512v3.066h1.574v.914ZM679.816 9.793c0-.406.137-.746.414-1.023a1.37 1.37 0 0 1 1.016-.415c.41 0 .75.137 1.024.415.277.277.414.617.414 1.023 0 .398-.137.742-.414 1.023a1.367 1.367 0 0 1-1.024.422c-.402 0-.742-.14-1.016-.422a1.407 1.407 0 0 1-.414-1.023m-.562 11.07v-.914h1.242V14.34c0-.231-.109-.371-.328-.426-.215-.059-.504-.086-.859-.086v-.914l3.199-.152v7.187h1.133v.914ZM684.574 20.863v-.914c1.02 0 1.582-.054 1.696-.168l2.425-2.75-2.699-3.242h-1.336v-.914h4.235v.914h-.649l1.617 1.926 1.563-1.777c0-.055-.086-.09-.258-.114a3.337 3.337 0 0 0-.418-.035v-.914h3.594v.914c-1.016 0-1.582.055-1.684.164l-2.199 2.481 2.918 3.515h1.344v.914h-4.246v-.914h.668l-1.852-2.195-1.801 2.047c0 .039.086.074.258.105.172.028.316.043.426.043v.914ZM702.676 20.863v-.914h1.945V9.43h-1.945v-.914h10.89l.555 4.41h-.914c-.125-.961-.305-1.684-.547-2.168a2.065 2.065 0 0 0-1.113-1.028c-.504-.199-1.235-.3-2.188-.3h-2.113v4.789h.688c.558 0 .984-.067 1.269-.196a1.02 1.02 0 0 0 .582-.632c.102-.293.153-.719.153-1.278h.914v5.125h-.914c0-.558-.051-.984-.153-1.277a1.04 1.04 0 0 0-.582-.637c-.285-.129-.711-.191-1.269-.191h-.688v4.816h2.445v.914ZM717.742 18.852c0 .398.156.73.469.996.316.269.676.398 1.078.398.34 0 .672-.066.992-.207.324-.141.586-.348.793-.617.203-.27.309-.574.309-.914v-1.82a6.59 6.59 0 0 0-1.61.21 3.69 3.69 0 0 0-1.433.696c-.399.32-.598.742-.598 1.258m-2.18 0c0-.571.204-1.04.618-1.411.41-.371.918-.656 1.527-.851a9.744 9.744 0 0 1 1.902-.414c.657-.078 1.25-.121 1.774-.121v-.668c0-.578-.164-1.051-.485-1.414-.324-.364-.769-.543-1.336-.543-.562 0-1.015.035-1.363.105.254.223.379.512.379.867a1.144 1.144 0 0 1-1.156 1.172 1.12 1.12 0 0 1-.832-.344 1.14 1.14 0 0 1-.332-.828c0-.707.328-1.168.984-1.379.653-.211 1.434-.316 2.344-.316.453 0 .906.043 1.355.133.446.086.868.234 1.258.445.395.207.711.481.949.817.239.336.36.746.36 1.234v4.176c0 .293.414.437 1.238.437.16.035.258.129.293.281v.344a.357.357 0 0 1-.293.289h-1.238c-.461 0-.883-.078-1.258-.242-.375-.16-.562-.441-.562-.84v-.211a2.542 2.542 0 0 1-1.102 1.043 3.425 3.425 0 0 1-1.547.356c-.891 0-1.695-.16-2.406-.485-.715-.32-1.071-.867-1.071-1.632M725.742 16.863c0-.847.196-1.59.586-2.226a3.764 3.764 0 0 1 1.61-1.442c.679-.328 1.441-.488 2.285-.488.855 0 1.601.109 2.242.332.637.223.957.68.957 1.363 0 .336-.11.614-.324.836a1.107 1.107 0 0 1-.828.332 1.14 1.14 0 0 1-.836-.332 1.144 1.144 0 0 1-.332-.836c0-.375.109-.648.324-.824a7.166 7.166 0 0 0-1.184-.082c-.594 0-1.047.164-1.359.492-.313.328-.52.739-.621 1.231a8.38 8.38 0 0 0-.149 1.629c0 2.218.84 3.328 2.524 3.328.332 0 .64-.059.922-.172.281-.117.527-.293.738-.531.211-.235.367-.508.465-.825a.287.287 0 0 1 .211-.14h.468c.145.043.219.125.219.246 0 .012-.008.043-.019.098a2.695 2.695 0 0 1-.746 1.187c-.344.32-.75.555-1.215.703a4.591 4.591 0 0 1-1.457.227c-.828 0-1.582-.16-2.266-.485a3.739 3.739 0 0 1-1.621-1.414c-.398-.621-.594-1.355-.594-2.207M736.078 18.754v-4.965h-1.441v-.723c.437 0 .828-.109 1.168-.328.34-.218.617-.508.828-.859a4.32 4.32 0 0 0 .484-1.172c.11-.426.164-.848.164-1.269h.922v3.437h2.586v.914h-2.586v4.91c0 .438.07.789.215 1.067.144.273.406.414.789.414.328 0 .578-.157.75-.461.172-.313.258-.649.258-1.02v-1.015h.914v1.07c0 .387-.094.754-.289 1.094a2.226 2.226 0 0 1-.778.816 1.968 1.968 0 0 1-1.066.305c-.832 0-1.527-.172-2.086-.516-.555-.344-.832-.906-.832-1.699M747.465 20.18c.687 0 1.191-.16 1.512-.481a2.06 2.06 0 0 0 .593-1.172c.075-.465.11-1.07.11-1.82 0-.559-.02-1.008-.059-1.359a3.11 3.11 0 0 0-.266-.957 1.545 1.545 0 0 0-.656-.7c-.301-.175-.711-.261-1.234-.261-.52 0-.934.086-1.231.261a1.601 1.601 0 0 0-.664.711 3.26 3.26 0 0 0-.261 1.008c-.039.371-.059.805-.059 1.297 0 .75.039 1.355.113 1.82.071.461.27.852.59 1.172.324.321.828.481 1.512.481m-4.586-3.235c0-.886.199-1.648.601-2.289a3.892 3.892 0 0 1 1.645-1.453c.695-.332 1.473-.496 2.34-.496a5.66 5.66 0 0 1 1.812.281 4.251 4.251 0 0 1 1.461.828c.422.364.746.805.973 1.336.23.528.344 1.125.344 1.793 0 .649-.121 1.227-.36 1.735a3.582 3.582 0 0 1-.996 1.269c-.418.34-.91.594-1.472.766a6.083 6.083 0 0 1-1.762.254 6.029 6.029 0 0 1-1.754-.254 4.463 4.463 0 0 1-1.469-.766 3.515 3.515 0 0 1-1.004-1.269c-.238-.508-.359-1.086-.359-1.735M753.285 20.863v-.914h1.238v-5.617c0-.34-.41-.508-1.238-.508v-.914l3.059-.152v1.84c.211-.547.508-.989.894-1.328a2 2 0 0 1 1.375-.512c.516 0 .977.133 1.383.398.406.262.609.633.609 1.114 0 .312-.105.578-.324.8a1.077 1.077 0 0 1-.808.336 1.09 1.09 0 0 1-.809-.336 1.11 1.11 0 0 1-.324-.8c0-.317.094-.579.289-.79-.508 0-.922.184-1.234.547a3.225 3.225 0 0 0-.665 1.344 6.403 6.403 0 0 0-.191 1.512v3.066h1.57v.914ZM762.547 9.793c0-.406.137-.746.414-1.023a1.367 1.367 0 0 1 1.016-.415c.41 0 .75.137 1.023.415.277.277.414.617.414 1.023 0 .398-.137.742-.414 1.023a1.363 1.363 0 0 1-1.023.422c-.403 0-.743-.14-1.016-.422a1.407 1.407 0 0 1-.414-1.023m-.559 11.07v-.914h1.239V14.34c0-.231-.11-.371-.325-.426-.218-.059-.507-.086-.863-.086v-.914l3.199-.152v7.187h1.133v.914ZM767.797 20.863a.3.3 0 0 1-.231-.09c-.058-.054-.086-.136-.086-.234v-.195a.3.3 0 0 1 .086-.219l5.008-6.531h-1.152c-.652 0-1.176.07-1.567.207a1.52 1.52 0 0 0-.878.75c-.196.355-.293.871-.293 1.539h-.922l.218-3.215h6.864c.101 0 .179.027.238.086a.318.318 0 0 1 .086.238v.156a.66.66 0 0 1-.07.223l-5.016 6.492h1.27c.351 0 .64-.011.867-.035.222-.023.465-.078.722-.172.254-.09.473-.226.661-.406.246-.246.414-.547.503-.902.086-.352.157-.821.204-1.403h.914l-.325 3.711ZM778.863 18.852c0 .398.153.73.469.996a1.6 1.6 0 0 0 1.078.398c.34 0 .668-.066.992-.207a1.96 1.96 0 0 0 .789-.617c.207-.27.309-.574.309-.914v-1.82a6.6 6.6 0 0 0-1.609.21 3.697 3.697 0 0 0-1.43.696c-.402.32-.598.742-.598 1.258m-2.183 0c0-.571.207-1.04.617-1.411a4.17 4.17 0 0 1 1.527-.851 9.818 9.818 0 0 1 1.903-.414c.66-.078 1.25-.121 1.773-.121v-.668c0-.578-.16-1.051-.484-1.414-.321-.364-.766-.543-1.336-.543-.559 0-1.016.035-1.36.105.25.223.375.512.375.867 0 .336-.109.614-.332.836a1.117 1.117 0 0 1-.824.336c-.332 0-.609-.117-.828-.344a1.144 1.144 0 0 1-.336-.828c0-.707.328-1.168.984-1.379.657-.211 1.438-.316 2.344-.316.457 0 .91.043 1.356.133.449.086.867.234 1.261.445.391.207.707.481.946.817.242.336.363.746.363 1.234v4.176c0 .293.41.437 1.238.437a.353.353 0 0 1 .289.281v.344a.357.357 0 0 1-.289.289h-1.238c-.465 0-.883-.078-1.258-.242-.375-.16-.562-.441-.562-.84v-.211a2.546 2.546 0 0 1-1.106 1.043c-.48.239-.992.356-1.543.356-.894 0-1.695-.16-2.41-.485-.711-.32-1.07-.867-1.07-1.632M787.992 18.754v-4.965h-1.441v-.723c.441 0 .832-.109 1.172-.328.336-.218.613-.508.828-.859a4.32 4.32 0 0 0 .484-1.172c.106-.426.164-.848.164-1.269h.922v3.437h2.582v.914h-2.582v4.91c0 .438.07.789.215 1.067.141.273.406.414.785.414.328 0 .578-.157.754-.461.172-.313.258-.649.258-1.02v-1.015h.914v1.07c0 .387-.098.754-.289 1.094a2.218 2.218 0 0 1-.781.816c-.321.203-.68.305-1.067.305-.832 0-1.523-.172-2.082-.516-.558-.344-.836-.906-.836-1.699M795.594 9.793c0-.406.14-.746.414-1.023a1.367 1.367 0 0 1 1.015-.415c.411 0 .75.137 1.024.415.277.277.414.617.414 1.023 0 .398-.137.742-.414 1.023a1.365 1.365 0 0 1-1.024.422c-.402 0-.742-.14-1.015-.422a1.419 1.419 0 0 1-.414-1.023m-.559 11.07v-.914h1.238V14.34c0-.231-.109-.371-.324-.426-.219-.059-.504-.086-.863-.086v-.914l3.199-.152v7.187h1.133v.914ZM805.125 20.18c.684 0 1.187-.16 1.512-.481.32-.32.519-.711.59-1.172.074-.465.113-1.07.113-1.82 0-.559-.024-1.008-.063-1.359a3.137 3.137 0 0 0-.265-.957 1.564 1.564 0 0 0-.653-.7c-.304-.175-.714-.261-1.234-.261-.523 0-.934.086-1.234.261a1.59 1.59 0 0 0-.664.711 3.233 3.233 0 0 0-.262 1.008c-.039.371-.055.805-.055 1.297 0 .75.035 1.355.11 1.82.07.461.269.852.593 1.172.321.321.825.481 1.512.481m-4.59-3.235c0-.886.199-1.648.602-2.289a3.883 3.883 0 0 1 1.644-1.453c.696-.332 1.477-.496 2.344-.496.648 0 1.254.094 1.809.281a4.224 4.224 0 0 1 1.461.828c.421.364.746.805.972 1.336.231.528.344 1.125.344 1.793 0 .649-.121 1.227-.359 1.735a3.585 3.585 0 0 1-.993 1.269c-.421.34-.914.594-1.472.766a6.123 6.123 0 0 1-1.762.254 6.01 6.01 0 0 1-1.754-.254 4.443 4.443 0 0 1-1.473-.766 3.523 3.523 0 0 1-1.003-1.269c-.239-.508-.36-1.086-.36-1.735M811.082 20.863v-.914h1.238v-5.617c0-.34-.41-.508-1.238-.508v-.914l3.172-.152v1.84a3.307 3.307 0 0 1 1.277-1.344 3.427 3.427 0 0 1 1.781-.496c.95 0 1.665.195 2.141.582.477.387.719 1.051.719 1.996v4.613h1.246v.914h-4.621v-.914h1.246v-4.562c0-.551-.055-1.004-.16-1.367-.11-.36-.375-.54-.797-.54-.477 0-.922.125-1.328.372a2.72 2.72 0 0 0-.957.996c-.235.41-.352.851-.352 1.312v3.789h1.239v.914Zm0 0"/><path stroke-width="2" stroke-miterlimit="10" fill="none" stroke="#777" d="M665.488 402.117h-4M661.488 337.727v4"/><path stroke-width="2" stroke-dasharray="8.83,4.415" stroke-miterlimit="10" fill="none" stroke="#777" d="M661.488 346.141v50.777"/><path stroke-width="2" stroke-miterlimit="10" fill="none" stroke="#777" d="M661.488 399.125v4"/><path d="m655.934 341.941 5.554-2.359 5.555 2.359-5.555-13.168Z" fill="#777"/><path d="M684.121 420.625v-.914h1.238v-5.613c0-.34-.41-.512-1.238-.512v-.914l3.059-.149v1.836c.211-.547.508-.988.894-1.328.383-.34.84-.508 1.375-.508.516 0 .977.133 1.383.395.406.266.609.637.609 1.117 0 .31-.105.578-.324.8a1.073 1.073 0 0 1-.808.333c-.321 0-.59-.109-.809-.332a1.118 1.118 0 0 1-.324-.8c0-.317.094-.583.289-.794-.508 0-.922.184-1.235.551a3.21 3.21 0 0 0-.664 1.34 6.408 6.408 0 0 0-.191 1.512v3.066h1.57v.914ZM694.957 416.04h4.16c0-.794-.168-1.466-.5-2.02-.328-.55-.859-.829-1.594-.829-.75 0-1.281.274-1.593.821-.317.547-.473 1.222-.473 2.027m-2.371.535c0-.836.195-1.57.582-2.191a3.767 3.767 0 0 1 1.598-1.426c.672-.324 1.425-.488 2.257-.488.829 0 1.528.148 2.106.445a2.994 2.994 0 0 1 1.316 1.309c.305.578.453 1.285.453 2.125 0 .168-.093.29-.289.359h-5.652c0 .656.074 1.223.227 1.695.148.477.414.852.796 1.125.387.278.911.414 1.571.414.328 0 .664-.058 1.011-.175a2.48 2.48 0 0 0 .891-.524c.25-.23.43-.508.543-.832a.47.47 0 0 1 .27-.211h.343c.196.043.289.149.289.317 0 .011-.003.05-.015.117-.16.469-.426.859-.801 1.176a3.64 3.64 0 0 1-1.297.699c-.488.148-.98.222-1.473.222a5.845 5.845 0 0 1-2.367-.472 3.96 3.96 0 0 1-1.722-1.41c-.426-.625-.637-1.383-.637-2.274M706.078 417.156c.625 0 1.039-.156 1.242-.472.2-.313.305-.797.305-1.454v-.062c0-.656-.105-1.141-.305-1.453-.203-.313-.617-.473-1.242-.473-.621 0-1.035.16-1.242.477-.203.316-.305.8-.305 1.449v.062c0 .649.102 1.133.305 1.45.207.316.621.476 1.242.476m-2.394 4.789c0 .567.324.973.968 1.215a5.582 5.582 0 0 0 2.004.367c.692 0 1.36-.121 2.004-.367.645-.242.969-.648.969-1.215 0-.445-.305-.73-.914-.86a10.127 10.127 0 0 0-2.024-.187h-1.82c-.344 0-.629.09-.851.266-.223.176-.336.434-.336.78m-1.614 0c0-.382.141-.706.426-.971a2.437 2.437 0 0 1 1.024-.567 2.06 2.06 0 0 1-.547-.765 2.42 2.42 0 0 1-.192-.957c0-.594.199-1.125.598-1.598a2.482 2.482 0 0 1-.668-.852 2.346 2.346 0 0 1-.246-1.04c0-.608.176-1.116.531-1.518a3 3 0 0 1 1.356-.88 5.419 5.419 0 0 1 1.726-.273c.457 0 .891.047 1.301.137.41.09.773.238 1.098.442a3.103 3.103 0 0 1 1.957-.668c.293 0 .55.105.773.312.219.211.328.465.328.77 0 .23-.078.422-.234.574a.78.78 0 0 1-.574.234.789.789 0 0 1-.575-.234.746.746 0 0 1-.242-.574c0-.094.02-.204.059-.325a3.62 3.62 0 0 0-.973.309c.227.215.399.473.52.766.121.296.183.605.183.929 0 .61-.179 1.117-.531 1.524-.359.41-.809.703-1.363.883a5.465 5.465 0 0 1-1.727.273c-.863 0-1.59-.152-2.183-.457a1.046 1.046 0 0 0-.157.562c0 .313.114.575.34.793.223.215.488.325.793.325h1.82c1.36 0 2.457.179 3.297.54.836.358 1.258 1.128 1.258 2.307 0 .457-.156.84-.469 1.145-.308.308-.711.547-1.207.719a7.57 7.57 0 0 1-1.484.347c-.496.059-.973.09-1.43.09-.457 0-.933-.031-1.422-.09a7.468 7.468 0 0 1-1.48-.347c-.496-.172-.902-.411-1.215-.723a1.531 1.531 0 0 1-.469-1.141M713.855 418.535v-4.437c0-.34-.414-.512-1.238-.512v-.914l3.363-.149v5.942c0 .492.032.836.09 1.031a.594.594 0 0 0 .387.406c.203.071.543.11 1.016.11.597 0 1.097-.227 1.5-.676a2.3 2.3 0 0 0 .605-1.574v-3.664c0-.34-.418-.512-1.25-.512v-.914l3.375-.149v6.68c0 .215.121.356.356.418.238.06.535.09.894.09v.914l-3.273.105v-1.324a2.75 2.75 0 0 1-1.028.969 2.77 2.77 0 0 1-1.359.355c-.418 0-.832-.023-1.242-.074a3.767 3.767 0 0 1-1.098-.293 1.873 1.873 0 0 1-.797-.672c-.199-.304-.301-.687-.301-1.156M724.145 420.625v-.914h1.242v-10.008c0-.223-.117-.363-.352-.418a3.956 3.956 0 0 0-.89-.086v-.922l3.253-.14v11.574h1.239v.914ZM731.82 418.613c0 .4.157.731.469.996a1.6 1.6 0 0 0 1.078.403c.34 0 .672-.071.992-.211.321-.14.586-.348.793-.617.203-.27.305-.575.305-.914v-1.817a6.55 6.55 0 0 0-1.609.211 3.645 3.645 0 0 0-1.43.691 1.549 1.549 0 0 0-.598 1.258m-2.179 0c0-.566.203-1.04.617-1.41.41-.371.918-.656 1.527-.851a9.937 9.937 0 0 1 1.899-.414c.66-.079 1.25-.118 1.773-.118v-.668c0-.582-.16-1.054-.484-1.418-.321-.363-.766-.543-1.332-.543-.563 0-1.016.036-1.364.106.25.223.379.512.379.871 0 .332-.113.609-.336.832a1.114 1.114 0 0 1-.82.336c-.332 0-.613-.117-.832-.344a1.132 1.132 0 0 1-.332-.824c0-.711.328-1.172.98-1.383.657-.211 1.438-.316 2.344-.316.457 0 .91.047 1.356.133a4.62 4.62 0 0 1 1.261.445c.391.207.707.48.946.816.242.336.363.75.363 1.235v4.175c0 .293.414.438 1.238.438.16.035.254.129.289.28v.345a.348.348 0 0 1-.289.289h-1.238a3.1 3.1 0 0 1-1.258-.242c-.375-.16-.562-.438-.562-.836v-.211a2.537 2.537 0 0 1-1.106 1.039 3.407 3.407 0 0 1-1.543.355c-.894 0-1.695-.16-2.406-.48-.715-.324-1.07-.867-1.07-1.637M739.766 420.625v-.914h1.238v-5.613c0-.34-.414-.512-1.238-.512v-.914l3.058-.149v1.836c.211-.547.508-.988.891-1.328.383-.34.844-.508 1.375-.508.515 0 .976.133 1.387.395.406.266.609.637.609 1.117 0 .31-.109.578-.324.8a1.087 1.087 0 0 1-.809.333c-.324 0-.594-.109-.808-.332a1.102 1.102 0 0 1-.325-.8c0-.317.094-.583.289-.794-.511 0-.921.184-1.234.551-.316.367-.535.812-.664 1.34a6.369 6.369 0 0 0-.195 1.512v3.066h1.574v.914ZM749.027 409.555c0-.403.137-.746.414-1.02a1.376 1.376 0 0 1 1.016-.418c.41 0 .75.14 1.023.418.278.274.415.617.415 1.02 0 .402-.137.742-.415 1.023a1.356 1.356 0 0 1-1.023.426c-.402 0-.742-.141-1.016-.426a1.4 1.4 0 0 1-.414-1.023m-.562 11.07v-.914h1.242v-5.609c0-.23-.109-.372-.328-.426a3.629 3.629 0 0 0-.859-.082v-.914l3.199-.157v7.188h1.133v.914ZM754.277 420.625a.304.304 0 0 1-.23-.086.325.325 0 0 1-.086-.238v-.196c0-.085.027-.16.086-.218l5.008-6.532h-1.153c-.652 0-1.175.07-1.566.207a1.532 1.532 0 0 0-.879.75c-.195.36-.293.876-.293 1.543h-.922l.219-3.218h6.863c.098 0 .18.031.238.09a.312.312 0 0 1 .086.234v.16c0 .04-.023.113-.07.219l-5.016 6.496h1.27c.352 0 .641-.012.867-.035a3.18 3.18 0 0 0 .719-.172c.254-.09.477-.227.664-.41.246-.246.414-.543.504-.9a9.37 9.37 0 0 0 .203-1.401h.914l-.324 3.707ZM764.41 418.516v-4.965h-1.441v-.723c.437 0 .828-.109 1.168-.328.34-.22.617-.504.832-.859a4.45 4.45 0 0 0 .484-1.172c.106-.422.16-.848.16-1.27h.922v3.438h2.586v.914h-2.586v4.914c0 .433.074.789.219 1.062.141.278.402.414.785.414.328 0 .578-.156.75-.46.172-.31.262-.649.262-1.016v-1.02h.914v1.071c0 .386-.098.754-.293 1.093a2.213 2.213 0 0 1-.777.821c-.325.199-.68.3-1.067.3-.832 0-1.527-.171-2.082-.51-.558-.345-.836-.911-.836-1.704M772.012 409.555c0-.403.136-.746.41-1.02a1.38 1.38 0 0 1 1.019-.418c.407 0 .75.14 1.024.418.273.274.41.617.41 1.02 0 .402-.137.742-.41 1.023a1.364 1.364 0 0 1-1.024.426 1.36 1.36 0 0 1-1.019-.426 1.41 1.41 0 0 1-.41-1.023m-.563 11.07v-.914h1.239v-5.609c0-.23-.11-.372-.325-.426a3.66 3.66 0 0 0-.863-.082v-.914l3.199-.157v7.188h1.137v.914ZM781.539 419.941c.688 0 1.188-.16 1.512-.48.324-.316.519-.711.594-1.172.074-.465.109-1.07.109-1.82 0-.555-.02-1.008-.063-1.36a3.143 3.143 0 0 0-.261-.957 1.592 1.592 0 0 0-.657-.699c-.3-.176-.714-.262-1.234-.262-.519 0-.934.086-1.234.262a1.568 1.568 0 0 0-.66.715 3.074 3.074 0 0 0-.262 1.004c-.039.371-.059.805-.059 1.297 0 .75.035 1.355.11 1.82.074.461.273.856.593 1.172.325.32.825.48 1.512.48m-4.586-3.234c0-.887.199-1.648.602-2.285a3.837 3.837 0 0 1 1.644-1.457c.692-.328 1.473-.496 2.34-.496.652 0 1.254.093 1.813.281a4.306 4.306 0 0 1 1.46.828c.418.363.743.81.973 1.336.227.527.344 1.125.344 1.793 0 .648-.121 1.23-.363 1.734-.239.508-.571.93-.993 1.27-.421.34-.914.598-1.472.766a5.982 5.982 0 0 1-1.762.253 5.929 5.929 0 0 1-1.754-.253 4.449 4.449 0 0 1-1.473-.766 3.53 3.53 0 0 1-1-1.27c-.242-.503-.359-1.086-.359-1.734M787.5 420.625v-.914h1.238v-5.613c0-.34-.414-.512-1.238-.512v-.914l3.172-.149v1.836a3.352 3.352 0 0 1 1.273-1.343 3.426 3.426 0 0 1 1.785-.493c.95 0 1.661.192 2.141.579.477.386.715 1.054.715 1.996v4.613h1.25v.914h-4.625v-.914h1.25v-4.563c0-.546-.055-1.003-.164-1.363-.109-.363-.371-.543-.793-.543-.481 0-.922.125-1.328.375a2.72 2.72 0 0 0-.961.992 2.623 2.623 0 0 0-.352 1.317v3.785h1.239v.914Zm0 0"/><path stroke-width="2" stroke-dasharray="8.14,4.07" stroke-miterlimit="10" fill="none" stroke="#777" d="M852.219 402.117H667.523"/><path d="M18.914 434.766h10v-300h-10Z" fill="#f4d7e1"/><path stroke-width="1" fill="none" stroke="#000" d="M18.914 434.766h10v-300h-10Z"/><path d="m18.914 134.766 120-120h10l-120 120Z" fill="#ff99b6"/><path stroke-width="1" fill="none" stroke="#000" d="m18.914 134.766 120-120h10l-120 120Zm0 0"/><path d="m28.914 134.766 120-120v300l-120 120Z" fill="#ff99b6"/><path stroke-width="1" fill="none" stroke="#000" d="m28.914 134.766 120-120v300l-120 120Zm0 0"/><path d="M81.551 227.094h2.63c.768 0 1.464-.063 2.081-.18a4.527 4.527 0 0 0 1.687-.687c.485-.34.836-.899 1.059-1.68.226-.777.34-1.531.34-2.25 0-.68-.2-1.184-.598-1.52-.398-.336-.883-.547-1.453-.636a12.682 12.682 0 0 0-1.949-.133h-2.629Zm-8.035 9.429.203-1.32h2.804l2.55-15.195H76.27l.203-1.32h9.597c1.11 0 2.207.117 3.297.355 1.086.238 2.02.672 2.805 1.301.781.633 1.172 1.504 1.172 2.613 0 1.227-.496 2.242-1.492 3.043-.997.801-2.172 1.375-3.528 1.723.688.277 1.25.687 1.692 1.222a2.86 2.86 0 0 1 .664 1.864v.238l-.114 2.258v.316c0 1.438.477 2.156 1.434 2.156.32 0 .621-.093.895-.273a2.34 2.34 0 0 0 .687-.719c.18-.297.297-.594.348-.887.05-.238.187-.378.406-.421h.496c.277.05.418.226.418.523-.129.785-.508 1.453-1.137 1.996-.633.547-1.347.82-2.144.82-.914 0-1.774-.062-2.574-.191-.8-.125-1.497-.414-2.086-.859-.59-.45-.883-1.106-.883-1.969 0-.125.015-.324.051-.594l.394-2.258c.016-.125.027-.289.027-.492 0-.457-.101-.859-.304-1.211a2.079 2.079 0 0 0-.856-.816 2.584 2.584 0 0 0-1.234-.293h-3.145l-1.168 7.07H83l-.23 1.32ZM156.758 174.266c0-.086.008-.153.019-.196l1.645-6.554c.109-.411.16-.77.16-1.075 0-.629-.215-.945-.641-.945-.461 0-.8.274-1.023.82-.223.547-.438 1.243-.645 2.079a.108.108 0 0 1-.062.101.244.244 0 0 1-.121.035h-.258c-.047 0-.09-.023-.129-.078a.27.27 0 0 1-.051-.144c.157-.637.309-1.176.457-1.621.145-.446.375-.848.688-1.215a1.466 1.466 0 0 1 1.164-.547c.551 0 1.039.176 1.461.523.422.348.633.789.633 1.324a5.027 5.027 0 0 1 1.535-1.351 3.79 3.79 0 0 1 1.871-.496c.523 0 .973.09 1.355.269.379.18.672.45.883.813.211.359.317.789.317 1.289 0 .601-.133 1.328-.403 2.18-.269.851-.601 1.8-1.004 2.851-.207.481-.312.922-.312 1.32 0 .438.168.657.508.657.57 0 1.05-.309 1.433-.922a6.313 6.313 0 0 0 .809-1.977c.031-.082.09-.125.183-.125h.258c.059 0 .106.016.145.051a.183.183 0 0 1 .062.141c0 .015-.011.035-.023.062a6.734 6.734 0 0 1-1.047 2.305c-.5.703-1.121 1.055-1.863 1.055a1.82 1.82 0 0 1-1.321-.532 1.724 1.724 0 0 1-.55-1.293c0-.273.058-.558.171-.859.188-.481.399-1.055.641-1.719.238-.668.434-1.304.59-1.914.152-.605.23-1.144.23-1.609 0-.41-.082-.754-.25-1.043-.171-.285-.453-.43-.855-.43-.539 0-1.031.117-1.484.356a3.94 3.94 0 0 0-1.18.937 7.295 7.295 0 0 0-.926 1.391l-1.492 5.984a.974.974 0 0 1-.336.516.902.902 0 0 1-.586.215.667.667 0 0 1-.465-.172.589.589 0 0 1-.191-.457M61.832 69.605c0-.085.008-.152.02-.195l1.644-6.555c.11-.406.16-.765.16-1.074 0-.629-.215-.941-.64-.941-.46 0-.801.273-1.024.82-.222.547-.437 1.238-.644 2.074 0 .043-.02.078-.063.102a.222.222 0 0 1-.117.039h-.262c-.047 0-.09-.027-.129-.078a.285.285 0 0 1-.05-.149c.156-.636.308-1.175.457-1.621.144-.441.375-.847.687-1.211a1.47 1.47 0 0 1 1.164-.546c.55 0 1.039.171 1.461.519.422.348.633.789.633 1.328a5.011 5.011 0 0 1 1.539-1.355 3.76 3.76 0 0 1 1.867-.492c.524 0 .973.089 1.356.265.379.18.671.449.882.813.211.363.321.793.321 1.293 0 .601-.137 1.328-.406 2.175a47.931 47.931 0 0 1-1.004 2.856c-.207.48-.309.922-.309 1.32 0 .438.168.656.504.656.57 0 1.051-.308 1.433-.925a6.417 6.417 0 0 0 .813-1.973c.027-.086.086-.129.18-.129h.257c.06 0 .106.02.145.055a.17.17 0 0 1 .063.14.15.15 0 0 1-.024.063 6.67 6.67 0 0 1-1.047 2.305c-.5.703-1.117 1.054-1.863 1.054-.516 0-.957-.176-1.32-.531a1.73 1.73 0 0 1-.551-1.297c0-.269.058-.558.172-.859a80.73 80.73 0 0 0 .64-1.715 20.45 20.45 0 0 0 .59-1.914c.153-.61.231-1.145.231-1.613 0-.407-.082-.754-.25-1.039-.168-.29-.453-.43-.856-.43a3.16 3.16 0 0 0-1.48.351 4.013 4.013 0 0 0-1.184.942 7.279 7.279 0 0 0-.926 1.387l-1.492 5.988a.96.96 0 0 1-.336.515.917.917 0 0 1-.586.215.667.667 0 0 1-.465-.176.577.577 0 0 1-.191-.457M8.27 369.645v-4l-4.922 1.996Zm4.3 4.26h-.914c0-1.139-.058-1.753-.168-1.835L.324 367.516a.428.428 0 0 1-.226-.188.51.51 0 0 1-.098-.293v-.398c0-.098.03-.196.094-.293a.462.462 0 0 1 .23-.2l11.332-4.621v-1.765h.914v6.195h-.914v-1.695l-2.472 1.008v4.757l2.32.95c.058 0 .09-.157.09-.47.039-.351.062-.733.062-1.148h.914ZM11.953 353.832c0-.47-.113-.906-.348-1.316a2.86 2.86 0 0 0-.925-1.004H6.23c-.332.254-.589.558-.773.918a2.6 2.6 0 0 0-.27 1.172c0 .664.153 1.168.465 1.51a2.2 2.2 0 0 0 1.188.673c.48.106 1.043.156 1.695.156h.05c1.028 0 1.845-.129 2.454-.386.609-.258.914-.832.914-1.723m-3.383 4.48c-.855 0-1.593-.195-2.215-.589a3.78 3.78 0 0 1-1.41-1.614c-.32-.679-.48-1.445-.48-2.297 0-.425.066-.847.195-1.26.13-.42.32-.798.578-1.146H1.645c-.223 0-.364.117-.418.352a3.98 3.98 0 0 0-.082.887H.219l-.14-3.258h11.066c.21 0 .347-.117.414-.352.062-.234.097-.531.097-.89h.914l.106 3.367h-.864c.575.75.864 1.59.864 2.523 0 1.266-.37 2.297-1.11 3.09-.738.793-1.738 1.187-2.996 1.187M12.312 342.703l-6.82 3.156v1.188h-.914v-4.359h.914v.957l4.738-2.2-4.585-2.113c-.06 0-.098.102-.122.301-.02.195-.03.387-.03.566h-.915v-3.129h.914c0 .754.051 1.168.153 1.239l6.667 3.101a.51.51 0 0 1 .329.504v.289c0 .242-.11.406-.329.5M7.98 333.652v-4.156c-.789 0-1.46.164-2.015.496-.555.332-.832.863-.832 1.598 0 .75.273 1.281.824 1.594.547.312 1.223.468 2.023.468m.536 2.375c-.836 0-1.567-.195-2.192-.586a3.77 3.77 0 0 1-1.422-1.593c-.328-.676-.488-1.426-.488-2.258 0-.828.148-1.531.441-2.106a3 3 0 0 1 1.313-1.32c.574-.301 1.28-.453 2.121-.453.172 0 .29.098.36.293v5.648c.656 0 1.222-.074 1.695-.222.476-.149.85-.418 1.125-.801.277-.383.414-.906.414-1.57 0-.329-.06-.664-.176-1.008a2.41 2.41 0 0 0-.523-.895 2.027 2.027 0 0 0-.829-.539.437.437 0 0 1-.21-.273v-.34c.039-.195.144-.293.316-.293.012 0 .047.008.113.019.469.157.86.422 1.18.797.312.375.547.809.695 1.297.153.492.227.981.227 1.473a5.86 5.86 0 0 1-.477 2.371 3.946 3.946 0 0 1-1.41 1.723c-.625.421-1.383.636-2.273.636M12.57 326.488h-.914v-1.238H6.039c-.34 0-.512.414-.512 1.238h-.914l-.148-3.058H6.3c-.543-.211-.985-.504-1.324-.891a2.008 2.008 0 0 1-.512-1.375c0-.516.133-.976.394-1.387.266-.406.637-.609 1.118-.609.312 0 .578.109.8.324.223.219.332.488.332.813 0 .32-.109.59-.332.804a1.097 1.097 0 0 1-.8.329c-.317 0-.579-.098-.79-.293 0 .511.184.921.547 1.238.368.312.813.531 1.34.664a6.367 6.367 0 0 0 1.516.191h3.066v-1.574h.914ZM12.445 317.93H9.94c-.113-.032-.183-.106-.218-.231v-.476c.027-.118.078-.184.148-.196a3.23 3.23 0 0 0 1.102-.484 2.22 2.22 0 0 0 .73-.84c.168-.336.25-.73.25-1.183 0-1.356-.437-2.032-1.308-2.032a.902.902 0 0 0-.625.235 1.703 1.703 0 0 0-.422.578c-.106.23-.176.461-.21.683l-.24 1.344a4.73 4.73 0 0 1-.406 1.25 2.74 2.74 0 0 1-.777.969 1.835 1.835 0 0 1-1.153.383c-.464 0-.855-.102-1.18-.297a2.01 2.01 0 0 1-.741-.778 3.783 3.783 0 0 1-.368-1.07 6.77 6.77 0 0 1-.109-1.262c0-.707.113-1.277.34-1.711l-.324-.648-.016-.07v-.223c.027-.101.102-.176.219-.219h1.976c.129.043.207.118.24.219v.469a.292.292 0 0 1-.24.234c-.54 0-.929.192-1.175.567-.246.375-.372.843-.372 1.414 0 1.347.36 2.019 1.083 2.019.496 0 .847-.469 1.046-1.406l.227-1.371c.07-.445.223-.871.453-1.281.23-.411.53-.743.902-.996a2.106 2.106 0 0 1 1.24-.383c.635 0 1.159.152 1.557.461.403.308.688.714.856 1.226.164.508.25 1.074.25 1.696 0 .8-.188 1.48-.555 2.039l.535.867.02.07v.203a.295.295 0 0 1-.231.231M10.555 307.699c.398 0 .734-.156 1-.469.265-.316.398-.675.398-1.078 0-.34-.07-.672-.21-.992a1.963 1.963 0 0 0-.614-.793 1.484 1.484 0 0 0-.914-.308h-1.82c0 .515.07 1.054.21 1.609a3.65 3.65 0 0 0 .696 1.434c.32.398.738.597 1.254.597m0 2.18a1.816 1.816 0 0 1-1.41-.617c-.372-.41-.657-.918-.852-1.528a10.404 10.404 0 0 1-.414-1.898 15.37 15.37 0 0 1-.117-1.777h-.668c-.582 0-1.051.164-1.414.484-.364.324-.547.769-.547 1.336 0 .562.035 1.016.105 1.363.223-.254.512-.379.871-.379.332 0 .614.114.836.332.223.223.332.496.332.825 0 .332-.113.609-.343.832a1.139 1.139 0 0 1-.825.332c-.71 0-1.168-.329-1.379-.985-.21-.652-.316-1.433-.316-2.344 0-.453.043-.906.129-1.355.09-.445.238-.867.445-1.258.207-.394.481-.711.817-.949.34-.238.75-.359 1.234-.359h4.176c.293 0 .44-.414.44-1.239a.355.355 0 0 1 .283-.293h.339c.16.036.258.133.293.293v1.239c0 .461-.082.882-.242 1.257-.16.375-.44.563-.84.563h-.211c.457.258.805.625 1.043 1.101.235.481.356.997.356 1.547 0 .891-.164 1.696-.485 2.407-.324.714-.867 1.07-1.636 1.07M12.57 299.754h-.914v-1.238H6.039c-.34 0-.512.41-.512 1.238h-.914l-.148-3.059H6.3c-.543-.211-.985-.507-1.324-.894a2.001 2.001 0 0 1-.512-1.375c0-.516.133-.977.394-1.383.266-.406.637-.609 1.118-.609.312 0 .578.105.8.324.223.215.332.484.332.808 0 .321-.109.59-.332.809a1.109 1.109 0 0 1-.8.324c-.317 0-.579-.097-.79-.289 0 .508.184.922.547 1.235.368.312.813.535 1.34.664a6.367 6.367 0 0 0 1.516.191h3.066v-1.57h.914ZM14.457 291.473c-.297 0-.551-.102-.754-.309a1.033 1.033 0 0 1-.308-.769c0-.301.101-.551.308-.758.203-.203.457-.309.754-.309.434 0 .754.176.961.527a1.78 1.78 0 0 0 .035-.289 1.83 1.83 0 0 0-.433-1.183 2.854 2.854 0 0 0-1.063-.817l-1.387-.652-7.078 3.305v1.183h-.914v-4.363h.914v.945l4.688-2.187-4.535-2.106c-.06 0-.098.098-.122.297-.02.2-.03.387-.03.571h-.915v-3.129h.914c0 .754.051 1.172.153 1.261l8.312 3.868a4.225 4.225 0 0 1 1.574 1.226c.426.535.64 1.129.64 1.781 0 .493-.159.934-.483 1.325-.32.386-.731.582-1.231.582M12.57 273.367h-.914c0-.644-.015-1.129-.047-1.457 0-.32-.04-.484-.121-.484H1.133v1.941H.219v-4.332c0-.246.11-.414.324-.508l9.539-4.281-9.535-4.289a.504.504 0 0 1-.328-.5v-4.316h.914v1.941h10.523v-1.941h.914v6.207h-.914v-1.946H1.109l11.133 5c.219.094.328.266.328.512v.09a.504.504 0 0 1-.328.5l-10.898 4.894h10.144c.082 0 .121-.16.121-.484.032-.32.047-.809.047-1.457h.914ZM10.555 251.688c.398 0 .734-.157 1-.473.265-.313.398-.672.398-1.074 0-.34-.07-.672-.21-.996a1.953 1.953 0 0 0-.614-.79 1.46 1.46 0 0 0-.914-.308h-1.82c0 .515.07 1.051.21 1.609.141.555.372 1.035.696 1.434.32.398.738.598 1.254.598m0 2.179a1.83 1.83 0 0 1-1.41-.617c-.372-.41-.657-.922-.852-1.527a10.476 10.476 0 0 1-.414-1.903c-.078-.66-.117-1.25-.117-1.773h-.668c-.582 0-1.051.16-1.414.484-.364.321-.547.766-.547 1.336 0 .563.035 1.016.105 1.36a1.11 1.11 0 0 1 .871-.375 1.134 1.134 0 0 1 1.168 1.156c0 .332-.113.609-.343.832a1.139 1.139 0 0 1-.825.332c-.71 0-1.168-.328-1.379-.984-.21-.657-.316-1.438-.316-2.344 0-.457.043-.906.129-1.356.09-.449.238-.867.445-1.261.207-.391.481-.707.817-.946.34-.242.75-.359 1.234-.359h4.176c.293 0 .44-.414.44-1.242a.353.353 0 0 1 .283-.289h.339c.16.035.258.132.293.289v1.242c0 .461-.082.879-.242 1.254-.16.375-.44.562-.84.562h-.211c.457.258.805.629 1.043 1.106.235.48.356.992.356 1.547 0 .89-.164 1.691-.485 2.406-.324.711-.867 1.07-1.636 1.07M10.46 242.555H5.493v1.441h-.719c0-.441-.109-.832-.328-1.172a2.68 2.68 0 0 0-.863-.828 4.285 4.285 0 0 0-1.168-.484 5.237 5.237 0 0 0-1.27-.16v-.926h3.434v-2.582h.914v2.582h4.914c.434 0 .789-.071 1.063-.215.277-.141.414-.406.414-.785 0-.328-.153-.578-.461-.75a2.008 2.008 0 0 0-1.016-.262H9.387v-.914h1.074c.387 0 .75.098 1.094.289.343.195.613.453.816.781.203.325.305.68.305 1.067 0 .832-.172 1.523-.516 2.082-.344.558-.91.836-1.7.836M12.57 235.699h-.914v-1.238H6.039c-.34 0-.512.41-.512 1.238h-.914l-.148-3.058H6.3c-.543-.211-.985-.508-1.324-.895a2.001 2.001 0 0 1-.512-1.375c0-.516.133-.976.394-1.383.266-.406.637-.609 1.118-.609.312 0 .578.105.8.324.223.219.332.485.332.809 0 .324-.109.59-.332.808a1.11 1.11 0 0 1-.8.325c-.317 0-.579-.094-.79-.29 0 .508.184.922.547 1.235.368.312.813.535 1.34.664a6.367 6.367 0 0 0 1.516.191h3.066v-1.57h.914ZM12.57 226.996h-.914v-1.238H6.043c-.227 0-.367.109-.426.328a3.606 3.606 0 0 0-.082.859h-.914l-.156-3.199h7.19v-1.133h.915Zm-11.07-.558c-.406 0-.746-.137-1.023-.415a1.366 1.366 0 0 1-.415-1.015c0-.41.137-.75.415-1.028a1.4 1.4 0 0 1 1.023-.41c.398 0 .738.137 1.023.41.282.278.422.618.422 1.028 0 .402-.14.742-.422 1.015a1.41 1.41 0 0 1-1.023.415M12.57 221.68h-.914c0-1.02-.058-1.586-.168-1.696l-2.75-2.425-3.246 2.699v1.336h-.914v-4.239h.914v.653l1.926-1.617-1.773-1.567c-.055 0-.094.086-.118.258-.02.176-.035.313-.035.418h-.914v-3.594h.914c0 1.02.06 1.582.168 1.688l2.481 2.195 3.515-2.918v-1.344h.914v4.246h-.914v-.668l-2.199 1.856 2.05 1.801c.04 0 .075-.086.102-.258.032-.176.047-.316.047-.43h.914Zm0 0"/><path d="M252.328 434.29h10v-300h-10Z" fill="#e6faff"/><path stroke-width="1" fill="none" stroke="#000" d="M252.328 434.29h10v-300h-10Z"/><path d="m252.328 134.289 120-120h10l-120 120Z" fill="#99ebff"/><path stroke-width="1" fill="none" stroke="#000" d="m252.328 134.289 120-120h10l-120 120Zm0 0"/><path d="m262.328 134.289 120-120v300l-120 120Z" fill="#99ebff"/><path stroke-width="1" fill="none" stroke="#000" d="m262.328 134.289 120-120v300l-120 120Zm0 0"/><path d="M314.152 229.84h5.801l-1.711-7.11Zm-7.172 6.207.204-1.32c1.668 0 2.566-.082 2.703-.243l9.254-16.125c.203-.312.468-.468.789-.468h.597c.133 0 .262.047.379.14a.535.535 0 0 1 .215.328l3.949 16.368h2.578l-.23 1.32h-8.949l.242-1.32h2.41l-.863-3.571h-6.856l-1.929 3.356c0 .082.218.125.648.125.508.058 1.067.09 1.676.09l-.242 1.32ZM389.812 174.246c0-.086.008-.148.02-.195l1.645-6.555c.105-.406.16-.766.16-1.07 0-.633-.215-.946-.645-.946-.457 0-.797.274-1.019.821-.223.547-.438 1.238-.645 2.074 0 .043-.023.078-.066.102a.222.222 0 0 1-.117.039h-.258c-.051 0-.094-.028-.129-.078a.285.285 0 0 1-.051-.149 22.59 22.59 0 0 1 .453-1.617c.149-.445.379-.852.688-1.215.312-.363.699-.547 1.168-.547.55 0 1.035.176 1.461.52.421.347.632.793.632 1.328a5.06 5.06 0 0 1 1.536-1.356 3.781 3.781 0 0 1 1.871-.492c.523 0 .972.09 1.351.27.379.175.676.449.887.808.211.364.316.793.316 1.293 0 .602-.132 1.328-.402 2.18-.27.851-.602 1.801-1.004 2.851-.207.481-.312.922-.312 1.321 0 .437.168.656.507.656.571 0 1.051-.309 1.434-.926a6.271 6.271 0 0 0 .809-1.972c.027-.086.089-.129.183-.129h.258a.21.21 0 0 1 .145.054.181.181 0 0 1 .058.141.235.235 0 0 1-.019.063 6.748 6.748 0 0 1-1.047 2.304c-.5.703-1.121 1.055-1.864 1.055a1.83 1.83 0 0 1-1.324-.531 1.745 1.745 0 0 1-.547-1.293c0-.274.059-.563.172-.864.188-.476.399-1.05.641-1.714.238-.668.433-1.305.59-1.915.152-.609.23-1.144.23-1.613 0-.406-.086-.754-.254-1.039-.168-.289-.453-.43-.851-.43-.539 0-1.032.118-1.485.352a4.043 4.043 0 0 0-1.179.941c-.34.387-.645.852-.926 1.387l-1.492 5.988a.966.966 0 0 1-.34.516.896.896 0 0 1-.586.215.667.667 0 0 1-.461-.176.575.575 0 0 1-.192-.457M294.887 69.59c0-.086.004-.152.019-.195l1.645-6.555c.105-.406.16-.766.16-1.074 0-.629-.215-.946-.645-.946-.457 0-.796.278-1.019.825-.223.546-.438 1.238-.645 2.074 0 .043-.023.078-.066.101a.213.213 0 0 1-.117.039h-.258c-.051 0-.094-.027-.129-.082a.258.258 0 0 1-.051-.144c.157-.637.309-1.176.453-1.621.149-.442.379-.848.688-1.211.312-.363.699-.547 1.168-.547.551 0 1.035.172 1.461.519.422.348.633.789.633 1.329a5.031 5.031 0 0 1 1.535-1.356 3.776 3.776 0 0 1 1.871-.492c.523 0 .972.09 1.351.266.379.179.676.449.887.812.211.359.317.793.317 1.293 0 .602-.133 1.324-.403 2.176a54.07 54.07 0 0 1-1.004 2.855c-.207.481-.312.918-.312 1.321 0 .437.168.656.504.656.574 0 1.054-.309 1.437-.926a6.282 6.282 0 0 0 .809-1.973c.027-.086.09-.129.183-.129h.258c.059 0 .106.016.145.055a.18.18 0 0 1 .058.141.23.23 0 0 1-.019.062 6.734 6.734 0 0 1-1.047 2.305c-.5.703-1.121 1.055-1.867 1.055-.516 0-.953-.176-1.321-.532a1.749 1.749 0 0 1-.546-1.296c0-.27.058-.559.171-.86.188-.476.399-1.051.641-1.719.238-.664.434-1.3.59-1.91.152-.609.23-1.144.23-1.613 0-.406-.086-.754-.254-1.039-.168-.289-.453-.434-.851-.434-.539 0-1.031.121-1.485.356a4.096 4.096 0 0 0-1.179.937c-.34.391-.645.856-.926 1.391l-1.492 5.988a.974.974 0 0 1-.34.516.924.924 0 0 1-.586.215.667.667 0 0 1-.461-.176.581.581 0 0 1-.191-.457M240.711 364.141v-3.996l-4.922 1.992Zm4.297 4.265h-.914c0-1.144-.055-1.758-.168-1.84l-11.16-4.55a.484.484 0 0 1-.231-.188.548.548 0 0 1-.094-.297v-.394c0-.102.032-.2.09-.293a.478.478 0 0 1 .235-.2l11.328-4.624v-1.766h.914v6.195h-.914v-1.695l-2.469 1.012v4.754l2.32.95c.059 0 .086-.158.086-.466.043-.352.063-.734.063-1.152h.914ZM244.395 348.332c0-.469-.118-.91-.348-1.32a2.887 2.887 0 0 0-.926-1h-4.449c-.336.25-.59.558-.774.918-.183.359-.273.75-.273 1.172 0 .664.156 1.164.465 1.507.312.344.707.567 1.187.672.481.106 1.047.16 1.696.16h.054c1.024 0 1.844-.132 2.453-.386.61-.258.915-.832.915-1.723m-3.387 4.48c-.852 0-1.594-.195-2.215-.593a3.775 3.775 0 0 1-1.41-1.614c-.317-.679-.477-1.44-.477-2.293 0-.425.063-.847.192-1.265.129-.414.324-.797.582-1.141h-3.598c-.219 0-.359.117-.414.352a3.93 3.93 0 0 0-.086.887h-.922l-.14-3.262h11.066c.211 0 .348-.117.41-.352.066-.234.098-.531.098-.886h.914l.105 3.367h-.859c.574.75.859 1.59.859 2.519 0 1.266-.367 2.297-1.105 3.09-.738.797-1.738 1.191-3 1.191"/><path d="M246.914 343.094c-.332 0-.609-.114-.824-.336-.219-.223-.324-.5-.324-.836 0-.211.046-.402.148-.582.098-.18.238-.32.418-.418a1.14 1.14 0 0 1 .582-.149c.395 0 .691.129.898.395.051-.266.079-.492.079-.688 0-.457-.219-.785-.653-.992a3.27 3.27 0 0 0-1.418-.308h-7.336c-.339 0-.507.457-.507 1.371h-.915l-.156-3.383h8.981c.547 0 1.027.168 1.449.5.422.336.742.758.957 1.27.211.515.32 1.039.32 1.578 0 .656-.136 1.25-.406 1.781-.269.527-.699.797-1.293.797m-12.976-3.043c-.395 0-.731-.141-1.012-.422a1.394 1.394 0 0 1-.426-1.02c0-.398.141-.738.414-1.019a1.38 1.38 0 0 1 1.024-.422c.402 0 .742.141 1.023.422.281.281.422.621.422 1.019 0 .399-.141.739-.43 1.02a1.406 1.406 0 0 1-1.015.422M242.996 332.941c.399 0 .731-.156.996-.468.27-.317.403-.676.403-1.078 0-.34-.071-.672-.211-.993a1.972 1.972 0 0 0-.618-.793 1.482 1.482 0 0 0-.914-.308h-1.816c0 .515.07 1.054.211 1.609.137.559.371 1.035.691 1.434.324.398.742.597 1.258.597m0 2.18a1.825 1.825 0 0 1-1.41-.617c-.371-.41-.656-.918-.852-1.527a10.072 10.072 0 0 1-.414-1.903c-.078-.66-.117-1.25-.117-1.773h-.668c-.582 0-1.055.164-1.418.484-.363.324-.543.77-.543 1.336 0 .563.035 1.016.106 1.363.222-.254.511-.379.871-.379a1.143 1.143 0 0 1 1.168 1.157c0 .332-.117.609-.344.832a1.138 1.138 0 0 1-.824.332c-.711 0-1.172-.328-1.383-.985-.211-.652-.316-1.433-.316-2.343 0-.453.046-.907.132-1.356.09-.445.239-.867.446-1.258.207-.394.48-.711.816-.949.336-.238.75-.359 1.234-.359h4.176c.293 0 .438-.414.438-1.238.035-.161.129-.258.281-.293h.344c.16.035.254.132.289.293v1.238c0 .461-.078.883-.242 1.258-.161.375-.438.562-.836.562h-.211c.457.258.801.625 1.039 1.102.238.48.355.996.355 1.547 0 .89-.16 1.695-.48 2.406-.324.715-.867 1.07-1.637 1.07M241.008 324.941c-.848 0-1.59-.195-2.227-.586a3.773 3.773 0 0 1-1.441-1.609c-.324-.68-.488-1.441-.488-2.285 0-.856.113-1.602.336-2.242.222-.637.675-.957 1.359-.957.336 0 .613.109.836.324.222.219.336.492.336.828 0 .332-.114.609-.336.832-.223.223-.5.336-.836.336-.375 0-.649-.109-.824-.324-.055.32-.078.715-.078 1.183 0 .594.164 1.047.492 1.36.328.312.738.519 1.23.621a8.34 8.34 0 0 0 1.625.148c2.219 0 3.332-.84 3.332-2.523 0-.332-.058-.641-.176-.922a2.042 2.042 0 0 0-.527-.738 2.193 2.193 0 0 0-.828-.465.315.315 0 0 1-.141-.211v-.469c.043-.144.125-.219.246-.219.012 0 .047.008.098.02.473.152.871.398 1.192.746.32.344.554.75.703 1.215.148.461.222.945.222 1.457 0 .824-.16 1.582-.484 2.266a3.761 3.761 0 0 1-1.414 1.621c-.621.398-1.356.593-2.207.593M240.422 313.473v-4.157c-.793 0-1.465.164-2.02.496-.55.333-.828.864-.828 1.594 0 .75.274 1.285.821 1.598.546.312 1.222.469 2.027.469m.535 2.375c-.84 0-1.57-.196-2.191-.586a3.768 3.768 0 0 1-1.426-1.598c-.324-.672-.488-1.426-.488-2.258 0-.824.148-1.527.445-2.101.297-.578.73-1.02 1.308-1.321.579-.3 1.286-.453 2.122-.453.171 0 .293.098.363.289v5.653c.656 0 1.219-.075 1.695-.227a2.113 2.113 0 0 0 1.125-.797c.274-.383.414-.906.414-1.57 0-.328-.058-.664-.176-1.012a2.475 2.475 0 0 0-.523-.89 1.994 1.994 0 0 0-.832-.539.472.472 0 0 1-.211-.274v-.344c.043-.191.148-.289.316-.289.012 0 .051.004.114.02.472.156.863.422 1.179.797.317.375.551.808.7 1.297.148.492.222.98.222 1.472a5.87 5.87 0 0 1-.472 2.371 3.977 3.977 0 0 1-1.411 1.723c-.625.422-1.382.637-2.273.637M245.008 306.168h-.914v-1.238h-5.617c-.34 0-.508.414-.508 1.238h-.914l-.149-3.172h1.836a3.362 3.362 0 0 1-1.344-1.273 3.437 3.437 0 0 1-.492-1.785c0-.95.192-1.665.578-2.141.387-.477 1.051-.715 1.996-.715h4.614v-1.25h.914v4.625h-.914v-1.25h-4.563c-.547 0-1.004.055-1.363.164-.363.109-.543.371-.543.793 0 .481.125.922.375 1.328s.578.727.992.961a2.62 2.62 0 0 0 1.313.352h3.789v-1.243h.914ZM241.008 294.77c-.848 0-1.59-.196-2.227-.59a3.748 3.748 0 0 1-1.441-1.606c-.324-.679-.488-1.441-.488-2.285 0-.855.113-1.605.336-2.242.222-.641.675-.957 1.359-.957.336 0 .613.105.836.324.222.215.336.492.336.824 0 .336-.114.614-.336.836-.223.223-.5.336-.836.336-.375 0-.649-.109-.824-.328a7.293 7.293 0 0 0-.078 1.188c0 .593.164 1.046.492 1.359.328.312.738.519 1.23.617a8.03 8.03 0 0 0 1.625.152c2.219 0 3.332-.843 3.332-2.523 0-.336-.058-.641-.176-.922a2.042 2.042 0 0 0-.527-.738 2.257 2.257 0 0 0-.828-.469.315.315 0 0 1-.141-.211v-.465c.043-.144.125-.218.246-.218a.5.5 0 0 1 .098.015c.473.153.871.403 1.192.75.32.344.554.75.703 1.211.148.461.222.949.222 1.461 0 .824-.16 1.582-.484 2.266a3.761 3.761 0 0 1-1.414 1.621c-.621.398-1.356.594-2.207.594M246.898 285.859c-.3 0-.55-.105-.757-.308a1.062 1.062 0 0 1-.305-.774c0-.3.102-.55.305-.757.207-.204.457-.305.757-.305.434 0 .754.176.957.527.024-.129.036-.226.036-.293 0-.433-.141-.828-.43-1.183a2.827 2.827 0 0 0-1.063-.813l-1.39-.652-7.074 3.301v1.187h-.914v-4.363h.914v.941l4.683-2.183-4.535-2.11c-.059 0-.098.098-.117.297-.02.199-.031.391-.031.57h-.914v-3.129h.914c0 .754.05 1.176.148 1.262l8.316 3.867a4.17 4.17 0 0 1 1.571 1.231c.429.535.644 1.129.644 1.777 0 .492-.16.934-.484 1.324a1.526 1.526 0 0 1-1.231.586M245.008 267.754h-.914c0-.649-.016-1.133-.043-1.461 0-.32-.043-.484-.125-.484h-10.352v1.945h-.914v-4.336c0-.246.106-.414.324-.508l9.539-4.281-9.539-4.289a.507.507 0 0 1-.324-.5v-4.317h.914v1.942h10.52v-1.942h.914v6.207h-.914v-1.945h-10.547l11.137 5c.218.098.324.266.324.512v.09a.502.502 0 0 1-.324.5l-10.899 4.894h10.141c.082 0 .125-.16.125-.484.027-.32.043-.809.043-1.457h.914ZM242.996 246.07c.399 0 .731-.156.996-.468.27-.317.403-.676.403-1.079 0-.339-.071-.671-.211-.992a1.972 1.972 0 0 0-.618-.793 1.482 1.482 0 0 0-.914-.308h-1.816c0 .515.07 1.054.211 1.609.137.559.371 1.035.691 1.434.324.398.742.597 1.258.597m0 2.18c-.566 0-1.039-.203-1.41-.617-.371-.41-.656-.918-.852-1.528a10.045 10.045 0 0 1-.414-1.902 15.198 15.198 0 0 1-.117-1.773h-.668c-.582 0-1.055.164-1.418.484-.363.324-.543.77-.543 1.336 0 .562.035 1.016.106 1.363.222-.254.511-.379.871-.379.332 0 .609.114.832.332.222.223.336.496.336.825 0 .332-.117.609-.344.832a1.138 1.138 0 0 1-.824.332c-.711 0-1.172-.328-1.383-.985-.211-.652-.316-1.433-.316-2.343 0-.454.046-.907.132-1.356.09-.445.239-.867.446-1.258.207-.394.48-.711.816-.949.336-.238.75-.359 1.234-.359h4.176c.293 0 .438-.414.438-1.239a.355.355 0 0 1 .281-.293h.344c.16.036.254.133.289.293v1.239c0 .461-.078.883-.242 1.257-.161.376-.438.563-.836.563h-.211c.457.258.801.625 1.039 1.102.238.48.355.996.355 1.546 0 .891-.16 1.696-.48 2.407-.324.715-.867 1.07-1.637 1.07M242.898 236.938h-4.964v1.441h-.723a2.11 2.11 0 0 0-.328-1.168 2.613 2.613 0 0 0-.86-.832 4.444 4.444 0 0 0-1.171-.484 5.214 5.214 0 0 0-1.27-.161v-.922h3.438v-2.585h.914v2.585h4.914c.433 0 .785-.074 1.062-.218.274-.141.414-.403.414-.785 0-.329-.156-.579-.461-.75a2.054 2.054 0 0 0-1.015-.262h-1.02v-.914h1.07c.387 0 .754.097 1.094.293.344.191.617.449.82.777.2.324.301.68.301 1.067 0 .832-.172 1.527-.511 2.082-.344.558-.911.836-1.704.836M245.008 230.082h-.914v-1.238h-5.617c-.34 0-.508.414-.508 1.238h-.914l-.149-3.059h1.836c-.547-.211-.988-.507-1.328-.89a2.01 2.01 0 0 1-.508-1.375c0-.52.129-.981.395-1.387.265-.406.637-.609 1.117-.609.309 0 .574.105.797.324.226.219.336.484.336.809 0 .324-.11.589-.336.808a1.093 1.093 0 0 1-.797.324c-.316 0-.582-.093-.793-.289 0 .508.184.922.551 1.235.367.312.812.535 1.34.664a6.35 6.35 0 0 0 1.511.191h3.067v-1.57h.914ZM245.008 221.383h-.914v-1.242h-5.61c-.23 0-.371.109-.425.328a3.582 3.582 0 0 0-.086.859h-.911l-.156-3.199h7.188v-1.133h.914Zm-11.07-.563c-.407 0-.747-.136-1.024-.414a1.385 1.385 0 0 1-.414-1.015 1.408 1.408 0 0 1 1.438-1.438c.402 0 .742.137 1.023.41.281.278.422.617.422 1.028 0 .402-.141.742-.422 1.015a1.396 1.396 0 0 1-1.023.414M245.008 216.062h-.914c0-1.019-.055-1.582-.168-1.695l-2.75-2.426-3.242 2.7v1.336h-.914v-4.239h.914v.653l1.925-1.618-1.777-1.562c-.051 0-.09.086-.113.258a3.143 3.143 0 0 0-.035.418h-.914v-3.598h.914c0 1.02.054 1.582.168 1.688l2.476 2.199 3.516-2.918v-1.344h.914v4.242h-.914v-.668l-2.196 1.856 2.047 1.801c.043 0 .078-.086.106-.258a2.94 2.94 0 0 0 .043-.426h.914Zm0 0"/><path d="M492.066 402.117h10v-300h-10Z" fill="#cfc"/><path stroke-width="1" fill="none" stroke="#000" d="M492.066 402.117h10v-300h-10Z"/><path d="m502.066 102.117 32.145-32.14h-10c-10.461 10.418-20.922 20.835-31.379 31.253 3.078.297 6.156.59 9.234.887" fill="#9f9"/><path stroke-width="1" fill="none" stroke="#000" d="m502.066 102.117 32.145-32.14h-10c-10.461 10.418-20.922 20.835-31.379 31.253 3.078.297 6.156.59 9.234.887Zm0 0"/><path d="M502.066 102.117v300l32.145-32.14v-300Z" fill="#9f9"/><path stroke-width="1" fill="none" stroke="#000" d="M502.066 102.117v300l32.145-32.14v-300Zm0 0"/><path d="M470.18 253.812c0-.085.004-.152.019-.195l1.645-6.555c.105-.41.16-.765.16-1.074 0-.629-.215-.945-.645-.945-.457 0-.797.273-1.019.82-.223.551-.438 1.242-.645 2.078 0 .043-.023.079-.066.102a.264.264 0 0 1-.117.039h-.258c-.051 0-.094-.027-.129-.082a.273.273 0 0 1-.051-.145 23.7 23.7 0 0 1 .453-1.621c.149-.441.379-.847.688-1.211a1.464 1.464 0 0 1 1.168-.546c.551 0 1.035.171 1.461.519.422.348.633.789.633 1.328a4.989 4.989 0 0 1 1.535-1.355 3.776 3.776 0 0 1 1.871-.492c.523 0 .972.085 1.351.265s.676.449.887.813c.211.359.317.789.317 1.293 0 .597-.133 1.324-.403 2.175a53.765 53.765 0 0 1-1.004 2.856c-.207.48-.312.918-.312 1.32 0 .434.168.653.504.653.574 0 1.054-.305 1.437-.922a6.325 6.325 0 0 0 .809-1.973c.027-.086.09-.129.183-.129h.258c.059 0 .106.016.145.055a.177.177 0 0 1 .058.137c0 .015-.008.035-.019.066a6.715 6.715 0 0 1-1.047 2.301c-.5.707-1.121 1.058-1.867 1.058-.516 0-.953-.179-1.321-.535a1.735 1.735 0 0 1-.547-1.293c0-.273.059-.558.172-.859.188-.481.399-1.051.641-1.719.238-.664.434-1.305.59-1.91.152-.609.23-1.149.23-1.613 0-.407-.086-.754-.254-1.043-.168-.285-.453-.43-.851-.43-.539 0-1.031.121-1.485.355a4.032 4.032 0 0 0-1.179.938c-.34.391-.645.855-.926 1.391l-1.492 5.984a.963.963 0 0 1-.34.519.918.918 0 0 1-.586.215.667.667 0 0 1-.461-.175.59.59 0 0 1-.191-.458M519.836 405.414a.79.79 0 0 1 .019-.191l1.645-6.567c.109-.406.16-.765.16-1.074 0-.629-.215-.945-.644-.945-.457 0-.797.273-1.02.824-.223.547-.437 1.238-.644 2.078 0 .043-.02.078-.063.102a.263.263 0 0 1-.121.04h-.258c-.047 0-.09-.029-.129-.083a.273.273 0 0 1-.051-.145c.157-.64.309-1.18.454-1.621.148-.445.378-.852.691-1.215a1.459 1.459 0 0 1 1.164-.547c.508 0 .953.145 1.336.438.383.297.621.68.715 1.16a4.658 4.658 0 0 1 1.273-1.164c.477-.29.996-.434 1.563-.434.465 0 .875.133 1.23.407.356.273.532.64.532 1.105 0 .375-.118.699-.348.973-.235.277-.543.414-.93.414a.862.862 0 0 1-.598-.219.748.748 0 0 1-.242-.574c0-.324.121-.614.356-.867.238-.254.508-.379.816-.379a1.297 1.297 0 0 0-.859-.293c-.629 0-1.176.226-1.645.672-.465.449-.883 1.015-1.254 1.703l-1.57 6.297a.982.982 0 0 1-.336.515.918.918 0 0 1-.586.215.684.684 0 0 1-.465-.172.577.577 0 0 1-.191-.453M509.801 254.031l-3.567-16.261h-2.261l.242-1.321h8.633l-.243 1.321h-2.437l2.516 11.628 4.937-8.96-.57-2.668h-2.262l.215-1.321h8.633l-.215 1.321h-2.438l2.516 11.628 6.297-11.425c0-.043-.102-.075-.301-.094a3.712 3.712 0 0 0-.426-.031 23.389 23.389 0 0 0-1.875-.078l.203-1.321h6.422l-.203 1.321c-1.472 0-2.269.078-2.387.23l-8.847 16.031c-.188.309-.438.457-.75.457h-.418c-.332 0-.539-.148-.625-.457l-2.551-11.726-6.473 11.726c-.187.309-.437.457-.75.457h-.418a.66.66 0 0 1-.39-.121.485.485 0 0 1-.207-.336"/><path d="M860.289 430.098h10.004v-300h-10.004Z" fill="#ffe6cc"/><path stroke-width="1" fill="none" stroke="#000" d="M860.289 430.098h10.004v-300h-10.004Z"/><path d="m860.289 130.098 120.07-120h10.008l-120.074 120Z" fill="#fc9"/><path stroke-width="1" fill="none" stroke="#000" d="m860.289 130.098 120.07-120h10.008l-120.074 120Zm0 0"/><path d="m870.293 130.098 120.074-120v300l-120.074 120Z" fill="#fc9"/><path stroke-width="1" fill="none" stroke="#000" d="m870.293 130.098 120.074-120v300l-120.074 120Zm0 0"/><path d="M919.984 236.34c-.214-.07-.32-.207-.32-.418l.914-5.481a.408.408 0 0 1 .305-.316h.687c.219.063.328.191.328.395a5.41 5.41 0 0 0-.074.878c0 1.313.535 2.243 1.606 2.793 1.07.551 2.328.829 3.777.829a4.06 4.06 0 0 0 1.867-.446 3.543 3.543 0 0 0 1.383-1.254c.348-.539.52-1.14.52-1.808 0-.571-.176-1.074-.532-1.52a2.372 2.372 0 0 0-1.398-.855l-3.68-.828a5.327 5.327 0 0 1-1.875-.883 4.355 4.355 0 0 1-1.301-1.52 4.198 4.198 0 0 1-.468-1.968c0-.887.179-1.704.539-2.45a5.719 5.719 0 0 1 1.48-1.914 6.904 6.904 0 0 1 2.137-1.219 7.464 7.464 0 0 1 2.523-.425 8.69 8.69 0 0 1 1.555.14c.512.094.988.242 1.43.446.437.203.851.48 1.23.836l1.613-1.372a.344.344 0 0 1 .09-.031c.024-.004.055-.011.086-.019h.293c.223.058.332.187.332.382l-.902 5.489a.444.444 0 0 1-.344.34h-.672c-.211-.051-.316-.192-.316-.418v-.356c0-1.371-.395-2.418-1.184-3.137-.785-.722-1.883-1.082-3.289-1.082-.609 0-1.203.122-1.781.368a3.291 3.291 0 0 0-1.406 1.093 2.722 2.722 0 0 0-.532 1.664c0 .516.184.969.551 1.356.371.391.821.644 1.352.762l3.695.843c1.102.27 1.988.828 2.656 1.668.668.844 1.004 1.832 1.004 2.965a6.193 6.193 0 0 1-.914 3.297 6.435 6.435 0 0 1-2.472 2.328 6.912 6.912 0 0 1-3.372.848c-2.183 0-3.863-.469-5.039-1.399l-1.613 1.336c-.027.004-.051.016-.07.024a.636.636 0 0 0-.094.039ZM843.395 283.906c0-.086.007-.152.019-.195l1.645-6.559c.109-.406.16-.761.16-1.07 0-.629-.215-.945-.641-.945-.461 0-.801.273-1.023.82-.223.551-.438 1.238-.645 2.078 0 .043-.023.074-.066.102a.264.264 0 0 1-.117.039h-.258c-.051 0-.094-.028-.129-.082a.273.273 0 0 1-.051-.145c.156-.637.309-1.176.457-1.621a3.65 3.65 0 0 1 .684-1.215 1.482 1.482 0 0 1 1.168-.547c.55 0 1.039.176 1.461.524.421.348.632.789.632 1.324.438-.57.95-1.023 1.539-1.352a3.777 3.777 0 0 1 1.868-.496c.523 0 .976.09 1.355.27.379.18.676.449.887.809.211.363.316.793.316 1.293 0 .601-.136 1.328-.402 2.179-.27.852-.606 1.805-1.004 2.856-.211.476-.312.918-.312 1.32 0 .434.167.652.503.652.575 0 1.051-.308 1.434-.922a6.359 6.359 0 0 0 .813-1.972c.027-.086.089-.129.183-.129h.258a.21.21 0 0 1 .144.051.186.186 0 0 1 .059.14.147.147 0 0 1-.023.063 6.567 6.567 0 0 1-1.047 2.304c-.496.704-1.117 1.055-1.864 1.055a1.82 1.82 0 0 1-1.32-.531 1.722 1.722 0 0 1-.547-1.293c0-.273.055-.559.172-.859.184-.481.399-1.051.637-1.719.242-.664.437-1.305.59-1.914.156-.606.234-1.145.234-1.61 0-.41-.086-.757-.254-1.043-.168-.285-.453-.429-.855-.429-.535 0-1.032.121-1.481.355a3.934 3.934 0 0 0-1.183.938c-.336.39-.645.851-.926 1.39l-1.492 5.985a.939.939 0 0 1-.34.515.886.886 0 0 1-.582.215.667.667 0 0 1-.465-.172.586.586 0 0 1-.191-.457M948.77 378.355c0-.089.011-.152.023-.2l1.645-6.553c.105-.407.16-.766.16-1.071 0-.633-.215-.945-.645-.945-.457 0-.797.273-1.019.82-.223.547-.438 1.239-.645 2.074 0 .043-.023.079-.066.102a.222.222 0 0 1-.118.04h-.257c-.051 0-.094-.028-.129-.079a.284.284 0 0 1-.055-.145c.16-.636.309-1.179.457-1.621a3.7 3.7 0 0 1 .688-1.215 1.475 1.475 0 0 1 1.168-.546c.55 0 1.035.175 1.461.52.421.347.632.792.632 1.327a4.964 4.964 0 0 1 1.539-1.35 3.725 3.725 0 0 1 1.868-.497c.523 0 .976.09 1.355.27.379.179.672.448.883.808.215.363.32.793.32 1.293 0 .6-.137 1.328-.406 2.179-.266.848-.602 1.8-1.004 2.852-.207.48-.309.922-.309 1.32 0 .438.168.657.504.657.571 0 1.051-.31 1.434-.922a6.332 6.332 0 0 0 .812-1.977c.028-.086.09-.13.184-.13h.254a.22.22 0 0 1 .148.056.18.18 0 0 1 .059.14.163.163 0 0 1-.023.063 6.68 6.68 0 0 1-1.047 2.305c-.496.703-1.121 1.054-1.864 1.054-.515 0-.957-.175-1.32-.53a1.73 1.73 0 0 1-.551-1.294c0-.273.059-.558.172-.859a84.09 84.09 0 0 0 .641-1.719c.238-.668.437-1.305.59-1.914.156-.609.234-1.145.234-1.609 0-.411-.086-.758-.254-1.043-.168-.286-.453-.43-.855-.43a3.11 3.11 0 0 0-1.481.355 3.925 3.925 0 0 0-1.183.938 7.27 7.27 0 0 0-.926 1.39l-1.492 5.985a.973.973 0 0 1-.34.516.9.9 0 0 1-.586.214.677.677 0 0 1-.461-.172.59.59 0 0 1-.195-.457"/><path stroke-width="2" stroke-miterlimit="10" fill="none" stroke="#777" d="M860.289 402.117h-4"/><path d="M1010.13 257.34h-3.84a.278.278 0 0 1-.22-.238v-.461c.02-.106.1-.176.22-.215.76 0 1.38-.203 1.85-.606.48-.398.81-.918 1.01-1.554.2-.633.3-1.332.3-2.086 0-.633-.18-1.157-.55-1.575-.37-.414-.88-.625-1.52-.625-.48 0-.9.165-1.28.493-.38.328-.62.722-.72 1.187l-.56 2.574a4.385 4.385 0 0 1-.69 1.575c-.32.468-.74.843-1.23 1.117-.5.273-1.04.414-1.63.414-.75 0-1.411-.18-1.965-.531a3.375 3.375 0 0 1-1.258-1.446c-.285-.609-.426-1.289-.426-2.039 0-1.226.328-2.25.984-3.07l-.914-.914a.563.563 0 0 1-.07-.168v-.211a.282.282 0 0 1 .211-.219h3.848c.13.031.21.102.24.219v.469a.29.29 0 0 1-.24.226c-.68.082-1.26.282-1.739.594a2.99 2.99 0 0 0-1.097 1.27c-.254.535-.379 1.136-.379 1.808 0 .406.07.774.207 1.102.137.328.344.593.625.797.277.199.617.3 1.023.3.43 0 .81-.164 1.13-.488.33-.324.55-.707.64-1.144l.57-2.559c.21-.926.66-1.688 1.35-2.281.68-.594 1.5-.895 2.44-.895.6 0 1.13.102 1.62.297.48.195.89.473 1.23.828.34.36.6.785.79 1.285.18.496.27 1.035.27 1.61 0 .707-.07 1.371-.21 1.984-.15.617-.4 1.172-.75 1.672l.89.91c.02.035.05.09.07.164v.192a.301.301 0 0 1-.23.238M1010.16 246.195h-.91v-1.242h-5.61c-.23 0-.37.109-.43.328-.06.215-.08.504-.08.86h-.92l-.15-3.2h7.19v-1.132h.91Zm-11.07-.562c-.406 0-.746-.137-1.024-.414a1.373 1.373 0 0 1-.414-1.016c0-.406.137-.75.414-1.023a1.387 1.387 0 0 1 1.024-.414c.398 0 .742.136 1.02.414.28.273.43.617.43 1.023 0 .402-.15.742-.43 1.016a1.395 1.395 0 0 1-1.02.414M1010.16 240.496h-.91v-1.238h-5.62c-.34 0-.51.414-.51 1.238h-.91l-.15-3.172h1.83a3.145 3.145 0 0 1-.97-.765c-.28-.321-.49-.68-.64-1.082a3.49 3.49 0 0 1-.22-1.227c0-.477.04-.895.13-1.258s.25-.676.49-.941c.24-.262.59-.453 1.04-.571a3.252 3.252 0 0 1-1.22-1.261 3.432 3.432 0 0 1-.44-1.707c0-.953.19-1.664.58-2.149.39-.476 1.05-.718 1.99-.718h4.62v-1.239h.91v4.606h-.91v-1.242h-4.57c-.55 0-1 .058-1.36.171-.36.118-.54.383-.54.805 0 .465.12.902.37 1.313.25.418.58.742.99.976.41.238.85.36 1.32.36h3.79v-1.25h.91v4.625h-.91v-1.25h-4.57c-.55 0-1 .054-1.36.171-.36.114-.54.379-.54.801 0 .473.12.914.37 1.32.25.407.58.727.99.965.41.239.85.356 1.32.356h3.79v-1.238h.91ZM1010.16 223.211h-.91v-1.238h-5.61c-.23 0-.37.105-.43.324-.06.215-.08.504-.08.859h-.92l-.15-3.199h7.19v-1.133h.91Zm-11.07-.563c-.406 0-.746-.136-1.024-.414a1.37 1.37 0 0 1-.414-1.015c0-.407.137-.75.414-1.024a1.407 1.407 0 0 1 1.024-.414c.398 0 .742.141 1.02.414.28.274.43.617.43 1.024 0 .402-.15.742-.43 1.015a1.391 1.391 0 0 1-1.02.414M1010.16 217.473h-.91v-1.243h-10.016c-.222 0-.359.118-.418.352a4.056 4.056 0 0 0-.082.891h-.925l-.137-3.254h11.578v-1.239h.91ZM1008.15 209.797c.4 0 .73-.156.99-.469.27-.312.41-.672.41-1.078 0-.34-.07-.672-.21-.992-.15-.32-.35-.586-.62-.789a1.47 1.47 0 0 0-.91-.309h-1.82c0 .516.07 1.051.21 1.61.14.554.37 1.031.69 1.429.33.399.74.598 1.26.598m0 2.18c-.57 0-1.04-.204-1.41-.618-.37-.41-.66-.918-.85-1.523a9.89 9.89 0 0 1-.42-1.902c-.08-.661-.11-1.25-.11-1.774h-.67c-.58 0-1.06.16-1.42.485-.36.32-.54.765-.54 1.332 0 .562.03 1.015.1 1.363.23-.25.51-.375.87-.375.34 0 .62.109.84.332.22.223.33.496.33.82 0 .332-.11.613-.34.832-.23.223-.51.332-.83.332-.71 0-1.16-.328-1.38-.98-.21-.656-.32-1.438-.32-2.344 0-.457.05-.91.14-1.355.09-.45.24-.868.44-1.262.21-.391.48-.707.82-.945.34-.243.75-.364 1.23-.364h4.18c.29 0 .44-.414.44-1.238.04-.156.13-.254.28-.289h.34c.16.035.26.133.29.289v1.238c0 .465-.08.883-.24 1.258-.16.375-.44.563-.84.563h-.21c.46.257.8.628 1.04 1.105s.36.992.36 1.543c0 .895-.16 1.695-.48 2.406-.33.715-.87 1.071-1.64 1.071M1010.16 201.852h-.91v-1.239h-5.62c-.34 0-.51.414-.51 1.239h-.91l-.15-3.059h1.83c-.54-.211-.98-.508-1.32-.891a2.002 2.002 0 0 1-.51-1.375c0-.515.13-.976.39-1.386.27-.407.64-.61 1.12-.61.31 0 .57.11.8.324.22.219.33.489.33.809 0 .324-.11.594-.33.809-.23.218-.49.328-.8.328-.32 0-.58-.098-.79-.293 0 .512.18.922.54 1.234.37.317.82.535 1.35.664.52.129 1.03.196 1.51.196h3.07v-1.575h.91ZM1010.16 193.152h-.91v-1.238h-5.61c-.23 0-.37.106-.43.324-.06.215-.08.504-.08.86h-.92l-.15-3.2h7.19v-1.132h.91Zm-11.07-.562c-.406 0-.746-.137-1.024-.414a1.373 1.373 0 0 1-.414-1.016c0-.406.137-.75.414-1.023a1.403 1.403 0 0 1 1.024-.414c.398 0 .742.14 1.02.414.28.273.43.617.43 1.023 0 .402-.15.742-.43 1.016a1.395 1.395 0 0 1-1.02.414M1008.05 186.41h-4.97v1.442h-.72c0-.438-.11-.829-.32-1.168-.23-.34-.51-.618-.87-.832a4.336 4.336 0 0 0-1.17-.485 5.23 5.23 0 0 0-1.266-.16v-.922h3.436v-2.586h.91v2.586h4.92c.43 0 .79-.07 1.06-.219.28-.14.41-.402.41-.785 0-.328-.15-.578-.46-.75a2.032 2.032 0 0 0-1.01-.261h-1.02v-.915h1.07c.39 0 .75.098 1.09.293.35.192.62.45.82.778.2.324.31.679.31 1.066 0 .832-.18 1.528-.52 2.082-.34.559-.91.836-1.7.836M1012.05 179.793c-.3 0-.55-.105-.76-.309-.2-.207-.3-.464-.3-.773 0-.301.1-.551.3-.758.21-.203.46-.305.76-.305.43 0 .75.176.96.528.02-.129.03-.227.03-.289 0-.438-.14-.832-.43-1.188a2.88 2.88 0 0 0-1.06-.812l-1.39-.653-7.07 3.301v1.188h-.92v-4.364h.92v.946l4.68-2.188-4.54-2.109c-.05 0-.09.097-.12.297-.02.199-.02.39-.02.57h-.92v-3.129h.92c0 .754.04 1.176.14 1.262l8.32 3.871a4.15 4.15 0 0 1 1.57 1.226c.43.536.64 1.129.64 1.778 0 .492-.16.933-.48 1.324-.32.391-.73.586-1.23.586M1010.16 161.688h-.91c0-.645-.02-1.133-.05-1.461 0-.321-.04-.481-.12-.481h-10.357v1.942h-.914v-4.333c0-.246.109-.417.324-.511l9.537-4.282-9.533-4.289a.499.499 0 0 1-.328-.5v-4.316h.914v1.945h10.527v-1.945h.91v6.207h-.91v-1.941h-10.551l11.141 5c.21.093.32.261.32.507v.09c0 .239-.11.407-.32.5l-10.906 4.895h10.146c.08 0 .12-.16.12-.481.03-.324.05-.808.05-1.461h.91ZM1008.15 140.004c.4 0 .73-.156.99-.469.27-.312.41-.676.41-1.078 0-.34-.07-.672-.21-.992a2.058 2.058 0 0 0-.62-.793 1.495 1.495 0 0 0-.91-.309h-1.82c0 .52.07 1.055.21 1.61.14.558.37 1.035.69 1.433.33.399.74.598 1.26.598m0 2.18c-.57 0-1.04-.204-1.41-.618a4.05 4.05 0 0 1-.85-1.527 9.784 9.784 0 0 1-.42-1.898c-.08-.661-.11-1.254-.11-1.778h-.67c-.58 0-1.06.164-1.42.485-.36.324-.54.769-.54 1.336 0 .562.03 1.015.1 1.363.23-.25.51-.379.87-.379.34 0 .62.113.84.336.22.219.33.492.33.82 0 .332-.11.61-.34.832-.23.223-.51.332-.83.332-.71 0-1.16-.328-1.38-.98-.21-.656-.32-1.438-.32-2.348 0-.453.05-.906.14-1.355.09-.446.24-.867.44-1.258.21-.395.48-.707.82-.949.34-.239.75-.36 1.23-.36h4.18c.29 0 .44-.414.44-1.238.04-.16.13-.258.28-.289h.34a.34.34 0 0 1 .29.289v1.238c0 .461-.08.883-.24 1.258-.16.375-.44.563-.84.563h-.21c.46.257.8.625 1.04 1.101.24.481.36.996.36 1.547 0 .891-.16 1.695-.48 2.406-.33.715-.87 1.071-1.64 1.071M1008.05 130.871h-4.97v1.441h-.72c0-.437-.11-.828-.32-1.167-.23-.34-.51-.618-.87-.829a4.21 4.21 0 0 0-1.17-.484 5.045 5.045 0 0 0-1.266-.164v-.922h3.436v-2.586h.91v2.586h4.92c.43 0 .79-.07 1.06-.215.28-.144.41-.406.41-.789 0-.328-.15-.578-.46-.75a2.03 2.03 0 0 0-1.01-.258h-1.02v-.914h1.07c.39 0 .75.094 1.09.289.35.196.62.453.82.778.2.324.31.679.31 1.066 0 .832-.18 1.527-.52 2.086-.34.555-.91.832-1.7.832M1010.16 124.016h-.91v-1.239h-5.62c-.34 0-.51.414-.51 1.239h-.91l-.15-3.059h1.83c-.54-.211-.98-.508-1.32-.891a2.002 2.002 0 0 1-.51-1.375c0-.515.13-.976.39-1.386.27-.407.64-.61 1.12-.61.31 0 .57.11.8.325.22.218.33.488.33.808 0 .324-.11.594-.33.809-.23.218-.49.328-.8.328-.32 0-.58-.098-.79-.293 0 .512.18.922.54 1.234.37.317.82.535 1.35.664.52.129 1.03.196 1.51.196h3.07v-1.575h.91ZM1010.16 115.316h-.91v-1.238h-5.61c-.23 0-.37.106-.43.324-.06.215-.08.504-.08.86h-.92l-.15-3.2h7.19v-1.132h.91Zm-11.07-.562c-.406 0-.746-.137-1.024-.414a1.372 1.372 0 0 1-.414-1.016c0-.406.137-.75.414-1.023a1.403 1.403 0 0 1 1.024-.414c.398 0 .742.14 1.02.414.28.273.43.617.43 1.023 0 .403-.15.742-.43 1.016a1.395 1.395 0 0 1-1.02.414M1010.16 109.996h-.91c0-1.019-.06-1.582-.17-1.695l-2.75-2.426-3.24 2.699v1.336h-.92v-4.234h.92v.648l1.92-1.617-1.78-1.562c-.05 0-.09.085-.11.257-.02.172-.03.313-.03.418h-.92v-3.593h.92c0 1.015.05 1.582.16 1.683l2.48 2.199 3.52-2.918v-1.343h.91v4.246h-.91v-.668l-2.2 1.851 2.05 1.801c.04 0 .07-.086.1-.258.03-.172.05-.312.05-.425h.91Zm0 0"/><path d="M656.488 328.774h10v-48.676h-10Z" fill="#e6ccff"/><path stroke-width="1" fill="none" stroke="#000" d="M656.488 328.774h10v-48.676h-10Z"/><path d="m656.488 280.098 120-120h10l-120 120Z" fill="#c9f"/><path stroke-width="1" fill="none" stroke="#000" d="m656.488 280.098 120-120h10l-120 120Zm0 0"/><path d="M667.105 328.32c-.207-16.078-.41-32.148-.617-48.222l120-120v43.695c-39.793 41.508-79.59 83.016-119.383 124.527" fill="#c9f"/><path stroke-width="1" fill="none" stroke="#000" d="M667.105 328.32c-.207-16.078-.41-32.148-.617-48.222l120-120v43.695c-39.793 41.508-79.59 83.016-119.383 124.527Zm0 0"/><path d="m714.387 252.285.203-1.316h2.805l2.554-15.199h-2.808l.203-1.321h9.445l-.242 1.321h-2.805l-1.09 6.589h8.11l1.117-6.589h-2.805l.203-1.321h9.446l-.239 1.321h-2.808l-2.512 15.199h2.805l-.242 1.316h-9.407l.203-1.316h2.805l1.231-7.289h-8.11l-1.234 7.289h2.82l-.242 1.316ZM696.637 219.711c0-.086.008-.152.019-.195l1.645-6.555c.109-.406.16-.766.16-1.074 0-.629-.215-.946-.641-.946-.461 0-.8.278-1.023.825-.223.546-.434 1.238-.645 2.074a.108.108 0 0 1-.062.101.216.216 0 0 1-.121.039h-.258c-.047 0-.09-.027-.129-.082a.258.258 0 0 1-.051-.144c.157-.637.309-1.176.457-1.621.145-.442.375-.848.684-1.211.316-.363.703-.547 1.168-.547a2.23 2.23 0 0 1 1.461.52c.422.347.633.789.633 1.328a5.031 5.031 0 0 1 1.535-1.356 3.787 3.787 0 0 1 1.871-.492c.523 0 .972.09 1.355.266.379.179.672.449.883.812.211.359.317.793.317 1.293 0 .602-.133 1.324-.403 2.176a50.396 50.396 0 0 1-1.004 2.855c-.207.481-.312.918-.312 1.321 0 .437.168.656.508.656.57 0 1.05-.309 1.433-.926a6.282 6.282 0 0 0 .809-1.973c.031-.085.09-.128.183-.128h.258c.059 0 .106.015.145.054a.183.183 0 0 1 .062.141.184.184 0 0 1-.023.062 6.66 6.66 0 0 1-1.047 2.305c-.5.703-1.121 1.055-1.863 1.055-.516 0-.957-.18-1.321-.532a1.738 1.738 0 0 1-.55-1.296c0-.27.058-.559.171-.86.188-.476.399-1.051.641-1.718.238-.665.438-1.301.59-1.911.152-.609.23-1.144.23-1.613 0-.406-.082-.754-.25-1.043-.168-.285-.453-.43-.855-.43-.539 0-1.031.121-1.481.356a4.06 4.06 0 0 0-1.183.937 7.424 7.424 0 0 0-.926 1.391l-1.492 5.988a.974.974 0 0 1-.34.516.9.9 0 0 1-.582.215.67.67 0 0 1-.465-.176.581.581 0 0 1-.191-.457M636.418 317.516c0-.086.004-.149.02-.192l1.644-6.562c.106-.41.16-.77.16-1.074 0-.633-.215-.946-.644-.946-.457 0-.797.274-1.02.82-.223.547-.437 1.243-.644 2.079 0 .043-.024.078-.067.101a.213.213 0 0 1-.117.039h-.258c-.051 0-.094-.027-.129-.082a.266.266 0 0 1-.054-.144c.16-.637.312-1.176.457-1.621.148-.446.379-.848.687-1.215.313-.364.699-.547 1.168-.547.508 0 .953.144 1.336.441.383.293.621.68.715 1.16a4.672 4.672 0 0 1 1.273-1.168 2.955 2.955 0 0 1 1.563-.433c.465 0 .875.137 1.23.406.356.274.532.641.532 1.11 0 .371-.118.695-.348.972-.234.274-.543.41-.93.41a.86.86 0 0 1-.597-.218.748.748 0 0 1-.243-.575c0-.324.118-.613.356-.863.234-.258.508-.383.816-.383a1.307 1.307 0 0 0-.859-.289c-.629 0-1.18.223-1.645.672-.465.445-.882 1.012-1.258 1.699l-1.566 6.297a.974.974 0 0 1-.34.516.902.902 0 0 1-.586.215.685.685 0 0 1-.461-.172.574.574 0 0 1-.191-.453"/><path d="M433.281 227.23h1.106c-.02 1.911-.504 3.395-1.449 4.45-.942 1.054-2.094 1.582-3.454 1.582a7.57 7.57 0 0 1-2.074-.309c-.726-.203-2.25-.793-4.57-1.765-1.652-.704-2.867-1.055-3.637-1.055-.777 0-1.418.238-1.937.711-.512.476-.871 1.273-1.071 2.398h-1.125c.094-1.945.563-3.433 1.407-4.472.843-1.036 1.964-1.555 3.359-1.555.676 0 1.324.086 1.93.262 1.175.316 2.781.921 4.82 1.812 1.133.492 1.98.813 2.531.965.352.094.731.141 1.141.141.797 0 1.469-.266 2.023-.809.551-.539.883-1.324 1-2.356m0-8.945h1.106c-.02 1.91-.504 3.391-1.449 4.445-.942 1.055-2.098 1.582-3.469 1.582-.66 0-1.348-.101-2.067-.304-.722-.207-2.242-.801-4.562-1.785-1.664-.703-2.875-1.055-3.637-1.055-.777 0-1.418.238-1.926.711-.511.476-.871 1.281-1.082 2.418h-1.125c.094-1.957.563-3.453 1.407-4.485.843-1.031 1.968-1.546 3.375-1.546.668 0 1.312.082 1.933.246 1.172.328 2.77.937 4.801 1.828 1.125.48 1.965.797 2.531.949.352.094.731.141 1.141.141.797 0 1.469-.27 2.023-.809.551-.535.883-1.316 1-2.336M598.844 224.191l5.812 5.813 5.809-5.793 1.57 1.57-5.793 5.813 5.813 5.808-1.59 1.59-5.809-5.812-5.777 5.761-1.574-1.574 5.761-5.758-5.812-5.828ZM178.016 223.332h8.222v-8.203h2.239v8.203h8.218v2.254h-8.218v8.137h-2.239v-8.137h-8.222Zm0 0" fill="#d2d2d2"/></svg>