<svg xmlns="http://www.w3.org/2000/svg" xmlns:xlink="http://www.w3.org/1999/xlink" width="949.004" height="211.504" viewBox="0 0 711.753 158.628"><defs><path id="z" d="M.547 0v-.61h.812v-3.75c0-.144-.074-.234-.218-.265a2.108 2.108 0 0 0-.563-.063v-.609l2.14-.11v4.798h.75V0Zm.375-7.39a.938.938 0 0 1 .953-.954.89.89 0 0 1 .672.281.921.921 0 0 1 .281.672c0 .274-.094.5-.281.688a.89.89 0 0 1-.672.281.931.931 0 0 1-.953-.969Zm0 0"/><path id="e" d="m2.89-13.031 3.985 3.984 3.984-3.969 1.079 1.079-3.97 3.984 3.985 3.984L10.86-2.89 6.875-6.875 2.922-2.922 1.844-4l3.953-3.953-3.984-3.984Zm0 0"/><path id="f" d="M12.297-12.844h.734c-.011 1.274-.336 2.262-.969 2.969-.624.7-1.398 1.047-2.312 1.047a4.99 4.99 0 0 1-1.375-.203c-.48-.133-1.496-.531-3.047-1.188-1.105-.469-1.914-.703-2.422-.703-.511 0-.937.164-1.281.485-.344.312-.586.843-.719 1.593h-.75c.063-1.3.375-2.297.938-2.984.562-.688 1.312-1.031 2.25-1.031.445 0 .875.058 1.281.171.781.22 1.848.626 3.203 1.22.75.312 1.313.523 1.688.624.238.063.492.094.765.094.531 0 .977-.176 1.344-.531.363-.364.586-.883.672-1.563Zm0 5.969h.734c-.011 1.273-.336 2.262-.969 2.969-.624.699-1.39 1.047-2.296 1.047-.438 0-.903-.067-1.391-.204-.48-.132-1.496-.53-3.047-1.187-1.094-.469-1.902-.703-2.422-.703-.511 0-.937.164-1.281.484-.344.313-.586.844-.719 1.594h-.75c.063-1.29.375-2.281.938-2.969.562-.695 1.304-1.047 2.234-1.047.457 0 .89.059 1.297.172.781.211 1.848.61 3.203 1.203.758.336 1.32.555 1.688.657.238.062.492.093.765.093.531 0 .977-.175 1.344-.53.363-.364.586-.891.672-1.579Zm0 0"/><path id="h" d="m.61 0 .124-.766c.957 0 1.477-.046 1.563-.14l5.328-9.297c.125-.176.281-.266.469-.266h.344c.07 0 .14.028.203.078.07.055.117.118.14.188l2.266 9.437h1.5l-.14.766H7.25l.14-.766h1.391l-.5-2.046H4.328L3.203-.891c0 .055.125.079.375.079.29.03.613.046.969.046L4.407 0Zm4.14-3.578h3.344l-.985-4.11Zm0 0"/><path id="j" d="m.594 0 .11-.766h1.624l1.469-8.75H2.172l.125-.78h5.531c.645 0 1.281.073 1.906.218.625.137 1.16.387 1.61.75.457.355.687.855.687 1.5 0 .71-.289 1.293-.86 1.75-.573.46-1.25.793-2.03 1 .394.156.718.39.968.703.25.313.375.672.375 1.078v.125l-.062 1.313v.187c0 .824.273 1.234.828 1.234a.9.9 0 0 0 .516-.156c.156-.101.285-.238.39-.406.102-.176.172-.348.203-.516.032-.132.11-.218.235-.25h.297c.156.032.234.137.234.313-.074.45-.293.836-.656 1.156a1.854 1.854 0 0 1-1.235.469c-.53 0-1.027-.04-1.484-.11-.46-.07-.86-.238-1.203-.5-.336-.257-.5-.64-.5-1.14 0-.07.008-.188.031-.344l.219-1.297a2.71 2.71 0 0 0 .015-.297 1.37 1.37 0 0 0-.171-.687 1.118 1.118 0 0 0-.5-.469 1.492 1.492 0 0 0-.72-.172H5.11L4.438-.766h1.625L5.921 0Zm4.625-5.438h1.515a7 7 0 0 0 1.204-.093c.351-.07.675-.207.968-.407.281-.195.485-.519.61-.968.132-.446.203-.88.203-1.297 0-.395-.117-.688-.344-.875a1.59 1.59 0 0 0-.844-.36c-.324-.05-.699-.078-1.125-.078H5.891Zm0 0"/><path id="k" d="M5.313-.14 3.25-9.517H1.953l.14-.78h4.97l-.141.78H5.516l1.453 6.704 2.86-5.172L9.5-9.516H8.187l.126-.78h4.984l-.125.78h-1.406l1.453 6.704 3.625-6.594c0-.02-.059-.035-.172-.047-.117-.02-.2-.031-.25-.031-.367-.02-.727-.032-1.078-.032l.125-.78h3.703l-.125.78c-.844 0-1.305.043-1.375.125l-5.11 9.25c-.105.176-.246.266-.421.266h-.25c-.188 0-.309-.09-.36-.266l-1.469-6.78-3.734 6.78c-.105.176-.25.266-.437.266h-.235a.393.393 0 0 1-.234-.078.24.24 0 0 1-.11-.188Zm0 0"/><path id="m" d="m.594 0 .11-.766h1.624l1.469-8.75H2.172l.125-.78h5.437l-.125.78H5.984L5.36-5.734h4.672l.64-3.782H9.064l.109-.78h5.453l-.14.78h-1.61l-1.453 8.75h1.61L12.89 0H7.469l.125-.766h1.61l.718-4.203H5.234L4.531-.766h1.625L6.016 0Zm0 0"/><path id="i" d="M.672.094C.598.07.562.024.562-.046l.313-1.845c.008-.05.047-.086.11-.109h.218c.07.023.11.07.11.14a2.657 2.657 0 0 0-.016.298c0 .437.176.75.531.937.363.188.79.281 1.281.281.22 0 .426-.05.625-.156.196-.102.352-.242.47-.422.112-.176.171-.379.171-.61a.751.751 0 0 0-.188-.5.772.772 0 0 0-.468-.296L2.484-2.61a1.883 1.883 0 0 1-.625-.297 1.378 1.378 0 0 1-.437-.5 1.453 1.453 0 0 1-.156-.672c0-.3.054-.578.171-.828.125-.25.29-.461.5-.64.208-.177.446-.313.72-.407.269-.094.55-.14.843-.14.176 0 .352.015.531.046.176.031.336.086.485.156.144.063.28.153.406.266l.547-.453c.008-.008.02-.016.031-.016h.125c.07.024.11.063.11.125l-.298 1.844A.19.19 0 0 1 5.313-4h-.218c-.074-.02-.11-.07-.11-.156v-.11c0-.457-.136-.804-.406-1.046-.262-.25-.625-.375-1.094-.375-.21 0-.414.042-.609.125a1.22 1.22 0 0 0-.469.375.886.886 0 0 0-.172.546c0 .18.063.336.188.47.125.124.273.21.453.25l1.234.28c.375.094.672.282.891.563.227.281.344.617.344 1 0 .406-.106.777-.313 1.11-.199.335-.476.593-.828.78a2.311 2.311 0 0 1-1.125.282c-.742 0-1.308-.157-1.703-.469L.828.078H.813C.8.086.788.094.78.094Zm0 0"/><path id="l" d="m.844 0 .062-.438H2.11l.75-4.453a4.46 4.46 0 0 1-.64.141 6.655 6.655 0 0 1-.703.031l.062-.453c.188 0 .375-.004.563-.016.187-.019.375-.05.562-.093a3.06 3.06 0 0 0 .547-.172c.176-.082.332-.176.469-.281h.187c.094.03.14.093.14.187l-.843 5.11h1.203L4.328 0Zm0 0"/><path id="o" d="m.5 0 .047-.328a.166.166 0 0 1 .031-.078l1.938-1.688c.218-.187.398-.351.546-.5.157-.144.305-.312.454-.5.144-.195.257-.394.343-.594.082-.207.125-.421.125-.64a1.01 1.01 0 0 0-.125-.5.74.74 0 0 0-.328-.328 1.05 1.05 0 0 0-.515-.125 1.86 1.86 0 0 0-.454.062 1.25 1.25 0 0 0-.39.188.451.451 0 0 1 .25.203c.07.094.11.203.11.328 0 .2-.075.375-.22.531a.668.668 0 0 1-.515.219.576.576 0 0 1-.406-.156.494.494 0 0 1-.172-.39c0-.302.11-.563.328-.782.226-.219.504-.379.828-.484.32-.114.633-.172.938-.172.507 0 .953.12 1.328.359.382.242.578.602.578 1.078 0 .293-.07.555-.203.781-.137.23-.309.434-.516.61-.21.168-.5.37-.875.61l-.594.39-1.094.781h.47c1.062 0 1.613-.016 1.655-.047a.821.821 0 0 0 .157-.219c.039-.093.07-.187.093-.28.032-.102.063-.208.094-.313h.453L4.25 0Zm0 0"/><path id="p" d="M1.406-.578c.239.18.57.265 1 .265a.848.848 0 0 0 .547-.171c.145-.114.258-.266.344-.454.094-.187.156-.378.187-.578.04-.195.063-.406.063-.625a.804.804 0 0 0-.172-.53c-.117-.134-.29-.204-.516-.204h-.562c-.086-.008-.125-.055-.125-.14a.934.934 0 0 1 .047-.141c.008-.031.039-.051.094-.063l.468-.031c.164 0 .317-.05.453-.156.133-.114.25-.254.344-.422.094-.164.16-.336.203-.516.051-.187.078-.351.078-.5 0-.176-.054-.304-.156-.39-.094-.082-.23-.125-.406-.125-.375 0-.703.105-.985.312a.466.466 0 0 1 .282.172c.07.094.11.203.11.328 0 .2-.075.371-.22.516a.68.68 0 0 1-.5.203.558.558 0 0 1-.39-.14.476.476 0 0 1-.157-.376c0-.281.098-.523.297-.734.196-.219.442-.379.735-.484.289-.114.57-.172.844-.172.269 0 .539.03.812.093.27.063.492.18.672.344.187.156.281.375.281.656 0 .2-.043.383-.125.547a1.6 1.6 0 0 1-.344.453 2.083 2.083 0 0 1-.484.36c-.18.094-.355.168-.531.219.219.054.426.136.625.25.195.105.36.246.484.421.125.18.188.387.188.625 0 .188-.043.371-.125.547-.075.18-.172.34-.297.485a1.922 1.922 0 0 1-.422.39C3.578-.05 3.023.094 2.39.094h-.016c-.273 0-.543-.04-.813-.11a1.66 1.66 0 0 1-.687-.39.895.895 0 0 1-.266-.672.93.93 0 0 1 .094-.422.81.81 0 0 1 .281-.313.754.754 0 0 1 .422-.125c.176 0 .32.06.438.172a.534.534 0 0 1 .172.407.792.792 0 0 1-.172.5.887.887 0 0 1-.438.28Zm0 0"/><path id="n" d="M.375-.734c0-.07.008-.145.031-.22l1.078-4.343c.032-.133.047-.21.047-.234 0-.082-.183-.125-.547-.125-.062-.02-.093-.067-.093-.14l.015-.11c.008-.032.047-.055.11-.078l1.203-.094c.031 0 .054.016.078.047a.111.111 0 0 1 .047.093L1.078-.905c-.023.18-.031.289-.031.328 0 .262.086.39.266.39.125 0 .226-.062.312-.187a1.56 1.56 0 0 0 .188-.39c.039-.133.085-.305.14-.516.02-.051.05-.078.094-.078h.11c.03 0 .05.011.062.03.02.024.031.044.031.063v.047a3.37 3.37 0 0 1-.344.922c-.136.25-.34.375-.61.375-.25 0-.468-.074-.655-.219a.746.746 0 0 1-.266-.593Zm0 0"/><path id="q" d="M.375 0v-.61h1.36v-7.015H.374v-.61h4.484v.61H3.5v7.016h1.36V0Zm0 0"/><path id="r" d="M.516 0v-.61h.828v-3.75c0-.218-.278-.327-.828-.327v-.61l2.109-.11v1.235c.207-.383.492-.687.86-.906a2.257 2.257 0 0 1 1.187-.328c.633 0 1.11.133 1.422.39.32.262.484.704.484 1.329V-.61h.828V0H4.328v-.61h.828v-3.046c0-.364-.039-.664-.11-.906-.062-.239-.234-.36-.515-.36-.324 0-.62.086-.89.25-.274.168-.485.39-.641.672a1.704 1.704 0 0 0-.234.86v2.53h.828V0Zm0 0"/><path id="s" d="M.422 2.328v-.61h.828v-6.14c0-.176-.277-.266-.828-.266v-.609l2.172-.11v.579c.508-.383 1.117-.578 1.828-.578.539 0 1.02.117 1.437.343.426.22.754.54.985.954.238.418.36.898.36 1.437 0 .563-.138 1.055-.407 1.469a2.53 2.53 0 0 1-1.078.953c-.461.219-.969.328-1.532.328-.585 0-1.09-.176-1.515-.531v2.172H3.5v.61Zm2.25-3.531c.156.242.36.433.61.578.25.148.507.219.78.219.532 0 .922-.227 1.172-.688.25-.468.375-.992.375-1.578 0-.32-.043-.648-.125-.984a1.973 1.973 0 0 0-.437-.86 1.051 1.051 0 0 0-.828-.359c-.305 0-.594.063-.875.188a1.77 1.77 0 0 0-.672.53Zm0 0"/><path id="t" d="M1.344-1.39v-2.97c0-.218-.278-.327-.828-.327v-.61l2.25-.11v3.97c0 .324.015.554.046.687a.41.41 0 0 0 .266.266c.133.054.36.078.672.078.406 0 .738-.149 1-.453.27-.301.406-.649.406-1.047V-4.36c0-.22-.277-.329-.828-.329v-.609l2.25-.11v4.454c0 .148.078.242.234.281.157.043.352.063.594.063V0L5.234.078v-.89c-.18.273-.414.492-.703.656a1.807 1.807 0 0 1-.89.234c-.282 0-.559-.023-.829-.062a2.595 2.595 0 0 1-.734-.188 1.274 1.274 0 0 1-.531-.453c-.137-.195-.203-.453-.203-.766Zm0 0"/><path id="u" d="M1.219-1.406V-4.72H.25v-.484c.29 0 .55-.07.781-.219.227-.144.41-.332.547-.562.145-.239.254-.5.328-.782.07-.289.11-.578.11-.859h.609v2.297h1.734v.61H2.625v3.28c0 .282.047.516.14.704.102.187.282.28.532.28.219 0 .383-.1.5-.312.113-.207.172-.43.172-.671v-.688h.61v.719a1.5 1.5 0 0 1-.188.734c-.125.23-.297.414-.516.547a1.37 1.37 0 0 1-.719.203c-.554 0-1.015-.113-1.39-.344-.368-.226-.547-.609-.547-1.14Zm0 0"/><path id="w" d="M.469 0v-.61c.426 0 .75-.007.969-.03.218 0 .328-.024.328-.079v-6.906H.469v-.61h2.89c.164 0 .282.075.344.22l2.844 6.359 2.86-6.36c.062-.144.175-.218.343-.218h2.875v.609h-1.297v7.016h1.297V0h-4.14v-.61H9.78v-7.03L6.453-.22C6.391-.07 6.273 0 6.11 0h-.062a.328.328 0 0 1-.328-.219L2.453-7.484V-.72c0 .055.102.078.313.078.218.024.546.032.984.032V0Zm0 0"/><path id="x" d="M.39-1.344c0-.375.133-.687.407-.937.27-.25.61-.438 1.015-.563a6.762 6.762 0 0 1 1.266-.281c.438-.05.832-.078 1.188-.078v-.453c0-.383-.11-.696-.329-.938-.218-.238-.515-.36-.89-.36s-.68.024-.906.063c.164.149.25.34.25.579 0 .23-.075.417-.22.562a.736.736 0 0 1-.546.219.747.747 0 0 1-.563-.219.784.784 0 0 1-.218-.563c0-.468.219-.769.656-.906.438-.144.957-.218 1.563-.218.3 0 .597.03.89.093.3.055.582.153.844.297.27.137.484.32.64.547.157.219.235.492.235.813v2.78c0 .2.273.298.828.298a.262.262 0 0 1 .203.187v.234A.25.25 0 0 1 6.5 0h-.828a2.1 2.1 0 0 1-.828-.156c-.25-.114-.375-.301-.375-.563v-.14c-.18.304-.43.539-.75.703a2.243 2.243 0 0 1-1.016.234c-.594 0-1.133-.11-1.61-.328C.626-.469.392-.832.392-1.344Zm1.438 0c0 .274.102.496.313.672a1.1 1.1 0 0 0 .718.266 1.6 1.6 0 0 0 .657-.14c.218-.095.394-.227.53-.407a.999.999 0 0 0 .22-.625v-1.203c-.344 0-.704.047-1.079.14-.374.094-.699.25-.968.47-.262.21-.39.483-.39.827Zm0 0"/><path id="y" d="M.422 0v-.61h.828v-3.75c0-.218-.277-.327-.828-.327v-.61l2.047-.11v1.235c.133-.363.328-.66.578-.89.258-.227.566-.344.922-.344.344 0 .648.09.922.265.27.18.406.43.406.75 0 .211-.074.387-.219.532a.684.684 0 0 1-.531.218A.73.73 0 0 1 4-3.859a.74.74 0 0 1-.203-.532c0-.218.062-.394.187-.53-.343 0-.62.124-.828.374-.21.242-.355.54-.437.89-.086.345-.125.68-.125 1v2.048H3.64V0Zm0 0"/><path id="g" d="M.469-8.719h5.64v-5.625h1.532v5.625h5.64v1.547h-5.64v5.578H6.109v-5.578H.47Zm0 0"/><path id="A" d="M.266 0v-.61c.675 0 1.05-.035 1.125-.109l1.625-1.844-1.797-2.156h-.89v-.61H3.14v.61h-.422l1.078 1.282 1.031-1.188c0-.031-.058-.05-.172-.063a1.79 1.79 0 0 0-.265-.03v-.61h2.39v.61c-.68 0-1.054.038-1.125.109L4.188-2.953 6.14-.61h.89V0H4.203v-.61h.438L3.406-2.077 2.203-.703c0 .023.055.043.172.062.125.024.223.032.297.032V0Zm0 0"/><path id="B" d="M.5 0v-.61c.758 0 1.164-.035 1.219-.109L4.75-8.156a.3.3 0 0 1 .125-.156.377.377 0 0 1 .203-.063h.266c.062 0 .125.023.187.063.063.042.11.093.14.156L8.75-.61h1.172V0H5.797v-.61h1.125L6.25-2.25H3.078L2.453-.703c0 .031.102.047.313.047.226.031.484.047.765.047V0Zm2.828-2.86H6L4.672-6.14Zm0 0"/><path id="C" d="M.453-2.672c0-.562.129-1.05.39-1.469a2.56 2.56 0 0 1 1.079-.937 3.506 3.506 0 0 1 1.531-.328c.29 0 .57.047.844.14.281.086.535.211.766.375v-2.39c0-.145-.079-.239-.235-.282a2.49 2.49 0 0 0-.594-.062v-.61l2.172-.093v7.375c0 .148.078.242.235.281.156.043.351.063.593.063V0L5 .078V-.5c-.5.387-1.063.578-1.688.578-.843 0-1.53-.242-2.062-.734-.531-.5-.797-1.172-.797-2.016Zm3 2.266c.313 0 .602-.078.875-.235.27-.156.492-.363.672-.625v-2.953a1.82 1.82 0 0 0-.625-.515 1.671 1.671 0 0 0-.781-.188c-.438 0-.774.106-1 .313-.23.21-.383.476-.453.796a5.823 5.823 0 0 0-.094 1.126v.03c0 .688.082 1.235.25 1.641.176.407.562.61 1.156.61Zm0 0"/><path id="D" d="M3.203-.172 1.11-4.719H.313v-.61h2.906v.61h-.64l1.468 3.157 1.406-3.063c0-.031-.07-.05-.203-.063a2.691 2.691 0 0 0-.375-.03v-.61h2.094v.61c-.512 0-.79.03-.828.093L4.062-.172a.328.328 0 0 1-.328.219h-.187c-.168 0-.281-.07-.344-.219Zm0 0"/><path id="E" d="M.39-2.703c0-.563.13-1.047.391-1.453a2.537 2.537 0 0 1 1.063-.953 3.357 3.357 0 0 1 1.5-.329c.55 0 1.02.102 1.406.297.383.2.676.493.875.875.207.387.313.856.313 1.407 0 .117-.07.199-.204.25H1.97c0 .437.047.812.14 1.125.102.312.282.562.532.75.257.187.613.28 1.062.28.219 0 .442-.034.672-.108.227-.083.426-.204.594-.36.164-.156.285-.344.36-.562a.291.291 0 0 1 .187-.141h.218c.133.031.204.105.204.219 0 .011-.008.039-.016.078a1.697 1.697 0 0 1-.531.781c-.25.211-.543.367-.875.469a3.239 3.239 0 0 1-.97.156 3.974 3.974 0 0 1-1.593-.312 2.677 2.677 0 0 1-1.14-.954C.53-1.601.39-2.109.39-2.702Zm1.579-.36h2.765c0-.519-.109-.96-.328-1.328-.218-.375-.574-.562-1.062-.562-.5 0-.856.183-1.063.547-.21.367-.312.812-.312 1.343Zm0 0"/><path id="F" d="M.453-.078V-1.75c.02-.07.07-.125.156-.156h.313c.082.023.129.058.14.11.063.273.165.515.313.734.145.21.332.37.563.484.226.117.488.172.78.172.907 0 1.36-.29 1.36-.875a.626.626 0 0 0-.156-.422 1.269 1.269 0 0 0-.39-.281 1.602 1.602 0 0 0-.454-.141l-.89-.156a3.088 3.088 0 0 1-.844-.266 2.055 2.055 0 0 1-.64-.531 1.217 1.217 0 0 1-.25-.766c0-.3.062-.562.187-.781a1.36 1.36 0 0 1 .53-.5 2.39 2.39 0 0 1 .72-.234 4.29 4.29 0 0 1 .828-.079c.469 0 .847.079 1.14.235l.438-.219.047-.016h.14c.07.024.125.07.157.141v1.328c-.032.086-.086.137-.157.156h-.312a.19.19 0 0 1-.156-.156c0-.363-.125-.625-.375-.781-.25-.164-.563-.25-.938-.25-.898 0-1.344.242-1.344.719 0 .336.313.562.938.687l.906.156c.3.055.586.157.86.313.269.148.488.344.656.594.176.25.265.527.265.828 0 .43-.105.777-.312 1.047-.211.261-.484.449-.828.562-.336.114-.711.172-1.125.172-.531 0-.985-.125-1.36-.375l-.562.36L.75.077H.61C.522.055.472.004.452-.078Zm0 0"/><path id="G" d="M.266 1.266c0-.2.066-.371.203-.516A.686.686 0 0 1 .984.547a.68.68 0 0 1 .5.203.74.74 0 0 1 .204.516.72.72 0 0 1-.344.64c.082.008.144.016.187.016.29 0 .551-.102.782-.297.238-.188.421-.422.546-.703L3.297 0 1.109-4.719H.313v-.61h2.906v.61h-.625l1.453 3.125 1.406-3.031c0-.031-.07-.05-.203-.063a2.691 2.691 0 0 0-.375-.03v-.61h2.094v.61c-.512 0-.793.03-.844.093L3.547.922a2.738 2.738 0 0 1-.828 1.047c-.356.289-.75.437-1.188.437-.324 0-.617-.11-.875-.328a.994.994 0 0 1-.39-.812Zm0 0"/><path id="H" d="M.469 0v-.61h1.297v-7.015H.469v-.61h7.453l.375 2.938h-.61c-.062-.488-.152-.879-.265-1.172a1.619 1.619 0 0 0-.453-.687c-.188-.164-.438-.285-.75-.36a5.615 5.615 0 0 0-1.203-.109h-1.5v3.047h.5c.363 0 .644-.04.843-.125a.71.71 0 0 0 .407-.422c.07-.195.109-.484.109-.86h.61v3.423h-.61c0-.376-.04-.66-.11-.86a.671.671 0 0 0-.406-.422c-.199-.082-.48-.125-.843-.125h-.5v3.36h1.609c.695 0 1.238-.082 1.625-.25.383-.176.664-.454.844-.829.187-.375.343-.921.468-1.64h.61L8.125 0Zm0 0"/><path id="I" d="M.516 0v-.61h.828v-3.75c0-.218-.278-.327-.828-.327v-.61l2.109-.11v1.235c.125-.25.297-.469.516-.656.218-.188.457-.328.718-.422a2.34 2.34 0 0 1 .829-.156c.312 0 .585.031.828.093.25.055.457.165.625.329.175.156.304.386.39.687.196-.344.473-.613.828-.812.364-.196.75-.297 1.157-.297.625 0 1.097.133 1.421.39.32.262.485.704.485 1.329V-.61h.828V0H8.172v-.61H9v-3.046c0-.364-.043-.664-.125-.906-.074-.239-.25-.36-.531-.36-.305 0-.594.086-.875.25a1.84 1.84 0 0 0-.64.656 1.729 1.729 0 0 0-.235.875v2.532h.828V0H4.344v-.61h.828v-3.046c0-.364-.04-.664-.11-.906-.074-.239-.25-.36-.53-.36-.325 0-.622.086-.891.25A1.84 1.84 0 0 0 3-4.016a1.729 1.729 0 0 0-.234.875v2.532h.828V0Zm0 0"/><path id="J" d="M1.25 0v-7.281c0-.145-.078-.239-.234-.282a2.49 2.49 0 0 0-.594-.062v-.61l2.172-.093v3.484c.5-.375 1.086-.562 1.765-.562.414 0 .797.07 1.141.203.352.125.656.308.906.547.25.23.442.515.578.86.145.343.22.718.22 1.124 0 .563-.138 1.055-.407 1.469a2.53 2.53 0 0 1-1.078.953c-.461.219-.969.328-1.532.328-.335 0-.656-.07-.968-.203a2.514 2.514 0 0 1-.781-.531L1.859 0Zm1.422-1.219c.156.25.351.45.594.594.25.148.515.219.796.219.633 0 1.051-.196 1.25-.594.196-.406.297-.957.297-1.656v-.031c0-.301-.015-.579-.046-.829a2.212 2.212 0 0 0-.172-.703 1.07 1.07 0 0 0-.422-.5c-.188-.133-.438-.203-.75-.203-.313 0-.606.063-.875.188a1.882 1.882 0 0 0-.672.546Zm0 0"/><path id="K" d="M.39.875c0-.25.094-.465.282-.64.187-.18.414-.301.687-.376a1.654 1.654 0 0 1-.375-.515 1.656 1.656 0 0 1-.125-.64c0-.395.133-.75.407-1.063a1.81 1.81 0 0 1-.454-.563 1.646 1.646 0 0 1-.156-.703c0-.406.114-.742.344-1.016.238-.27.54-.46.906-.578a3.621 3.621 0 0 1 1.157-.187c.3 0 .585.031.859.093.281.063.523.165.734.297.383-.3.82-.453 1.313-.453a.72.72 0 0 1 .515.219.682.682 0 0 1 .22.516.513.513 0 0 1-.157.375.527.527 0 0 1-.39.156.552.552 0 0 1-.391-.156.498.498 0 0 1-.157-.375.65.65 0 0 1 .047-.22c-.21.032-.43.102-.656.204.156.148.27.32.344.516.082.199.125.402.125.609 0 .406-.121.746-.36 1.016a1.96 1.96 0 0 1-.906.593 3.51 3.51 0 0 1-1.14.188c-.575 0-1.06-.102-1.454-.313a.687.687 0 0 0-.109.375c0 .211.07.387.219.532a.745.745 0 0 0 .531.218h1.219c.906 0 1.633.121 2.187.36.563.242.844.75.844 1.531 0 .313-.105.566-.313.766-.199.207-.464.367-.796.484a5.216 5.216 0 0 1-1 .234c-.325.04-.637.063-.938.063-.312 0-.637-.024-.969-.063a5.136 5.136 0 0 1-.984-.234 2.128 2.128 0 0 1-.797-.484A1.037 1.037 0 0 1 .391.875Zm1.079 0c0 .383.21.656.64.813a3.713 3.713 0 0 0 2.672 0c.426-.157.64-.43.64-.813 0-.293-.202-.48-.609-.563A6.523 6.523 0 0 0 3.47.189H2.25c-.23 0-.418.054-.563.171-.148.114-.218.286-.218.516Zm1.593-3.188c.415 0 .692-.101.829-.312.132-.207.203-.531.203-.969v-.047c0-.437-.07-.757-.203-.968-.137-.207-.414-.313-.829-.313-.417 0-.695.106-.828.313-.136.21-.203.53-.203.968v.047c0 .43.067.75.203.969.133.21.41.313.829.313Zm0 0"/><path id="L" d="M.547 0v-.61h.812V-7.28c0-.145-.078-.239-.234-.282a2.42 2.42 0 0 0-.578-.062v-.61l2.172-.093V-.61h.828V0Zm0 0"/><path id="M" d="M.156-2.063V-3.28h3.656v1.219Zm0 0"/><path id="N" d="M.469 0v-.61h1.297v-7.015H.469v-.61h5.14c.5 0 .977.07 1.438.204.457.136.836.36 1.14.672.313.312.47.718.47 1.218 0 .344-.102.649-.298.907-.199.25-.453.453-.765.609-.313.148-.64.25-.985.313.414.042.805.148 1.172.312.364.168.66.402.89.703.24.293.36.64.36 1.047 0 .406-.09.75-.265 1.031a2.147 2.147 0 0 1-.688.703c-.293.18-.621.309-.984.391A4.628 4.628 0 0 1 6 0ZM3.39-.61h2.218c.489 0 .88-.148 1.172-.453.29-.3.438-.695.438-1.187 0-.238-.028-.457-.078-.656a1.832 1.832 0 0 0-.25-.563 1.304 1.304 0 0 0-.454-.422 1.247 1.247 0 0 0-.625-.156H3.392Zm0-3.921h1.843c.32 0 .61-.063.86-.188.25-.133.445-.32.593-.562.145-.25.22-.535.22-.86 0-.414-.118-.765-.345-1.046-.23-.29-.546-.438-.953-.438H3.391Zm0 0"/><path id="O" d="M.453-2.672c0-.562.129-1.05.39-1.469.27-.425.63-.75 1.079-.968a3.506 3.506 0 0 1 1.531-.329c.563 0 1.055.075 1.485.22.425.148.64.448.64.905 0 .231-.074.418-.219.563a.736.736 0 0 1-.546.219.784.784 0 0 1-.563-.219.747.747 0 0 1-.219-.563c0-.25.07-.43.219-.546a5.751 5.751 0 0 0-.797-.047c-.398 0-.7.11-.906.328-.211.219-.344.496-.406.828a5.712 5.712 0 0 0-.094 1.078c0 1.48.555 2.219 1.672 2.219.226 0 .437-.035.625-.11.187-.082.347-.203.484-.359.145-.156.25-.344.313-.562a.318.318 0 0 1 .14-.094h.313c.093.031.14.09.14.172 0 .011-.007.031-.015.062a1.745 1.745 0 0 1-.5.797c-.23.211-.5.367-.813.469a2.99 2.99 0 0 1-.953.156c-.555 0-1.058-.11-1.515-.328a2.641 2.641 0 0 1-1.094-.938c-.262-.414-.39-.91-.39-1.484Zm0 0"/><clipPath id="a"><path d="M0 16h142v142.629H0Zm0 0"/></clipPath><clipPath id="b"><path d="M169 16h143v142.629H169Zm0 0"/></clipPath><clipPath id="c"><path d="M342 16h72v142.629h-72Zm0 0"/></clipPath><clipPath id="d"><path d="M570 16h141.754v24H570Zm0 0"/></clipPath></defs><g clip-path="url(#a)"><path fill="#FFD2F9" d="M0 158.629h141.73V16.895H0Zm0 0"/></g><g clip-path="url(#b)"><path fill="#B8E2FF" d="M169.996 158.504H311.73V16.77H169.996Zm0 0"/></g><g clip-path="url(#c)"><path fill="#FEE9A5" d="M342.285 158.504h70.867V16.77h-70.867Zm0 0"/></g><g clip-path="url(#d)"><path fill="#E2BEF1" d="M570.02 39.617h141.734v-22.68H570.02Zm0 0"/></g><path fill="#FFCCB6" d="M486.23 87.828h-42.52V16.965h42.52Zm0 0"/><path fill="#F3B0C3" d="M539.512 59.46h-22.676V16.942h22.676Zm0 0"/><use xlink:href="#e" x="423.362" y="60.411" fill="#C8C8C8"/><use xlink:href="#e" x="494.786" y="46.059" fill="#C8C8C8"/><use xlink:href="#e" x="548.162" y="36.123" fill="#C8C8C8"/><use xlink:href="#f" x="320.762" y="96.483" fill="#C8C8C8"/><use xlink:href="#g" x="148.25" y="96.483" fill="#C8C8C8"/><use xlink:href="#h" x="230.344" y="90.629" fill="#606060"/><use xlink:href="#i" x="243.38" y="95.624" fill="#606060"/><use xlink:href="#j" x="58.31" y="90.63" fill="#606060"/><use xlink:href="#k" x="364.775" y="91.905" fill="#606060"/><use xlink:href="#l" x="382.593" y="96.897" fill="#606060"/><use xlink:href="#m" x="628.77" y="33.115" fill="#606060"/><use xlink:href="#n" x="642.269" y="38.11" fill="#606060"/><use xlink:href="#k" x="452.764" y="58.411" fill="#606060"/><use xlink:href="#o" x="470.584" y="63.406" fill="#606060"/><use xlink:href="#k" x="515.368" y="44.385" fill="#606060"/><use xlink:href="#p" x="532.498" y="49.38" fill="#606060"/><g fill="#606060"><use xlink:href="#q" x="171.043" y="13.116"/><use xlink:href="#r" x="176.275" y="13.116"/><use xlink:href="#s" x="183.931" y="13.116"/><use xlink:href="#t" x="191.587" y="13.116"/><use xlink:href="#u" x="199.243" y="13.116"/><use xlink:href="#v" x="204.607" y="13.116"/><use xlink:href="#w" x="209.203" y="13.116"/><use xlink:href="#x" x="222.295" y="13.116"/><use xlink:href="#u" x="229.003" y="13.116"/><use xlink:href="#y" x="234.367" y="13.116"/><use xlink:href="#z" x="240.043" y="13.116"/><use xlink:href="#A" x="243.871" y="13.116"/></g><g fill="#606060"><use xlink:href="#B" x="1.939" y="13.116"/><use xlink:href="#C" x="12.367" y="13.116"/><use xlink:href="#D" x="20.023" y="13.116"/><use xlink:href="#E" x="27.295" y="13.116"/><use xlink:href="#y" x="33.619" y="13.116"/><use xlink:href="#F" x="39.295" y="13.116"/><use xlink:href="#x" x="44.731" y="13.116"/><use xlink:href="#y" x="51.439" y="13.116"/><use xlink:href="#G" x="57.115" y="13.116"/><use xlink:href="#v" x="64.387" y="13.116"/><use xlink:href="#w" x="68.983" y="13.116"/><use xlink:href="#x" x="82.075" y="13.116"/><use xlink:href="#u" x="88.783" y="13.116"/><use xlink:href="#y" x="94.147" y="13.116"/><use xlink:href="#z" x="99.823" y="13.116"/><use xlink:href="#A" x="103.651" y="13.116"/></g><g fill="#606060"><use xlink:href="#H" x="569.311" y="13.116"/><use xlink:href="#I" x="578.371" y="13.116"/><use xlink:href="#J" x="589.867" y="13.116"/><use xlink:href="#E" x="597.523" y="13.116"/><use xlink:href="#C" x="603.847" y="13.116"/><use xlink:href="#C" x="611.503" y="13.116"/><use xlink:href="#z" x="619.159" y="13.116"/><use xlink:href="#r" x="622.987" y="13.116"/><use xlink:href="#K" x="630.643" y="13.116"/><use xlink:href="#v" x="637.543" y="13.116"/><use xlink:href="#w" x="642.139" y="13.116"/><use xlink:href="#x" x="655.231" y="13.116"/><use xlink:href="#u" x="661.939" y="13.116"/><use xlink:href="#y" x="667.303" y="13.116"/><use xlink:href="#z" x="672.979" y="13.116"/><use xlink:href="#A" x="676.807" y="13.116"/></g><g fill="#606060"><use xlink:href="#w" x="363.751" y="13.116"/><use xlink:href="#t" x="376.843" y="13.116"/><use xlink:href="#L" x="384.499" y="13.116"/><use xlink:href="#u" x="388.327" y="13.116"/><use xlink:href="#z" x="393.691" y="13.116"/><use xlink:href="#M" x="397.519" y="13.116"/><use xlink:href="#L" x="402.115" y="13.116"/><use xlink:href="#E" x="405.943" y="13.116"/><use xlink:href="#D" x="412.267" y="13.116"/><use xlink:href="#E" x="419.539" y="13.116"/><use xlink:href="#L" x="425.863" y="13.116"/><use xlink:href="#v" x="429.691" y="13.116"/><use xlink:href="#N" x="434.287" y="13.116"/><use xlink:href="#x" x="444.103" y="13.116"/><use xlink:href="#F" x="450.811" y="13.116"/><use xlink:href="#z" x="456.247" y="13.116"/><use xlink:href="#F" x="460.075" y="13.116"/><use xlink:href="#v" x="465.511" y="13.116"/><use xlink:href="#w" x="470.107" y="13.116"/><use xlink:href="#x" x="483.199" y="13.116"/><use xlink:href="#u" x="489.907" y="13.116"/><use xlink:href="#y" x="495.271" y="13.116"/><use xlink:href="#z" x="500.947" y="13.116"/><use xlink:href="#O" x="504.775" y="13.116"/><use xlink:href="#E" x="510.907" y="13.116"/><use xlink:href="#F" x="517.231" y="13.116"/></g></svg>