<svg xmlns="http://www.w3.org/2000/svg" width="419.75" height="216.723"><path d="M62.363 62.363v49.89h62.363v-49.89Z" style="fill:#ccc;fill-opacity:1;fill-rule:nonzero;stroke:#000;stroke-width:.3985;stroke-linecap:butt;stroke-linejoin:miter;stroke-miterlimit:10;stroke-dasharray:none;stroke-opacity:1" transform="matrix(1.33333 0 0 -1.33333 85.1 149.937)"/><g aria-label="input matrix X"><path d="M.364-3.423v.258h.117c.258 0 .458.046.458.386V-.61c0 .328-.211.34-.61.34v.258l.48-.024h.81l.445.024v-.258h-.106c-.234 0-.434-.012-.434-.293v-2.953l-.293.023zm.68-1.922a.44.44 0 0 0-.387.433c0 .211.176.446.434.446.27 0 .457-.223.457-.457a.44.44 0 0 0-.434-.434c-.023 0-.047.012-.07.012m1.623 1.922v.258h.152c.235 0 .457.035.457.398v2.156c0 .328-.21.34-.609.34v.258l.492-.024h.832l.504.024v-.258h-.164c-.246 0-.445-.023-.445-.328v-1.465c0-.586.398-1.23 1.16-1.23.457 0 .574.398.574.879v1.84c0 .28-.222.304-.445.304H5.01v.258l.504-.024h.832l.492.024v-.258h-.164c-.223 0-.445-.023-.445-.316v-1.688c0-.27-.012-.539-.13-.785-.199-.352-.62-.457-.995-.457-.48 0-1.09.27-1.266.762l-.012-.762-.293.023zm4.658 0v.258h.13c.245 0 .48.023.48.34V.947c0 .316-.223.328-.61.328v.258l.492-.024h.832l.504.024v-.258h-.187c-.235 0-.422-.035-.422-.316L8.556-.4c.175.305.68.469 1.054.469.961 0 1.864-.774 1.864-1.793 0-.879-.715-1.793-1.746-1.793-.446 0-.88.164-1.207.492v-.492zm3.434 1.828c-.035.644-.457 1.441-1.242 1.441-.399 0-.973-.386-.973-.75V-2.18c0-.094-.012-.188-.012-.293 0-.445.598-.797 1.078-.797.797 0 1.149.914 1.149 1.547zm1.315-1.828v.258h.106c.199 0 .445.011.492.234.012.094.012.176.012.258v1.57c0 .246.011.469.129.691.222.387.726.493 1.125.493.363 0 .703-.13.937-.41.059-.07.129-.153.164-.247l.012.645 1.195-.082v-.258h-.152c-.235 0-.457-.035-.457-.387v-2.859l-1.219.094v.258h.094c.27 0 .515.011.515.398v1.36c0 .644-.34 1.253-1.03 1.253-.282 0-.645-.07-.68-.48-.024-.14-.024-.281-.024-.422v-2.461zm5.616-1.489c0 .563-.27 1.512-1.066 1.512v.223h.703v2.062c0 .258.012.504.153.727.187.328.585.457.96.457.668 0 .833-.703.833-1.23v-.294h-.247c0 .118.012.223.012.34 0 .352-.094.938-.562.938-.434 0-.54-.457-.54-.856v-2.144h1.196v-.258h-1.195v-1.477ZM-2.155 6.043V6.3h.152c.234 0 .457.036.457.399v2.156c0 .328-.21.34-.61.34v.258l.493-.024h.832l.504.024v-.258h-.164c-.246 0-.445-.024-.445-.328V7.414c0-.598.375-1.243 1.16-1.243.457 0 .574.387.574.868V8.89c0 .281-.211.305-.445.305H.2v.258l.504-.024h.832l.492.024v-.258h-.175c-.247 0-.434-.024-.434-.328V7.414c0-.598.375-1.243 1.148-1.243.457 0 .586.387.586.868V8.89c0 .281-.21.305-.445.305h-.164v.258l.504-.024h.844l.48.024v-.258h-.129c-.246 0-.48-.024-.48-.317V7.18c0-.258 0-.515-.117-.761-.2-.352-.61-.47-.985-.47-.492 0-1.09.247-1.277.74h-.012c-.07-.552-.633-.74-1.101-.74-.493 0-1.079.282-1.254.763l-.012-.762-.293.023zm7.804.293v-.012c.258-.117.48-.188.774-.188.539 0 .902.399.902 1.02v.176c-.984 0-2.39.328-2.39 1.324 0 .668.808.879 1.324.879.445 0 .937-.2 1.148-.645 0 .34.282.61.61.61.41 0 .738-.305.738-.727v-.469h-.246v.387c0 .21-.035.504-.281.504-.258 0-.293-.293-.293-.469V7.39c0-.105.011-.199.011-.304 0-.797-.82-1.172-1.511-1.172-.434 0-1.243.129-1.243.761 0 .176.106.387.352.387s.398-.164.398-.375a.35.35 0 0 0-.293-.351m1.676 1.207v.785c0 .55-.422.984-.972.984-.364 0-.739-.246-.762-.621v-.035c0-.867 1.066-1.067 1.734-1.113m2.722-2.989c0 .563-.27 1.512-1.066 1.512v.223h.703V8.35c0 .258.011.504.152.727.187.328.586.457.96.457.669 0 .833-.703.833-1.23V8.01h-.246c0 .117.012.223.012.34 0 .352-.094.938-.563.938-.434 0-.539-.457-.539-.856V6.29h1.195V6.03h-1.195V4.554Zm2.329 1.489V6.3h.129c.234 0 .48.024.48.399v2.156c0 .328-.21.34-.609.34v.258l.48-.024h.903l.574.024v-.258c-.094 0-.187.012-.281.012-.258 0-.48-.047-.48-.329V7.531c0-.563.316-1.36 1.007-1.36a.42.42 0 0 0-.129.293c0 .223.188.352.364.352.199 0 .351-.152.351-.352 0-.351-.328-.515-.633-.515-.445 0-.914.422-1.008.844l-.011-.844-.399.035zm3.396 0V6.3h.117c.258 0 .457.047.457.387v2.168c0 .328-.211.34-.61.34v.258l.48-.024h.81l.445.024v-.258h-.106c-.234 0-.433-.012-.433-.293V5.949l-.293.023zm.68-1.922a.44.44 0 0 0-.388.433c0 .211.176.446.434.446.27 0 .457-.223.457-.457a.44.44 0 0 0-.433-.434c-.024 0-.047.012-.07.012m1.482 1.91v.258h.093c.141 0 .305.011.434.07.14.07.246.2.34.328l.504.598c.117.152.386.41.386.504 0 .07-.246.316-.375.457-.398.457-.75.949-1.418.949v.258l.34-.024h.657l.445.024v-.258c-.14-.035-.2-.117-.2-.223 0-.164.153-.316.247-.422.105-.117.199-.234.304-.351.059-.07.13-.14.176-.211.07.058.13.14.2.21l.492.61c.047.059.129.117.129.2 0 .105-.141.175-.247.187v.258l.493-.024h.761l.399.024v-.258H22c-.14 0-.305-.012-.445-.07-.153-.07-.246-.223-.352-.352-.316-.363-.597-.785-.937-1.125-.012-.012-.035-.035-.035-.059 0-.07.234-.293.351-.421.41-.48.75-.88 1.371-.88v-.257l-.351.023h-.668l-.434-.023v.258a.215.215 0 0 1 .188.222c0 .246-.293.48-.422.645-.07.07-.164.21-.211.21-.035 0-.059-.034-.07-.058l-.47-.55c-.058-.07-.175-.176-.175-.282 0-.117.14-.176.246-.187V6.03l-.492.023h-.75zM10.53 15.93c-.011-.035-.047-.082-.047-.105 0-.024 1.266-1.196 1.407-1.336.562-.528.633-.598 1.453-.61.164-.011.176-.21.176-.246a.17.17 0 0 0-.164-.164c-.13 0-.282.012-.422.024h-.48c-.692 0-.973-.024-1.009-.024-.07 0-.246 0-.246.246 0 .153.164.164.223.164s.234.012.375.059l-1.547 1.465-.797-1.488c.188-.036.211-.036.375-.036.082 0 .246 0 .246-.246 0-.093-.07-.164-.187-.164-.281 0-.574.024-.88.024h-.292c-.867 0-1.078-.024-1.137-.024s-.234 0-.234.246c0 .164.152.164.34.164.105 0 .187 0 .304.012.082.012.094.024.153.117l1.207 2.227-2.086 1.957c-.246.234-.551.316-1.031.328-.13 0-.282 0-.282.246 0 .106.094.164.176.164.117 0 .281-.011.422-.023h.469c.68 0 .984.023 1.02.023.058 0 .234 0 .234-.246 0-.164-.176-.164-.211-.164-.012 0-.223-.012-.387-.07l1.91-1.793.973 1.816c-.13.024-.246.047-.375.047-.07 0-.246 0-.246.246 0 .059.047.164.187.164.281 0 .586-.023.88-.023h.304c.832 0 1.09.023 1.136.023.06 0 .235 0 .235-.246 0-.164-.152-.164-.317-.164-.105 0-.199 0-.316-.012-.105-.011-.117-.011-.164-.117zm0 0" style="fill:#000;fill-opacity:1;fill-rule:nonzero;stroke:none" transform="matrix(1.33333 0 0 1.33333 196.655 23.433)"/></g><path d="M62.363 0v-49.89h62.363V0Z" style="fill:#ffe6cc;fill-opacity:1;fill-rule:nonzero;stroke:#ff8000;stroke-width:.3985;stroke-linecap:butt;stroke-linejoin:miter;stroke-miterlimit:10;stroke-dasharray:none;stroke-opacity:1" transform="matrix(1.33333 0 0 -1.33333 85.1 149.937)"/><g aria-label="anomaly matrix S"><path d="M1.067-3.13v-.012c.258-.117.48-.188.773-.188.54 0 .903.399.903 1.02v.176c-.985 0-2.391.328-2.391 1.324 0 .668.808.879 1.324.879.445 0 .938-.2 1.149-.645 0 .34.28.61.609.61.41 0 .738-.305.738-.727v-.469h-.246v.387c0 .211-.035.504-.281.504-.258 0-.293-.293-.293-.469v-1.336c0-.105.012-.199.012-.304 0-.797-.82-1.172-1.512-1.172-.434 0-1.242.129-1.242.762 0 .175.105.386.351.386s.399-.164.399-.375a.35.35 0 0 0-.293-.351m1.676 1.207v.785c0 .55-.422.984-.973.984-.363 0-.738-.246-.762-.62V-.81c0-.867 1.067-1.066 1.735-1.113m1.807-1.5v.258h.152c.235 0 .458.035.458.398v2.156c0 .328-.211.34-.61.34v.258l.492-.024h.832l.504.024v-.258h-.164c-.246 0-.445-.023-.445-.328v-1.465c0-.586.398-1.23 1.16-1.23.457 0 .574.398.574.879v1.84c0 .28-.222.304-.445.304h-.164v.258l.504-.024h.832l.492.024v-.258h-.164c-.223 0-.445-.023-.445-.316v-1.688c0-.27-.012-.539-.13-.785-.198-.352-.62-.457-.995-.457-.48 0-1.09.27-1.266.762l-.012-.762-.293.023Zm6.378-.13c-.914.095-1.758.75-1.758 1.888C9.17-.6 10.155.069 11.07.069c.925 0 1.863-.715 1.863-1.758 0-1.031-.844-1.863-1.898-1.863zM9.873-1.547v-.211c0-.41.036-.961.375-1.266.223-.2.516-.305.809-.305.809 0 1.16.68 1.16 1.5 0 .446-.012.926-.316 1.29-.211.234-.54.363-.856.363-.586 0-1.054-.41-1.136-1.043-.012-.117-.012-.211-.036-.328m3.613-1.875v.258h.152c.234 0 .457.035.457.398v2.156c0 .328-.21.34-.61.34v.258l.493-.024h.832l.504.024v-.258h-.164c-.246 0-.446-.023-.446-.328v-1.453c0-.598.375-1.242 1.16-1.242.458 0 .575.386.575.867v1.851c0 .282-.211.305-.446.305h-.152v.258l.504-.024h.832l.492.024v-.258h-.176c-.246 0-.433-.023-.433-.328v-1.453c0-.598.375-1.242 1.148-1.242.457 0 .586.386.586.867v1.851c0 .282-.21.305-.445.305h-.164v.258l.504-.024h.844l.48.024v-.258h-.129c-.246 0-.48-.023-.48-.316v-1.7c0-.257 0-.515-.118-.761-.199-.352-.609-.47-.984-.47-.492 0-1.09.247-1.277.74h-.012c-.07-.552-.633-.74-1.102-.74-.492 0-1.078.282-1.253.763l-.012-.762-.293.023zm7.804.293v-.012c.258-.117.48-.188.774-.188.539 0 .902.399.902 1.02v.176c-.984 0-2.39.328-2.39 1.324 0 .668.808.879 1.324.879.445 0 .937-.2 1.148-.645 0 .34.281.61.61.61.41 0 .738-.305.738-.727v-.469h-.246v.387c0 .211-.035.504-.282.504-.257 0-.292-.293-.292-.469v-1.336c0-.105.011-.199.011-.304 0-.797-.82-1.172-1.511-1.172-.434 0-1.243.129-1.243.762 0 .175.106.386.352.386s.398-.164.398-.375a.35.35 0 0 0-.293-.351m1.676 1.207v.785c0 .55-.422.984-.973.984-.363 0-.738-.246-.761-.62V-.81c0-.867 1.066-1.066 1.734-1.113m1.82-3.528v.258h.105c.258 0 .504.012.504.422v4.16c0 .328-.258.34-.527.34h-.083v.258l.481-.024h.82l.504.024v-.258h-.187c-.223 0-.422-.023-.422-.316v-4.957Zm2.2 2.016v.258h.117c.27 0 .422.058.539.351l.187.399c.317.726.645 1.453.961 2.18l.07.152c.024.023.024.047.024.082V.01c0 .047-.035.106-.058.153l-.118.27c-.187.41-.422.96-.96.96-.118 0-.223-.047-.329-.094.13-.058.246-.14.246-.34a.34.34 0 0 0-.34-.34.35.35 0 0 0-.351.34c0 .434.422.657.773.657.621 0 .973-.586 1.196-1.102l.222-.492c.375-.832.715-1.676 1.114-2.496.129-.316.304-.703.82-.703v-.258l-.328.023h-.586l-.399-.023v.258a.33.33 0 0 1 .34.328c0 .152-.093.305-.152.445l-.563 1.266c-.07.129-.128.27-.187.398-.07-.187-.164-.375-.258-.574l-.644-1.465a.4.4 0 0 1-.059-.187v-.035c.023-.176.27-.176.41-.176v-.258l-.504.023h-.761ZM3.606 6.043V6.3h.153c.234 0 .457.035.457.399v2.156c0 .328-.21.34-.61.34v.258l.493-.024h.832l.504.024v-.258H5.27c-.246 0-.445-.024-.445-.328V7.414c0-.598.375-1.243 1.16-1.243.457 0 .574.387.574.868V8.89c0 .281-.211.305-.445.305h-.153v.258l.504-.024h.832l.492.024v-.258h-.175c-.247 0-.434-.024-.434-.328V7.414c0-.598.375-1.243 1.148-1.243.457 0 .586.387.586.868V8.89c0 .281-.21.305-.445.305h-.164v.258l.504-.024h.844l.48.024v-.258h-.129c-.246 0-.48-.024-.48-.317V7.18c0-.258 0-.515-.117-.761-.2-.352-.61-.47-.985-.47-.492 0-1.09.247-1.277.739h-.012c-.07-.55-.633-.738-1.101-.738-.493 0-1.079.281-1.254.761l-.012-.761-.293.023Zm7.805.292v-.011c.258-.117.48-.188.774-.188.539 0 .902.399.902 1.02v.176c-.984 0-2.39.328-2.39 1.324 0 .668.808.879 1.324.879.445 0 .937-.2 1.148-.645 0 .34.282.61.61.61.41 0 .738-.305.738-.727v-.469h-.246v.387c0 .21-.035.504-.281.504-.258 0-.293-.293-.293-.469V7.39c0-.105.011-.199.011-.305 0-.796-.82-1.171-1.511-1.171-.434 0-1.243.129-1.243.761 0 .176.106.387.352.387s.398-.164.398-.375a.35.35 0 0 0-.293-.352m1.676 1.208v.785c0 .55-.422.984-.972.984-.364 0-.739-.246-.762-.621v-.035c0-.867 1.066-1.067 1.734-1.113m2.722-2.989c0 .563-.27 1.512-1.066 1.512v.223h.703V8.35c0 .258.011.504.152.727.187.328.586.457.96.457.669 0 .833-.703.833-1.23V8.01h-.246c0 .117.012.223.012.34 0 .352-.094.938-.563.938-.434 0-.539-.457-.539-.856V6.29h1.195V6.03h-1.195V4.554Zm2.329 1.489V6.3h.129c.234 0 .48.024.48.399v2.156c0 .328-.21.34-.609.34v.258l.48-.024h.903l.574.024v-.258c-.094 0-.187.012-.281.012-.258 0-.48-.047-.48-.329V7.531c0-.563.316-1.36 1.007-1.36a.42.42 0 0 0-.129.293c0 .223.188.352.364.352.199 0 .351-.152.351-.352 0-.351-.328-.515-.633-.515-.445 0-.914.422-1.008.844l-.011-.844-.399.035zm3.396 0V6.3h.117c.258 0 .457.047.457.387v2.168c0 .328-.211.34-.61.34v.258l.48-.024h.81l.445.024v-.258h-.106c-.234 0-.433-.012-.433-.293V5.949l-.293.023zm.68-1.922a.44.44 0 0 0-.387.433c0 .211.175.446.433.446.27 0 .457-.223.457-.457a.44.44 0 0 0-.433-.434c-.024 0-.047.012-.07.012m1.482 1.91v.258h.093c.141 0 .305.011.434.07.14.07.246.2.34.328l.504.598c.117.152.386.41.386.504 0 .07-.246.316-.375.457-.398.457-.75.949-1.418.949v.258l.34-.024h.657l.445.024v-.258c-.14-.035-.2-.117-.2-.223 0-.164.153-.316.247-.422.105-.117.199-.234.304-.351.059-.07.13-.14.176-.211.07.058.13.14.2.21l.492.61c.047.059.129.117.129.2 0 .105-.141.175-.247.187v.258l.493-.024h.761l.399.024v-.258h-.094c-.14 0-.305-.012-.445-.07-.153-.07-.246-.223-.352-.352-.316-.363-.597-.785-.937-1.125-.012-.012-.035-.035-.035-.059 0-.07.234-.293.351-.421.41-.481.75-.88 1.371-.88v-.257l-.351.023h-.668l-.434-.023v.258a.215.215 0 0 1 .188.222c0 .246-.293.48-.422.645-.07.07-.164.21-.211.21-.035 0-.059-.034-.07-.058l-.47-.55c-.058-.071-.175-.176-.175-.282 0-.117.14-.176.246-.187V6.03l-.492.023h-.75zM18.457 13.633c.024-.105.024-.117.024-.164 0-.117-.106-.14-.176-.14s-.094.011-.164.07c-.047.035-.375.305-.457.375-.399-.387-1.008-.445-1.36-.445-1.581 0-2.308 1.16-2.308 1.933 0 .469.223.762.434.938.293.258.492.304 1.218.457l.645.129c.398.093.62.34.62.691 0 .352-.315 1.172-1.44 1.172-.563 0-1.618-.117-1.618-.996 0-.152.024-.317.035-.317 0-.035.012-.07.012-.082 0-.14-.14-.14-.222-.14-.188 0-.2.023-.235.187l-.375 1.5c0 .012-.035.117-.035.117 0 .047.023.153.176.153.094 0 .094-.012.164-.07l.457-.375c.457.351 1.09.445 1.617.445 1.711 0 2.367-1.36 2.367-2.098 0-.445-.21-.773-.34-.902-.34-.34-.597-.399-1.09-.504l-.644-.14c-.375-.071-.48-.094-.656-.247-.047-.047-.188-.187-.188-.422 0-.351.352-1.054 1.395-1.054.222 0 .644.035.95.27.374.292.374.737.374.89 0 .21-.012.199-.012.27 0 .152.13.152.223.152.129 0 .2 0 .234-.176zm0 0" style="fill:#000;fill-opacity:1;fill-rule:nonzero;stroke:none" transform="matrix(1.33333 0 0 1.33333 188.972 173.1)"/></g><path d="M-12.472 0v62.363L49.89 49.89V12.472z" style="fill:#cceffc;fill-opacity:1;fill-rule:nonzero;stroke:#00adef;stroke-width:.3985;stroke-linecap:butt;stroke-linejoin:miter;stroke-miterlimit:10;stroke-dasharray:none;stroke-opacity:1" transform="matrix(1.33333 0 0 -1.33333 85.1 149.937)"/><g aria-label="encoding matrix M"><path d="M.939-1.829h2.437c.094 0 .153-.046.153-.152 0-.398-.13-.855-.41-1.148-.294-.293-.692-.422-1.09-.422-.938 0-1.793.703-1.793 1.793 0 .902.726 1.84 1.875 1.84.597 0 1.23-.375 1.394-.961.012-.036.024-.059.024-.082 0-.059-.059-.118-.13-.118-.152 0-.175.258-.245.352-.2.34-.598.539-.985.539-.422 0-.832-.223-1.031-.61-.176-.316-.2-.679-.2-1.03m.011-.21c.083-.458.165-.95.633-1.184a.87.87 0 0 1 .422-.106c.528 0 .867.422.95.997.011.105.011.199.023.292zm3.13-1.383v.257h.152c.234 0 .457.036.457.399V-.61c0 .328-.211.34-.61.34v.258l.493-.024h.832l.504.024V-.27h-.165c-.246 0-.445-.023-.445-.328v-1.465c0-.586.399-1.23 1.16-1.23.457 0 .575.398.575.878v1.84c0 .282-.223.305-.446.305h-.164v.258l.504-.024h.832l.492.024V-.27h-.164c-.222 0-.445-.023-.445-.316v-1.688c0-.27-.012-.539-.129-.785-.2-.352-.621-.457-.996-.457-.48 0-1.09.27-1.266.762l-.011-.762-.293.023zm7.315.246c-.164.07-.258.199-.258.351 0 .223.164.375.422.375.223 0 .328-.21.328-.375 0-.586-.68-.703-1.172-.726h-.094c-1.03 0-1.875.797-1.875 1.84 0 .972.832 1.78 1.852 1.78.55 0 1.102-.28 1.324-.831.012-.059.07-.13.07-.2s-.058-.093-.128-.093c-.153 0-.13.164-.223.305-.2.351-.55.574-.961.574-.82 0-1.23-.785-1.23-1.582 0-.645.257-1.547 1.183-1.547.223 0 .54.012.762.129m2.827-.375c-.914.094-1.758.75-1.758 1.886 0 1.067.985 1.735 1.899 1.735.925 0 1.863-.715 1.863-1.758 0-1.031-.844-1.863-1.899-1.863zm-1.055 2.004v-.211c0-.41.035-.961.375-1.266.223-.2.516-.305.809-.305.808 0 1.16.68 1.16 1.5 0 .446-.012.926-.316 1.29-.211.234-.54.363-.856.363-.586 0-1.055-.41-1.137-1.043-.011-.117-.011-.211-.035-.328m6.158-3.903v.258h.083c.316 0 .515.024.515.492v1.641a1.44 1.44 0 0 0-1.066-.457c-.973 0-1.875.762-1.875 1.793 0 .984.82 1.793 1.793 1.793.422 0 .843-.176 1.125-.504V.07l1.218-.082V-.27h-.117c-.246 0-.48-.023-.48-.398v-4.875Zm-1.64 3.903v-.106c0-.562.105-1.242.726-1.523.153-.07.329-.117.493-.117.363 0 .75.187.949.515.023.047.047.07.047.13v1.71c0 .41-.645.785-1.067.785-.586 0-1.008-.469-1.101-1.031-.024-.129-.024-.246-.047-.363m4.08-1.875v.257h.118c.258 0 .457.047.457.387V-.61c0 .328-.21.34-.61.34v.258l.481-.024h.809l.445.024V-.27h-.105c-.235 0-.434-.012-.434-.293v-2.953l-.293.023zm.68-1.922a.44.44 0 0 0-.386.433c0 .211.176.446.433.446.27 0 .458-.223.458-.457a.44.44 0 0 0-.434-.434c-.024 0-.047.012-.07.012m1.627 1.922v.257h.152c.234 0 .457.036.457.399V-.61c0 .328-.211.34-.61.34v.258l.493-.024h.832l.504.024V-.27h-.164c-.246 0-.446-.023-.446-.328v-1.465c0-.586.399-1.23 1.16-1.23.458 0 .575.398.575.878v1.84c0 .282-.223.305-.446.305h-.164v.258l.504-.024h.832l.492.024V-.27h-.164c-.222 0-.445-.023-.445-.316v-1.688c0-.27-.012-.539-.129-.785-.199-.352-.62-.457-.996-.457-.48 0-1.09.27-1.266.762l-.011-.762-.293.023zm5.35 3.246c-.352.07-.727.398-.727.785 0 .832 1.312 1.02 1.875 1.02.668 0 1.886-.2 1.886-1.044 0-.996-1.066-1.148-1.851-1.148h-.692c-.316 0-.515-.246-.515-.527v-.047c.011-.094.047-.246.117-.258.035 0 .117.059.164.082.2.106.434.14.656.14.645 0 1.371-.421 1.371-1.16 0-.234-.07-.468-.222-.656-.024-.035-.07-.07-.07-.117 0-.105.468-.27.726-.27a.28.28 0 0 0-.082.188c0 .14.129.246.258.246a.24.24 0 0 0 .246-.246c0-.258-.223-.422-.457-.422-.293 0-.61.14-.785.293-.024.012-.059.059-.094.059h-.012a.6.6 0 0 1-.152-.094c-.235-.094-.457-.164-.715-.164-.645 0-1.371.41-1.371 1.172 0 .258.094.515.27.715.023.023.07.058.07.093v.012c0 .07-.13.223-.176.34a1.4 1.4 0 0 0-.035.305c0 .293.117.445.316.703m-.247.832c0-.024-.012-.047-.012-.07 0-.434.457-.622.832-.622h.61c.597 0 1.289.047 1.383.598v.047c0 .316-.387.562-.61.633-.27.117-.55.14-.832.14-.504 0-1.312-.199-1.37-.726m.422-2.86v-.093c0-.457.14-.973.738-.973.504 0 .75.422.75.95 0 .468-.222.913-.75.913-.199 0-.41-.093-.55-.258-.141-.164-.165-.34-.188-.539M4.311 6.043v.258h.152c.235 0 .457.035.457.399v2.156c0 .328-.21.34-.61.34v.258l.493-.024h.832l.504.024v-.258h-.164c-.246 0-.445-.024-.445-.328V7.415c0-.598.375-1.243 1.16-1.243.457 0 .574.387.574.868V8.89c0 .281-.211.305-.445.305h-.153v.258l.504-.024h.832l.492.024v-.258H8.32c-.246 0-.434-.024-.434-.328V7.415c0-.598.375-1.243 1.148-1.243.458 0 .586.387.586.868V8.89c0 .281-.21.305-.445.305H9.01v.258l.504-.024h.844l.48.024v-.258h-.129c-.246 0-.48-.024-.48-.317V7.18c0-.258 0-.515-.117-.762-.2-.351-.61-.468-.985-.468-.492 0-1.09.246-1.277.738h-.012c-.07-.55-.633-.738-1.101-.738-.493 0-1.079.281-1.254.761L5.47 5.95l-.293.023Zm7.805.293v-.011c.257-.117.48-.188.773-.188.539 0 .902.399.902 1.02v.176c-.984 0-2.39.328-2.39 1.324 0 .668.808.879 1.324.879.445 0 .937-.2 1.148-.645 0 .34.282.61.61.61.41 0 .738-.305.738-.727v-.469h-.246v.387c0 .21-.035.504-.281.504-.258 0-.293-.293-.293-.469V7.391c0-.105.011-.2.011-.305 0-.796-.82-1.171-1.511-1.171-.434 0-1.243.128-1.243.761 0 .176.106.387.352.387s.398-.164.398-.375a.35.35 0 0 0-.292-.352m1.675 1.207v.786c0 .55-.422.984-.972.984-.364 0-.739-.246-.762-.621v-.035c0-.867 1.066-1.067 1.734-1.114m2.722-2.988c0 .563-.27 1.512-1.066 1.512v.223h.703v2.062c0 .258.011.504.152.727.188.328.586.457.961.457.668 0 .832-.703.832-1.23v-.294h-.246c0 .117.012.223.012.34 0 .352-.094.938-.563.938-.433 0-.539-.457-.539-.856V6.29h1.195v-.258H16.76V4.555Zm2.332 1.488v.258h.129c.234 0 .48.024.48.399v2.156c0 .328-.21.34-.609.34v.258l.48-.024h.903l.574.024v-.258c-.094 0-.187.012-.281.012-.258 0-.48-.047-.48-.329V7.532c0-.563.316-1.36 1.007-1.36a.42.42 0 0 0-.129.293c0 .223.188.352.364.352.199 0 .351-.152.351-.352 0-.351-.328-.515-.633-.515-.445 0-.914.422-1.008.843l-.011-.843-.399.035zm3.393 0v.258h.117c.258 0 .457.047.457.387v2.168c0 .328-.211.34-.61.34v.258l.48-.024h.81l.445.024v-.258h-.106c-.234 0-.433-.012-.433-.293V5.95l-.293.023zm.68-1.921a.44.44 0 0 0-.387.433c0 .211.175.446.433.446.27 0 .457-.223.457-.458a.44.44 0 0 0-.433-.433c-.024 0-.047.012-.07.012m1.485 1.91v.258h.093c.141 0 .305.011.434.07.14.07.246.2.34.328l.504.598c.117.152.386.41.386.504 0 .07-.246.316-.375.457-.398.457-.75.949-1.418.949v.258l.34-.024h.657l.445.024v-.258c-.14-.035-.2-.117-.2-.223 0-.164.153-.316.247-.422.105-.117.199-.234.304-.351.059-.07.13-.14.176-.211.07.058.13.14.2.21l.492.61c.047.059.129.117.129.2 0 .105-.141.175-.247.187v.258l.493-.024h.761l.399.024v-.258h-.094c-.14 0-.305-.012-.445-.07-.153-.07-.246-.223-.352-.352-.316-.363-.597-.785-.937-1.125-.012-.012-.035-.035-.035-.059 0-.07.234-.293.351-.422.41-.48.75-.878 1.371-.878v-.258l-.351.023h-.668l-.434-.023v.258a.215.215 0 0 1 .188.222c0 .246-.293.48-.422.645-.07.07-.164.21-.211.21-.035 0-.059-.034-.07-.058l-.47-.55c-.058-.071-.175-.176-.175-.282 0-.117.14-.176.246-.187v-.258l-.492.023h-.75zM20.307 14.03c.023-.117.035-.13.176-.14.129-.013.258-.013.375-.013.222 0 .363 0 .363-.246 0-.164-.164-.164-.293-.164h-1.406c-.176 0-.305 0-.457.211L15.97 17.92l-.96-4.195c-.06-.234-.083-.258-.353-.258h-1.5c-.152 0-.304 0-.304.246 0 .153.117.153.304.164.083 0 .41.012.47.012l-1.09 4.383c-.036.14-.047.164-.247.2-.175.046-.351.046-.445.046-.082 0-.258 0-.258.246 0 .047.035.164.176.164.129 0 .293-.011.422-.023h.433c.668 0 .856.023.914.023.083 0 .223-.035.223-.246 0-.164-.164-.164-.27-.164-.163 0-.328-.012-.492-.07l1.114-4.442 1.066 4.664c.035.141.07.258.27.258.093 0 .234-.035.363-.21l3.48-4.805h.012l-1.101 4.441c-.036.129-.047.14-.188.152-.117.012-.258.012-.375.012-.21 0-.363 0-.363.246 0 .024.023.164.176.164.164 0 .375-.011.539-.023h.574c.797 0 1.113.023 1.16.023.059 0 .234 0 .234-.246a.2.2 0 0 0-.07-.14c-.094-.047-.176-.012-.703-.047zm0 0" style="fill:#000;fill-opacity:1;fill-rule:nonzero;stroke:none" transform="matrix(1.33333 0 0 1.33333 88.252 98.267)"/></g><path d="M62.363 12.472V49.89h62.363V12.472z" style="fill:#ccf;fill-opacity:1;fill-rule:nonzero;stroke:#00f;stroke-width:.3985;stroke-linecap:butt;stroke-linejoin:miter;stroke-miterlimit:10;stroke-dasharray:none;stroke-opacity:1" transform="matrix(1.33333 0 0 -1.33333 85.1 149.937)"/><g aria-label="representation matrix H"><path d="M.269-3.422v.257h.129c.234 0 .48.024.48.399V-.61c0 .328-.211.34-.61.34v.258L.75-.036h.902l.575.024V-.27c-.094 0-.188.012-.282.012-.257 0-.48-.047-.48-.328v-1.348c0-.563.316-1.36 1.008-1.36a.42.42 0 0 0-.13.294c0 .222.188.351.364.351.2 0 .352-.152.352-.351 0-.352-.328-.516-.633-.516-.445 0-.914.422-1.008.844l-.012-.844-.398.035zm3.97 1.593h2.437c.094 0 .152-.046.152-.152 0-.398-.129-.855-.41-1.148-.293-.293-.691-.422-1.09-.422-.937 0-1.793.703-1.793 1.793 0 .902.727 1.84 1.875 1.84.598 0 1.23-.375 1.395-.961.011-.036.023-.059.023-.082 0-.059-.058-.118-.129-.118-.152 0-.176.258-.246.352-.199.34-.597.539-.984.539-.422 0-.832-.223-1.031-.61-.176-.316-.2-.679-.2-1.03m.011-.21c.082-.458.164-.95.633-1.184a.87.87 0 0 1 .422-.106c.527 0 .867.422.949.997.012.105.012.199.023.292zm3.082-1.383v.257h.129c.246 0 .48.024.48.34V.95c0 .316-.222.328-.609.328v.258l.492-.024h.832l.504.024v-.258h-.187c-.235 0-.422-.035-.422-.317l.012-1.359c.175.305.68.469 1.054.469.961 0 1.864-.774 1.864-1.793 0-.879-.715-1.793-1.747-1.793-.445 0-.878.164-1.207.492v-.492zm3.434 1.828c-.035.644-.457 1.441-1.243 1.441-.398 0-.972-.387-.972-.75V-2.18c0-.094-.012-.188-.012-.293 0-.445.598-.797 1.078-.797.797 0 1.149.914 1.149 1.547zm1.268-1.828v.257h.13c.234 0 .48.024.48.399V-.61c0 .328-.211.34-.61.34v.258l.48-.024h.903l.574.024V-.27c-.093 0-.187.012-.281.012-.258 0-.48-.047-.48-.328v-1.348c0-.563.316-1.36 1.007-1.36a.42.42 0 0 0-.129.294c0 .222.188.351.364.351.199 0 .351-.152.351-.351 0-.352-.328-.516-.633-.516-.445 0-.914.422-1.007.844l-.012-.844-.398.035zm3.97 1.593h2.437c.094 0 .153-.046.153-.152 0-.398-.13-.855-.41-1.148-.293-.293-.692-.422-1.09-.422-.938 0-1.793.703-1.793 1.793 0 .902.726 1.84 1.875 1.84.597 0 1.23-.375 1.394-.961.012-.036.024-.059.024-.082 0-.059-.059-.118-.13-.118-.151 0-.175.258-.245.352-.2.34-.598.539-.985.539-.421 0-.832-.223-1.03-.61-.177-.316-.2-.679-.2-1.03m.012-.21c.082-.458.164-.95.632-1.184a.87.87 0 0 1 .422-.106c.528 0 .868.422.95.997.011.105.011.199.023.292zM19.578-.27c.258.234.563.34.903.34.632 0 1.394-.235 1.394-1.125v-.059c-.035-.48-.422-.82-.855-.96-.457-.153-1.477-.106-1.477-.716 0-.457.598-.562.938-.562.48 0 .878.234.937.797 0 .07.012.152.117.152s.14-.082.14-.176c0-.046-.01-.093-.01-.14v-.715c0-.07-.036-.117-.106-.117-.153 0-.223.187-.305.187h-.023c-.118-.035-.223-.117-.375-.152a2 2 0 0 0-.364-.035c-.562 0-1.383.164-1.383 1.008v.058c.024.281.2.48.434.656.621.41 1.816.153 1.91.95 0 .562-.492.726-.949.726-.598 0-1.02-.433-1.113-.984-.024-.07-.024-.2-.153-.2s-.129.083-.129.153V-.2c0 .035-.011.07-.011.118 0 .07.023.152.117.152.07 0 .14-.082.176-.129l.047-.059c.046-.047.105-.093.14-.152m3.528-1.559h2.437c.094 0 .152-.046.152-.152 0-.398-.129-.855-.41-1.148-.293-.293-.691-.422-1.09-.422-.937 0-1.793.703-1.793 1.793 0 .902.727 1.84 1.875 1.84.598 0 1.23-.375 1.395-.961.012-.036.023-.059.023-.082 0-.059-.058-.118-.129-.118-.152 0-.175.258-.246.352-.199.34-.597.539-.984.539-.422 0-.832-.223-1.031-.61-.176-.316-.2-.679-.2-1.03m.011-.21c.082-.458.164-.95.633-1.184a.87.87 0 0 1 .422-.106c.527 0 .867.422.95.997.01.105.01.199.023.292zm3.13-1.383v.257h.151c.235 0 .458.036.458.399V-.61c0 .328-.211.34-.61.34v.258l.492-.024h.832l.504.024V-.27h-.164c-.246 0-.445-.023-.445-.328v-1.465c0-.586.398-1.23 1.16-1.23.457 0 .574.398.574.878v1.84c0 .282-.222.305-.445.305h-.164v.258l.504-.024h.832l.492.024V-.27h-.164c-.223 0-.445-.023-.445-.316v-1.688c0-.27-.012-.539-.13-.785-.198-.352-.62-.457-.995-.457-.48 0-1.09.27-1.266.762l-.012-.762-.293.023zm5.378-1.489c0 .563-.27 1.512-1.066 1.512v.223h.703v2.062c0 .258.011.504.152.727.188.328.586.457.961.457.668 0 .832-.703.832-1.23v-.294h-.246c0 .118.012.223.012.34 0 .352-.094.938-.563.938-.433 0-.539-.457-.539-.856v-2.144h1.195v-.258h-1.195v-1.477zm3.129 1.782v-.012c.258-.117.48-.188.773-.188.54 0 .903.399.903 1.02v.176c-.985 0-2.39.328-2.39 1.324 0 .668.808.879 1.323.879.446 0 .938-.2 1.149-.645 0 .34.281.61.61.61.41 0 .737-.305.737-.727v-.469h-.246v.387c0 .211-.035.504-.28.504-.259 0-.294-.293-.294-.469v-1.336c0-.105.012-.199.012-.304 0-.797-.82-1.172-1.512-1.172-.433 0-1.242.129-1.242.761 0 .176.105.387.351.387.247 0 .399-.164.399-.375a.35.35 0 0 0-.293-.351m1.676 1.207v.785c0 .55-.422.984-.973.984-.363 0-.738-.246-.762-.62V-.81c0-.867 1.067-1.066 1.735-1.113m2.718-2.989c0 .563-.269 1.512-1.066 1.512v.223h.703v2.062c0 .258.012.504.153.727.187.328.585.457.96.457.668 0 .833-.703.833-1.23v-.294h-.247c0 .118.012.223.012.34 0 .352-.094.938-.562.938-.434 0-.54-.457-.54-.856v-2.144h1.196v-.258h-1.195v-1.477zm2.426 1.489v.257h.117c.258 0 .457.047.457.387V-.61c0 .328-.21.34-.609.34v.258l.48-.024h.81l.444.024V-.27h-.105c-.234 0-.434-.012-.434-.293v-2.953l-.293.023zm.68-1.922a.44.44 0 0 0-.387.433c0 .211.176.446.434.446.27 0 .457-.223.457-.457a.44.44 0 0 0-.434-.434c-.023 0-.047.012-.07.012m3.302 1.793c-.914.094-1.758.75-1.758 1.886 0 1.067.984 1.735 1.898 1.735.926 0 1.864-.715 1.864-1.758 0-1.031-.844-1.863-1.899-1.863zM44.5-1.547v-.211c0-.41.035-.961.375-1.266.223-.2.516-.305.809-.305.808 0 1.16.68 1.16 1.5 0 .446-.012.926-.317 1.29-.21.234-.539.363-.855.363-.586 0-1.055-.41-1.137-1.043-.012-.117-.012-.211-.035-.328m3.612-1.875v.257h.153c.234 0 .457.036.457.399V-.61c0 .328-.211.34-.61.34v.258l.493-.024h.832l.503.024V-.27h-.164c-.246 0-.445-.023-.445-.328v-1.465c0-.586.399-1.23 1.16-1.23.457 0 .574.398.574.878v1.84c0 .282-.222.305-.445.305h-.164v.258l.504-.024h.832l.492.024V-.27h-.164c-.223 0-.445-.023-.445-.316v-1.688c0-.27-.012-.539-.13-.785-.198-.352-.62-.457-.995-.457-.48 0-1.09.27-1.266.762l-.012-.762-.292.023zM14.22 6.043v.258h.152c.234 0 .457.035.457.399v2.156c0 .328-.21.34-.61.34v.258l.493-.024h.832l.504.024v-.258h-.164c-.246 0-.445-.024-.445-.328V7.415c0-.598.375-1.243 1.16-1.243.457 0 .574.387.574.868V8.89c0 .281-.211.305-.445.305h-.153v.258l.504-.024h.832l.492.024v-.258h-.175c-.247 0-.434-.024-.434-.328V7.415c0-.598.375-1.243 1.148-1.243.457 0 .586.387.586.868V8.89c0 .281-.21.305-.445.305h-.164v.258l.504-.024h.844l.48.024v-.258h-.129c-.246 0-.48-.024-.48-.317V7.18c0-.258 0-.515-.117-.762-.2-.351-.61-.468-.985-.468-.492 0-1.09.246-1.277.738h-.012c-.07-.55-.633-.738-1.101-.738-.493 0-1.079.281-1.254.761l-.012-.761-.293.023zm7.804.293v-.011c.258-.117.48-.188.774-.188.539 0 .902.399.902 1.02v.176c-.984 0-2.39.328-2.39 1.324 0 .668.808.879 1.324.879.445 0 .937-.2 1.148-.645 0 .34.282.61.61.61.41 0 .738-.305.738-.727v-.469h-.246v.387c0 .21-.035.504-.281.504-.258 0-.293-.293-.293-.469V7.391c0-.105.011-.2.011-.305 0-.796-.82-1.171-1.511-1.171-.434 0-1.243.128-1.243.761 0 .176.106.387.352.387s.398-.164.398-.375a.35.35 0 0 0-.293-.352M23.7 7.543v.786c0 .55-.422.984-.972.984-.364 0-.739-.246-.762-.621v-.035c0-.867 1.066-1.067 1.734-1.114m2.722-2.988c0 .563-.27 1.512-1.066 1.512v.223h.703v2.062c0 .258.011.504.152.727.187.328.586.457.96.457.669 0 .833-.703.833-1.23v-.294h-.246c0 .117.012.223.012.34 0 .352-.094.938-.563.938-.434 0-.539-.457-.539-.856V6.29h1.195v-.258h-1.195V4.555Zm2.329 1.488v.258h.129c.234 0 .48.024.48.399v2.156c0 .328-.21.34-.609.34v.258l.48-.024h.903l.574.024v-.258c-.094 0-.187.012-.281.012-.258 0-.48-.047-.48-.329V7.532c0-.563.316-1.36 1.007-1.36a.42.42 0 0 0-.129.293c0 .223.188.352.364.352.199 0 .351-.152.351-.352 0-.351-.328-.515-.633-.515-.445 0-.914.422-1.008.843l-.011-.843-.399.035zm3.396 0v.258h.117c.258 0 .457.047.457.387v2.168c0 .328-.211.34-.61.34v.258l.48-.024h.81l.445.024v-.258h-.106c-.234 0-.433-.012-.433-.293V5.95l-.293.023zm.68-1.921a.44.44 0 0 0-.387.433c0 .211.175.446.433.446.27 0 .457-.223.457-.458a.44.44 0 0 0-.433-.433c-.024 0-.047.012-.07.012m1.482 1.91v.258h.093c.141 0 .305.011.434.07.14.07.246.2.34.328l.504.598c.117.152.386.41.386.504 0 .07-.246.316-.375.457-.398.457-.75.949-1.418.949v.258l.34-.024h.657l.445.024v-.258c-.14-.035-.2-.117-.2-.223 0-.164.153-.316.247-.422.105-.117.199-.234.304-.351.059-.07.13-.14.176-.211.07.058.13.14.2.21l.492.61c.047.059.129.117.129.2 0 .105-.141.175-.247.187v.258l.493-.024h.761l.399.024v-.258h-.094c-.14 0-.305-.012-.445-.07-.153-.07-.246-.223-.352-.352-.316-.363-.597-.785-.937-1.125-.012-.012-.035-.035-.035-.059 0-.07.234-.293.351-.422.41-.48.75-.878 1.371-.878v-.258l-.351.023h-.668l-.434-.023v.258a.215.215 0 0 1 .188.222c0 .246-.293.48-.422.645-.07.07-.164.21-.211.21-.035 0-.059-.034-.07-.058l-.47-.55c-.058-.071-.175-.176-.175-.282 0-.117.14-.176.246-.187v-.258l-.492.023h-.75zM29.437 14.03c.023-.117.035-.13.175-.14.13-.013.258-.013.375-.013.223 0 .364 0 .364-.246 0-.093-.07-.164-.176-.164-.293 0-.586.024-.88.024h-.315c-.856 0-1.184-.024-1.23-.024-.06 0-.235 0-.235.246 0 .153.117.153.304.164.07 0 .41.012.47.012l-.493 1.992h-2.79l.458-1.851c.035-.117.035-.13.187-.14.118-.013.247-.013.375-.013.211 0 .352 0 .352-.246 0-.093-.059-.164-.176-.164-.281 0-.574.024-.867.024h-.328c-.856 0-1.184-.024-1.219-.024-.07 0-.246 0-.246.246 0 .153.117.153.316.164.07 0 .399.012.457.012l-1.113 4.465c-.035.129-.035.14-.187.152-.117.012-.246.012-.375.012-.211 0-.364 0-.364.246 0 .024.036.164.188.164.281 0 .574-.023.879-.023h.597c.2 0 .727.023.938.023.059 0 .246 0 .246-.246a.18.18 0 0 0-.082-.14c-.082-.047-.176-.012-.703-.047l.55-2.203h2.801l-.515 2.062c-.035.129-.047.14-.188.152-.117.012-.257.012-.375.012-.21 0-.363 0-.363.246 0 .024.024.164.176.164.293 0 .586-.023.879-.023h.597c.211 0 .739.023.938.023.07 0 .246 0 .246-.246a.2.2 0 0 0-.07-.14c-.094-.047-.176-.012-.703-.047zm0 0" style="fill:#000;fill-opacity:1;fill-rule:nonzero;stroke:none" transform="matrix(1.33333 0 0 1.33333 174.822 98.267)"/></g><path d="M137.198 12.472V49.89l62.363 12.473V0Z" style="fill:#cfc;fill-opacity:1;fill-rule:nonzero;stroke:#0f0;stroke-width:.3985;stroke-linecap:butt;stroke-linejoin:miter;stroke-miterlimit:10;stroke-dasharray:none;stroke-opacity:1" transform="matrix(1.33333 0 0 -1.33333 85.1 149.937)"/><g aria-label="decoding matrix W"><path d="M2.626-5.45v.258h.082c.317 0 .516.024.516.492v1.641a1.44 1.44 0 0 0-1.067-.457c-.972 0-1.875.762-1.875 1.793C.282-.74 1.102.07 2.075.07c.422 0 .844-.176 1.125-.504V.07l1.22-.082V-.27h-.118c-.246 0-.48-.023-.48-.398v-4.875ZM.986-1.547v-.106c0-.562.105-1.242.726-1.523.152-.07.328-.117.492-.117.364 0 .75.187.95.515.023.047.046.07.046.13v1.71c0 .41-.644.785-1.066.785-.586 0-1.008-.469-1.102-1.031-.023-.129-.023-.246-.046-.363M5.64-1.83h2.437c.094 0 .153-.046.153-.152 0-.398-.13-.855-.41-1.148-.293-.293-.692-.422-1.09-.422-.938 0-1.793.703-1.793 1.793 0 .902.726 1.84 1.875 1.84.597 0 1.23-.375 1.394-.961.012-.036.024-.059.024-.082 0-.059-.059-.118-.13-.118-.152 0-.175.258-.245.352-.2.34-.598.539-.985.539-.422 0-.832-.223-1.03-.61-.177-.316-.2-.679-.2-1.03m.012-.21c.082-.458.164-.95.632-1.184a.87.87 0 0 1 .422-.106c.528 0 .867.422.95.997.011.105.011.199.023.292zm5.742-1.137c-.164.07-.258.199-.258.351 0 .223.164.375.422.375.222 0 .328-.21.328-.375 0-.586-.68-.703-1.172-.726h-.094c-1.03 0-1.875.797-1.875 1.84 0 .972.832 1.78 1.852 1.78.55 0 1.101-.28 1.324-.831.012-.059.07-.13.07-.2s-.058-.093-.128-.093c-.153 0-.13.164-.223.305-.2.351-.55.574-.961.574-.82 0-1.23-.785-1.23-1.582 0-.645.257-1.547 1.183-1.547.223 0 .54.012.762.129m2.827-.375c-.914.094-1.758.75-1.758 1.886 0 1.067.984 1.735 1.899 1.735.925 0 1.863-.715 1.863-1.758 0-1.031-.844-1.863-1.899-1.863zm-1.055 2.004v-.211c0-.41.035-.961.375-1.266.223-.2.516-.305.809-.305.808 0 1.16.68 1.16 1.5 0 .446-.012.926-.316 1.29-.211.234-.54.363-.856.363-.586 0-1.055-.41-1.137-1.043-.011-.117-.011-.211-.035-.328m6.158-3.903v.258h.082c.317 0 .516.024.516.492v1.641a1.44 1.44 0 0 0-1.066-.457c-.973 0-1.875.762-1.875 1.793 0 .984.82 1.793 1.793 1.793.422 0 .843-.176 1.125-.504V.07l1.218-.082V-.27h-.117c-.246 0-.48-.023-.48-.398v-4.875Zm-1.64 3.903v-.106c0-.562.105-1.242.726-1.523.153-.07.328-.117.493-.117.363 0 .75.187.949.515.023.047.047.07.047.13v1.71c0 .41-.645.785-1.067.785-.586 0-1.008-.469-1.101-1.031-.024-.129-.024-.246-.047-.363m4.08-1.875v.257h.118c.258 0 .457.047.457.387V-.61c0 .328-.21.34-.61.34v.258l.481-.024h.809l.445.024V-.27h-.105c-.235 0-.434-.012-.434-.293v-2.953l-.293.023zm.68-1.922a.44.44 0 0 0-.386.433c0 .211.176.446.433.446.27 0 .457-.223.457-.457a.44.44 0 0 0-.433-.434c-.024 0-.047.012-.07.012m1.627 1.922v.257h.152c.234 0 .457.036.457.399V-.61c0 .328-.211.34-.61.34v.258l.493-.024h.832l.504.024V-.27h-.164c-.247 0-.446-.023-.446-.328v-1.465c0-.586.399-1.23 1.16-1.23.457 0 .575.398.575.878v1.84c0 .282-.223.305-.446.305h-.164v.258l.504-.024h.832l.492.024V-.27h-.164c-.222 0-.445-.023-.445-.316v-1.688c0-.27-.012-.539-.129-.785-.2-.352-.621-.457-.996-.457-.48 0-1.09.27-1.266.762l-.011-.762-.293.023zm5.35 3.246c-.352.07-.727.398-.727.785 0 .832 1.312 1.02 1.875 1.02.668 0 1.886-.2 1.886-1.044 0-.996-1.066-1.148-1.851-1.148h-.692c-.316 0-.515-.246-.515-.527v-.047c.011-.094.047-.246.117-.258.035 0 .117.059.164.082.2.106.434.14.656.14.645 0 1.371-.421 1.371-1.16 0-.234-.07-.468-.222-.656-.024-.035-.07-.07-.07-.117 0-.105.468-.27.726-.27a.28.28 0 0 0-.082.188c0 .14.129.246.258.246a.24.24 0 0 0 .246-.246c0-.258-.223-.422-.457-.422-.293 0-.61.14-.785.293-.024.012-.059.059-.094.059h-.012a.6.6 0 0 1-.152-.094c-.235-.094-.457-.164-.715-.164-.645 0-1.371.41-1.371 1.172 0 .258.094.515.27.715.023.023.07.058.07.093v.012c0 .07-.13.223-.176.34a1.4 1.4 0 0 0-.035.305c0 .293.117.445.316.703m-.247.832c0-.024-.012-.047-.012-.07 0-.434.457-.622.832-.622h.61c.597 0 1.289.047 1.383.598v.047c0 .316-.387.562-.61.633-.27.117-.55.14-.832.14-.504 0-1.312-.199-1.371-.726m.422-2.86v-.093c0-.457.14-.973.738-.973.504 0 .75.422.75.95 0 .468-.222.913-.75.913-.199 0-.41-.093-.55-.258-.141-.164-.165-.34-.188-.539M4.31 6.043v.258h.152c.234 0 .457.035.457.399v2.156c0 .328-.21.34-.61.34v.258l.493-.024h.832l.504.024v-.258h-.164c-.246 0-.445-.024-.445-.328V7.415c0-.598.375-1.243 1.16-1.243.457 0 .574.387.574.868V8.89c0 .281-.211.305-.445.305h-.153v.258l.504-.024h.832l.492.024v-.258H8.32c-.247 0-.434-.024-.434-.328V7.415c0-.598.375-1.243 1.148-1.243.457 0 .586.387.586.868V8.89c0 .281-.21.305-.445.305H9.01v.258l.504-.024h.844l.48.024v-.258h-.129c-.246 0-.48-.024-.48-.317V7.18c0-.258 0-.515-.117-.762-.2-.351-.61-.468-.985-.468-.492 0-1.09.246-1.277.738h-.012c-.07-.55-.633-.738-1.101-.738-.493 0-1.079.281-1.254.761L5.47 5.95l-.293.023Zm7.804.293v-.011c.258-.117.48-.188.774-.188.539 0 .902.399.902 1.02v.176c-.984 0-2.39.328-2.39 1.324 0 .668.808.879 1.324.879.445 0 .937-.2 1.148-.645 0 .34.282.61.61.61.41 0 .738-.305.738-.727v-.469h-.246v.387c0 .21-.035.504-.281.504-.258 0-.293-.293-.293-.469V7.391c0-.105.011-.2.011-.305 0-.796-.82-1.171-1.511-1.171-.434 0-1.243.128-1.243.761 0 .176.106.387.352.387s.398-.164.398-.375a.35.35 0 0 0-.293-.352m1.676 1.207v.786c0 .55-.422.984-.972.984-.364 0-.739-.246-.762-.621v-.035c0-.867 1.066-1.067 1.734-1.114m2.722-2.988c0 .563-.27 1.512-1.066 1.512v.223h.703v2.062c0 .258.011.504.152.727.187.328.586.457.96.457.669 0 .833-.703.833-1.23v-.294h-.246c0 .117.012.223.012.34 0 .352-.094.938-.563.938-.434 0-.539-.457-.539-.856V6.29h1.195v-.258H16.76V4.555Zm2.332 1.488v.258h.129c.234 0 .48.024.48.399v2.156c0 .328-.21.34-.609.34v.258l.48-.024h.903l.574.024v-.258c-.094 0-.188.012-.281.012-.258 0-.48-.047-.48-.329V7.532c0-.563.316-1.36 1.007-1.36a.42.42 0 0 0-.129.293c0 .223.188.352.363.352.2 0 .352-.152.352-.352 0-.351-.328-.515-.633-.515-.445 0-.914.422-1.008.843l-.011-.843-.399.035zm3.393 0v.258h.117c.258 0 .457.047.457.387v2.168c0 .328-.211.34-.61.34v.258l.48-.024h.81l.445.024v-.258h-.106c-.234 0-.433-.012-.433-.293V5.95l-.293.023zm.68-1.921a.44.44 0 0 0-.387.433c0 .211.175.446.433.446.27 0 .457-.223.457-.458a.44.44 0 0 0-.433-.433c-.024 0-.047.012-.07.012m1.485 1.91v.258h.093c.141 0 .305.011.434.07.14.07.246.2.34.328l.504.598c.117.152.386.41.386.504 0 .07-.246.316-.375.457-.398.457-.75.949-1.418.949v.258l.34-.024h.657l.445.024v-.258c-.14-.035-.2-.117-.2-.223 0-.164.153-.316.247-.422.105-.117.199-.234.304-.351.059-.07.13-.14.176-.211.07.058.13.14.2.21l.492.61c.046.059.128.117.128.2 0 .105-.14.175-.246.187v.258l.493-.024h.761l.399.024v-.258h-.094c-.14 0-.305-.012-.445-.07-.153-.07-.246-.223-.352-.352-.316-.363-.598-.785-.937-1.125-.012-.012-.036-.035-.036-.059 0-.07.235-.293.352-.422.41-.48.75-.878 1.371-.878v-.258l-.351.023h-.668l-.434-.023v.258a.215.215 0 0 1 .187.222c0 .246-.292.48-.421.645-.07.07-.164.21-.211.21-.035 0-.059-.034-.07-.058l-.47-.55c-.058-.071-.175-.176-.175-.282 0-.117.14-.176.246-.187v-.258l-.492.023h-.75zM20.324 14.182c.141-.234.317-.293.668-.305.094 0 .258-.011.258-.246a.17.17 0 0 0-.164-.164c-.082 0-.047.024-.691.024-.574 0-.82-.024-.88-.024-.14 0-.234.07-.234.246 0 .164.165.164.247.164.093 0 .328.024.468.07L17.63 17.57l-.574-3.656c.152-.024.305-.036.445-.036.176 0 .328 0 .328-.246a.17.17 0 0 0-.175-.164c-.094 0-.457.012-.551.012a8 8 0 0 1-.586.012c-.844 0-.973-.024-1.055-.024-.058 0-.234 0-.234.246 0 .164.164.164.246.164.012 0 .258 0 .387.012.011.094.093.668.105.692l-1.957 2.988-.562-3.633c0-.059.41-.059.457-.059.14 0 .316 0 .316-.246 0-.07-.047-.164-.188-.164a8 8 0 0 0-.539.024h-.597c-.844 0-.973-.024-1.055-.024-.059 0-.234 0-.234.246 0 .164.175.164.246.164.129 0 .258 0 .387.012L13 18.8c.024.176.035.258.281.258.235 0 .293-.094.375-.222l2.403-3.657.55 3.621c.024.164.047.258.282.258s.293-.094.375-.21zm0 0" style="fill:#000;fill-opacity:1;fill-rule:nonzero;stroke:none" transform="matrix(1.33333 0 0 1.33333 287.81 98.267)"/></g><path d="M-24.945 31.181a6.237 6.237 0 1 1-12.473 0 6.237 6.237 0 0 1 12.473 0z" style="fill:#e6e6e6;fill-opacity:1;fill-rule:nonzero;stroke:#000;stroke-width:.3985;stroke-linecap:butt;stroke-linejoin:miter;stroke-miterlimit:10;stroke-dasharray:none;stroke-opacity:1" transform="matrix(1.33333 0 0 -1.33333 85.1 149.937)"/><path d="M5.568-1.804c.129 0 .304 0 .304-.187 0-.188-.175-.188-.304-.188H1.009c-.129 0-.304 0-.304.188 0 .187.175.187.304.187zm0 0" aria-label="−" style="fill:#000;fill-opacity:1;fill-rule:nonzero;stroke:none" transform="matrix(1.33333 0 0 1.33333 39.135 111.02)"/><g aria-label="X−S"><path d="M4.944-3c-.012-.035-.047-.082-.047-.105 0-.024 1.266-1.196 1.406-1.336.563-.528.633-.598 1.453-.61.164-.011.176-.21.176-.246a.17.17 0 0 0-.164-.164c-.129 0-.281.012-.422.024h-.48c-.692 0-.973-.024-1.008-.024-.07 0-.246 0-.246.246 0 .153.164.164.222.164.06 0 .235.012.375.059L4.663-3.527l-.797-1.488c.187-.036.21-.036.375-.036.082 0 .246 0 .246-.246 0-.093-.07-.164-.188-.164-.28 0-.574.024-.879.024h-.293c-.867 0-1.078-.024-1.136-.024-.059 0-.235 0-.235.246 0 .164.153.164.34.164.106 0 .188 0 .305.012.082.012.094.024.152.117L3.76-2.695 1.674-.738c-.246.234-.55.316-1.03.328-.13 0-.282 0-.282.246 0 .106.094.164.176.164.117 0 .28-.012.421-.023h.47c.679 0 .984.023 1.019.023.058 0 .234 0 .234-.246 0-.164-.176-.164-.21-.164-.013 0-.223-.012-.388-.07l1.91-1.793.973 1.816c-.129.024-.246.047-.375.047-.07 0-.246 0-.246.246 0 .059.047.164.188.164.281 0 .586-.023.879-.023h.304c.832 0 1.09.023 1.137.023.059 0 .234 0 .234-.246 0-.164-.152-.164-.316-.164-.105 0-.2 0-.316-.012-.106-.011-.118-.011-.164-.117zM14.618-1.805c.129 0 .304 0 .304-.187 0-.188-.175-.188-.304-.188h-4.559c-.129 0-.305 0-.305.188 0 .187.176.187.305.187zM22.047-5.297c.024-.105.024-.117.024-.164 0-.117-.106-.14-.176-.14s-.094.011-.164.07c-.047.035-.375.305-.457.375-.398-.387-1.008-.445-1.36-.445-1.581 0-2.308 1.16-2.308 1.933 0 .469.223.762.434.938.293.258.492.304 1.218.457l.645.129c.398.093.62.34.62.691 0 .352-.315 1.172-1.44 1.172-.563 0-1.618-.117-1.618-.996 0-.153.024-.317.036-.317 0-.035.011-.07.011-.082 0-.14-.14-.14-.222-.14-.188 0-.2.023-.235.187l-.375 1.5c0 .012-.035.117-.035.117 0 .047.023.153.176.153.094 0 .094-.012.164-.07l.457-.376c.457.352 1.09.446 1.617.446 1.711 0 2.367-1.36 2.367-2.098 0-.445-.21-.773-.34-.902-.34-.34-.597-.399-1.09-.504l-.644-.14c-.375-.071-.48-.094-.656-.247-.047-.047-.188-.187-.188-.422 0-.351.352-1.054 1.395-1.054.223 0 .644.035.95.27.374.292.374.737.374.89 0 .21-.012.199-.012.27 0 .152.13.152.223.152.129 0 .2 0 .234-.176zm0 0" style="fill:#000;fill-opacity:1;fill-rule:nonzero;stroke:none" transform="matrix(1.33333 0 0 1.33333 -.482 111.454)"/></g><path d="M224.507 31.181a6.237 6.237 0 1 1-12.473 0 6.237 6.237 0 0 1 12.473 0z" style="fill:#e6e6e6;fill-opacity:1;fill-rule:nonzero;stroke:#000;stroke-width:.3985;stroke-linecap:butt;stroke-linejoin:miter;stroke-miterlimit:10;stroke-dasharray:none;stroke-opacity:1" transform="matrix(1.33333 0 0 -1.33333 85.1 149.937)"/><path d="M3.467-1.804h2.344c.117 0 .293 0 .293-.187 0-.188-.176-.188-.293-.188H3.467v-2.343c0-.118 0-.293-.175-.293-.188 0-.188.175-.188.293v2.343H.76c-.117 0-.293 0-.293.188 0 .187.176.187.293.187h2.344V.54c0 .117 0 .293.188.293.175 0 .175-.176.175-.293zm0 0" aria-label="+" style="fill:#000;fill-opacity:1;fill-rule:nonzero;stroke:none" transform="matrix(1.33333 0 0 1.33333 371.732 111.02)"/><g aria-label="X+S"><path d="M4.945-3c-.011-.035-.046-.082-.046-.105 0-.024 1.265-1.196 1.406-1.336.562-.528.633-.598 1.453-.61.164-.011.176-.21.176-.246a.17.17 0 0 0-.164-.164c-.13 0-.282.012-.422.024h-.48c-.692 0-.973-.024-1.009-.024-.07 0-.246 0-.246.246 0 .153.164.164.223.164s.234.012.375.059L4.664-3.527l-.797-1.488c.188-.036.211-.036.375-.036.082 0 .246 0 .246-.246 0-.093-.07-.164-.187-.164-.281 0-.574.024-.88.024H3.13c-.867 0-1.078-.024-1.137-.024s-.234 0-.234.246c0 .164.152.164.34.164.105 0 .187 0 .304.012.082.012.094.024.153.117l1.207 2.227L1.676-.738c-.246.234-.55.316-1.031.328-.13 0-.282 0-.282.246C.363-.058.457 0 .54 0 .656 0 .82-.012.961-.023h.469c.68 0 .984.023 1.02.023.058 0 .234 0 .234-.246 0-.164-.176-.164-.211-.164-.012 0-.223-.012-.387-.07l1.91-1.793.973 1.816c-.13.024-.246.047-.375.047-.07 0-.246 0-.246.246 0 .059.047.164.187.164.281 0 .586-.023.88-.023h.304c.832 0 1.09.023 1.137.023.058 0 .234 0 .234-.246 0-.164-.152-.164-.316-.164-.106 0-.2 0-.317-.012-.105-.011-.117-.011-.164-.117zM12.519-1.805h2.343c.118 0 .293 0 .293-.187 0-.188-.175-.188-.293-.188H12.52v-2.343c0-.117 0-.293-.176-.293-.188 0-.188.176-.188.293v2.343H9.812c-.118 0-.293 0-.293.188 0 .187.175.187.293.187h2.343V.54c0 .117 0 .293.188.293.176 0 .176-.176.176-.293zM22.049-5.297c.023-.105.023-.117.023-.164 0-.117-.105-.14-.175-.14s-.094.011-.165.07c-.046.035-.375.305-.457.375-.398-.387-1.007-.445-1.359-.445-1.582 0-2.309 1.16-2.309 1.933 0 .469.223.762.434.938.293.258.492.304 1.219.457l.644.129c.399.093.621.34.621.691 0 .352-.316 1.172-1.44 1.172-.563 0-1.618-.117-1.618-.996 0-.153.023-.317.035-.317 0-.035.012-.07.012-.082 0-.14-.14-.14-.223-.14-.187 0-.2.023-.234.187l-.375 1.5c0 .012-.035.117-.035.117 0 .047.023.153.175.153.094 0 .094-.012.164-.07l.457-.376c.457.352 1.09.446 1.618.446 1.71 0 2.367-1.36 2.367-2.098 0-.445-.211-.773-.34-.902-.34-.34-.598-.399-1.09-.504l-.644-.14c-.375-.071-.48-.094-.657-.247-.047-.047-.187-.187-.187-.422 0-.351.351-1.054 1.394-1.054.223 0 .645.035.95.27.375.292.375.737.375.89 0 .21-.012.199-.012.27 0 .152.129.152.223.152.128 0 .199 0 .234-.176zm0 0" style="fill:#000;fill-opacity:1;fill-rule:nonzero;stroke:none" transform="matrix(1.33333 0 0 1.33333 390.32 111.454)"/></g><path d="M62.363 87.308h-93.544V37.876" style="fill:none;stroke:#000;stroke-width:.3985;stroke-linecap:butt;stroke-linejoin:miter;stroke-miterlimit:10;stroke-dasharray:none;stroke-opacity:1" transform="matrix(1.33333 0 0 -1.33333 85.1 149.937)"/><path d="M-1.196 1.594C-1.096.996 0 .1.3 0 0-.1-1.096-.996-1.196-1.594" style="fill:none;stroke:#000;stroke-width:.31879;stroke-linecap:round;stroke-linejoin:round;stroke-miterlimit:10;stroke-dasharray:none;stroke-opacity:1" transform="matrix(0 1.33333 1.33333 0 43.525 99.435)"/><path d="M218.27 37.418v49.89h-93.086" style="fill:none;stroke:#000;stroke-width:.3985;stroke-linecap:butt;stroke-linejoin:miter;stroke-miterlimit:10;stroke-dasharray:none;stroke-opacity:1" transform="matrix(1.33333 0 0 -1.33333 85.1 149.937)"/><path d="M-1.196 1.594C-1.096.996 0 .1.3 0 0-.1-1.096-.996-1.196-1.594" style="fill:none;stroke:#000;stroke-width:.31879;stroke-linecap:round;stroke-linejoin:round;stroke-miterlimit:10;stroke-dasharray:none;stroke-opacity:1" transform="matrix(-1.33333 0 0 1.33333 252.012 33.527)"/><path d="M62.363-24.945h-93.544v49.431" style="fill:none;stroke:#000;stroke-width:.3985;stroke-linecap:butt;stroke-linejoin:miter;stroke-miterlimit:10;stroke-dasharray:none;stroke-opacity:1" transform="matrix(1.33333 0 0 -1.33333 85.1 149.937)"/><path d="M-1.196 1.594C-1.096.996 0 .1.3 0 0-.1-1.096-.996-1.196-1.594" style="fill:none;stroke:#000;stroke-width:.31879;stroke-linecap:round;stroke-linejoin:round;stroke-miterlimit:10;stroke-dasharray:none;stroke-opacity:1" transform="matrix(0 -1.33333 -1.33333 0 43.525 117.288)"/><path d="M124.726-24.945h93.544v49.431" style="fill:none;stroke:#000;stroke-width:.3985;stroke-linecap:butt;stroke-linejoin:miter;stroke-miterlimit:10;stroke-dasharray:none;stroke-opacity:1" transform="matrix(1.33333 0 0 -1.33333 85.1 149.937)"/><path d="M-1.196 1.594C-1.096.996 0 .1.3 0 0-.1-1.096-.996-1.196-1.594" style="fill:none;stroke:#000;stroke-width:.31879;stroke-linecap:round;stroke-linejoin:round;stroke-miterlimit:10;stroke-dasharray:none;stroke-opacity:1" transform="matrix(0 -1.33333 -1.33333 0 376.127 117.288)"/><path d="M-24.945 31.181h12.014" style="fill:none;stroke:#000;stroke-width:.3985;stroke-linecap:butt;stroke-linejoin:miter;stroke-miterlimit:10;stroke-dasharray:none;stroke-opacity:1" transform="matrix(1.33333 0 0 -1.33333 85.1 149.937)"/><path d="M-1.196 1.594C-1.096.996 0 .1.3 0 0-.1-1.096-.996-1.196-1.594" style="fill:none;stroke:#000;stroke-width:.31879;stroke-linecap:round;stroke-linejoin:round;stroke-miterlimit:10;stroke-dasharray:none;stroke-opacity:1" transform="matrix(1.33333 0 0 -1.33333 67.86 108.362)"/><path d="M49.89 31.181h11.392" style="fill:none;stroke:#000;stroke-width:1.39478;stroke-linecap:butt;stroke-linejoin:miter;stroke-miterlimit:10;stroke-dasharray:2.98883,2.98883;stroke-dashoffset:0;stroke-opacity:1" transform="matrix(1.33333 0 0 -1.33333 85.1 149.937)"/><path d="M49.89 31.181h11.392" style="fill:none;stroke:#fff;stroke-width:.59776;stroke-linecap:butt;stroke-linejoin:miter;stroke-miterlimit:10;stroke-dasharray:2.98883,2.98883;stroke-dashoffset:0;stroke-opacity:1" transform="matrix(1.33333 0 0 -1.33333 85.1 149.937)"/><path d="M-2.092 2.79C-1.918 1.743 0 .174.523 0 0-.174-1.917-1.743-2.092-2.79" style="fill:none;stroke:#000;stroke-width:1.11581;stroke-linecap:round;stroke-linejoin:round;stroke-miterlimit:10;stroke-dasharray:none;stroke-opacity:1" transform="matrix(1.33333 0 0 -1.33333 166.81 108.362)"/><path d="M124.726 31.181h12.014" style="fill:none;stroke:#000;stroke-width:.3985;stroke-linecap:butt;stroke-linejoin:miter;stroke-miterlimit:10;stroke-dasharray:none;stroke-opacity:1" transform="matrix(1.33333 0 0 -1.33333 85.1 149.937)"/><path d="M-1.196 1.594C-1.096.996 0 .1.3 0 0-.1-1.096-.996-1.196-1.594" style="fill:none;stroke:#000;stroke-width:.31879;stroke-linecap:round;stroke-linejoin:round;stroke-miterlimit:10;stroke-dasharray:none;stroke-opacity:1" transform="matrix(1.33333 0 0 -1.33333 267.42 108.362)"/><path d="M199.561 31.181h11.391" style="fill:none;stroke:#000;stroke-width:1.39478;stroke-linecap:butt;stroke-linejoin:miter;stroke-miterlimit:10;stroke-dasharray:2.98883,2.98883;stroke-dashoffset:0;stroke-opacity:1" transform="matrix(1.33333 0 0 -1.33333 85.1 149.937)"/><path d="M199.561 31.181h11.391" style="fill:none;stroke:#fff;stroke-width:.59776;stroke-linecap:butt;stroke-linejoin:miter;stroke-miterlimit:10;stroke-dasharray:2.98883,2.98883;stroke-dashoffset:0;stroke-opacity:1" transform="matrix(1.33333 0 0 -1.33333 85.1 149.937)"/><path d="M-2.092 2.79C-1.918 1.743 0 .174.523 0 0-.174-1.917-1.743-2.092-2.79" style="fill:none;stroke:#000;stroke-width:1.11581;stroke-linecap:round;stroke-linejoin:round;stroke-miterlimit:10;stroke-dasharray:none;stroke-opacity:1" transform="matrix(1.33333 0 0 -1.33333 366.37 108.362)"/></svg>