<svg xmlns="http://www.w3.org/2000/svg" xmlns:xlink="http://www.w3.org/1999/xlink" width="467.312" height="279.688" viewBox="0 0 350.484 209.766"><defs><path id="b" d="M4.578-1c0-.094-.078-.094-.11-.094-.093 0-.093.047-.124.125-.157.563-.469.844-.735.844-.156 0-.187-.094-.187-.25s.047-.25.172-.562c.078-.22.36-.954.36-1.344 0-.672-.532-.797-.907-.797-.578 0-.969.36-1.172.64-.047-.484-.453-.64-.75-.64s-.453.219-.547.375c-.156.265-.25.656-.25.703 0 .078.094.078.125.078.094 0 .094-.016.14-.203.11-.406.25-.75.516-.75.188 0 .235.156.235.344 0 .125-.063.39-.125.578l-.14.625-.235.89C.828-.343.78-.171.78-.156c0 .156.125.219.235.219a.38.38 0 0 0 .28-.141c.032-.063.079-.297.126-.438l.14-.625c.047-.156.094-.312.125-.468.079-.282.094-.344.297-.625.188-.282.516-.641 1.047-.641.39 0 .406.36.406.484 0 .422-.296 1.188-.406 1.485-.078.203-.11.265-.11.375 0 .375.298.594.657.594.703 0 1-.954 1-1.063m0 0"/><path id="d" d="M1.969-1c0-.094-.094-.094-.11-.094-.109 0-.125.047-.14.172-.094.344-.235.797-.532.797C1-.125.954-.297.954-.469.953-.547.97-.672 1-.75l.969-3.875c0-.016.031-.11.031-.11 0-.046-.031-.109-.125-.109-.14 0-.719.063-.89.078-.047 0-.141.016-.141.157 0 .093.094.093.172.093.343 0 .343.063.343.11s-.015.093-.03.156L.452-.812c-.016.078-.016.156-.016.218 0 .453.391.657.72.657.171 0 .39-.047.562-.36.156-.265.25-.672.25-.703m0 0"/><path id="g" d="M3.984-1c0-.094-.093-.094-.109-.094-.11 0-.11.032-.156.219-.094.344-.219.75-.516.75-.172 0-.234-.156-.234-.344 0-.125.015-.187.047-.281l.968-3.875c0-.016.016-.11.016-.11 0-.046-.016-.109-.11-.109-.14 0-.718.063-.89.078-.047 0-.156.016-.156.157 0 .093.11.093.187.093.328 0 .328.063.328.11s0 .093-.015.156l-.406 1.594c-.141-.235-.376-.422-.72-.422-.89 0-1.796.984-1.796 1.984C.422-.406.875.063 1.484.063c.375 0 .704-.204.985-.485.125.422.531.485.719.485.25 0 .421-.141.546-.36.157-.281.25-.672.25-.703M2.828-2.172 2.5-.875c-.047.203-.203.344-.36.469-.062.062-.343.281-.64.281-.266 0-.516-.187-.516-.672 0-.375.204-1.14.375-1.422.313-.562.672-.656.86-.656.484 0 .625.531.625.61 0 .015-.016.078-.016.093m0 0"/><path id="c" d="M4.969-.062c0-.063-.016-.079-.078-.141L3.359-1.734l1.532-1.547c.062-.078.078-.094.078-.156a.17.17 0 0 0-.157-.172c-.078 0-.093.015-.171.093L3.109-1.984 1.58-3.516c-.079-.078-.126-.093-.157-.093-.11 0-.188.078-.188.172 0 .062.032.093.094.156L2.86-1.75 1.33-.203c-.063.062-.095.078-.095.14 0 .11.079.188.188.188.062 0 .078-.031.14-.094L3.11-1.5 4.641.031c.078.063.093.094.172.094.062 0 .156-.062.156-.187m0 0"/><path id="m" d="M1.953 0v-.25c-.453 0-.516 0-.516-.297v-4.297l-1.046.078v.25c.468 0 .515.063.515.391v3.578c0 .297-.062.297-.515.297V0s.5-.031.78-.031c.266 0 .517.015.782.031m0 0"/><path id="E" d="M3.688-1.484c0-.875-.75-1.625-1.704-1.625-.968 0-1.718.75-1.718 1.625 0 .859.765 1.547 1.718 1.547.938 0 1.704-.688 1.704-1.547m-.641-.063c0 .328-.016.703-.219.984-.187.266-.5.407-.844.407-.265 0-.64-.078-.875-.422-.187-.281-.203-.64-.203-.969 0-.297 0-.719.25-1.016.172-.203.469-.343.828-.343.407 0 .704.187.86.406.187.266.203.625.203.953m0 0"/><path id="A" d="M3.797-2.781c0-.172-.125-.36-.406-.36-.11 0-.485.016-.813.313-.203-.14-.5-.25-.812-.25-.72 0-1.235.484-1.235 1.031 0 .266.14.516.328.703-.046.063-.203.297-.203.563 0 .094.016.422.297.625C.641-.062.266.172.266.53c0 .516.765.89 1.718.89.875 0 1.704-.343 1.704-.905a.87.87 0 0 0-.47-.782c-.405-.218-.827-.218-1.5-.218-.155 0-.405 0-.452-.016a.45.45 0 0 1-.36-.453c0-.172.063-.235.094-.281.11.062.36.203.766.203C2.484-1.031 3-1.5 3-2.047c0-.281-.125-.484-.297-.672.328-.219.594-.234.719-.234-.031.031-.063.062-.063.172 0 .14.094.219.22.219.093 0 .218-.063.218-.22m-1.344.734c0 .11 0 .39-.14.563a.73.73 0 0 1-.547.25c-.672 0-.672-.672-.672-.813 0-.11 0-.39.125-.578a.78.78 0 0 1 .547-.234c.687 0 .687.672.687.812M3.266.531c0 .375-.563.688-1.282.688C1.25 1.219.704.89.704.53c0-.25.218-.547.655-.547h.407c.625 0 1.5 0 1.5.547m0 0"/><path id="n" d="M3.797-.625v-.39h-.25v.374c0 .079 0 .407-.25.407-.266 0-.266-.328-.266-.407v-1.234c0-.36 0-.625-.312-.89C2.438-3 2.094-3.11 1.688-3.11c-.657 0-1.125.25-1.125.672 0 .234.14.343.328.343a.32.32 0 0 0 .328-.328.32.32 0 0 0-.25-.312c.25-.172.656-.172.703-.172.39 0 .812.25.812.844v.203c-.375.015-.843.046-1.343.234-.625.219-.828.61-.828.922 0 .594.718.766 1.218.766.563 0 .89-.313 1.032-.579.03.282.218.547.53.547 0 0 .704 0 .704-.656m-1.313-.36c0 .673-.578.86-.89.86-.36 0-.688-.234-.688-.578 0-.39.328-.922 1.578-.969zm0 0"/><path id="o" d="M4.063-1.5c0-.86-.704-1.578-1.625-1.578-.422 0-.797.172-1.047.422v-2.188l-1.047.078v.25c.469 0 .515.063.515.407V0h.235l.25-.422c.265.344.656.485 1.015.485.922 0 1.704-.688 1.704-1.563m-.625-.016c0 .157 0 .688-.282 1.016a1.11 1.11 0 0 1-.828.375c-.562 0-.844-.437-.906-.578v-1.625a1.13 1.13 0 0 1 .984-.547c.39 0 .672.219.813.422s.219.484.219.937m0 0"/><path id="p" d="M3.266-.844c0-.015-.016-.094-.125-.094-.094 0-.11.047-.125.11-.22.562-.75.672-1 .672-.328 0-.641-.14-.844-.406-.266-.329-.266-.75-.266-1.032h2.157c.156 0 .203 0 .203-.14 0-.625-.344-1.375-1.391-1.375a1.59 1.59 0 0 0-1.61 1.578c0 .89.782 1.594 1.704 1.594.937 0 1.297-.75 1.297-.907m-.485-.922H.906c.078-.984.703-1.14.969-1.14.86 0 .89.969.906 1.14m0 0"/><path id="q" d="M6.25 0v-.25c-.453 0-.516 0-.516-.297v-1.562c0-.61-.312-.97-1.046-.97-.563 0-.938.298-1.125.657-.141-.5-.516-.656-1.016-.656-.578 0-.938.312-1.14.687v-.687L.374-3v.25c.469 0 .531.047.531.39v1.813c0 .297-.078.297-.531.297V0s.5-.031.797-.031c.25 0 .734.031.797.031v-.25c-.453 0-.516 0-.516-.297v-1.265c0-.72.578-1.063 1.031-1.063.485 0 .547.375.547.734v1.594c0 .297-.062.297-.515.297V0s.5-.031.797-.031c.25 0 .734.031.796.031v-.25c-.453 0-.515 0-.515-.297v-1.265c0-.72.578-1.063 1.031-1.063.484 0 .547.375.547.734v1.594c0 .297-.063.297-.516.297V0s.5-.031.797-.031c.25 0 .734.031.797.031m0 0"/><path id="r" d="M2.61-.875v-.39h-.235v.374c0 .485-.219.735-.5.735-.469 0-.469-.578-.469-.703V-2.75h1.078V-3H1.406v-1.281h-.25c0 .625-.281 1.312-.953 1.328v.203h.64v1.875c0 .781.595.938.985.938.469 0 .781-.391.781-.938m0 0"/><path id="s" d="M2.844-2.625c0-.234-.235-.453-.563-.453-.344 0-.734.219-.937.75v-.75L.344-3v.25c.469 0 .515.047.515.39v1.813C.86-.25.797-.25.344-.25V0c.031 0 .5-.031.797-.031L2.047 0v-.25h-.14c-.516 0-.516-.078-.516-.312v-1.032c0-.578.265-1.281.937-1.281a.33.33 0 0 0-.125.25c0 .234.188.313.313.313.172 0 .328-.11.328-.313m0 0"/><path id="t" d="M1.906 0v-.25c-.406 0-.468 0-.468-.297v-2.531L.406-3v.25c.438 0 .5.047.5.39v1.813c0 .297-.062.297-.515.297V0s.5-.031.78-.031c.25 0 .5.015.735.031m-.375-4.187a.394.394 0 0 0-.406-.407.387.387 0 0 0-.39.39.4.4 0 0 0 .39.407.41.41 0 0 0 .406-.39m0 0"/><path id="u" d="M4 0v-.25c-.469 0-.516-.047-.687-.219l-.954-1.094-.046-.062c0-.031.453-.516.515-.578.25-.281.485-.547 1.047-.547V-3c-.203.016-.406.031-.594.031-.203 0-.484-.015-.687-.031v.25c.11.016.14.094.14.156 0 0 0 .125-.109.235l-.484.547-.578-.657c-.079-.078-.079-.11-.079-.14 0-.094.094-.141.188-.141V-3c-.25.016-.516.031-.781.031-.203 0-.47-.015-.672-.031v.25c.312 0 .5 0 .687.203l.86 1 .062.078c0 .016-.531.594-.594.672-.265.281-.5.531-1.046.547V0C.39-.016.547-.031.766-.031c.203 0 .484.015.687.031v-.25c-.078-.016-.14-.062-.14-.156 0-.14.078-.235.187-.344l.5-.547.594.703c.14.14.14.156.14.203 0 .125-.156.141-.187.141V0c.062 0 .562-.031.781-.031S3.781-.016 4 0m0 0"/><path id="v" d="M2.781-4.39c0-.313-.312-.516-.687-.516-.547 0-1.188.39-1.188 1.125V-3H.313v.25h.593v2.203c0 .297-.062.297-.515.297V0c.03 0 .515-.031.797-.031L2.094 0v-.25h-.14c-.516 0-.516-.078-.516-.312V-2.75h.875V-3h-.907v-.781c0-.64.375-.922.672-.922.063 0 .14 0 .203.031-.094.047-.156.156-.156.281 0 .188.14.313.328.313s.328-.125.328-.313m0 0"/><path id="w" d="M4.11 0v-.25c-.47 0-.516-.047-.516-.39v-2.438L2.516-3v.25c.468 0 .515.047.515.39v1.204c0 .61-.39 1.031-.922 1.031-.625 0-.656-.297-.656-.656v-2.297L.375-3v.25c.531 0 .531.031.531.64v1.047c0 .485 0 1.126 1.156 1.126.157 0 .657 0 1-.579v.579Zm0 0"/><path id="x" d="M2.844-.906a.82.82 0 0 0-.313-.64c-.265-.25-.578-.313-.828-.345-.547-.109-1-.187-1-.562 0-.219.188-.485.844-.485.812 0 .844.563.86.766 0 .078.093.078.109.078.125 0 .125-.047.125-.187v-.64c0-.126 0-.188-.094-.188-.031 0-.047 0-.14.078-.016.015-.079.078-.126.11-.219-.142-.469-.188-.734-.188-1 0-1.234.53-1.234.875 0 .218.093.406.265.547.266.218.531.265.969.343.344.063.906.157.906.625 0 .266-.187.594-.86.594-.671 0-.905-.437-1.03-.906C.53-1.125.53-1.156.438-1.156c-.125 0-.125.047-.125.187v.86c0 .109 0 .172.093.172C.47.063.61-.078.75-.234c.297.297.672.297.844.297.906 0 1.25-.485 1.25-.97m0 0"/><path id="y" d="M2.188-1.266v-.468H.14v.468zm0 0"/><path id="z" d="M5.469-2.75V-3c-.188.016-.313.031-.5.031-.219 0-.485-.015-.688-.031v.25c.235 0 .36.14.36.297 0 .062 0 .078-.047.172L3.922-.547l-.75-1.906a.3.3 0 0 1-.031-.125c0-.156.172-.172.375-.172V-3c-.25.016-.5.031-.75.031-.203 0-.422-.015-.625-.031v.25c.172 0 .312 0 .406.047.094.078.156.312.156.312s-.015.063-.031.079L2.016-.641l-.703-1.812c-.032-.094-.032-.094-.032-.125 0-.172.25-.172.375-.172V-3s-.515.031-.797.031C.641-2.969.422-2.984.203-3v.25c.281 0 .438 0 .5.203l.969 2.453c.047.11.062.157.203.157.125 0 .14-.047.172-.141l.797-1.984.765 1.968c.047.094.063.157.204.157.124 0 .14-.047.187-.157l.875-2.234c.14-.344.375-.422.594-.422m0 0"/><path id="B" d="M4.11 0v-.25c-.454 0-.516 0-.516-.297v-1.562c0-.61-.297-.97-1.047-.97-.625 0-.969.376-1.125.642v-2.407l-1.047.078v.25c.469 0 .531.063.531.391v3.578c0 .297-.078.297-.531.297V0s.5-.031.797-.031c.25 0 .734.031.797.031v-.25c-.453 0-.516 0-.516-.297v-1.265c0-.72.578-1.063 1.031-1.063.485 0 .547.375.547.734v1.594c0 .297-.062.297-.515.297V0s.5-.031.797-.031c.25 0 .734.031.796.031m0 0"/><path id="C" d="M4.047 0v-.25c-.469 0-.516-.047-.516-.39v-4.204l-1.047.078v.25c.47 0 .516.063.516.391v1.453a1.37 1.37 0 0 0-.969-.406c-.937 0-1.703.703-1.703 1.578S1.062.063 1.938.063c.578 0 .921-.297 1.03-.422v.422ZM2.969-.734c-.172.328-.531.609-.985.609-.39 0-.671-.234-.812-.437-.14-.204-.219-.485-.219-.922 0-.172 0-.688.281-1.016.282-.312.625-.375.829-.375.328 0 .64.156.828.406.078.11.078.11.078.25zm0 0"/><path id="D" d="M4.11 0v-.25c-.454 0-.516 0-.516-.297v-1.562c0-.61-.297-.97-1.047-.97-.578 0-.938.313-1.14.688v-.687L.374-3v.25c.469 0 .531.047.531.39v1.813c0 .297-.078.297-.531.297V0s.5-.031.797-.031c.25 0 .734.031.797.031v-.25c-.453 0-.516 0-.516-.297v-1.265c0-.72.578-1.063 1.031-1.063.485 0 .547.375.547.734v1.594c0 .297-.062.297-.515.297V0s.5-.031.797-.031c.25 0 .734.031.796.031m0 0"/><path id="F" d="M3.266-.844c0-.078-.094-.078-.125-.078-.094 0-.094.016-.125.125-.157.422-.532.64-.953.64-.485 0-1.11-.359-1.11-1.359 0-.875.438-1.375 1.078-1.375.094 0 .422 0 .672.11a.33.33 0 0 0-.187.312c0 .188.125.328.328.328.187 0 .328-.125.328-.343 0-.625-.969-.625-1.156-.625C.969-3.11.328-2.312.328-1.5c0 .875.734 1.563 1.656 1.563 1.032 0 1.282-.813 1.282-.907m0 0"/><path id="V" d="M3.953-2.75V-3c-.172.016-.344.031-.531.031S2.984-2.984 2.797-3v.25c.297.016.297.234.297.266a.6.6 0 0 1-.063.203L2.25-.562l-.875-1.891s-.031-.094-.031-.14c0-.157.234-.157.343-.157V-3s-.5.031-.78.031c-.22 0-.485-.015-.688-.031v.25c.375 0 .469.016.562.25l1.11 2.422c.03.078.078.14.187.14.14 0 .172-.062.203-.124l1.016-2.266c.203-.422.547-.422.656-.422m0 0"/><path id="W" d="M4.063-1.5c0-.86-.704-1.578-1.594-1.578-.39 0-.797.156-1.078.437v-.437L.344-3v.25c.484 0 .515.047.515.328V.797c0 .297-.062.297-.515.297v.265s.5-.03.797-.03c.25 0 .734.015.797.03v-.265c-.454 0-.516 0-.516-.297V-.328c.031.031.36.39.937.39.922 0 1.704-.687 1.704-1.562m-.625 0c0 .797-.532 1.375-1.11 1.375-.625 0-.89-.531-.906-.578v-1.625c.203-.344.61-.516.969-.516.593 0 1.047.61 1.047 1.344m0 0"/><path id="X" d="M3.156-1.36h-.234C2.844-.53 2.703-.218 1.828-.218h-.86l2.11-2.547c.047-.062.063-.078.063-.125C3.14-3 3.047-3 2.938-3H.453L.375-1.844h.234c.047-.734.22-.968 1-.968h.829L.328-.267c-.062.079-.062.11-.062.141C.266 0 .344 0 .469 0H3.03zm0 0"/><path id="i" d="M12.031-6.656c0-.094-.078-.188-.172-.188-.28 0-.578.032-.859.032-.375 0-.766-.032-1.14-.032-.079 0-.266 0-.266.297 0 .172.172.172.25.172.031 0 .437 0 .687.11L7.656-1.704l-.593-4.61c.187-.046.5-.062.64-.062.219 0 .375 0 .375-.281 0 0 0-.188-.219-.188l-1.453.032h-.64c-.297 0-.672-.032-.672-.032-.063 0-.266 0-.266.297 0 .172.172.172.328.172.14 0 .344.016.469.031l.14.985c0 .03 0 .062-.077.172L3.484-1.703l-.609-4.61c.203-.046.5-.062.656-.062.235 0 .235 0 .281-.062.063-.047.079-.22.079-.22s0-.187-.203-.187l-1.47.032h-.64c-.266 0-.656-.032-.656-.032-.078 0-.281 0-.281.297 0 .172.172.172.343.172.141 0 .344.016.47.031l.812 6.219c.03.188.046.297.28.297.22 0 .298-.078.423-.266l2.89-4.578.579 4.547c.03.219.062.297.296.297.22 0 .297-.078.407-.266l3.718-5.89c.125-.203.25-.375.875-.391.125 0 .297 0 .297-.281m0 0"/><path id="a" d="M8.719-6.656c0-.063-.047-.188-.172-.188-.297 0-.625.032-.922.032-.375 0-.75-.032-1.11-.032-.062 0-.265 0-.265.297 0 .172.172.172.266.172.109 0 .297.031.453.078l-2.703 2.89-1.282-2.921c.282-.047.297-.047.563-.047.172 0 .344 0 .344-.281 0-.125-.11-.188-.22-.188l-1.546.032h-.687c-.235 0-.485-.032-.72-.032-.093 0-.28 0-.28.297 0 .172.14.172.406.172.14 0 .25 0 .39.016.125.015.141.015.204.156l1.515 3.469-.515 2.062c-.047.156-.063.172-.235.188-.172.015-.344.015-.515.015-.297 0-.329 0-.36.047-.062.047-.11.172-.11.25 0 0 .016.172.235.172.234 0 .5-.016.75-.016l.735-.015L4.453 0c.094 0 .297 0 .297-.297 0-.172-.14-.172-.422-.172-.219 0-.406-.015-.61-.015l.563-2.25 3.032-3.25c.218-.22.453-.375 1.125-.391.109 0 .28 0 .28-.281m0 0"/><path id="f" d="M8.39-.297c0-.172-.156-.172-.39-.172-.14 0-.25 0-.39-.015-.157-.016-.157-.032-.235-.157L5.797-3.937l1.328-1.297.61-.625c.406-.375.515-.5 1.562-.516.187 0 .203-.25.203-.281a.19.19 0 0 0-.203-.188c-.344 0-.719.032-1.078.032l-1.297-.032c-.078 0-.281 0-.281.282 0 .187.156.187.25.187.297.016.562.094.593.11L5.578-4.392l-.906-1.921a5 5 0 0 1 .578-.063c.11 0 .281 0 .281-.281 0-.125-.093-.188-.218-.188l-1.516.032h-.688c-.234 0-.468-.032-.703-.032-.078 0-.265 0-.265.282 0 .187.125.187.406.187.14 0 .25 0 .39.016.141.015.141.03.204.156l1.375 2.875-2.5 2.469c-.188.172-.391.375-1.282.39-.171 0-.343 0-.343.297C.39-.109.437 0 .594 0c.234 0 .844-.031 1.078-.031L2.969 0c.078 0 .281 0 .281-.297 0-.172-.172-.172-.266-.172-.187 0-.39-.031-.578-.094L4.72-2.874l1.14 2.344s-.343.062-.578.062c-.11 0-.297 0-.297.297 0 .016.016.172.22.172l1.53-.031.688.015c.219 0 .469.016.687.016.079 0 .282 0 .282-.297m0 0"/><path id="k" d="m7.875-4.656.188-1.782v-.156c0-.187-.172-.187-.329-.187H2.375c-.219 0-.219.015-.266.047-.078.062-.093.25-.093.25 0 .172.14.172.406.172.203 0 .406.015.61.015L1.624-.672c-.047.156-.047.172-.234.188-.172.015-.36.015-.516.015-.266 0-.281 0-.328.016-.125.078-.125.234-.125.281 0 0 0 .172.219.172.25 0 .515-.016.765-.016L2.22-.03l.89.015c.297 0 .579.016.86.016.125 0 .297 0 .297-.297 0-.172-.172-.172-.328-.172h-.329c-.375 0-.53-.015-.625-.047l.672-2.64h.64c.595 0 .766.094.766.422 0 .109-.03.297-.062.422-.016.062-.031.14-.031.14 0 .14.14.172.234.172.188 0 .203-.047.25-.234l.563-2.22c.03-.124.03-.155.03-.155 0-.188-.187-.188-.234-.188-.187 0-.203.078-.265.266-.188.75-.5.906-1.219.906h-.562l.656-2.672c.14-.016.25-.016.344-.016h1.187c1.14 0 1.484.297 1.484 1.172 0 .235-.046.532-.046.579 0 .187.203.187.25.187.203 0 .218-.094.234-.281m0 0"/><path id="l" d="M8.5-6.703c0-.063.016-.11.016-.172 0-.14-.125-.14-.235-.14l-.937.718c-.453-.5-1.14-.719-1.828-.719-3.203 0-4.97 2.454-4.97 4.5 0 1.875 1.5 2.688 3.25 2.688.845 0 1.688-.266 2.438-.813.97-.718 1.157-1.64 1.157-1.687 0-.14-.141-.14-.235-.14-.187 0-.203.015-.25.187C6.5-1.016 5.203-.297 4.063-.297c-.61 0-1.141-.14-1.547-.453-.547-.422-.578-1.094-.578-1.36 0-.296.156-2.156 1.14-3.312.547-.64 1.5-1.125 2.61-1.125 1.203 0 1.718.922 1.718 1.797 0 .11-.031.25-.031.36 0 .14.125.14.266.14.218 0 .234 0 .28-.219zm0 0"/><path id="e" d="M7.188-4.5c0-.219-.063-.312-.141-.312-.094 0-.125.171-.14.28-.032.673-.735 1.095-1.376 1.095-.593 0-1.047-.297-1.718-.75-.438-.282-.97-.625-1.594-.625-.922 0-1.656.703-1.656 1.625 0 .218.062.296.14.296.11 0 .14-.187.14-.234.048-.828.876-1.125 1.376-1.125.594 0 1.047.297 1.719.734.421.282.953.641 1.593.641.922 0 1.657-.703 1.657-1.625m0 2.328c0-.203-.063-.312-.141-.312-.11 0-.125.172-.14.328-.048.562-.673 1.047-1.376 1.047-.593 0-1.047-.313-1.718-.75-.438-.282-.97-.641-1.594-.641-.922 0-1.656.703-1.656 1.625 0 .234.062.313.14.313.11 0 .14-.188.14-.235.048-.844.876-1.14 1.376-1.14.594 0 1.047.296 1.719.75.421.28.953.625 1.593.625.938 0 1.657-.72 1.657-1.61m0 0"/><path id="h" d="M6.281-.297c0-.078-.015-.094-.125-.203l-1.984-2 1.984-1.984c.11-.11.125-.125.125-.203a.197.197 0 0 0-.203-.204c-.078 0-.11.032-.203.125l-2 2-2-2c-.11-.109-.125-.125-.203-.125a.197.197 0 0 0-.203.204c0 .078.031.109.125.203L3.578-2.5 1.594-.516c-.094.11-.125.172-.125.22 0 .124.093.202.203.202.078 0 .094-.015.203-.125l2-2 1.984 2c.11.094.157.125.22.125.124 0 .202-.078.202-.203m0 0"/><path id="j" d="M7.188-3.453c0-.203-.188-.203-.329-.203H.891c-.141 0-.328 0-.328.203 0 .187.187.187.328.187h5.953c.156 0 .343 0 .343-.187m0 1.922c0-.188-.188-.188-.344-.188H.89c-.141 0-.328 0-.328.188 0 .203.187.203.328.203h5.968c.141 0 .329 0 .329-.203m0 0"/><path id="G" d="M1.672 0v-.219h-.094c-.328 0-.328-.047-.328-.203v-3.031l-.844.047v.219c.375 0 .422.03.422.28v2.485c0 .156 0 .203-.328.203H.406V0c.219-.016.422-.016.625-.016.219 0 .422 0 .64.016m0 0"/><path id="H" d="M3.063-1.062c0-.625-.579-1.172-1.376-1.172-.78 0-1.359.547-1.359 1.172C.328-.47.922.063 1.688.063c.796 0 1.375-.532 1.375-1.125m-.5-.047c0 .234 0 .984-.876.984-.859 0-.859-.75-.859-.984 0-.22 0-.953.86-.953.875 0 .875.734.875.953m0 0"/><path id="I" d="M3.172-1.969c0-.14-.11-.297-.344-.297-.125 0-.39.032-.656.235a1.3 1.3 0 0 0-.64-.172c-.594 0-1 .344-1 .734 0 .25.187.438.25.5a.67.67 0 0 0-.141.407.57.57 0 0 0 .218.453C.61-.047.313.125.313.39c0 .39.656.64 1.375.64.671 0 1.39-.218 1.39-.656a.64.64 0 0 0-.375-.578c-.328-.172-.656-.172-1.187-.172H1.14C.906-.406.859-.609.859-.703s.047-.172.063-.172h.031c.203.11.39.14.563.14.593 0 1-.359 1-.734a.66.66 0 0 0-.22-.468c.235-.141.454-.157.548-.157-.016.016-.047.047-.047.125 0 .094.062.172.187.172.11 0 .188-.078.188-.172m-1.094.5c0 .266-.125.563-.547.563-.437 0-.562-.281-.562-.563s.125-.562.547-.562c.437 0 .562.281.562.562m.656 1.86c0 .234-.453.468-1.046.468C1.125.86.656.641.656.375c0-.156.172-.36.547-.36h.328c.5 0 1.203 0 1.203.376m0 0"/><path id="J" d="M1.86-.875v-.39H.202v.39Zm0 0"/><path id="K" d="M3.375-1.078c0-.594-.547-1.125-1.312-1.125-.266 0-.579.062-.844.281v-1.531l-.844.047v.219c.375 0 .422.03.422.28V0H1c.047-.062.078-.14.11-.203.015-.031.046-.063.062-.094.219.235.516.36.828.36.766 0 1.375-.516 1.375-1.141m-.5 0c0 .297-.062.547-.266.734a.97.97 0 0 1-.64.235.86.86 0 0 1-.735-.422v-1.14c.172-.235.5-.36.797-.36.594 0 .844.422.844.953m0 0"/><path id="L" d="M3.172-.453V-.72h-.219v.266c0 .047 0 .266-.203.266-.187 0-.187-.22-.187-.266v-1.031c0-.47-.516-.75-1.126-.75-.312 0-.89.015-.89.437 0 .188.14.266.265.266.141 0 .266-.094.266-.266a.27.27 0 0 0-.11-.219c.157-.046.407-.046.454-.046.422 0 .687.234.687.593v.125c-.484.016-.75.032-1.125.172-.343.11-.625.328-.625.656 0 .454.579.579.97.579.39 0 .687-.157.843-.422.015.187.14.39.39.39.032 0 .61 0 .61-.484m-1.063-.25c0 .547-.593.594-.718.594-.297 0-.578-.157-.578-.407 0-.171.109-.625 1.296-.687zm0 0"/><path id="M" d="M2.375-.625c0-.234-.11-.39-.312-.516-.188-.125-.344-.14-.766-.203-.313-.047-.703-.11-.703-.375 0-.172.203-.36.734-.36.422 0 .656.157.688.5.015.079.015.11.109.11.11 0 .11-.031.11-.14v-.485c0-.078 0-.14-.094-.14-.016 0-.032 0-.079.03a.4.4 0 0 1-.124.11s-.016 0-.047-.031c-.11-.062-.297-.11-.547-.11-.828 0-1 .376-1 .61 0 .469.578.563 1.047.625.28.047.75.125.75.453 0 .172-.157.438-.75.438-.344 0-.672-.125-.828-.657C.547-.859.53-.875.453-.875c-.11 0-.11.047-.11.156v.64c0 .079 0 .142.079.142.047 0 .047-.016.14-.11l.141-.125c.25.219.563.235.688.235.828 0 .984-.438.984-.688m0 0"/><path id="N" d="M2.719-.594c0-.078-.078-.078-.094-.078-.078 0-.094.016-.125.078-.125.344-.5.469-.781.469a.89.89 0 0 1-.703-.312C.828-.672.828-.984.828-1.125h1.75c.11 0 .14 0 .14-.11 0-.343-.171-1-1.109-1-.75 0-1.28.547-1.28 1.141C.328-.469.937.063 1.687.063c.796 0 1.03-.563 1.03-.657m-.375-.687H.828c.063-.657.547-.782.781-.782.688 0 .735.641.735.782m0 0"/><path id="O" d="M3.36 0v-.219c-.376 0-.422-.031-.422-.281v-2.953l-.829.047v.219c.36 0 .407.03.407.28v.97c-.11-.094-.375-.266-.797-.266-.735 0-1.36.5-1.36 1.125 0 .61.563 1.14 1.313 1.14.406 0 .687-.187.828-.312v.313ZM2.5-.547a.94.94 0 0 1-.812.438.83.83 0 0 1-.657-.313C.875-.64.86-.922.86-1.078c0-.125.016-.453.22-.688a1 1 0 0 1 .687-.265c.14 0 .5.015.734.36zm0 0"/><path id="P" d="M2.39-1.86c0-.187-.187-.343-.453-.343-.25 0-.562.125-.75.547h-.015v-.547l-.797.062v.22c.375 0 .422.03.422.265v1.234c0 .156 0 .203-.328.203H.375V0c.219-.016.438-.016.64-.016l.72.016v-.219h-.141c-.375 0-.375-.047-.375-.203v-.687c0-.47.265-.922.734-.922 0 0-.062.062-.062.172 0 .172.14.25.25.25.125 0 .25-.079.25-.25m0 0"/><path id="Q" d="M3.281-1.922v-.219c-.125 0-.265.016-.437.016 0 0-.328-.016-.5-.016v.22c.125 0 .219.062.219.171 0 .047-.032.094-.032.094l-.625 1.25L1.22-1.75a.12.12 0 0 1-.032-.078c0-.094.172-.094.266-.094v-.219c-.219 0-.578.016-.61.016-.202 0-.359 0-.562-.016v.22c.297 0 .36 0 .438.14l.89 1.719c.032.078.063.125.172.125.11 0 .14-.063.172-.125l.797-1.563c.094-.172.219-.297.531-.297m0 0"/><path id="R" d="M3.406 0v-.219h-.094c-.328 0-.328-.047-.328-.203V-1.5c0-.547-.375-.703-.828-.703-.531 0-.812.297-.937.484v-.484l-.813.062v.22c.375 0 .422.03.422.265v1.234c0 .156 0 .203-.328.203H.406V0c.219-.016.422-.016.64-.016.204 0 .423 0 .642.016v-.219h-.094c-.328 0-.328-.047-.328-.203v-.86c0-.562.515-.75.828-.75.375 0 .453.204.453.516v1.094c0 .156 0 .203-.328.203H2.14V0c.203-.016.422-.016.625-.016.218 0 .422 0 .64.016m0 0"/><path id="S" d="M2.719-.594c0-.078-.063-.078-.094-.078-.078 0-.094.016-.11.078-.171.422-.53.469-.75.469-.437 0-.906-.281-.906-.953 0-.219.047-.5.235-.703.234-.266.531-.266.687-.266.14 0 .282 0 .453.031-.062.063-.109.141-.109.22 0 .171.125.265.266.265.125 0 .265-.078.265-.266 0-.422-.547-.437-.906-.437-.969 0-1.39.656-1.39 1.156 0 .625.578 1.14 1.328 1.14.875 0 1.03-.609 1.03-.656m0 0"/><path id="T" d="M3.406 0v-.219c-.375 0-.422-.031-.422-.281v-1.703l-.843.062v.22c.359 0 .406.03.406.265v.812c0 .469-.344.735-.75.735-.516 0-.531-.203-.531-.453v-1.641l-.86.062v.22c.39 0 .422.03.422.28v1.094c.047.563.61.61.922.61.422 0 .672-.204.813-.438v.438zm0 0"/><path id="U" d="M3.281-1.922v-.219c-.11 0-.25.016-.437.016-.156 0-.344-.016-.5-.016v.22c.125 0 .203.062.203.171 0 .031-.016.063-.031.11l-.61 1.187L1.22-1.75c-.016-.047-.016-.062-.016-.078 0-.094.125-.094.266-.094v-.219c-.219 0-.422.016-.625.016-.219 0-.344 0-.563-.016v.22c.36 0 .375.015.453.155L1.656 0C1.453.438 1.25.86.828.86.703.86.656.843.61.796.641.78.75.734.75.578S.64.328.5.328c-.11 0-.234.078-.234.25 0 .25.25.438.562.438.297 0 .625-.172.86-.61L2.75-1.625c.063-.11.156-.297.531-.297m0 0"/></defs><path fill="#bfbfff" stroke="#000" stroke-miterlimit="10" stroke-width=".399" d="M6.166 154.496h28.348V69.457H6.166Zm0 0"/><use xlink:href="#a" x="138.827" y="480.376" transform="translate(-128.951 -366.144)"/><use xlink:href="#b" x="145.548" y="481.87" transform="translate(-128.951 -366.144)"/><use xlink:href="#c" x="150.473" y="481.87" transform="translate(-128.951 -366.144)"/><use xlink:href="#d" x="156.699" y="481.87" transform="translate(-128.951 -366.144)"/><use xlink:href="#e" x="173.764" y="480.527" transform="translate(-128.951 -366.144)"/><path fill="#cfc" stroke="#000" stroke-miterlimit="10" stroke-width=".399" d="M62.861 154.496h56.692V69.457H62.86Zm0 0"/><use xlink:href="#f" x="207.542" y="480.376" transform="translate(-128.951 -366.144)"/><use xlink:href="#b" x="216.978" y="481.87" transform="translate(-128.951 -366.144)"/><use xlink:href="#c" x="221.903" y="481.87" transform="translate(-128.951 -366.144)"/><use xlink:href="#g" x="228.13" y="481.87" transform="translate(-128.951 -366.144)"/><use xlink:href="#h" x="258.804" y="480.611" transform="translate(-128.951 -366.144)"/><path fill="#cceffc" stroke="#000" stroke-miterlimit="10" stroke-width=".399" d="M146.592 140.324h30.965V83.63h-30.965zm0 0"/><use xlink:href="#i" x="278.864" y="480.376" transform="translate(-128.951 -366.144)"/><use xlink:href="#g" x="289.753" y="481.87" transform="translate(-128.951 -366.144)"/><use xlink:href="#c" x="293.901" y="481.87" transform="translate(-128.951 -366.144)"/><use xlink:href="#d" x="300.127" y="481.87" transform="translate(-128.951 -366.144)"/><use xlink:href="#j" x="315.497" y="480.018" transform="translate(-128.951 -366.144)"/><path fill="#d9d9ff" stroke="#000" stroke-miterlimit="10" stroke-width=".399" d="M204.596 154.496h28.347V69.457h-28.347zm0 0"/><use xlink:href="#k" x="337.181" y="480.376" transform="translate(-128.951 -366.144)"/><use xlink:href="#b" x="344.044" y="481.87" transform="translate(-128.951 -366.144)"/><use xlink:href="#c" x="348.969" y="481.87" transform="translate(-128.951 -366.144)"/><use xlink:href="#d" x="355.196" y="481.87" transform="translate(-128.951 -366.144)"/><path fill="none" stroke="#000" stroke-miterlimit="10" stroke-width=".797" d="M233.65 111.977h83.625"/><path fill="none" stroke="#000" stroke-linecap="round" stroke-linejoin="round" stroke-miterlimit="10" stroke-width=".638" d="M235.205 114.047c-.133-.777-1.555-1.942-1.945-2.07.39-.13 1.812-1.297 1.945-2.075M315.72 109.902c.13.778 1.555 1.946 1.942 2.075-.387.128-1.812 1.293-1.941 2.07"/><path fill="#e6cce6" stroke="#000" stroke-miterlimit="10" stroke-width=".399" d="M317.983 126.148h28.347V97.801h-28.347zm0 0"/><use xlink:href="#l" x="451.112" y="480.376" transform="translate(-128.951 -366.144)"/><use xlink:href="#d" x="459.25" y="481.87" transform="translate(-128.951 -366.144)"/><use xlink:href="#c" x="461.81" y="481.87" transform="translate(-128.951 -366.144)"/><use xlink:href="#d" x="468.037" y="481.87" transform="translate(-128.951 -366.144)"/><path fill="none" stroke="#7f7f7f" stroke-dasharray="2.98883, 2.98883" stroke-miterlimit="10" stroke-width=".996" d="M.498 157.332V49.613h184.254v107.72Zm0 0"/><g transform="translate(-128.951 -366.144)"><use xlink:href="#m" x="140.973" y="425.247"/><use xlink:href="#n" x="143.228" y="425.247"/><use xlink:href="#o" x="147.199" y="425.247"/></g><g transform="translate(-128.951 -366.144)"><use xlink:href="#p" x="151.816" y="425.247"/><use xlink:href="#m" x="155.358" y="425.247"/></g><g transform="translate(-128.951 -366.144)"><use xlink:href="#q" x="137.7" y="432.127"/><use xlink:href="#n" x="144.245" y="432.127"/><use xlink:href="#r" x="148.216" y="432.127"/><use xlink:href="#s" x="151.329" y="432.127"/><use xlink:href="#t" x="154.442" y="432.127"/><use xlink:href="#u" x="156.697" y="432.127"/></g><g transform="translate(-128.951 -366.144)"><use xlink:href="#v" x="206.504" y="425.247"/><use xlink:href="#p" x="208.974" y="425.247"/><use xlink:href="#n" x="212.516" y="425.247"/><use xlink:href="#r" x="216.487" y="425.247"/><use xlink:href="#w" x="219.6" y="425.247"/><use xlink:href="#s" x="224.001" y="425.247"/><use xlink:href="#p" x="227.114" y="425.247"/><use xlink:href="#x" x="230.656" y="425.247"/></g><g transform="translate(-128.951 -366.144)"><use xlink:href="#q" x="208.566" y="432.127"/><use xlink:href="#n" x="215.111" y="432.127"/><use xlink:href="#r" x="219.082" y="432.127"/><use xlink:href="#s" x="222.195" y="432.127"/><use xlink:href="#t" x="225.308" y="432.127"/><use xlink:href="#u" x="227.563" y="432.127"/></g><g transform="translate(-128.951 -366.144)"><use xlink:href="#v" x="269.287" y="439.42"/><use xlink:href="#p" x="271.757" y="439.42"/><use xlink:href="#n" x="275.299" y="439.42"/><use xlink:href="#r" x="279.27" y="439.42"/><use xlink:href="#w" x="282.383" y="439.42"/><use xlink:href="#s" x="286.784" y="439.42"/><use xlink:href="#p" x="289.897" y="439.42"/><use xlink:href="#y" x="293.439" y="439.42"/><use xlink:href="#m" x="296.123" y="439.42"/><use xlink:href="#n" x="298.378" y="439.42"/><use xlink:href="#o" x="302.349" y="439.42"/></g><g transform="translate(-128.951 -366.144)"><use xlink:href="#p" x="306.966" y="439.42"/><use xlink:href="#m" x="310.508" y="439.42"/></g><use xlink:href="#z" x="278.176" y="445.829" transform="translate(-128.951 -366.144)"/><g transform="translate(-128.951 -366.144)"><use xlink:href="#p" x="283.647" y="445.829"/><use xlink:href="#t" x="287.189" y="445.829"/><use xlink:href="#A" x="289.444" y="445.829"/><use xlink:href="#B" x="293.415" y="445.829"/></g><g transform="translate(-128.951 -366.144)"><use xlink:href="#r" x="297.606" y="445.829"/><use xlink:href="#x" x="300.72" y="445.829"/></g><g transform="translate(-128.951 -366.144)"><use xlink:href="#C" x="332.884" y="425.247"/><use xlink:href="#p" x="337.284" y="425.247"/><use xlink:href="#D" x="340.826" y="425.247"/><use xlink:href="#E" x="345.227" y="425.247"/><use xlink:href="#t" x="349.198" y="425.247"/><use xlink:href="#x" x="351.453" y="425.247"/><use xlink:href="#p" x="354.609" y="425.247"/><use xlink:href="#C" x="358.151" y="425.247"/></g><g transform="translate(-128.951 -366.144)"><use xlink:href="#m" x="337.82" y="432.334"/><use xlink:href="#n" x="340.075" y="432.334"/><use xlink:href="#o" x="344.046" y="432.334"/></g><g transform="translate(-128.951 -366.144)"><use xlink:href="#p" x="348.663" y="432.334"/><use xlink:href="#m" x="352.205" y="432.334"/><use xlink:href="#x" x="354.46" y="432.334"/></g><g transform="translate(-128.951 -366.144)"><use xlink:href="#m" x="448.491" y="445.089"/><use xlink:href="#p" x="450.746" y="445.089"/><use xlink:href="#n" x="454.288" y="445.089"/><use xlink:href="#s" x="458.259" y="445.089"/><use xlink:href="#D" x="461.372" y="445.089"/><use xlink:href="#p" x="465.773" y="445.089"/><use xlink:href="#C" x="469.315" y="445.089"/></g><g transform="translate(-128.951 -366.144)"><use xlink:href="#m" x="452.784" y="452.176"/><use xlink:href="#n" x="455.039" y="452.176"/><use xlink:href="#o" x="459.01" y="452.176"/></g><g transform="translate(-128.951 -366.144)"><use xlink:href="#p" x="463.627" y="452.176"/><use xlink:href="#m" x="467.169" y="452.176"/></g><g transform="translate(-128.951 -366.144)"><use xlink:href="#F" x="442.479" y="459.263"/><use xlink:href="#E" x="446.021" y="459.263"/><use xlink:href="#s" x="449.992" y="459.263"/><use xlink:href="#s" x="453.105" y="459.263"/><use xlink:href="#p" x="456.218" y="459.263"/><use xlink:href="#m" x="459.76" y="459.263"/><use xlink:href="#n" x="462.015" y="459.263"/><use xlink:href="#r" x="465.986" y="459.263"/><use xlink:href="#t" x="469.099" y="459.263"/><use xlink:href="#E" x="471.355" y="459.263"/><use xlink:href="#D" x="475.326" y="459.263"/></g><path fill="#ffecd9" stroke="#000" stroke-miterlimit="10" stroke-width=".399" d="M185.967 185.676c0-13.192-10.7-23.887-23.89-23.887-13.196 0-23.891 10.695-23.891 23.887 0 13.195 10.695 23.89 23.89 23.89 13.192 0 23.89-10.695 23.89-23.89zm0 0"/><g transform="translate(-128.951 -366.144)"><use xlink:href="#G" x="277.135" y="547.039"/><use xlink:href="#H" x="279.141" y="547.039"/><use xlink:href="#I" x="282.532" y="547.039"/><use xlink:href="#J" x="285.922" y="547.039"/><use xlink:href="#K" x="288.274" y="547.039"/><use xlink:href="#L" x="292.01" y="547.039"/><use xlink:href="#M" x="295.4" y="547.039"/><use xlink:href="#N" x="298.133" y="547.039"/><use xlink:href="#O" x="301.177" y="547.039"/></g><g transform="translate(-128.951 -366.144)"><use xlink:href="#P" x="276.236" y="553.017"/><use xlink:href="#N" x="278.934" y="553.017"/><use xlink:href="#G" x="281.978" y="553.017"/><use xlink:href="#N" x="283.985" y="553.017"/><use xlink:href="#Q" x="287.029" y="553.017"/></g><g transform="translate(-128.951 -366.144)"><use xlink:href="#L" x="290.248" y="553.017"/><use xlink:href="#R" x="293.639" y="553.017"/><use xlink:href="#S" x="297.375" y="553.017"/><use xlink:href="#N" x="300.419" y="553.017"/><use xlink:href="#J" x="303.463" y="553.017"/></g><g transform="translate(-128.951 -366.144)"><use xlink:href="#P" x="273.815" y="558.994"/><use xlink:href="#N" x="276.513" y="558.994"/><use xlink:href="#O" x="279.557" y="558.994"/><use xlink:href="#T" x="283.293" y="558.994"/><use xlink:href="#R" x="287.029" y="558.994"/><use xlink:href="#O" x="290.765" y="558.994"/><use xlink:href="#L" x="294.501" y="558.994"/><use xlink:href="#R" x="297.892" y="558.994"/><use xlink:href="#S" x="301.628" y="558.994"/><use xlink:href="#U" x="304.672" y="558.994"/></g><path fill="none" stroke="#000" stroke-miterlimit="10" stroke-width=".797" d="M162.076 140.523v20.352"/><path fill="none" stroke="#000" stroke-linecap="round" stroke-linejoin="round" stroke-miterlimit="10" stroke-width=".638" d="M164.147 159.32c-.778.13-1.942 1.555-2.07 1.942-.13-.387-1.298-1.813-2.075-1.942"/><path fill="none" stroke="#000" stroke-miterlimit="10" stroke-width=".797" d="M186.166 185.676h60.242"/><path fill="none" stroke="#000" stroke-linecap="round" stroke-linejoin="round" stroke-miterlimit="10" stroke-width=".638" d="M244.854 183.606c.129.777 1.554 1.94 1.941 2.07-.387.133-1.812 1.297-1.941 2.074"/><path fill="#ffd9d9" stroke="#000" stroke-miterlimit="10" stroke-width=".399" d="M184.557 22.684c0-12.418-10.067-22.485-22.48-22.485-12.419 0-22.485 10.067-22.485 22.485s10.066 22.48 22.484 22.48c12.414 0 22.48-10.062 22.48-22.48zm0 0"/><g transform="translate(-128.951 -366.144)"><use xlink:href="#m" x="274.849" y="386.438"/><use xlink:href="#E" x="277.104" y="386.438"/><use xlink:href="#A" x="281.075" y="386.438"/><use xlink:href="#y" x="285.046" y="386.438"/><use xlink:href="#o" x="287.73" y="386.438"/><use xlink:href="#n" x="292.131" y="386.438"/><use xlink:href="#x" x="296.102" y="386.438"/><use xlink:href="#p" x="299.258" y="386.438"/><use xlink:href="#C" x="302.8" y="386.438"/></g><g transform="translate(-128.951 -366.144)"><use xlink:href="#m" x="284.755" y="394.408"/><use xlink:href="#E" x="287.01" y="394.408"/><use xlink:href="#x" x="290.981" y="394.408"/><use xlink:href="#x" x="294.138" y="394.408"/></g><path fill="none" stroke="#000" stroke-miterlimit="10" stroke-width=".797" d="M184.756 22.684h61.652"/><path fill="none" stroke="#000" stroke-linecap="round" stroke-linejoin="round" stroke-miterlimit="10" stroke-width=".638" d="M244.854 20.61c.129.777 1.554 1.945 1.941 2.074-.387.129-1.812 1.293-1.941 2.07"/><path fill="none" stroke="#000" stroke-miterlimit="10" stroke-width=".797" d="M91.21 49.613c0-26.93 14.17-26.93 47.48-26.93"/><path fill="none" stroke="#000" stroke-linecap="round" stroke-linejoin="round" stroke-miterlimit="10" stroke-width=".638" d="M137.135 20.61c.129.777 1.555 1.945 1.945 2.074-.39.129-1.816 1.293-1.945 2.07"/><path fill="#fdfdfd" stroke="#000" stroke-miterlimit="10" stroke-width=".399" d="M297.408 167.566h-43.894c-2.75 0-4.98 2.23-4.98 4.98v20.59c0 2.75 2.23 4.981 4.98 4.981h43.894a4.98 4.98 0 0 0 4.985-4.98v-20.59c0-2.75-2.23-4.98-4.985-4.98zm0 0"/><g transform="translate(-128.951 -366.144)"><use xlink:href="#t" x="389.971" y="542.61"/><use xlink:href="#r" x="392.226" y="542.61"/><use xlink:href="#p" x="395.339" y="542.61"/><use xlink:href="#s" x="398.881" y="542.61"/><use xlink:href="#n" x="401.995" y="542.61"/><use xlink:href="#r" x="405.965" y="542.61"/><use xlink:href="#t" x="409.079" y="542.61"/><use xlink:href="#V" x="411.334" y="542.61"/></g><use xlink:href="#p" x="415.31" y="542.61" transform="translate(-128.951 -366.144)"/><g transform="translate(-128.951 -366.144)"><use xlink:href="#s" x="385.841" y="550.581"/><use xlink:href="#p" x="388.954" y="550.581"/><use xlink:href="#z" x="392.496" y="550.581"/></g><g transform="translate(-128.951 -366.144)"><use xlink:href="#p" x="397.967" y="550.581"/><use xlink:href="#t" x="401.509" y="550.581"/><use xlink:href="#A" x="403.764" y="550.581"/><use xlink:href="#B" x="407.735" y="550.581"/></g><g transform="translate(-128.951 -366.144)"><use xlink:href="#r" x="411.927" y="550.581"/><use xlink:href="#p" x="415.04" y="550.581"/><use xlink:href="#C" x="418.582" y="550.581"/></g><g transform="translate(-128.951 -366.144)"><use xlink:href="#x" x="386.613" y="558.551"/><use xlink:href="#W" x="389.769" y="558.551"/><use xlink:href="#n" x="394.17" y="558.551"/><use xlink:href="#s" x="398.141" y="558.551"/><use xlink:href="#x" x="401.254" y="558.551"/><use xlink:href="#p" x="404.41" y="558.551"/><use xlink:href="#D" x="407.952" y="558.551"/><use xlink:href="#p" x="412.353" y="558.551"/><use xlink:href="#x" x="415.895" y="558.551"/><use xlink:href="#x" x="419.051" y="558.551"/></g><path fill="#fdfdfd" stroke="#000" stroke-miterlimit="10" stroke-width=".399" d="M297.408 5.988h-43.894c-2.75 0-4.98 2.23-4.98 4.985v20.586a4.98 4.98 0 0 0 4.98 4.984h43.894a4.983 4.983 0 0 0 4.985-4.984V10.973a4.983 4.983 0 0 0-4.985-4.985zm0 0"/><g transform="translate(-128.951 -366.144)"><use xlink:href="#t" x="389.971" y="381.036"/><use xlink:href="#r" x="392.226" y="381.036"/><use xlink:href="#p" x="395.339" y="381.036"/><use xlink:href="#s" x="398.881" y="381.036"/><use xlink:href="#n" x="401.995" y="381.036"/><use xlink:href="#r" x="405.965" y="381.036"/><use xlink:href="#t" x="409.079" y="381.036"/><use xlink:href="#V" x="411.334" y="381.036"/></g><use xlink:href="#p" x="415.31" y="381.036" transform="translate(-128.951 -366.144)"/><g transform="translate(-128.951 -366.144)"><use xlink:href="#s" x="385.841" y="389.006"/><use xlink:href="#p" x="388.954" y="389.006"/><use xlink:href="#z" x="392.496" y="389.006"/></g><g transform="translate(-128.951 -366.144)"><use xlink:href="#p" x="397.967" y="389.006"/><use xlink:href="#t" x="401.509" y="389.006"/><use xlink:href="#A" x="403.764" y="389.006"/><use xlink:href="#B" x="407.735" y="389.006"/></g><g transform="translate(-128.951 -366.144)"><use xlink:href="#r" x="411.927" y="389.006"/><use xlink:href="#p" x="415.04" y="389.006"/><use xlink:href="#C" x="418.582" y="389.006"/></g><g transform="translate(-128.951 -366.144)"><use xlink:href="#m" x="398.141" y="396.976"/><use xlink:href="#E" x="400.396" y="396.976"/><use xlink:href="#x" x="404.367" y="396.976"/><use xlink:href="#x" x="407.524" y="396.976"/></g><path fill="#fdfdfd" stroke="#000" stroke-miterlimit="10" stroke-width=".399" d="M297.74 96.7h-44.554a4.98 4.98 0 0 0-4.98 4.98v20.59c0 2.75 2.226 4.98 4.98 4.98h44.554c2.75 0 4.98-2.23 4.98-4.98v-20.59c0-2.75-2.23-4.98-4.98-4.98zm0 0"/><g transform="translate(-128.951 -366.144)"><use xlink:href="#n" x="389.598" y="471.744"/><use xlink:href="#C" x="393.569" y="471.744"/><use xlink:href="#n" x="397.969" y="471.744"/><use xlink:href="#W" x="401.94" y="471.744"/><use xlink:href="#r" x="406.341" y="471.744"/><use xlink:href="#t" x="409.454" y="471.744"/><use xlink:href="#V" x="411.709" y="471.744"/></g><use xlink:href="#p" x="415.679" y="471.744" transform="translate(-128.951 -366.144)"/><g transform="translate(-128.951 -366.144)"><use xlink:href="#A" x="394.482" y="479.714"/><use xlink:href="#s" x="398.453" y="479.714"/><use xlink:href="#n" x="401.566" y="479.714"/><use xlink:href="#W" x="405.537" y="479.714"/><use xlink:href="#B" x="409.937" y="479.714"/></g><g transform="translate(-128.951 -366.144)"><use xlink:href="#s" x="380.472" y="487.685"/><use xlink:href="#p" x="383.585" y="487.685"/><use xlink:href="#A" x="387.127" y="487.685"/><use xlink:href="#w" x="391.098" y="487.685"/><use xlink:href="#m" x="395.498" y="487.685"/><use xlink:href="#n" x="397.754" y="487.685"/><use xlink:href="#s" x="401.725" y="487.685"/><use xlink:href="#t" x="404.838" y="487.685"/><use xlink:href="#X" x="407.093" y="487.685"/><use xlink:href="#n" x="410.635" y="487.685"/><use xlink:href="#r" x="414.606" y="487.685"/><use xlink:href="#t" x="417.719" y="487.685"/><use xlink:href="#E" x="419.974" y="487.685"/><use xlink:href="#D" x="423.945" y="487.685"/></g></svg>