<svg xml:space="preserve" width="980" height="582.667" xmlns="http://www.w3.org/2000/svg"><path d="M2550 956.02h180v720h-180z" style="fill:#fff;fill-opacity:1;fill-rule:evenodd;stroke:none" transform="matrix(.13333 0 0 -.13333 0 582.667)"/><path d="M2583.28 1414.92c0 7.74 4.1 11.68 12.03 11.68 8.28 0 12.62-4.14 12.62-12.22 0-7.74-4.34-11.88-12.27-11.88-8.28 0-12.38 4.14-12.38 12.42" style="fill:#3f3f3f;fill-opacity:1;fill-rule:nonzero;stroke:none" transform="matrix(.13333 0 0 -.13333 0 582.667)"/><path d="M2583.28 1414.92c0 7.74 4.1 11.68 12.03 11.68 8.28 0 12.62-4.14 12.62-12.22 0-7.74-4.34-11.88-12.27-11.88-8.28 0-12.38 4.14-12.38 12.42z" style="fill:none;stroke:#3f3f3f;stroke-width:5.14;stroke-linecap:butt;stroke-linejoin:miter;stroke-miterlimit:10;stroke-dasharray:none;stroke-opacity:1" transform="matrix(.13333 0 0 -.13333 0 582.667)"/><path d="M2583.24 1318.09c0 7.73 4.14 11.68 12.07 11.68 8.28 0 12.62-4.15 12.62-12.23 0-7.74-4.34-11.88-12.27-11.88-8.28 0-12.42 4.14-12.42 12.43" style="fill:#3f3f3f;fill-opacity:1;fill-rule:nonzero;stroke:none" transform="matrix(.13333 0 0 -.13333 0 582.667)"/><path d="M2583.24 1318.09c0 7.73 4.14 11.68 12.07 11.68 8.28 0 12.62-4.15 12.62-12.23 0-7.74-4.34-11.88-12.27-11.88-8.28 0-12.42 4.14-12.42 12.43z" style="fill:none;stroke:#3f3f3f;stroke-width:5.14;stroke-linecap:butt;stroke-linejoin:miter;stroke-miterlimit:10;stroke-dasharray:none;stroke-opacity:1" transform="matrix(.13333 0 0 -.13333 0 582.667)"/><path d="M2583.28 1221.25c0 7.73 4.1 11.68 12.03 11.68 8.28 0 12.62-4.14 12.62-12.23 0-7.73-4.34-11.87-12.27-11.87-8.28 0-12.38 4.14-12.38 12.42" style="fill:#3f3f3f;fill-opacity:1;fill-rule:nonzero;stroke:none" transform="matrix(.13333 0 0 -.13333 0 582.667)"/><path d="M2583.28 1221.25c0 7.73 4.1 11.68 12.03 11.68 8.28 0 12.62-4.14 12.62-12.23 0-7.73-4.34-11.87-12.27-11.87-8.28 0-12.38 4.14-12.38 12.42z" style="fill:none;stroke:#3f3f3f;stroke-width:5.14;stroke-linecap:butt;stroke-linejoin:miter;stroke-miterlimit:10;stroke-dasharray:none;stroke-opacity:1" transform="matrix(.13333 0 0 -.13333 0 582.667)"/><path d="M7.5 1631.02h1080v1080H7.5Z" style="fill:#e2f1f5;fill-opacity:1;fill-rule:evenodd;stroke:none" transform="matrix(.13333 0 0 -.13333 0 582.667)"/><path d="M7.5 1631.02h1080v1080H7.5Z" style="fill:none;stroke:#31859b;stroke-width:15;stroke-linecap:round;stroke-linejoin:round;stroke-miterlimit:10;stroke-dasharray:none;stroke-opacity:1" transform="matrix(.13333 0 0 -.13333 0 582.667)"/><path d="m459.84 2256.56-23.75-73.67h46.57zm33.832-158.16v5.04l5.547 4.1c2.152 1.68 3.59 4.06 3.59 6.72 0 2.38-.469 5.27-1.68 8.86l-14.18 45.36h-55.66l-14.648-45.36c-1.211-3.59-1.68-6.48-1.68-8.86 0-2.66 1.211-5.04 3.359-6.72l5.782-4.1v-5.04h-41.801v5.04l4.847 4.1c3.082 2.62 5.973 7.89 9.801 18.71l51.602 145.94 27.148 6.95 48.949-150.74c4.102-12.7 6.723-18.01 10.313-20.86l5.039-4.1v-5.04zM563.09 2199.53c-11.41 14.81-16.531 34.92-16.531 63.95 0 29.14 5.121 49.1 16.531 64.1 4.531 5.74 10.109 10.9 15.582 13.87l5.308-6.88c-5-3.4-9.679-7.77-13.39-12.77-4.07-5.78-7.352-12.78-9.539-20.59-3.281-11.25-4.371-21.52-4.371-37.73 0-16.25 1.25-27 4.371-37.74 4.539-14.96 12.308-26.21 22.929-33.4l-5.308-6.83c-5.473 2.97-11.051 8.08-15.582 14.02M627.66 2242.42c0-11.87 3.281-15.27 14.328-15.27 3.91 0 7.813.47 11.563 1.56v-2.81c-5.621-5.78-12.961-8.91-21.52-8.91-7.031 0-12.652 2.19-15.742 6.25-2.809 3.6-3.75 7.81-3.75 16.68v54.1h-9.527v4.53c5.468 2.82 9.058 5.47 11.558 9.5 2.032 3.28 3.75 7.97 5.16 13.9h7.93v-19.18h25.891v-8.75H627.66ZM690.66 2199.53c-4.488-5.94-10.269-11.05-15.582-14.02l-5.277 6.83c5.59 3.91 9.648 7.82 13.25 12.82 4.219 5.74 7.301 12.77 9.488 20.58 3.281 11.21 4.531 21.49 4.531 37.74 0 16.36-1.41 26.95-4.531 37.73-4.488 15.12-12.148 26.21-22.738 33.36l5.277 6.88c5.313-2.97 11.094-8.13 15.582-13.87 11.41-15 16.57-34.96 16.57-64.1 0-29.03-5.16-49.14-16.57-63.95" style="fill:#3f3f3f;fill-opacity:1;fill-rule:nonzero;stroke:none" transform="matrix(.13333 0 0 -.13333 0 582.667)"/><path d="M3720 3251.02h1192.5v360H3720Z" style="fill:#eeeaf2;fill-opacity:1;fill-rule:evenodd;stroke:none" transform="matrix(.13333 0 0 -.13333 0 582.667)"/><path d="M3720 3251.02h1192.5v360H3720Z" style="fill:none;stroke:#7e649e;stroke-width:15;stroke-linecap:round;stroke-linejoin:round;stroke-miterlimit:10;stroke-dasharray:none;stroke-opacity:1" transform="matrix(.13333 0 0 -.13333 0 582.667)"/><path d="M3979.49 3393.52c3.52 1.95 4.06 3.78 4.06 12.34v80.43c-.7-5.04-1.09-6.99-2.81-11.64l-31.44-86.06h-9.53l-31.45 86.06c-1.68 4.65-2.11 6.6-2.81 11.64v-80.43c0-8.56.7-10.39 4.22-12.34l3.51-1.96v-2.97h-25.58v2.97l3.67 1.96c3.51 1.95 4.06 3.78 4.06 12.34v68.63c0 8.6-.55 10.39-4.06 12.39l-3.67 1.95v2.97h28.94l28.09-77.23c1.25-3.63 1.68-5.35 2.38-9.84.43 4.37.98 6.21 2.23 9.68l28.08 77.39h27.66v-2.97l-3.52-1.95c-3.63-2-4.22-3.79-4.22-12.39v-68.63c0-8.56.59-10.39 4.22-12.34l3.52-1.96v-2.97h-29.18v2.97zM4065.16 3438.55c0 12.93-4.93 19.26-15.63 19.26-11.21 0-17.23-7.85-17.54-22.61zm-13.91-51.21c-21.64 0-33.28 13.05-33.28 37.35 0 25.82 12.77 41.25 33.98 41.25 19.1 0 27.93-10.94 27.93-34.65v-1.56h-48v-1.57c0-22.57 7.57-31.13 27.5-31.13a53 53 0 0 1 18.12 3.2v-2.77c-7.03-7.03-15.16-10.12-26.25-10.12M4181.95 3388.59v2.97l3.52 1.96c3.48 1.95 4.06 3.78 4.06 12.34v25.43c0 11.21-.15 13.32-1.25 16.56-1.83 5.59-7.19 8.28-16.44 8.28-5.47 0-10.94-.97-15.59-2.38 1.29-3.52 1.84-7.46 1.84-18.83v-29.06c0-8.56.54-10.39 4.06-12.34l3.67-1.96v-2.97h-28.94v2.97l3.51 1.96c3.52 1.95 4.22 3.78 4.22 12.34v25.43c0 11.21-.27 13.32-1.25 16.56-1.84 5.31-7.19 8.13-15.63 8.13-5.15 0-10.5-.82-14.72-2.66v-47.46c0-8.56.7-10.39 4.22-12.34l3.51-1.96v-2.97h-28.94v2.97l3.67 1.96c3.51 1.95 4.06 3.78 4.06 12.34v38.59c0 7.74-.7 9.69-4.18 11.1l-3.55 1.4v2.97l20.78 6.02v-10.24c6.91 6.88 14.33 10.24 23.2 10.24 9.1 0 15.55-3.21 19.22-9.81 7.42 6.45 15.7 9.96 25.12 9.96 6.72 0 12.22-1.83 16.13-5.04 2.66-2.26 4.65-5.5 5.63-9.29.97-3.91 1.24-6.6 1.24-16.84v-29.06c0-8.56.59-10.39 4.11-12.34l3.51-1.96v-2.97zM4254.1 3455.98c-4.88 0-9.69-.98-13.59-2.66v-56.56a48.54 48.54 0 0 1 11.09-1.29c16.56 0 24.69 10.55 24.69 32.15 0 19.22-7.15 28.36-22.19 28.36m2.11-68.64c-5.74 0-10.23 1.14-15.7 3.79l-13.63-3.79v91.53c0 7.73-.71 9.53-4.22 11.09l-3.36 1.41v2.93l21.21 5.08v-43.68c6.87 7.03 14.02 10.24 22.46 10.24 17.38 0 27.65-13.6 27.65-36.49 0-26.09-13.04-42.11-34.41-42.11M4349.14 3438.55c0 12.93-4.88 19.26-15.59 19.26-11.21 0-17.22-7.85-17.53-22.61zm-13.87-51.21c-21.64 0-33.28 13.05-33.28 37.35 0 25.82 12.78 41.25 33.99 41.25 19.1 0 27.93-10.94 27.93-34.65v-1.56h-48.01v-1.57c0-22.57 7.58-31.13 27.5-31.13a53 53 0 0 1 18.12 3.2v-2.77c-7.03-7.03-15.15-10.12-26.25-10.12M4418.95 3450.66c-1.25 0-1.84.12-2.7.71l-3.48 2.38c-1.83 1.25-3.94 1.8-5.89 1.8-2.82 0-6.06-.98-8.99-2.66v-46.6c0-8.87.7-10.94 4.61-12.66l4.92-2.07v-2.97h-30.74v2.97l3.67 1.96c3.48 1.95 4.06 3.78 4.06 12.34v38.59c0 7.74-.7 9.69-4.21 11.1l-3.52 1.4v2.97l20.78 6.02v-10.67l.27.28c6.45 6.48 13.64 10.39 19.65 10.39 5.78 0 9.42-2.93 9.42-7.58 0-4.49-3.21-7.7-7.85-7.7M4454.02 3387.34c-5.9 0-11.48.28-18.4 1.96l-.54.11v16.33h2.81l2.97-3.51c4.76-5.78 8.67-7.46 15.55-7.46 9.14 0 14.33 4.49 14.33 12.22 0 5.2-2.26 8.56-8.44 11.8l-11.64 6.17c-10.39 5.47-14.33 11.21-14.33 20.08 0 13.2 9.69 20.9 26.25 20.9 5.19 0 14.18-1.14 17.58-2.11v-15.28h-2.82l-3.24 3.21c-1.68 1.68-6.72 7.19-13.75 7.03-7.42-.16-11.95-4.22-11.95-11.09 0-5.04 2.42-8.29 8.44-11.37l12.38-6.33c9.65-4.92 13.59-10.78 13.59-19.77 0-14.76-10.23-22.89-28.79-22.89M4541.37 3388.59v2.97l3.51 1.96c3.48 1.95 4.18 3.78 4.18 12.34v25.43c0 11.21-.27 13.32-1.25 16.56-1.83 5.31-7.15 8.13-15.58 8.13-5.2 0-10.55-1.14-14.73-2.93v-47.19c0-8.56.7-10.39 4.18-12.34l3.55-1.96v-2.97h-28.94v2.97l3.63 1.96c3.52 1.95 4.1 3.78 4.1 12.34v72.03c0 7.7-.7 9.69-4.22 11.09l-3.51 1.41v2.93l21.21 6.06v-43.68c6.72 6.88 14.3 10.24 22.85 10.24 6.06 0 12.93-2.11 16.72-6.17 3.95-4.22 5.47-8.29 5.47-24.85v-29.06c0-8.56.58-10.39 4.06-12.34l3.67-1.96v-2.97zM4595.82 3481.41c-4.88 0-8.01 2.93-8.01 7.85 0 5.04 3.13 8.01 8.28 8.01 4.93 0 8.01-2.97 8.01-7.89 0-5.04-3.08-7.97-8.28-7.97m-14.45-92.82v2.97l3.67 1.96c3.51 1.95 4.06 3.78 4.06 12.34v38.59c0 7.74-.7 9.69-4.22 11.1l-3.51 1.4v2.97l21.21 6.02v-60.08c0-8.56.7-10.39 4.22-12.34l3.47-1.96v-2.97zM4658.01 3455.98c-4.89 0-9.69-.98-13.6-2.66v-56.56a48.69 48.69 0 0 1 11.1-1.29c16.56 0 24.69 10.55 24.69 32.15 0 19.22-7.15 28.36-22.19 28.36m2.11-68.64c-5.74 0-10.24 1.14-15.71 3.79v-14.49c0-8.83.55-10.94 4.5-12.62l4.88-2.11v-2.93h-30.59v2.93l3.52 2c3.51 1.95 4.06 3.79 4.06 12.5v68.04c0 7.74-.7 9.69-4.22 11.1l-3.36 1.4v2.97l20.78 6.02v-10.24c6.88 7.15 14.03 10.24 22.74 10.24 17.54 0 27.81-13.48 27.81-36.49 0-26.09-13.05-42.11-34.41-42.11M4727.54 3367.5v1.91l3.08 1.37c2.58 1.1 3.01 2.38 3.01 8.2v42.82c0 1.52-.43 2.11-1.79 2.11-.67 0-1.22-.12-1.76-.2l-11.56-2.11v2.74l.89.39c9.97 3.98 15.51 6.83 20.82 10.39h2.7v-56.14c0-5.82.47-7.1 3.05-8.2l3.08-1.37v-1.91z" style="fill:#3f3f3f;fill-opacity:1;fill-rule:nonzero;stroke:none" transform="matrix(.13333 0 0 -.13333 0 582.667)"/><path d="m3599.41 3471.21 120.59-40.19-120.59-40.24ZM2005.51 3471.21l120.58-40.19-120.58-40.24z" style="fill:#7f7f7f;fill-opacity:1;fill-rule:evenodd;stroke:none" transform="matrix(.13333 0 0 -.13333 0 582.667)"/><path d="M3720 1991.02h1192.5v360H3720Z" style="fill:#eeeaf2;fill-opacity:1;fill-rule:evenodd;stroke:none" transform="matrix(.13333 0 0 -.13333 0 582.667)"/><path d="M3720 1991.02h1192.5v360H3720Z" style="fill:none;stroke:#7e649e;stroke-width:15;stroke-linecap:round;stroke-linejoin:round;stroke-miterlimit:10;stroke-dasharray:none;stroke-opacity:1" transform="matrix(.13333 0 0 -.13333 0 582.667)"/><path d="M3979.49 2133.32c3.52 1.95 4.06 3.79 4.06 12.34v80.43c-.7-5.04-1.09-6.99-2.81-11.64l-31.44-86.05h-9.53l-31.45 86.05c-1.68 4.65-2.11 6.6-2.81 11.64v-80.43c0-8.55.7-10.39 4.22-12.34l3.51-1.95v-2.97h-25.58v2.97l3.67 1.95c3.51 1.95 4.06 3.79 4.06 12.34v68.64c0 8.59-.55 10.39-4.06 12.38l-3.67 1.95v2.97h28.94l28.09-77.22c1.25-3.64 1.68-5.36 2.38-9.85.43 4.38.98 6.21 2.23 9.69l28.08 77.38h27.66v-2.97l-3.52-1.95c-3.63-1.99-4.22-3.79-4.22-12.38v-68.64c0-8.55.59-10.39 4.22-12.34l3.52-1.95v-2.97h-29.18v2.97zM4065.16 2178.4c0 12.89-4.93 19.22-15.63 19.22-11.21 0-17.23-7.85-17.54-22.62zm-13.91-51.25c-21.64 0-33.28 13.05-33.28 37.34 0 25.82 12.77 41.25 33.98 41.25 19.1 0 27.93-10.94 27.93-34.65v-1.56h-48v-1.52c0-22.62 7.57-31.17 27.5-31.17 6.17 0 12.34 1.13 18.12 3.2v-2.77c-7.03-7.04-15.16-10.12-26.25-10.12M4181.95 2128.4v2.97l3.52 1.95c3.48 1.95 4.06 3.79 4.06 12.34v25.43c0 11.21-.15 13.32-1.25 16.57-1.83 5.58-7.19 8.28-16.44 8.28-5.47 0-10.94-.98-15.59-2.39 1.29-3.51 1.84-7.46 1.84-18.82v-29.07c0-8.55.54-10.39 4.06-12.34l3.67-1.95v-2.97h-28.94v2.97l3.51 1.95c3.52 1.95 4.22 3.79 4.22 12.34v25.43c0 11.21-.27 13.32-1.25 16.57-1.84 5.31-7.19 8.12-15.63 8.12-5.15 0-10.5-.82-14.72-2.66v-47.46c0-8.55.7-10.39 4.22-12.34l3.51-1.95v-2.97h-28.94v2.97l3.67 1.95c3.51 1.95 4.06 3.79 4.06 12.34v38.6c0 7.73-.7 9.69-4.18 11.09l-3.55 1.41v2.97l20.78 6.01v-10.23c6.91 6.87 14.33 10.23 23.2 10.23 9.1 0 15.55-3.2 19.22-9.8 7.42 6.44 15.7 9.96 25.12 9.96 6.72 0 12.22-1.84 16.13-5.04 2.66-2.27 4.65-5.51 5.63-9.3.97-3.9 1.24-6.6 1.24-16.83v-29.07c0-8.55.59-10.39 4.11-12.34l3.51-1.95v-2.97zM4254.1 2195.78c-4.88 0-9.69-.98-13.59-2.66v-56.56a48.54 48.54 0 0 1 11.09-1.29c16.56 0 24.69 10.55 24.69 32.15 0 19.26-7.15 28.36-22.19 28.36m2.11-68.63c-5.74 0-10.23 1.13-15.7 3.79l-13.63-3.79v91.52c0 7.74-.71 9.53-4.22 11.1l-3.36 1.4v2.93l21.21 5.08v-43.67c6.87 7.03 14.02 10.23 22.46 10.23 17.38 0 27.65-13.59 27.65-36.48 0-26.14-13.04-42.11-34.41-42.11M4349.14 2178.4c0 12.89-4.88 19.22-15.59 19.22-11.21 0-17.22-7.85-17.53-22.62zm-13.87-51.25c-21.64 0-33.28 13.05-33.28 37.34 0 25.82 12.78 41.25 33.99 41.25 19.1 0 27.93-10.94 27.93-34.65v-1.56h-48.01v-1.52c0-22.62 7.58-31.17 27.5-31.17 6.17 0 12.34 1.13 18.12 3.2v-2.77c-7.03-7.04-15.15-10.12-26.25-10.12M4418.95 2190.47c-1.25 0-1.84.12-2.7.7l-3.48 2.38c-1.83 1.25-3.94 1.8-5.89 1.8-2.82 0-6.06-.97-8.99-2.65v-46.61c0-8.82.7-10.93 4.61-12.61l4.92-2.11v-2.97h-30.74v2.97l3.67 1.95c3.48 1.95 4.06 3.79 4.06 12.34v38.6c0 7.73-.7 9.69-4.21 11.09l-3.52 1.41v2.97l20.78 6.01v-10.66l.27.27c6.45 6.49 13.64 10.39 19.65 10.39 5.78 0 9.42-2.93 9.42-7.58 0-4.49-3.21-7.69-7.85-7.69M4454.02 2127.15c-5.9 0-11.48.27-18.4 1.95l-.54.16v16.29h2.81l2.97-3.52c4.76-5.78 8.67-7.46 15.55-7.46 9.14 0 14.33 4.49 14.33 12.23 0 5.19-2.26 8.55-8.44 11.79l-11.64 6.18c-10.39 5.46-14.33 11.21-14.33 20.07 0 13.21 9.69 20.9 26.25 20.9 5.19 0 14.18-1.09 17.58-2.11v-15.27h-2.82l-3.24 3.2c-1.68 1.68-6.72 7.19-13.75 7.03-7.42-.15-11.95-4.21-11.95-11.09 0-5.04 2.42-8.28 8.44-11.37l12.38-6.33c9.65-4.88 13.59-10.78 13.59-19.76 0-14.77-10.23-22.89-28.79-22.89M4541.37 2128.4v2.97l3.51 1.95c3.48 1.95 4.18 3.79 4.18 12.34v25.43c0 11.21-.27 13.32-1.25 16.57-1.83 5.31-7.15 8.12-15.58 8.12-5.2 0-10.55-1.13-14.73-2.93v-47.19c0-8.55.7-10.39 4.18-12.34l3.55-1.95v-2.97h-28.94v2.97l3.63 1.95c3.52 1.95 4.1 3.79 4.1 12.34v72.04c0 7.69-.7 9.68-4.22 11.09l-3.51 1.41v2.92l21.21 6.06v-43.67c6.72 6.87 14.3 10.23 22.85 10.23 6.06 0 12.93-2.11 16.72-6.17 3.95-4.22 5.47-8.28 5.47-24.84v-29.07c0-8.55.58-10.39 4.06-12.34l3.67-1.95v-2.97zM4595.82 2221.21c-4.88 0-8.01 2.93-8.01 7.85 0 5.04 3.13 8.01 8.28 8.01 4.93 0 8.01-2.97 8.01-7.89 0-5.04-3.08-7.97-8.28-7.97m-14.45-92.81v2.97l3.67 1.95c3.51 1.95 4.06 3.79 4.06 12.34v38.6c0 7.73-.7 9.69-4.22 11.09l-3.51 1.41v2.97l21.21 6.01v-60.08c0-8.55.7-10.39 4.22-12.34l3.47-1.95v-2.97zM4658.01 2195.78c-4.89 0-9.69-.98-13.6-2.66v-56.56a48.69 48.69 0 0 1 11.1-1.29c16.56 0 24.69 10.55 24.69 32.15 0 19.26-7.15 28.36-22.19 28.36m2.11-68.63c-5.74 0-10.24 1.13-15.71 3.79v-14.46c0-8.86.55-10.97 4.5-12.65l4.88-2.11v-2.93h-30.59v2.93l3.52 1.99c3.51 1.95 4.06 3.79 4.06 12.46v68.09c0 7.73-.7 9.69-4.22 11.09l-3.36 1.41v2.97l20.78 6.01v-10.23c6.88 7.15 14.03 10.23 22.74 10.23 17.54 0 27.81-13.47 27.81-36.48 0-26.14-13.05-42.11-34.41-42.11M4753.98 2107.3h-40.03v5.12l1.09 1.33c9.41 10.08 18.16 18.01 22.69 23.67 5.12 6.49 7.23 12.03 7.23 19.53 0 9.1-3.67 13.21-11.87 13.21-4.11 0-6.57-.98-8.09-3.09l-2.38-3.28c-.47-.67-1.29-1.09-2.85-1.09-3.17 0-5.12 1.64-5.12 4.37 0 4.65 7.97 8.13 18.63 8.13 14.26 0 21.72-6.14 21.72-17.7 0-8.79-3.48-15.9-12.15-24.65-4.65-4.65-8.28-8.2-17.23-16.17l-2.26-1.99h18.94c1.76 0 3.13 0 4.03.19 1.72.16 3.83 1.17 5.19 2.54l3.28 3.28h2.39z" style="fill:#3f3f3f;fill-opacity:1;fill-rule:nonzero;stroke:none" transform="matrix(.13333 0 0 -.13333 0 582.667)"/><path d="m3599.41 2211.21 120.59-40.19-120.59-40.24Z" style="fill:#7f7f7f;fill-opacity:1;fill-rule:evenodd;stroke:none" transform="matrix(.13333 0 0 -.13333 0 582.667)"/><path d="M3720 281.02h1192.5v360H3720Z" style="fill:#eeeaf2;fill-opacity:1;fill-rule:evenodd;stroke:none" transform="matrix(.13333 0 0 -.13333 0 582.667)"/><path d="M3720 281.02h1192.5v360H3720Z" style="fill:none;stroke:#7e649e;stroke-width:15;stroke-linecap:round;stroke-linejoin:round;stroke-miterlimit:10;stroke-dasharray:none;stroke-opacity:1" transform="matrix(.13333 0 0 -.13333 0 582.667)"/><path d="M3979.69 423.121c3.55 1.961 4.1 3.789 4.1 12.391v80.617c-.7-5.078-1.13-7.07-2.81-11.68l-31.53-86.25h-9.57l-31.52 86.25c-1.68 4.61-2.11 6.602-2.77 11.68v-80.617c0-8.602.66-10.43 4.21-12.391l3.48-1.949v-2.973h-25.58v2.973l3.63 1.949c3.55 1.961 4.1 3.789 4.1 12.391v68.789c0 8.59-.55 10.429-4.1 12.379l-3.63 1.949v2.973h28.98l28.12-77.383c1.29-3.629 1.72-5.348 2.39-9.84.43 4.371 1.01 6.211 2.26 9.723l28.13 77.5h27.73v-2.973l-3.51-1.949c-3.68-1.95-4.22-3.789-4.22-12.379v-68.789c0-8.602.54-10.43 4.22-12.391l3.51-1.949v-2.973h-29.26v2.973zM4065.08 468.281c0 12.93-4.92 19.258-15.63 19.258-11.29 0-17.3-7.848-17.57-22.617zm-13.95-51.371c-21.68 0-33.36 13.09-33.36 37.43 0 25.89 12.82 41.359 34.07 41.359 19.14 0 28-10.969 28-34.719v-1.57h-48.12v-1.519c0-22.661 7.62-31.25 27.58-31.25a52.89 52.89 0 0 1 18.12 3.238v-2.809c-7.03-7.031-15.15-10.16-26.29-10.16M4182.23 418.199v2.973l3.51 1.949c3.52 1.961 4.1 3.789 4.1 12.391v25.468c0 11.25-.15 13.36-1.29 16.602-1.83 5.617-7.18 8.277-16.48 8.277-5.47 0-10.94-.98-15.59-2.379 1.25-3.519 1.84-7.46 1.84-18.871v-29.097c0-8.602.55-10.43 4.06-12.391l3.67-1.949v-2.973h-28.98v2.973l3.52 1.949c3.51 1.961 4.21 3.789 4.21 12.391v25.468c0 11.25-.27 13.36-1.25 16.602-1.83 5.348-7.18 8.156-15.62 8.156-5.2 0-10.55-.859-14.77-2.687v-47.539c0-8.602.67-10.43 4.22-12.391l3.52-1.949v-2.973h-28.99v2.973l3.64 1.949c3.55 1.961 4.1 3.789 4.1 12.391v38.668c0 7.73-.7 9.73-4.22 11.129l-3.52 1.41v2.929l20.82 6.051V485.43c6.88 6.91 14.34 10.269 23.21 10.269 9.14 0 15.62-3.199 19.29-9.84 7.43 6.481 15.75 10 25.16 10 6.76 0 12.27-1.839 16.17-5.078 2.7-2.23 4.65-5.472 5.63-9.261 1.01-3.938 1.29-6.641 1.29-16.911v-29.097c0-8.602.54-10.43 4.06-12.391l3.51-1.949v-2.973zM4254.34 485.738c-4.93 0-9.69-1.008-13.64-2.687v-56.68a49.202 49.202 0 0 1 11.1-1.289c16.6 0 24.76 10.539 24.76 32.219 0 19.301-7.15 28.437-22.22 28.437m2.11-68.828c-5.75 0-10.24 1.141-15.75 3.828l-13.63-3.828v91.762c0 7.738-.74 9.566-4.22 11.098l-3.4 1.402v2.969l21.25 5.078V485.43c6.88 7.07 14.07 10.269 22.5 10.269 17.46 0 27.74-13.629 27.74-36.558 0-26.172-13.09-42.231-34.49-42.231M4349.57 468.281c0 12.93-4.92 19.258-15.62 19.258-11.25 0-17.31-7.848-17.58-22.617zm-13.95-51.371c-21.67 0-33.35 13.09-33.35 37.43 0 25.89 12.81 41.359 34.06 41.359 19.14 0 28.01-10.969 28.01-34.719v-1.57h-48.13v-1.519c0-22.661 7.62-31.25 27.58-31.25 6.21 0 12.38 1.129 18.16 3.238v-2.809c-7.07-7.031-15.19-10.16-26.33-10.16M4419.02 480.391c-1.25 0-1.83.121-2.65.699l-3.52 2.39a10.572 10.572 0 0 1-5.94 1.829c-2.77 0-6.01-.969-8.98-2.688v-46.68c0-8.871.7-10.98 4.65-12.66l4.92-2.109v-2.973h-30.82v2.973l3.67 1.949c3.52 1.961 4.06 3.789 4.06 12.391v38.668c0 7.73-.7 9.73-4.21 11.129l-3.52 1.41v2.929l20.82 6.051v-10.66l.27.27c6.49 6.453 13.68 10.39 19.73 10.39 5.74 0 9.41-2.929 9.41-7.578 0-4.492-3.24-7.73-7.89-7.73M4454.18 416.91c-5.9 0-11.52.32-18.44 2l-.54.11v16.332h2.81l2.97-3.512c4.76-5.75 8.71-7.461 15.58-7.461 9.14 0 14.38 4.531 14.38 12.262 0 5.199-2.27 8.558-8.48 11.8l-11.68 6.207c-10.39 5.473-14.33 11.25-14.33 20.122 0 13.199 9.72 20.929 26.32 20.929 5.2 0 14.18-1.09 17.58-2.109v-15.309h-2.81l-3.24 3.239c-1.68 1.679-6.76 7.152-13.79 7.031-7.46-.153-11.96-4.211-11.96-11.129 0-5.082 2.39-8.281 8.44-11.402l12.39-6.329c9.68-4.921 13.63-10.82 13.63-19.812 0-14.797-10.28-22.969-28.83-22.969M4542.23 418.199v2.973l3.51 1.949c3.52 1.961 4.22 3.789 4.22 12.391v25.468c0 11.25-.27 13.36-1.25 16.602-1.83 5.348-7.19 8.156-15.62 8.156-5.2 0-10.55-1.129-14.77-2.968v-47.258c0-8.602.7-10.43 4.22-12.391l3.51-1.949v-2.973h-28.98v2.973l3.67 1.949c3.52 1.961 4.06 3.789 4.06 12.391v72.148c0 7.77-.7 9.719-4.21 11.129l-3.52 1.41v2.961l21.25 6.059V485.43c6.76 6.91 14.34 10.269 22.93 10.269 6.05 0 12.93-2.109 16.72-6.168 3.94-4.222 5.51-8.32 5.51-24.922v-29.097c0-8.602.54-10.43 4.06-12.391l3.67-1.949v-2.973zM4596.8 511.211c-4.92 0-8.05 2.93-8.05 7.848 0 5.082 3.13 8.011 8.32 8.011 4.92 0 8.01-2.929 8.01-7.851 0-5.078-3.09-8.008-8.28-8.008m-14.5-93.012v2.973l3.64 1.949c3.55 1.961 4.1 3.789 4.1 12.391v38.668c0 7.73-.7 9.73-4.22 11.129l-3.52 1.41v2.929l21.25 6.051v-60.187c0-8.602.67-10.43 4.22-12.391l3.52-1.949v-2.973zM4658.67 485.738c-4.92 0-9.72-1.008-13.63-2.687v-56.68a48.854 48.854 0 0 1 11.09-1.289c16.6 0 24.77 10.539 24.77 32.219 0 19.301-7.19 28.437-22.23 28.437m2.11-68.828c-5.78 0-10.27 1.141-15.74 3.828V406.25c0-8.871.55-10.98 4.49-12.66l4.92-2.11v-2.96h-30.66v2.96l3.51 1.961c3.52 1.95 4.07 3.789 4.07 12.539v68.2c0 7.73-.71 9.73-4.22 11.129l-3.36 1.41v2.929l20.82 6.051V485.43c6.87 7.191 14.06 10.269 22.77 10.269 17.62 0 27.85-13.469 27.85-36.558 0-26.172-13.04-42.231-34.45-42.231M4735.86 440.781c-3.2 0-6.33-.621-8.87-1.722V402.27c2.39-.508 4.85-.79 7.19-.79 10.78 0 16.05 6.84 16.05 20.899 0 12.5-4.64 18.402-14.37 18.402m1.37-44.609c-3.75 0-6.68.738-10.24 2.457l-8.87-2.457v59.488c0 5.039-.42 6.219-2.73 7.231l-2.19.898v1.91l13.79 3.281v-28.39c4.46 4.57 9.1 6.68 14.57 6.68 11.33 0 18.01-8.829 18.01-23.719 0-16.992-8.52-27.379-22.34-27.379" style="fill:#3f3f3f;fill-opacity:1;fill-rule:nonzero;stroke:none" transform="matrix(.13333 0 0 -.13333 0 582.667)"/><path d="M3599.41 501.211 3720 461.02l-120.59-40.239ZM2005.51 501.211l120.58-40.191-120.58-40.239ZM2005.51 2211.21l120.58-40.19-120.58-40.24z" style="fill:#7f7f7f;fill-opacity:1;fill-rule:evenodd;stroke:none" transform="matrix(.13333 0 0 -.13333 0 582.667)"/><path d="M6262.5 1631.02h1080v1080h-1080z" style="fill:#e2f1f5;fill-opacity:1;fill-rule:evenodd;stroke:none" transform="matrix(.13333 0 0 -.13333 0 582.667)"/><path d="M6262.5 1631.02h1080v1080h-1080z" style="fill:none;stroke:#31859b;stroke-width:15;stroke-linecap:round;stroke-linejoin:round;stroke-miterlimit:10;stroke-dasharray:none;stroke-opacity:1" transform="matrix(.13333 0 0 -.13333 0 582.667)"/><path d="m6627.85 2256.56-23.79-73.67h46.56zm33.83-158.16v5.04l5.55 4.1c2.15 1.68 3.59 4.06 3.59 6.72 0 2.38-.51 5.27-1.68 8.86l-14.18 45.36h-55.66l-14.65-45.36c-1.21-3.59-1.68-6.48-1.68-8.86 0-2.66 1.21-5.04 3.36-6.72l5.74-4.1v-5.04h-41.76v5.04l4.81 4.1c3.12 2.62 6.01 7.89 9.84 18.71l51.6 145.94 27.15 6.95 48.95-150.74c4.06-12.7 6.72-18.01 10.31-20.86l5.04-4.1v-5.04zM6731.05 2199.53c-11.36 14.81-16.48 34.92-16.48 63.95 0 29.14 5.12 49.1 16.48 64.1 4.54 5.74 10.16 10.9 15.63 13.87l5.31-6.88c-5-3.4-9.69-7.77-13.44-12.77-4.02-5.78-7.3-12.78-9.49-20.59-3.28-11.25-4.37-21.52-4.37-37.73 0-16.25 1.25-27 4.37-37.74 4.49-14.96 12.31-26.21 22.93-33.4l-5.31-6.83c-5.47 2.97-11.09 8.08-15.63 14.02M6795.66 2242.42c0-11.87 3.25-15.27 14.34-15.27 3.91 0 7.81.47 11.56 1.56v-2.81c-5.62-5.78-12.97-8.91-21.52-8.91-7.03 0-12.66 2.19-15.78 6.25-2.81 3.6-3.75 7.81-3.75 16.68v54.1h-9.49v4.53c5.46 2.82 9.02 5.47 11.52 9.5 2.03 3.28 3.75 7.97 5.16 13.9h7.96v-19.18h25.9v-8.75h-25.9zM6872.85 2269.69v-32.42h-11.37v32.42h-30.54v11.72h30.54v32.26h11.37v-32.26h30.9v-11.72zM6939.49 2218.4v3.28l5.28 2.34c4.37 1.88 5.15 4.07 5.15 14.03v73.16c0 2.62-.78 3.56-3.12 3.56-1.1 0-2.03-.16-2.93-.32l-19.85-3.55v4.65l1.57.62c17.03 6.88 26.52 11.72 35.58 17.78h4.69v-95.9c0-9.96.78-12.15 5.12-14.03l5.31-2.34v-3.28zM7034.02 2199.53c-4.53-5.94-10.31-11.05-15.62-14.02l-5.28 6.83c5.63 3.91 9.65 7.82 13.25 12.82 4.22 5.74 7.34 12.77 9.53 20.58 3.28 11.21 4.53 21.49 4.53 37.74 0 16.36-1.45 26.95-4.53 37.73-4.53 15.12-12.19 26.21-22.78 33.36l5.28 6.88c5.31-2.97 11.09-8.13 15.62-13.87 11.37-15 16.53-34.96 16.53-64.1 0-29.03-5.16-49.14-16.53-63.95" style="fill:#3f3f3f;fill-opacity:1;fill-rule:nonzero;stroke:none" transform="matrix(.13333 0 0 -.13333 0 582.667)"/><path d="M5362.5 2171.02c0 124.29 100.7 225 225 225s225-100.71 225-225c0-124.3-100.7-225-225-225s-225 100.7-225 225" style="fill:#ebf1df;fill-opacity:1;fill-rule:evenodd;stroke:none" transform="matrix(.13333 0 0 -.13333 0 582.667)"/><path d="M5362.5 2171.02c0 124.29 100.7 225 225 225s225-100.71 225-225c0-124.3-100.7-225-225-225s-225 100.7-225 225z" style="fill:none;stroke:#789440;stroke-width:15;stroke-linecap:round;stroke-linejoin:round;stroke-miterlimit:10;stroke-dasharray:none;stroke-opacity:1" transform="matrix(.13333 0 0 -.13333 0 582.667)"/><path d="M5599.69 2149.1v-62.38h-21.88v62.38h-58.79v22.5h58.79v62.11h21.88v-62.11h59.41v-22.5z" style="fill:#3f3f3f;fill-opacity:1;fill-rule:nonzero;stroke:none" transform="matrix(.13333 0 0 -.13333 0 582.667)"/><path d="m5627.7 2516.6-40.2-120.58-40.2 120.58zM5241.91 2211.21l120.59-40.19-120.59-40.24zM5547.3 1825.39l40.2 120.63 40.2-120.63zM6141.91 2211.21l120.59-40.19-120.59-40.24z" style="fill:#7f7f7f;fill-opacity:1;fill-rule:evenodd;stroke:none" transform="matrix(.13333 0 0 -.13333 0 582.667)"/><path d="M3024.3 3431.02h585.11M1087.5 2171.02h450v1260h478.09M3024.3 2171.02h585.11M3024.3 461.02h585.11M2015.59 461.02H1537.5v1710h-450M2015.59 2171.02H1087.5M4912.5 3431.02h675V2506.6M4912.5 2171.02h339.41M4912.5 461.02h675v1374.49M5812.5 2171.02h339.41" style="fill:none;stroke:#7f7f7f;stroke-width:7.5;stroke-linecap:round;stroke-linejoin:round;stroke-miterlimit:10;stroke-dasharray:none;stroke-opacity:1" transform="matrix(.13333 0 0 -.13333 0 582.667)"/><path d="M6802.5 2711.02v1575h-6255V2821.6" style="fill:none;stroke:#7f7f7f;stroke-width:7.5;stroke-linecap:round;stroke-linejoin:round;stroke-miterlimit:10;stroke-dasharray:none;stroke-opacity:1" transform="matrix(.13333 0 0 -.13333 0 582.667)"/><path d="M587.699 2831.6 547.5 2711.02l-40.199 120.58Z" style="fill:#7f7f7f;fill-opacity:1;fill-rule:evenodd;stroke:none" transform="matrix(.13333 0 0 -.13333 0 582.667)"/><path d="M3148.79 4201.99h1052.42v168.012H3148.79Z" style="fill:#fff;fill-opacity:1;fill-rule:evenodd;stroke:none" transform="matrix(.13333 0 0 -.13333 0 582.667)"/><path d="M3206.45 4249.57c-6.33-4.92-14.46-7.03-27.11-7.03-8.13 0-18.09 1.52-23.44 2.93v18.98h2.81l5.63-6.48c1.09-1.25 2.54-2.54 3.9-3.52 4.1-2.93 7.03-3.79 13.48-3.79 13.36 0 20.94 6.61 20.94 18.4 0 2.11-.28 4.22-.98 6.33-1.41 4.77-4.38 7.58-12.66 12.34l-13.75 8.01c-3.63 2.11-6.87 4.34-9.53 6.6-5.35 4.61-8.28 11.21-8.28 19.07 0 17.14 11.92 26.83 33.13 26.83 7.14 0 15.27-1.4 22.3-2.81l.7-.12v-17.69h-2.81l-5.47 5.31c-6.05 5.78-8.98 7.19-16.72 7.19-11.36 0-17.69-5.51-17.69-15.32 0-2.65.43-5.19 1.29-7.03 1.95-4.33 4.76-6.75 14.61-12.5l10.08-5.89c5.35-3.09 9.29-6.02 12.38-9.11 5.31-5.35 7.3-11.25 7.3-18.82 0-9.26-3.4-16.68-10.11-21.88M3275.78 4293.79c0 12.89-4.88 19.22-15.58 19.22-11.22 0-17.27-7.85-17.54-22.62zm-13.9-51.25c-21.61 0-33.25 13.05-33.25 37.34 0 25.82 12.78 41.25 33.99 41.25 19.06 0 27.93-10.93 27.93-34.65v-1.56h-48.01v-1.52c0-22.62 7.58-31.17 27.5-31.17 6.17 0 12.34 1.13 18.08 3.2v-2.77c-6.99-7.04-15.15-10.12-26.24-10.12M3303.75 4243.79v2.97l3.63 1.95c3.52 1.95 4.07 3.79 4.07 12.34v72.04c0 7.69-.71 9.68-4.22 11.09l-3.48 1.41v2.93l21.17 6.05v-93.52c0-8.55.7-10.39 4.22-12.34l3.52-1.95v-2.97zM3387.97 4339.41c-1.95 0-2.97.28-3.63 1.37l-2.82 4.1c-1.29 1.8-2.69 2.5-4.76 2.5-2.42 0-4.49-.7-5.78-1.79-3.52-2.97-4.07-5.47-4.07-19.11v-6.71h15.98v-7.89h-15.98v-50.4c0-8.82.71-10.93 4.61-12.61l4.93-2.11v-2.97h-30.75v2.97l3.68 1.95c3.47 1.95 4.06 3.79 4.06 12.34v50.83h-7.74v7.89h7.74v1.95c0 10.94.7 15.7 3.36 20.62 4.33 8.01 13.36 12.23 25.7 12.23 8.98 0 13.75-2.69 13.75-7.89 0-4.18-3.52-7.27-8.28-7.27M3391.8 4276.37h44.488v10.508H3391.8ZM3499.73 4249.57c-6.29-4.92-14.46-7.03-27.07-7.03-8.17 0-18.13 1.52-23.48 2.93v18.98h2.81l5.63-6.48c1.13-1.25 2.54-2.54 3.94-3.52 4.06-2.93 6.99-3.79 13.48-3.79 13.32 0 20.9 6.61 20.9 18.4 0 2.11-.28 4.22-.98 6.33-1.41 4.77-4.37 7.58-12.66 12.34l-13.75 8.01c-3.63 2.11-6.87 4.34-9.53 6.6-5.35 4.61-8.28 11.21-8.28 19.07 0 17.14 11.92 26.83 33.13 26.83 7.15 0 15.31-1.4 22.3-2.81l.71-.12v-17.69h-2.82l-5.47 5.31c-6.01 5.78-8.98 7.19-16.68 7.19-11.36 0-17.69-5.51-17.69-15.32 0-2.65.43-5.19 1.25-7.03 1.95-4.33 4.76-6.75 14.61-12.5l10.12-5.89c5.31-3.09 9.25-6.02 12.34-9.11 5.31-5.35 7.3-11.25 7.3-18.82 0-9.26-3.36-16.68-10.11-21.88M3574.69 4242.54v10.39c-6.88-7.15-14.3-10.39-23.28-10.39-6.33 0-11.8 1.68-15.47 4.76-2.66 2.39-4.61 5.63-5.59 9.42-.97 3.9-1.13 5.31-1.13 16.99v25.98c0 7.69-.7 9.65-4.22 11.09l-3.36 1.37v2.97l21.17 6.01v-43.9c0-10.82.16-13.48 1.14-16.61 1.67-5.46 6.91-8.12 15.46-8.12 5.32 0 10.39.98 14.57 2.81h.32v44.38c0 7.69-.71 9.65-4.22 11.09l-3.52 1.37v2.97l21.21 6.01v-58.4c0-7.85.71-9.68 4.34-11.21l3.36-1.4v-2.97zM3641.68 4311.17c-4.92 0-9.69-.97-13.63-2.65v-56.57a49.06 49.06 0 0 1 11.09-1.29c16.56 0 24.73 10.55 24.73 32.15 0 19.26-7.19 28.36-22.19 28.36m2.11-68.63c-5.78 0-10.27 1.13-15.74 3.79v-14.45c0-8.87.58-10.94 4.49-12.66l4.92-2.11v-2.93h-30.58v2.93l3.51 1.99c3.48 1.95 4.06 3.79 4.06 12.5v68.09c0 7.69-.7 9.65-4.22 11.05l-3.35 1.41v2.97l20.74 6.01v-10.23c6.91 7.15 14.06 10.23 22.77 10.23 17.54 0 27.77-13.47 27.77-36.48 0-26.1-13.04-42.11-34.37-42.11M3737.42 4293.79c0 12.89-4.88 19.22-15.58 19.22-11.22 0-17.27-7.85-17.54-22.62zm-13.9-51.25c-21.61 0-33.25 13.05-33.25 37.34 0 25.82 12.78 41.25 33.95 41.25 19.1 0 27.97-10.93 27.97-34.65v-1.56h-48.01v-1.52c0-22.62 7.58-31.17 27.5-31.17 6.17 0 12.34 1.13 18.09 3.2v-2.77c-7-7.04-15.16-10.12-26.25-10.12M3807.19 4305.86c-1.25 0-1.84.12-2.66.7l-3.51 2.39a10.59 10.59 0 0 1-5.9 1.83c-2.78 0-6.02-1.01-8.99-2.69v-46.61c0-8.82.71-10.93 4.65-12.61l4.92-2.11v-2.97h-30.78v2.97l3.67 1.95c3.52 1.95 4.07 3.79 4.07 12.34v38.64c0 7.69-.71 9.65-4.22 11.09l-3.52 1.37v2.97l20.82 6.01v-10.66l.28.31c6.44 6.45 13.59 10.35 19.64 10.35 5.75 0 9.38-2.93 9.38-7.58 0-4.49-3.2-7.69-7.85-7.69M3887.34 4314.96c-1.95-1.8-3.08-3.79-5.58-10.23l-23.6-61.33h-12.22l-21.45 61.33c-1.99 5.62-3.55 8.43-5.51 10.23l-2.22 1.99v2.93h24.57v-2.93l-2.11-1.99c-1.25-1.09-2.11-2.66-2.11-4.22 0-1.4.43-2.93.98-4.76l13.75-41.57c1.4-4.33 1.83-5.86 2.38-10.07.86 4.76 1.4 6.6 2.66 10.39l14.06 41.25c.54 1.83.97 3.36.97 4.76 0 1.56-.86 3.13-2.11 4.22l-2.1 1.99v2.93h21.79v-2.93zM3912.77 4336.6c-4.88 0-8 2.93-8 7.85 0 5.04 3.12 8.01 8.28 8.01 4.92 0 8-2.97 8-7.85 0-5.08-3.08-8.01-8.28-8.01m-14.45-92.81v2.97l3.67 1.95c3.52 1.95 4.06 3.79 4.06 12.34v38.64c0 7.69-.7 9.65-4.21 11.05l-3.52 1.41v2.97l21.21 6.01v-60.08c0-8.55.7-10.39 4.22-12.34l3.48-1.95v-2.97zM3960.23 4242.54c-5.89 0-11.48.27-18.39 1.95l-.55.16v16.29h2.81l2.93-3.52c4.77-5.74 8.71-7.46 15.59-7.46 9.14 0 14.33 4.49 14.33 12.23 0 5.19-2.26 8.55-8.43 11.79l-11.64 6.18c-10.4 5.46-14.34 11.21-14.34 20.07 0 13.21 9.69 20.9 26.25 20.9 5.19 0 14.18-1.09 17.54-2.07v-15.31h-2.81l-3.21 3.2c-1.68 1.72-6.76 7.19-13.75 7.03-7.46-.15-11.95-4.21-11.95-11.09 0-5.04 2.42-8.28 8.44-11.37l12.34-6.32c9.69-4.89 13.63-10.79 13.63-19.77 0-14.77-10.23-22.89-28.79-22.89M4017.54 4336.6c-4.92 0-8.01 2.93-8.01 7.85 0 5.04 3.09 8.01 8.28 8.01 4.92 0 7.97-2.97 7.97-7.85 0-5.08-3.05-8.01-8.24-8.01m-14.49-92.81v2.97l3.67 1.95c3.51 1.95 4.06 3.79 4.06 12.34v38.64c0 7.69-.7 9.65-4.22 11.05l-3.51 1.41v2.97l21.21 6.01v-60.08c0-8.55.7-10.39 4.22-12.34l3.51-1.95v-2.97zM4078.16 4313.28c-13.59 0-19.49-9.53-19.49-31.56 0-21.92 5.59-31.33 18.79-31.33 13.63 0 19.53 9.57 19.53 31.45 0 22.18-5.62 31.44-18.83 31.44m-1.13-70.74c-21.17 0-32.97 13.75-32.97 38.32 0 25.55 12.62 40.27 34.53 40.27 21.06 0 33.01-13.75 33.01-38.04 0-25.67-12.65-40.55-34.57-40.55M4169.57 4243.79v2.97l3.52 1.95c3.47 1.95 4.18 3.79 4.18 12.34v25.43c0 11.22-.28 13.32-1.25 16.57-1.8 5.31-7.15 8.12-15.59 8.12-5.2 0-10.51-1.13-14.73-2.93v-47.19c0-8.55.71-10.39 4.22-12.34l3.52-1.95v-2.97h-28.95v2.97l3.67 1.95c3.48 1.95 4.07 3.79 4.07 12.34v38.64c0 7.69-.71 9.69-4.22 11.05l-3.52 1.41v2.97l20.78 6.01v-10.23c6.88 6.87 14.34 10.23 23.17 10.23 6.17 0 12.34-1.68 16.72-6.01 2.38-2.39 4.22-5.74 5.04-11.1.54-3.36.54-7.85.54-13.9v-29.07c0-8.55.59-10.39 4.1-12.34l3.64-1.95v-2.97z" style="fill:#3f3f3f;fill-opacity:1;fill-rule:nonzero;stroke:none" transform="matrix(.13333 0 0 -.13333 0 582.667)"/><path d="M4237.5 956.02h180v720h-180z" style="fill:#fff;fill-opacity:1;fill-rule:evenodd;stroke:none" transform="matrix(.13333 0 0 -.13333 0 582.667)"/><path d="M4270.94 1414.92c0 7.74 4.14 11.72 12.07 11.72 8.28 0 12.61-4.14 12.61-12.26 0-7.74-4.33-11.88-12.26-11.88-8.28 0-12.42 4.14-12.42 12.42" style="fill:#3f3f3f;fill-opacity:1;fill-rule:nonzero;stroke:none" transform="matrix(.13333 0 0 -.13333 0 582.667)"/><path d="M4270.94 1414.92c0 7.74 4.14 11.72 12.07 11.72 8.28 0 12.61-4.14 12.61-12.26 0-7.74-4.33-11.88-12.26-11.88-8.28 0-12.42 4.14-12.42 12.42z" style="fill:none;stroke:#3f3f3f;stroke-width:5.14;stroke-linecap:round;stroke-linejoin:round;stroke-miterlimit:10;stroke-dasharray:none;stroke-opacity:1" transform="matrix(.13333 0 0 -.13333 0 582.667)"/><path d="M4270.98 1318.09c0 7.73 4.14 11.68 12.03 11.68 8.32 0 12.61-4.15 12.61-12.23 0-7.74-4.29-11.88-12.22-11.88-8.28 0-12.42 4.14-12.42 12.43" style="fill:#3f3f3f;fill-opacity:1;fill-rule:nonzero;stroke:none" transform="matrix(.13333 0 0 -.13333 0 582.667)"/><path d="M4270.98 1318.09c0 7.73 4.14 11.68 12.03 11.68 8.32 0 12.61-4.15 12.61-12.23 0-7.74-4.29-11.88-12.22-11.88-8.28 0-12.42 4.14-12.42 12.43z" style="fill:none;stroke:#3f3f3f;stroke-width:5.14;stroke-linecap:round;stroke-linejoin:round;stroke-miterlimit:10;stroke-dasharray:none;stroke-opacity:1" transform="matrix(.13333 0 0 -.13333 0 582.667)"/><path d="M4270.98 1221.25c0 7.73 4.14 11.68 12.03 11.68 8.32 0 12.61-4.14 12.61-12.23 0-7.73-4.29-11.87-12.22-11.87-8.28 0-12.42 4.14-12.42 12.42" style="fill:#3f3f3f;fill-opacity:1;fill-rule:nonzero;stroke:none" transform="matrix(.13333 0 0 -.13333 0 582.667)"/><path d="M4270.98 1221.25c0 7.73 4.14 11.68 12.03 11.68 8.32 0 12.61-4.14 12.61-12.23 0-7.73-4.29-11.87-12.22-11.87-8.28 0-12.42 4.14-12.42 12.42z" style="fill:none;stroke:#3f3f3f;stroke-width:5.14;stroke-linecap:round;stroke-linejoin:round;stroke-miterlimit:10;stroke-dasharray:none;stroke-opacity:1" transform="matrix(.13333 0 0 -.13333 0 582.667)"/><path d="M2126.09 3431.02c0 247.96 201.1 449.1 449.11 449.1 248 0 449.1-201.14 449.1-449.1 0-248.01-201.1-449.11-449.1-449.11-248.01 0-449.11 201.1-449.11 449.11" style="fill:#fcebdd;fill-opacity:1;fill-rule:evenodd;stroke:none" transform="matrix(.13333 0 0 -.13333 0 582.667)"/><path d="M2126.09 3431.02c0 247.96 201.1 449.1 449.11 449.1 248 0 449.1-201.14 449.1-449.1 0-248.01-201.1-449.11-449.1-449.11-248.01 0-449.11 201.1-449.11 449.11z" style="fill:none;stroke:#d9958f;stroke-width:15;stroke-linecap:round;stroke-linejoin:round;stroke-miterlimit:10;stroke-dasharray:none;stroke-opacity:1" transform="matrix(.13333 0 0 -.13333 0 582.667)"/><path d="M2323.98 3383.98c-8.08-6.28-18.55-8.98-34.76-8.98-10.43 0-23.2 1.95-30.08 3.75v24.34h3.63l7.19-8.32a32.34 32.34 0 0 1 5.04-4.5c5.23-3.79 9.02-4.84 17.3-4.84 17.11 0 26.8 8.44 26.8 23.55 0 2.74-.35 5.43-1.25 8.13-1.8 6.13-5.58 9.73-16.21 15.86l-17.62 10.27c-4.68 2.7-8.82 5.55-12.26 8.44-6.84 5.94-10.63 14.41-10.63 24.49 0 21.95 15.32 34.38 42.5 34.38 9.18 0 19.61-1.8 28.64-3.6l.89-.15v-22.7h-3.59l-7.03 6.84c-7.74 7.38-11.52 9.18-21.45 9.18-14.57 0-22.65-7.03-22.65-19.61 0-3.44.54-6.68 1.6-9.03 2.54-5.58 6.13-8.63 18.71-16.01l13.01-7.58c6.83-3.94 11.87-7.73 15.82-11.68 6.83-6.87 9.37-14.41 9.37-24.14 0-11.87-4.33-21.45-12.97-28.09M2418.67 3383.98c-8.12-6.28-18.55-8.98-34.76-8.98-10.43 0-23.25 1.95-30.08 3.75v24.34h3.59l7.23-8.32c1.44-1.61 3.24-3.21 5.04-4.5 5.23-3.79 8.98-4.84 17.26-4.84 17.11 0 26.84 8.44 26.84 23.55 0 2.74-.35 5.43-1.25 8.13-1.8 6.13-5.59 9.73-16.21 15.86l-17.66 10.27c-4.65 2.7-8.79 5.55-12.22 8.44-6.84 5.94-10.63 14.41-10.63 24.49 0 21.95 15.31 34.38 42.5 34.38 9.18 0 19.61-1.8 28.63-3.6l.9-.15v-22.7h-3.63l-6.99 6.84c-7.74 7.38-11.53 9.18-21.45 9.18-14.57 0-22.66-7.03-22.66-19.61 0-3.44.51-6.68 1.61-9.03 2.54-5.58 6.13-8.63 18.71-16.01l12.97-7.58c6.83-3.94 11.87-7.73 15.86-11.68 6.83-6.87 9.33-14.41 9.33-24.14 0-11.87-4.3-21.45-12.93-28.09M2472.11 3398.75c0-10.98.7-13.32 5.19-15.86l4.54-2.5v-3.79h-32.97v3.79l4.68 2.5c4.5 2.54 5.24 4.88 5.24 15.86v88.05c0 10.97-.74 13.32-5.24 15.86l-4.68 2.5v3.79h29.72l58.17-89.69c2.69-4.14 3.59-6.49 5.54-12.23v79.77c0 10.97-.89 13.32-5.39 15.86l-4.49 2.5v3.79h32.97v-3.79l-4.53-2.5c-4.49-2.54-5.24-4.89-5.24-15.86v-110.75h-10.97l-67.7 103.91c-2.85 4.3-3.75 6.49-4.84 11.68zM2699.3 3382.89c4.49 2.54 5.23 4.88 5.23 15.86v103.16c-.94-6.48-1.44-8.98-3.63-14.92l-40.31-110.39h-12.23l-40.35 110.39c-2.15 5.94-2.7 8.44-3.6 14.92v-103.16c0-10.98.9-13.32 5.39-15.86l4.5-2.5v-3.79h-32.78v3.79l4.69 2.5c4.49 2.54 5.24 4.88 5.24 15.86v88.05c0 10.97-.75 13.32-5.24 15.86l-4.69 2.5v3.79h37.11l36.02-99.03c1.6-4.69 2.15-6.83 3.05-12.62.54 5.59 1.25 7.93 2.89 12.43l36.01 99.22h35.47v-3.79l-4.49-2.5c-4.69-2.54-5.43-4.89-5.43-15.86v-88.05c0-10.98.74-13.32 5.43-15.86l4.49-2.5v-3.79h-37.46v3.79zM2826.02 3484.1l-7.78 9.18c-1.95 2.34-3.59 3.79-6.09 4.69-2.54.9-5.98 1.05-11.02 1.05h-23.55v-48.24h18.16c8.64 0 10.63.7 14.57 5.04l4.89 5.39h4.49v-30.78h-4.49l-4.89 5.23c-4.14 4.34-5.93 5.24-14.57 5.24h-18.16v-41.6c0-11.37.9-14.07 5.94-16.21l6.28-2.7v-3.79h-40.5v3.79l4.68 2.5c4.5 2.54 5.24 4.88 5.24 15.86v88.05c0 10.97-.74 13.32-5.24 15.86l-4.68 2.5v3.79h81.21v-24.85zM2854.8 3349.49v2.46l3.99 1.72c3.24 1.41 3.83 3.05 3.83 10.51v54.61c0 1.95-.59 2.66-2.35 2.66-.78 0-1.48-.12-2.18-.24l-14.81-2.66v3.48l1.17.47c12.7 5.12 19.81 8.75 26.57 13.28h3.47v-71.6c0-7.46.59-9.1 3.83-10.51l3.98-1.72v-2.46z" style="fill:#3f3f3f;fill-opacity:1;fill-rule:nonzero;stroke:none" transform="matrix(.13333 0 0 -.13333 0 582.667)"/><path d="M2126.09 2171.02c0 247.96 201.1 449.1 449.11 449.1 248 0 449.1-201.14 449.1-449.1 0-248.01-201.1-449.11-449.1-449.11-248.01 0-449.11 201.1-449.11 449.11" style="fill:#fcebdd;fill-opacity:1;fill-rule:evenodd;stroke:none" transform="matrix(.13333 0 0 -.13333 0 582.667)"/><path d="M2126.09 2171.02c0 247.96 201.1 449.1 449.11 449.1 248 0 449.1-201.14 449.1-449.1 0-248.01-201.1-449.11-449.1-449.11-248.01 0-449.11 201.1-449.11 449.11z" style="fill:none;stroke:#d9958f;stroke-width:15;stroke-linecap:round;stroke-linejoin:round;stroke-miterlimit:10;stroke-dasharray:none;stroke-opacity:1" transform="matrix(.13333 0 0 -.13333 0 582.667)"/><path d="M2323.98 2123.79c-8.08-6.29-18.55-9.02-34.76-9.02-10.43 0-23.2 1.99-30.08 3.78v24.3h3.63l7.19-8.28c1.45-1.6 3.24-3.24 5.04-4.49 5.23-3.79 9.02-4.85 17.3-4.85 17.11 0 26.8 8.44 26.8 23.6 0 2.65-.35 5.39-1.25 8.08-1.8 6.14-5.58 9.73-16.21 15.82l-17.62 10.28c-4.68 2.69-8.82 5.58-12.26 8.47-6.84 5.94-10.63 14.42-10.63 24.5 0 21.95 15.32 34.37 42.5 34.37 9.18 0 19.61-1.8 28.64-3.59l.89-.16v-22.69h-3.59l-7.03 6.83c-7.74 7.38-11.52 9.18-21.45 9.18-14.57 0-22.65-7.03-22.65-19.61 0-3.43.54-6.68 1.6-9.02 2.54-5.59 6.13-8.63 18.71-16.02l13.01-7.57c6.83-3.95 11.87-7.74 15.82-11.68 6.83-6.88 9.37-14.42 9.37-24.14 0-11.88-4.33-21.45-12.97-28.09M2418.67 2123.79c-8.12-6.29-18.55-9.02-34.76-9.02-10.43 0-23.25 1.99-30.08 3.78v24.3h3.59l7.23-8.28c1.44-1.6 3.24-3.24 5.04-4.49 5.23-3.79 8.98-4.85 17.26-4.85 17.11 0 26.84 8.44 26.84 23.6 0 2.65-.35 5.39-1.25 8.08-1.8 6.14-5.59 9.73-16.21 15.82l-17.66 10.28c-4.65 2.69-8.79 5.58-12.22 8.47-6.84 5.94-10.63 14.42-10.63 24.5 0 21.95 15.31 34.37 42.5 34.37 9.18 0 19.61-1.8 28.63-3.59l.9-.16v-22.69h-3.63l-6.99 6.83c-7.74 7.38-11.53 9.18-21.45 9.18-14.57 0-22.66-7.03-22.66-19.61 0-3.43.51-6.68 1.61-9.02 2.54-5.59 6.13-8.63 18.71-16.02l12.97-7.57c6.83-3.95 11.87-7.74 15.86-11.68 6.83-6.88 9.33-14.42 9.33-24.14 0-11.88-4.3-21.45-12.93-28.09M2472.11 2138.55c0-10.97.7-13.32 5.19-15.85l4.54-2.5v-3.79h-32.97v3.79l4.68 2.5c4.5 2.53 5.24 4.88 5.24 15.85v88.05c0 10.98-.74 13.32-5.24 15.82l-4.68 2.54v3.79h29.72l58.17-89.69c2.69-4.14 3.59-6.48 5.54-12.22v79.76c0 10.98-.89 13.32-5.39 15.82l-4.49 2.54v3.79h32.97v-3.79l-4.53-2.54c-4.49-2.5-5.24-4.84-5.24-15.82v-110.74h-10.97l-67.7 103.91c-2.85 4.29-3.75 6.48-4.84 11.68zM2699.3 2122.7c4.49 2.53 5.23 4.88 5.23 15.85v103.17c-.94-6.49-1.44-9.02-3.63-14.96l-40.31-110.35h-12.23l-40.35 110.35c-2.15 5.94-2.7 8.47-3.6 14.96v-103.17c0-10.97.9-13.32 5.39-15.85l4.5-2.5v-3.79h-32.78v3.79l4.69 2.5c4.49 2.53 5.24 4.88 5.24 15.85v88.05c0 10.98-.75 13.32-5.24 15.82l-4.69 2.54v3.79h37.11l36.02-99.02c1.6-4.69 2.15-6.88 3.05-12.62.54 5.59 1.25 7.93 2.89 12.42l36.01 99.22h35.47v-3.79l-4.49-2.54c-4.69-2.5-5.43-4.84-5.43-15.82v-88.05c0-10.97.74-13.32 5.43-15.85l4.49-2.5v-3.79h-37.46v3.79zM2826.02 2223.91l-7.78 9.18c-1.95 2.34-3.59 3.75-6.09 4.68-2.54.9-5.98 1.06-11.02 1.06h-23.55v-48.24h18.16c8.64 0 10.63.7 14.57 5.03l4.89 5.4h4.49v-30.79h-4.49l-4.89 5.24c-4.14 4.3-5.93 5.19-14.57 5.19h-18.16v-41.56c0-11.37.9-14.06 5.94-16.21l6.28-2.69v-3.79h-40.5v3.79l4.68 2.5c4.5 2.53 5.24 4.88 5.24 15.85v88.05c0 10.98-.74 13.32-5.24 15.82l-4.68 2.54v3.79h81.21v-24.84zM2888.59 2089.3h-51.13v6.52l1.41 1.76c11.99 12.77 23.16 22.93 28.98 30.15 6.53 8.25 9.22 15.36 9.22 24.93 0 11.64-4.65 16.83-15.16 16.83-5.23 0-8.36-1.25-10.35-3.94l-3.04-4.18c-.55-.82-1.61-1.41-3.6-1.41-4.06 0-6.52 2.11-6.52 5.59 0 5.93 10.12 10.39 23.75 10.39 18.16 0 27.73-7.82 27.73-22.62 0-11.17-4.45-20.23-15.5-31.41-5.94-5.93-10.59-10.5-22-20.62l-2.93-2.54h24.22c2.23 0 3.99 0 5.12.23 2.23.2 4.92 1.49 6.64 3.25l4.22 4.18h3.01z" style="fill:#3f3f3f;fill-opacity:1;fill-rule:nonzero;stroke:none" transform="matrix(.13333 0 0 -.13333 0 582.667)"/><path d="M2126.09 461.02c0 247.96 201.1 449.101 449.11 449.101 248 0 449.1-201.141 449.1-449.101 0-248.008-201.1-449.11-449.1-449.11-248.01 0-449.11 201.102-449.11 449.11" style="fill:#fcebdd;fill-opacity:1;fill-rule:evenodd;stroke:none" transform="matrix(.13333 0 0 -.13333 0 582.667)"/><path d="M2126.09 461.02c0 247.96 201.1 449.101 449.11 449.101 248 0 449.1-201.141 449.1-449.101 0-248.008-201.1-449.11-449.1-449.11-248.01 0-449.11 201.102-449.11 449.11z" style="fill:none;stroke:#d9958f;stroke-width:15;stroke-linecap:round;stroke-linejoin:round;stroke-miterlimit:10;stroke-dasharray:none;stroke-opacity:1" transform="matrix(.13333 0 0 -.13333 0 582.667)"/><path d="M2324.02 413.59c-8.08-6.32-18.55-9.02-34.76-9.02-10.43 0-23.24 1.989-30.08 3.789v24.34h3.59l7.23-8.289c1.41-1.64 3.24-3.238 5.04-4.531 5.19-3.789 8.98-4.84 17.26-4.84 17.15 0 26.88 8.481 26.88 23.59 0 2.703-.35 5.391-1.25 8.09-1.84 6.133-5.59 9.761-16.25 15.902l-17.66 10.27c-4.68 2.699-8.82 5.589-12.22 8.441-6.88 5.969-10.63 14.406-10.63 24.527 0 21.993 15.31 34.411 42.5 34.411 9.22 0 19.65-1.79 28.67-3.59l.9-.2v-22.691h-3.59l-7.03 6.832c-7.78 7.391-11.57 9.18-21.45 9.18-14.61 0-22.73-7.031-22.73-19.641 0-3.398.54-6.64 1.64-8.988 2.5-5.582 6.13-8.672 18.75-16.051l12.97-7.582c6.83-3.949 11.87-7.738 15.86-11.68 6.83-6.879 9.37-14.41 9.37-24.179 0-11.879-4.33-21.45-13.01-28.09M2418.87 413.59c-8.13-6.32-18.6-9.02-34.81-9.02-10.43 0-23.24 1.989-30.08 3.789v24.34h3.6l7.22-8.289c1.41-1.64 3.25-3.238 5.04-4.531 5.2-3.789 9.03-4.84 17.27-4.84 17.15 0 26.87 8.481 26.87 23.59 0 2.703-.35 5.391-1.25 8.09-1.83 6.133-5.58 9.761-16.25 15.902l-17.61 10.27c-4.73 2.699-8.87 5.589-12.27 8.441-6.87 5.969-10.62 14.406-10.62 24.527 0 21.993 15.31 34.411 42.5 34.411 9.22 0 19.64-1.79 28.67-3.59l.9-.2v-22.691h-3.6l-7.03 6.832c-7.77 7.391-11.56 9.18-21.44 9.18-14.61 0-22.74-7.031-22.74-19.641 0-3.398.55-6.64 1.64-8.988 2.5-5.582 6.14-8.672 18.75-16.051l12.97-7.582c6.84-3.949 11.88-7.738 15.86-11.68 6.84-6.879 9.38-14.41 9.38-24.179 0-11.879-4.34-21.45-12.97-28.09M2472.38 428.359c0-11.019.71-13.32 5.24-15.859l4.49-2.5v-3.789h-32.97V410l4.69 2.5c4.49 2.539 5.23 4.84 5.23 15.859v88.121c0 10.981-.74 13.321-5.23 15.86l-4.69 2.5v3.789h29.73l58.2-89.719c2.7-4.14 3.59-6.488 5.59-12.269v79.839c0 10.981-.9 13.321-5.39 15.86l-4.54 2.5v3.789h33.01v-3.789l-4.53-2.5c-4.49-2.539-5.19-4.879-5.19-15.86V405.66H2545l-67.73 103.988c-2.89 4.301-3.79 6.442-4.89 11.723zM2699.1 412.5c4.53 2.539 5.24 4.879 5.24 15.859v103.243c-.9-6.481-1.45-8.981-3.6-14.922l-40.39-110.469h-12.23l-40.39 110.469c-2.14 5.941-2.69 8.441-3.59 14.922V428.359c0-10.98.9-13.32 5.39-15.859l4.53-2.5v-3.789h-32.81V410l4.69 2.5c4.49 2.539 5.23 4.879 5.23 15.859v88.121c0 10.981-.74 13.321-5.23 15.86l-4.69 2.539v3.75h37.11l36.05-99.098c1.64-4.691 2.15-6.832 3.05-12.621.55 5.59 1.29 7.93 2.89 12.43l36.06 99.289h35.5v-3.75l-4.53-2.539c-4.65-2.539-5.39-4.879-5.39-15.86v-88.121c0-10.98.74-13.32 5.39-15.859l4.53-2.5v-3.789h-37.5V410ZM2826.37 513.789l-7.78 9.18c-1.95 2.34-3.59 3.793-6.09 4.691-2.54.891-5.98 1.09-11.02 1.09h-23.59v-48.32h18.2c8.64 0 10.63.742 14.61 5.039l4.85 5.429h4.53v-30.816h-4.53l-4.85 5.227c-4.18 4.339-5.97 5.242-14.61 5.242h-18.2V428.91c0-11.371.9-14.07 5.94-16.211l6.33-2.699v-3.789h-40.55V410l4.69 2.5c4.49 2.539 5.19 4.84 5.19 15.859v88.121c0 10.981-.7 13.321-5.19 15.86l-4.69 2.5v3.789h81.25v-24.84zM2858.95 432.301c-3.21 0-6.33-.621-8.87-1.711v-36.801c2.38-.508 4.84-.82 7.22-.82 10.75 0 16.06 6.871 16.06 20.941 0 12.5-4.65 18.391-14.41 18.391m1.36-44.602c-3.75 0-6.68.742-10.23 2.461l-8.87-2.461v59.492c0 5.039-.43 6.207-2.73 7.219l-2.19.899v1.921l13.79 3.282v-28.403c4.49 4.571 9.14 6.68 14.61 6.68 11.29 0 17.97-8.828 17.97-23.707 0-16.992-8.48-27.383-22.35-27.383" style="fill:#3f3f3f;fill-opacity:1;fill-rule:nonzero;stroke:none" transform="matrix(.13333 0 0 -.13333 0 582.667)"/></svg>