<svg xmlns="http://www.w3.org/2000/svg" width="316.32" height="222.88" viewBox="0 0 237.24 167.16"><g data-name="Layer 1"><clipPath id="a"><path transform="matrix(1 0 0 -1 0 167.16)" d="M0 159.96h118.68v7.2H0Z"/></clipPath><g clip-path="url(#a)"><text xml:space="preserve" transform="matrix(1.00137 0 0 .99863 0 167.16)" font-size="6.563" font-family="TimesNewRomanPS" font-style="italic"><tspan y="-161.62" x="52.012">H</tspan></text></g><clipPath id="b"><path transform="matrix(1 0 0 -1 0 167.16)" d="M0 159.96h118.68v7.2H0Z"/></clipPath><g clip-path="url(#b)"><text xml:space="preserve" transform="matrix(1.00137 0 0 .99863 0 167.16)" font-size="6.563" font-family="TimesNewRomanPS" font-style="italic"><tspan y="-161.62" x="56.80196 59.56498 62.846475 65.33385">eart</tspan></text></g><clipPath id="c"><path transform="matrix(1 0 0 -1 0 167.16)" d="M0 159.96h118.68v7.2H0Z"/></clipPath><g clip-path="url(#c)"><text xml:space="preserve" transform="matrix(1.00137 0 0 .99863 0 167.16)" font-size="6.563" font-family="TimesNewRomanPS" font-style="italic"><tspan y="-161.62" x="66.391"> </tspan></text></g><clipPath id="d"><path transform="matrix(1 0 0 -1 0 167.16)" d="M118.68 159.96h118.56v7.2H118.68Z"/></clipPath><g clip-path="url(#d)"><text xml:space="preserve" transform="matrix(1.00137 0 0 .99863 0 167.16)" font-size="6.563" font-family="TimesNewRomanPS" font-style="italic"><tspan y="-161.62" x="163.332">I</tspan></text></g><clipPath id="e"><path transform="matrix(1 0 0 -1 0 167.16)" d="M118.68 159.96h118.56v7.2H118.68Z"/></clipPath><g clip-path="url(#e)"><text xml:space="preserve" transform="matrix(1.00137 0 0 .99863 0 167.16)" font-size="6.563" font-family="TimesNewRomanPS" font-style="italic"><tspan y="-161.62" x="165.24886 168.72068 171.8381 175.19179 177.59384 180.94754 184.30123 187.06426 189.61725">onosphere</tspan></text></g><clipPath id="f"><path transform="matrix(1 0 0 -1 0 167.16)" d="M118.68 159.96h118.56v7.2H118.68Z"/></clipPath><g clip-path="url(#f)"><text xml:space="preserve" transform="matrix(1.00137 0 0 .99863 0 167.16)" font-size="6.563" font-family="TimesNewRomanPS" font-style="italic"><tspan y="-161.62" x="192.099"> </tspan></text></g><text xml:space="preserve" transform="matrix(1.00139 0 0 .99862 0 167.16)" font-size="7.581" font-family="TimesNewRomanPS" font-style="italic"><tspan y="-89.403" x="115.652217 234.1661">  </tspan></text><clipPath id="g"><path transform="matrix(1 0 0 -1 0 167.16)" d="M0 76.32h118.68v7.32H0Z"/></clipPath><g clip-path="url(#g)"><text xml:space="preserve" transform="matrix(1.00137 0 0 .99863 0 167.16)" font-size="6.563" font-family="TimesNewRomanPS" font-style="italic"><tspan y="-77.988" x="51.651">S</tspan></text></g><clipPath id="h"><path transform="matrix(1 0 0 -1 0 167.16)" d="M0 76.32h118.68v7.32H0Z"/></clipPath><g clip-path="url(#h)"><text xml:space="preserve" transform="matrix(1.00137 0 0 .99863 0 167.16)" font-size="6.563" font-family="TimesNewRomanPS" font-style="italic"><tspan y="-77.988" x="55.24649 58.16046 60.8841 64.35593">eeds</tspan></text></g><clipPath id="i"><path transform="matrix(1 0 0 -1 0 167.16)" d="M0 76.32h118.68v7.32H0Z"/></clipPath><g clip-path="url(#i)"><text xml:space="preserve" transform="matrix(1.00137 0 0 .99863 0 167.16)" font-size="6.563" font-family="TimesNewRomanPS" font-style="italic"><tspan y="-77.988" x="66.745"> </tspan></text></g><clipPath id="j"><path transform="matrix(1 0 0 -1 0 167.16)" d="M118.68 76.32h118.56v7.32H118.68Z"/></clipPath><g clip-path="url(#j)"><text xml:space="preserve" transform="matrix(1.00137 0 0 .99863 0 167.16)" font-size="6.563" font-family="TimesNewRomanPS" font-style="italic"><tspan y="-77.988" x="170.526">G</tspan></text></g><clipPath id="k"><path transform="matrix(1 0 0 -1 0 167.16)" d="M118.68 76.32h118.56v7.32H118.68Z"/></clipPath><g clip-path="url(#k)"><text xml:space="preserve" transform="matrix(1.00137 0 0 .99863 0 167.16)" font-size="6.563" font-family="TimesNewRomanPS" font-style="italic"><tspan y="-77.988" x="175.1991 177.0236 180.24604 182.79903">lass</tspan></text></g><clipPath id="l"><path transform="matrix(1 0 0 -1 0 167.16)" d="M118.68 76.32h118.56v7.32H118.68Z"/></clipPath><g clip-path="url(#l)"><text xml:space="preserve" transform="matrix(1.00137 0 0 .99863 0 167.16)" font-size="6.563" font-family="TimesNewRomanPS" font-style="italic"><tspan y="-77.988" x="184.905"> </tspan></text></g><text xml:space="preserve" transform="matrix(1.00139 0 0 .99862 0 167.16)" font-size="7.581" font-family="TimesNewRomanPS" font-style="italic"><tspan y="-5.65" x="115.652217 234.1661">  </tspan></text><path d="M10.478 64.59h104.49V8.962H10.478Z" fill="#fff"/><path stroke-width=".223" stroke-linejoin="round" fill="none" stroke="#262626" d="M10.477 64.59h104.49"/><path d="M13.71 64.59h3.015V29.512H13.71ZM34.59 64.59h3.015V29.4H34.59ZM55.463 64.59h3.127V32.978h-3.127ZM76.455 64.59h3.015v-31.5h-3.015ZM97.327 64.59h3.016V28.733h-3.016Z" fill="#ffce00"/><path stroke-width=".223" stroke-miterlimit="10" fill="none" stroke="#000" d="M13.71 29.513h3.015V64.59H13.71Zm20.88-.113h3.015v35.19H34.59Zm20.873 3.578h3.127V64.59h-3.127Zm20.992.112h3.015v31.5h-3.015Zm20.873-4.357h3.015V64.59h-3.015Z"/><path d="M17.505 64.59h3.015V24.712h-3.015ZM38.385 64.59H41.4V24.157h-3.015ZM59.257 64.59h3.128V25.267h-3.128ZM80.25 64.59h3.015V22.035H80.25ZM101.122 64.59h3.015V23.933h-3.015Z" fill="#09c0b3"/><path stroke-width=".223" stroke-miterlimit="10" fill="none" stroke="#000" d="M17.505 24.713h3.015V64.59h-3.015Zm20.88-.555H41.4V64.59h-3.015Zm20.873 1.11h3.127V64.59h-3.127Zm20.992-3.233h3.015V64.59H80.25Zm20.873 1.898h3.015V64.59h-3.015Z"/><path d="M21.3 64.59h3.015V25.163H21.3ZM42.18 64.59h3.015V25.05H42.18ZM63.06 64.59h3.12V27.06h-3.12ZM84.045 64.59h3.015V26.385h-3.015ZM104.918 64.59h3.015V29.85h-3.015Z" fill="#1d7691"/><path stroke-width=".223" stroke-miterlimit="10" fill="none" stroke="#000" d="M21.3 25.163h3.015V64.59H21.3Zm20.88-.113h3.015v39.54H42.18Zm20.88 2.01h3.12v37.53h-3.12Zm20.985-.675h3.015V64.59h-3.015Zm20.873 3.465h3.015v34.74h-3.015Z"/><path d="M25.103 64.59h3.007V24.157h-3.007ZM45.975 64.59h3.015V22.928h-3.015ZM66.855 64.59h3.12V23.595h-3.12ZM87.84 64.59h3.015V20.467H87.84ZM108.72 64.59h3.008V21.135h-3.008Z" fill="#3d4750"/><path stroke-width=".223" stroke-miterlimit="10" fill="none" stroke="#000" d="M25.103 24.158h3.007V64.59h-3.007Zm20.872-1.23h3.015V64.59h-3.015Zm20.88.667h3.12V64.59h-3.12Zm20.985-3.127h3.015V64.59H87.84Zm20.88.667h3.008V64.59h-3.008Z"/><path stroke-width=".223" stroke-linecap="square" stroke-linejoin="round" fill="none" stroke="#262626" d="M10.477 64.59h104.49M10.478 8.963h104.49M20.97 64.59v-1.005m20.873 1.005v-1.005m20.88 1.005v-1.005m20.873 1.005v-1.005m20.88 1.005v-1.005M20.97 8.963v1.005m20.873-1.005v1.005m20.88-1.005v1.005m20.872-1.005v1.005m20.88-1.005v1.005"/><text fill="#4d4d4f" xml:space="preserve" transform="matrix(.99978 0 0 1.00022 0 167.16)" font-size="4.467" font-family="TimesNewRomanPS" font-style="italic"><tspan y="-96.703" x="17.077025 19.310524 20.427275 22.660777 37.964719 40.19822 41.31497 43.548475 58.96855 61.13058 62.24733 64.480838 79.85625 82.01827 83.21544 85.377468 101.70435 103.93786 104.94293">0.020.040.060.080.1</tspan></text><text fill="#4d4d4f" xml:space="preserve" transform="matrix(.9997 0 0 1.0003 0 167.16)" font-size="4.913" font-family="TimesNewRomanPS" font-style="italic"><tspan y="-90.591" x="51.725793 54.4577 56.914449 59.3712 61.552797 62.918748 64.14712 67.14927 69.54706 70.91302">Label Rate</tspan></text><path stroke-width=".223" stroke-linecap="square" stroke-linejoin="round" fill="none" stroke="#262626" d="M10.477 64.59V8.963m104.49 55.627V8.963M10.478 64.59h1.005m-1.005-13.965h1.005m-1.005-13.852h1.005m-1.005-13.958h1.005M10.477 8.963h1.005M114.969 64.59h-1.005m1.005-13.965h-1.005m1.005-13.852h-1.005m1.005-13.958h-1.005m1.005-13.852h-1.005"/><text fill="#4d4d4f" xml:space="preserve" transform="matrix(.99978 0 0 1.00022 0 167.16)" font-size="4.467" font-family="TimesNewRomanPS" font-style="italic"><tspan y="-101.022" x="6.392">0</tspan><tspan y="-114.941" x="3.0328475 5.2663476 6.271423">0.2</tspan><tspan y="-128.856" x="3.0328477 5.2663476 6.271423">0.4</tspan><tspan y="-142.775" x="3.0328477 5.2663476 6.271423">0.6</tspan></text><clipPath id="m"><path transform="matrix(1 0 0 -1 0 167.16)" d="M2.88 89.16H115.2v70.799H2.88Z"/></clipPath><g clip-path="url(#m)"><text fill="#4d4d4f" xml:space="preserve" transform="matrix(.99978 0 0 1.00022 0 167.16)" font-size="4.467" font-family="TimesNewRomanPS" font-style="italic"><tspan y="-156.691" x="3.0328794 5.2663795">0.</tspan></text></g><clipPath id="n"><path transform="matrix(1 0 0 -1 0 167.16)" d="M2.88 89.16H115.2v70.799H2.88Z"/></clipPath><g clip-path="url(#n)"><text fill="#4d4d4f" xml:space="preserve" transform="matrix(.99978 0 0 1.00022 0 167.16)" font-size="4.467" font-family="TimesNewRomanPS" font-style="italic"><tspan y="-156.691" x="6.271">8</tspan></text></g><path d="M129.038 64.59h104.61V8.962h-104.61Z" fill="#fff"/><clipPath id="o"><path transform="matrix(1 0 0 -1 0 167.16)" d="M121.44 89.16h112.441v70.799H121.44Z"/></clipPath><g clip-path="url(#o)"><path stroke-width=".223" stroke-linejoin="round" fill="none" stroke="#262626" d="M129.037 64.59h104.61"/></g><path d="M132.278 64.59h3.022V33.428h-3.022ZM153.18 64.59h3.015V33.645h-3.015ZM174.075 64.59h3.135V27.615h-3.135ZM195.09 64.59h3.015V32.197h-3.015ZM215.985 64.59h3.023V31.192h-3.023Z" fill="#ffce00"/><path stroke-width=".223" stroke-miterlimit="10" fill="none" stroke="#000" d="M132.278 33.428h3.022V64.59h-3.022Zm20.902.217h3.015V64.59h-3.015Zm20.895-6.03h3.135V64.59h-3.135Zm21.015 4.583h3.015V64.59h-3.015Zm20.895-1.005h3.023V64.59h-3.023Z"/><path d="M136.08 64.59h3.015V27.285h-3.015ZM156.975 64.59h3.022V19.8h-3.022ZM177.877 64.59h3.128V14.55h-3.128ZM198.885 64.59h3.023V15.217h-3.023ZM219.788 64.59h3.015V14.212h-3.015Z" fill="#09c0b3"/><path stroke-width=".223" stroke-miterlimit="10" fill="none" stroke="#000" d="M136.08 27.285h3.015V64.59h-3.015Zm20.895-7.485h3.023v44.79h-3.023Zm20.903-5.25h3.127v50.04h-3.127Zm21.007.668h3.023V64.59h-3.023Zm20.903-1.005h3.015V64.59h-3.015Z"/><path d="M139.882 64.59h3.016V26.385h-3.016ZM160.778 64.59h3.015V20.017h-3.015ZM181.68 64.59h3.128V21.248h-3.128ZM202.687 64.59h3.015v-42h-3.015ZM223.59 64.59h3.015V20.58h-3.015Z" fill="#1d7691"/><path stroke-width=".223" stroke-miterlimit="10" fill="none" stroke="#000" d="M139.883 26.385h3.015V64.59h-3.015Zm20.895-6.367h3.015V64.59h-3.015Zm20.902 1.23h3.128V64.59h-3.128Zm21.007 1.342h3.015v42h-3.015Zm20.903-2.01h3.015v44.01h-3.015Z"/><path d="M143.678 64.59h3.022V26.498h-3.022ZM164.58 64.59h3.015V18.345h-3.015ZM185.475 64.59h3.135V13.875h-3.135ZM206.49 64.59h3.015V11.64h-3.015ZM227.385 64.59h3.023V10.53h-3.023Z" fill="#3d4750"/><path stroke-width=".223" stroke-miterlimit="10" fill="none" stroke="#000" d="M143.678 26.498h3.022V64.59h-3.022Zm20.902-8.153h3.015V64.59h-3.015Zm20.895-4.47h3.135V64.59h-3.135Zm21.015-2.235h3.015v52.95h-3.015Zm20.895-1.11h3.023v54.06h-3.023Z"/><clipPath id="p"><path transform="matrix(1 0 0 -1 0 167.16)" d="M121.44 89.16h112.441v70.799H121.44Z"/></clipPath><g clip-path="url(#p)"><path stroke-width=".223" stroke-linecap="square" stroke-linejoin="round" fill="none" stroke="#262626" d="M129.037 64.59h104.61M129.037 8.963h104.61M139.545 64.59v-1.005m20.895 1.005v-1.005m20.903 1.005v-1.005m20.895 1.005v-1.005m20.901 1.005v-1.005M139.544 8.963v1.005m20.895-1.005v1.005m20.904-1.005v1.005m20.895-1.005v1.005m20.901-1.005v1.005"/></g><text fill="#4d4d4f" xml:space="preserve" transform="matrix(1.00022 0 0 .99978 0 167.16)" font-size="4.469" font-family="TimesNewRomanPS" font-style="italic"><tspan y="-96.746" x="135.53609 137.77059 138.88784 141.12233 156.53145 158.69446 159.89215 162.05515 177.40169 179.6362 180.75344 182.98793 198.27639 200.5109 201.62813 203.86263 220.23258 222.46709 223.46814">0.020.040.060.080.1</tspan></text><text fill="#4d4d4f" xml:space="preserve" transform="matrix(1.0002 0 0 .9998 0 167.16)" font-size="4.916" font-family="TimesNewRomanPS" font-style="italic"><tspan y="-90.638" x="170.20859 172.94188 175.39987 177.85788 180.13399 181.50064 182.6559 185.65958 188.11757 189.48423">Label Rate</tspan></text><clipPath id="q"><path transform="matrix(1 0 0 -1 0 167.16)" d="M121.44 89.16h112.441v70.799H121.44Z"/></clipPath><g clip-path="url(#q)"><path stroke-width=".223" stroke-linecap="square" stroke-linejoin="round" fill="none" stroke="#262626" d="M129.037 64.59V8.963m104.61 55.627V8.963M129.037 64.59h1.005m-1.005-13.965h1.005m-1.005-13.852h1.005m-1.005-13.958h1.005m-1.005-13.852h1.005M233.647 64.59h-1.005m1.005-13.965h-1.005m1.005-13.852h-1.005m1.005-13.958h-1.005m1.005-13.852h-1.005"/></g><text fill="#4d4d4f" xml:space="preserve" transform="matrix(1.00022 0 0 .99978 0 167.16)" font-size="4.469" font-family="TimesNewRomanPS" font-style="italic"><tspan y="-101.068" x="124.859">0</tspan><tspan y="-114.993" x="121.498088 123.73258 124.73811">0.2</tspan><tspan y="-128.914" x="121.498088 123.73258 124.73811">0.4</tspan><tspan y="-142.839" x="121.498088 123.73258 124.73811">0.6</tspan></text><clipPath id="r"><path transform="matrix(1 0 0 -1 0 167.16)" d="M121.44 89.16h112.441v70.799H121.44Z"/></clipPath><g clip-path="url(#r)"><text fill="#4d4d4f" xml:space="preserve" transform="matrix(1.00022 0 0 .99978 0 167.16)" font-size="4.469" font-family="TimesNewRomanPS" font-style="italic"><tspan y="-156.761" x="121.49822 123.73272">0.</tspan></text></g><clipPath id="s"><path transform="matrix(1 0 0 -1 0 167.16)" d="M121.44 89.16h112.441v70.799H121.44Z"/></clipPath><g clip-path="url(#s)"><text fill="#4d4d4f" xml:space="preserve" transform="matrix(1.00022 0 0 .99978 0 167.16)" font-size="4.469" font-family="TimesNewRomanPS" font-style="italic"><tspan y="-156.761" x="124.739">8</tspan></text></g><path d="M10.478 148.11h104.49V92.482H10.478Z" fill="#fff"/><path stroke-width=".223" stroke-linejoin="round" fill="none" stroke="#262626" d="M10.477 148.11h104.49"/><path d="M13.71 148.11h3.015v-20.22H13.71ZM34.59 148.11h3.015v-18.54H34.59ZM55.463 148.11h3.127v-15.975h-3.127ZM76.455 148.11h3.015v-22.785h-3.015ZM97.327 148.11h3.016v-14.97h-3.016Z" fill="#ffce00"/><path stroke-width=".223" stroke-miterlimit="10" fill="none" stroke="#000" d="M13.71 127.89h3.015v20.22H13.71Zm20.88 1.68h3.015v18.54H34.59Zm20.873 2.565h3.127v15.975h-3.127Zm20.992-6.81h3.015v22.785h-3.015Zm20.873 7.815h3.015v14.97h-3.015Z"/><path d="M17.505 148.11h3.015v-40.77h-3.015ZM38.385 148.11H41.4v-39.765h-3.015ZM59.257 148.11h3.128V99.518h-3.128ZM80.25 148.11h3.015v-46.245H80.25ZM101.122 148.11h3.015V98.85h-3.015Z" fill="#09c0b3"/><path stroke-width=".223" stroke-miterlimit="10" fill="none" stroke="#000" d="M17.505 107.34h3.015v40.77h-3.015Zm20.88 1.005H41.4v39.765h-3.015Zm20.873-8.827h3.127v48.592h-3.127Zm20.992 2.347h3.015v46.245H80.25Zm20.873-3.015h3.015v49.26h-3.015Z"/><path d="M21.3 148.11h3.015v-21.45H21.3ZM42.18 148.11h3.015V129.9H42.18ZM63.06 148.11h3.12v-25.8h-3.12ZM84.045 148.11h3.015v-27.143h-3.015ZM104.918 148.11h3.015v-23.235h-3.015Z" fill="#1d7691"/><path stroke-width=".223" stroke-miterlimit="10" fill="none" stroke="#000" d="M21.3 126.66h3.015v21.45H21.3Zm20.88 3.24h3.015v18.21H42.18Zm20.88-7.59h3.12v25.8h-3.12Zm20.985-1.342h3.015v27.142h-3.015Zm20.873 3.907h3.015v23.235h-3.015Z"/><path d="M25.103 148.11h3.007v-41.108h-3.007ZM45.975 148.11h3.015v-39.99h-3.015ZM66.855 148.11h3.12V98.962h-3.12ZM87.84 148.11h3.015v-46.8H87.84ZM108.72 148.11h3.008V97.957h-3.008Z" fill="#3d4750"/><path stroke-width=".223" stroke-miterlimit="10" fill="none" stroke="#000" d="M25.103 107.003h3.007v41.107h-3.007Zm20.872 1.117h3.015v39.99h-3.015Zm20.88-9.157h3.12v49.147h-3.12Zm20.985 2.347h3.015v46.8H87.84Zm20.88-3.352h3.008v50.152h-3.008Z"/><path stroke-width=".223" stroke-linecap="square" stroke-linejoin="round" fill="none" stroke="#262626" d="M10.477 148.11h104.49M10.478 92.483h104.49M20.97 148.11v-1.005m20.873 1.005v-1.005m20.88 1.005v-1.005m20.873 1.005v-1.005m20.88 1.005v-1.005M20.97 92.483v1.005m20.873-1.005v1.005m20.88-1.005v1.005m20.872-1.005v1.005m20.88-1.005v1.005"/><text fill="#4d4d4f" xml:space="preserve" transform="matrix(.99978 0 0 1.00022 0 167.16)" font-size="4.467" font-family="TimesNewRomanPS" font-style="italic"><tspan y="-13.201" x="17.077025 19.310524 20.427275 22.660777 37.964719 40.19822 41.31497 43.548475 58.96855 61.13058 62.24733 64.480838 79.85625 82.01827 83.21544 85.377468 101.70435 103.93786 104.94293">0.020.040.060.080.1</tspan></text><text fill="#4d4d4f" xml:space="preserve" transform="matrix(.9997 0 0 1.0003 0 167.16)" font-size="4.913" font-family="TimesNewRomanPS" font-style="italic"><tspan y="-7.092" x="51.725793 54.4577 56.914449 59.3712 61.552797 62.918748 64.14712 67.14927 69.54706 70.91302">Label Rate</tspan></text><path stroke-width=".223" stroke-linecap="square" stroke-linejoin="round" fill="none" stroke="#262626" d="M10.477 148.11V92.483m104.49 55.627V92.483M10.478 148.11h1.005m-1.005-11.167h1.005m-1.005-11.063h1.005m-1.005-11.167h1.005m-1.005-11.063h1.005m-1.005-11.167h1.005m103.486 55.627h-1.005m1.005-11.167h-1.005m1.005-11.063h-1.005m1.005-11.167h-1.005m1.005-11.063h-1.005m1.005-11.167h-1.005"/><text fill="#4d4d4f" xml:space="preserve" transform="matrix(.99978 0 0 1.00022 0 167.16)" font-size="4.467" font-family="TimesNewRomanPS" font-style="italic"><tspan y="-17.521" x="6.392">0</tspan><tspan y="-28.68" x="3.0328475 5.2663476 6.271423">0.2</tspan><tspan y="-39.834" x="3.0328477 5.2663476 6.271423">0.4</tspan><tspan y="-50.872" x="3.0328477 5.2663476 6.271423">0.6</tspan><tspan y="-62.031" x="3.0328477 5.2663476 6.271423">0.8</tspan></text><clipPath id="t"><path transform="matrix(1 0 0 -1 0 167.16)" d="M2.88 5.64H115.2v70.68H2.88Z"/></clipPath><g clip-path="url(#t)"><text fill="#4d4d4f" xml:space="preserve" transform="matrix(.99978 0 0 1.00022 0 167.16)" font-size="4.467" font-family="TimesNewRomanPS" font-style="italic"><tspan y="-73.189" x="6.392">1</tspan></text></g><path d="M129.038 148.11h104.61V92.482h-104.61Z" fill="#fff"/><clipPath id="u"><path transform="matrix(1 0 0 -1 0 167.16)" d="M121.44 5.64h112.441v70.68H121.44Z"/></clipPath><g clip-path="url(#u)"><path stroke-width=".223" stroke-linejoin="round" fill="none" stroke="#262626" d="M129.037 148.11h104.61"/></g><path d="M132.278 148.11h3.022v-19.995h-3.022ZM153.18 148.11h3.015v-19.545h-3.015ZM174.075 148.11h3.135v-17.985h-3.135ZM195.09 148.11h3.015v-20.445h-3.015ZM215.985 148.11h3.023v-19.77h-3.023Z" fill="#ffce00"/><path stroke-width=".223" stroke-miterlimit="10" fill="none" stroke="#000" d="M132.278 128.115h3.022v19.995h-3.022Zm20.902.45h3.015v19.545h-3.015Zm20.895 1.56h3.135v17.985h-3.135Zm21.015-2.46h3.015v20.445h-3.015Zm20.895.675h3.023v19.77h-3.023Z"/><path d="M136.08 148.11h3.015v-36.413h-3.015ZM156.975 148.11h3.022v-40.883h-3.022ZM177.877 148.11h3.128v-43.455h-3.128ZM198.885 148.11h3.023v-46.245h-3.023ZM219.788 148.11h3.015v-44.572h-3.015Z" fill="#09c0b3"/><path stroke-width=".223" stroke-miterlimit="10" fill="none" stroke="#000" d="M136.08 111.698h3.015v36.412h-3.015Zm20.895-4.47h3.023v40.882h-3.023Zm20.903-2.573h3.127v43.455h-3.127Zm21.007-2.79h3.023v46.245h-3.023Zm20.903 1.673h3.015v44.572h-3.015Z"/><path d="M139.882 148.11h3.016v-21h-3.016ZM160.778 148.11h3.015v-24.465h-3.015ZM181.68 148.11h3.128v-22.567h-3.128ZM202.687 148.11h3.015v-26.025h-3.015ZM223.59 148.11h3.015v-27.03h-3.015Z" fill="#1d7691"/><path stroke-width=".223" stroke-miterlimit="10" fill="none" stroke="#000" d="M139.883 127.11h3.015v21h-3.015Zm20.895-3.465h3.015v24.465h-3.015Zm20.902 1.898h3.128v22.567h-3.128Zm21.007-3.458h3.015v26.025h-3.015Zm20.903-1.005h3.015v27.03h-3.015Z"/><path d="M143.678 148.11h3.022v-36.413h-3.022ZM164.58 148.11h3.015v-43.56h-3.015ZM185.475 148.11h3.135v-47.363h-3.135ZM206.49 148.11h3.015V98.4h-3.015ZM227.385 148.11h3.023V97.508h-3.023Z" fill="#3d4750"/><path stroke-width=".223" stroke-miterlimit="10" fill="none" stroke="#000" d="M143.678 111.698h3.022v36.412h-3.022Zm20.902-7.148h3.015v43.56h-3.015Zm20.895-3.802h3.135v47.362h-3.135ZM206.49 98.4h3.015v49.71h-3.015Zm20.895-.892h3.023v50.602h-3.023Z"/><clipPath id="v"><path transform="matrix(1 0 0 -1 0 167.16)" d="M121.44 5.64h112.441v70.68H121.44Z"/></clipPath><g clip-path="url(#v)"><path stroke-width=".223" stroke-linecap="square" stroke-linejoin="round" fill="none" stroke="#262626" d="M129.037 148.11h104.61m-104.61-55.627h104.61m-94.102 55.627v-1.005m20.895 1.005v-1.005m20.903 1.005v-1.005m20.895 1.005v-1.005m20.901 1.005v-1.005m-83.595-54.622v1.005m20.895-1.005v1.005m20.904-1.005v1.005m20.895-1.005v1.005m20.901-1.005v1.005"/></g><text fill="#4d4d4f" xml:space="preserve" transform="matrix(1.00022 0 0 .99978 0 167.16)" font-size="4.469" font-family="TimesNewRomanPS" font-style="italic"><tspan y="-13.207" x="135.53609 137.77059 138.88784 141.12233 156.53145 158.69446 159.89215 162.05515 177.40169 179.6362 180.75344 182.98793 198.27639 200.5109 201.62813 203.86263 220.23258 222.46709 223.46814">0.020.040.060.080.1</tspan></text><text fill="#4d4d4f" xml:space="preserve" transform="matrix(1.0002 0 0 .9998 0 167.16)" font-size="4.916" font-family="TimesNewRomanPS" font-style="italic"><tspan y="-7.095" x="170.20859 172.94188 175.39987 177.85788 180.13399 181.50064 182.6559 185.65958 188.11757 189.48423">Label Rate</tspan></text><clipPath id="w"><path transform="matrix(1 0 0 -1 0 167.16)" d="M121.44 5.64h112.441v70.68H121.44Z"/></clipPath><g clip-path="url(#w)"><path stroke-width=".223" stroke-linecap="square" stroke-linejoin="round" fill="none" stroke="#262626" d="M129.037 148.11V92.483m104.61 55.627V92.483m-104.61 55.627h1.005m-1.005-11.167h1.005m-1.005-11.063h1.005m-1.005-11.167h1.005m-1.005-11.063h1.005m-1.005-11.167h1.005m103.605 55.627h-1.005m1.005-11.167h-1.005m1.005-11.063h-1.005m1.005-11.167h-1.005m1.005-11.063h-1.005m1.005-11.167h-1.005"/></g><text fill="#4d4d4f" xml:space="preserve" transform="matrix(1.00022 0 0 .99978 0 167.16)" font-size="4.469" font-family="TimesNewRomanPS" font-style="italic"><tspan y="-17.529" x="124.859">0</tspan><tspan y="-28.693" x="121.498088 123.73258 124.73811">0.1</tspan><tspan y="-39.852" x="121.498088 123.73258 124.73811">0.2</tspan><tspan y="-50.895" x="121.498088 123.73258 124.73811">0.3</tspan><tspan y="-62.058" x="121.498088 123.73258 124.73811">0.4</tspan></text><clipPath id="x"><path transform="matrix(1 0 0 -1 0 167.16)" d="M121.44 5.64h112.441v70.68H121.44Z"/></clipPath><g clip-path="url(#x)"><text fill="#4d4d4f" xml:space="preserve" transform="matrix(1.00022 0 0 .99978 0 167.16)" font-size="4.469" font-family="TimesNewRomanPS" font-style="italic"><tspan y="-73.221" x="121.49822 123.73272">0.</tspan></text></g><clipPath id="y"><path transform="matrix(1 0 0 -1 0 167.16)" d="M121.44 5.64h112.441v70.68H121.44Z"/></clipPath><g clip-path="url(#y)"><text fill="#4d4d4f" xml:space="preserve" transform="matrix(1.00022 0 0 .99978 0 167.16)" font-size="4.469" font-family="TimesNewRomanPS" font-style="italic"><tspan y="-73.221" x="124.739">5</tspan></text></g></g></svg>